<?xml version="1.0" encoding="UTF-8"?>
<svg width="180px" height="180px" viewBox="0 0 180 180" version="1.1" xmlns="http://www.w3.org/2000/svg" xmlns:xlink="http://www.w3.org/1999/xlink">
    <title>SVG /logoMark_outlinePrimary_transparent</title>
    <g id="logoMark_outlinePrimary_transparent" stroke="none" stroke-width="1" fill="none" fill-rule="evenodd">
        <g id="logoMark_outline" transform="translate(35.000000, 34.000000)" fill="#4E39F9">
            <path d="M100.831492,0 C104.227086,0 107.370323,1.82896445 108.962748,4.80213481 C110.488496,7.65000631 110.423743,11.0059517 108.793572,13.7914949 L108.738029,13.885172 L94.4500392,37.6759431 C92.8342656,40.366165 89.9174104,42.0452667 86.7997629,42.0810654 L86.6980308,42.0816494 L70.3821616,42.0815267 L77.1636023,57.534898 L77.1906375,57.5802035 L77.2323443,57.6531763 C78.8293599,60.5263317 78.7904469,63.9423189 77.134225,66.772679 L77.0784186,66.8668059 L62.7904285,90.657577 C61.1746754,93.3477647 58.2578395,95.0268998 55.1403684,95.0626992 L55.038642,95.0632833 L35.0128544,95.063163 L20.6166941,110.176915 L20.5894568,110.204988 C19.2347442,111.575748 17.4043575,112.340426 15.4959822,112.340426 C15.0189241,112.340426 14.5415572,112.292396 14.0693098,112.196573 C11.7414146,111.723529 9.80730582,110.133567 8.87631076,107.940679 L8.85004825,107.878079 L1.27402808,90.5672297 L1.23417559,90.500885 L1.1927822,90.4294182 C1.18590656,90.4172677 1.17891369,90.4047726 1.17161034,90.3915953 C-0.425437995,87.5186689 -0.386755959,84.102712 1.26925624,81.2722298 L1.32505563,81.1780988 L15.182933,58.103549 L4.97175843,34.8347012 L5.15887451,34.7398289 L5.15604276,34.7258421 C4.72398068,32.5854766 5.0717893,30.3533865 6.18139175,28.3984166 L6.24267091,28.2920589 L6.29931802,28.1964774 L20.5873938,4.40556373 C22.2033538,1.71550903 25.1203349,0.0363832947 28.2375972,0 L28.3393166,0 L100.831492,0 Z M25.8079356,94.8823094 L10.626797,94.8821162 L15.0856319,105.148774 L15.0965901,105.176041 C15.1705088,105.359968 15.2900653,105.460605 15.4680123,105.497019 C15.6267441,105.529616 15.7551668,105.496059 15.876631,105.385882 L15.8978626,105.365312 L25.8079356,94.8823094 Z M69.2060043,59.5859689 L23.3170717,59.5859689 C23.266394,59.5859689 23.215721,59.5876989 23.1651351,59.5911374 L23.1512363,59.5921645 L35.7336173,88.240368 L55.0363672,88.240368 C55.8298081,88.240368 56.5941427,87.817559 57.028754,87.1384421 L57.0632643,87.0828202 L71.3719217,63.2774511 C71.7988165,62.567349 71.8460175,61.7434498 71.5077776,61.0020277 C71.1178285,60.1470835 70.2126341,59.5859689 69.2060043,59.5859689 Z M18.5468836,65.4686601 L7.19051049,84.5211605 C6.73862603,85.2794842 6.71243534,86.1675563 7.11709127,86.9491048 L7.16001379,87.0285836 L7.18288362,87.0675086 L7.22872111,87.142123 L7.31954195,87.2765587 L7.42092928,87.4078585 L7.51793007,87.5181499 L7.53475767,87.5360203 L7.60035067,87.6021591 L7.65734964,87.6561495 C8.0145771,87.9789185 8.45617195,88.1758433 8.94322961,88.2264401 L9.05264219,88.235739 L9.11599939,88.2390361 L9.19627661,88.240368 L28.4646348,88.240368 L18.5468836,65.4686601 Z M15.5606671,42.1276596 L20.5482585,53.5135135 L20.6454187,53.4805421 C21.5067394,53.1936439 22.4072876,53.0381282 23.3177024,53.0239678 L23.454335,53.0229051 L67.9355952,53.0227808 L63.1630994,42.1278541 L15.5606671,42.1276596 Z M100.70475,6.64174813 L54.6520989,6.64174813 L67.2382824,35.2961472 L86.5340406,35.2961472 C87.3289348,35.2961472 88.0939488,34.8730547 88.5287839,34.1935487 L88.5633114,34.137895 L102.872911,10.3329849 C103.299611,9.62306138 103.346783,8.79977948 103.008933,8.05900557 C102.626896,7.22160512 101.750945,6.66578131 100.76894,6.64250832 L100.70475,6.64174813 Z M47.6021886,6.64174813 L28.413112,6.64174813 C27.623992,6.64174813 26.8629217,7.06381159 26.4299747,7.74226255 L26.3955959,7.79783066 L12.1236003,31.6031997 C11.6975151,32.3137757 11.6504254,33.138913 11.9882898,33.8812934 C12.3688497,34.7179093 13.2400852,35.2721818 14.216198,35.2953892 L14.2800023,35.2961472 L60.1552616,35.2961472 L47.6021886,6.64174813 Z" id="logo_fill"></path>
        </g>
    </g>
</svg>