<?xml version="1.0" encoding="UTF-8"?>
<svg width="24px" height="24px" viewBox="0 0 24 24" version="1.1" xmlns="http://www.w3.org/2000/svg" xmlns:xlink="http://www.w3.org/1999/xlink">
    <title>UI Icons/SVG /-fi-rr-time-forward</title>
    <g id="UI-Icons/-fi-rr-time-forward" stroke="none" stroke-width="1" fill="none" fill-rule="evenodd">
        <path d="M19.4988517,2 C19.9592999,2 20.3325668,2.37309604 20.3325668,2.83333333 L20.3325668,5.33333333 C20.3325668,6.71404521 19.212766,7.83333333 17.8314216,7.83333333 L15.3302764,7.83333333 C14.8698283,7.83333333 14.4965613,7.46023729 14.4965613,7 C14.4965613,6.53976271 14.8698283,6.16666667 15.3302764,6.16666667 L17.8314216,6.16666667 C17.8595338,6.1624863 17.8873733,6.1566427 17.9147931,6.14916667 C15.1033165,3.30796355 10.6734985,2.85234125 7.34207529,5.06172559 C4.01065207,7.27110994 2.7089253,11.527866 4.23522311,15.2213937 C5.76152092,18.9149214 9.68916568,21.0126924 13.609396,20.2281776 C17.5296263,19.4436627 20.346539,15.9961737 20.3325668,12 C20.3325668,11.5397627 20.7058338,11.1666667 21.1662819,11.1666667 C21.3873969,11.1666667 21.5994555,11.254464 21.7558075,11.4107443 C21.9121594,11.5670247 22,11.7789863 22,12 C22.0025895,16.7164215 18.7063162,20.7928 14.0921208,21.779376 C9.47792541,22.7659521 4.80169323,20.3942008 2.87367449,16.0894609 C0.945655758,11.784721 2.29061593,6.71865052 6.10028148,3.93577884 C9.90994703,1.15290715 15.1474085,1.41067235 18.6651367,4.55416667 L18.6651367,2.83333333 C18.6651367,2.37309604 19.0384036,2 19.4988517,2 Z M11.9954161,7 C12.4558642,7 12.8291312,7.37309604 12.8291312,7.83333333 L12.8291312,11.655 L15.0859979,13.9108333 C15.4019527,14.2378157 15.3974341,14.7575706 15.075842,15.0790155 C14.7542499,15.4004603 14.2342569,15.4049768 13.9071248,15.0891667 L11.4059795,12.5891667 C11.2496168,12.4329227 11.1617482,12.2209957 11.161701,12 L11.161701,7.83333333 C11.161701,7.37309604 11.534968,7 11.9954161,7 Z" id="Combined-Shape" fill="#95A1AC"></path>
    </g>
</svg>