<?xml version="1.0" encoding="UTF-8"?>
<svg width="24px" height="24px" viewBox="0 0 24 24" version="1.1" xmlns="http://www.w3.org/2000/svg" xmlns:xlink="http://www.w3.org/1999/xlink">
    <title>UI Icons/SVG /-fi-rr-stack</title>
    <g id="UI-Icons/-fi-rr-stack" stroke="none" stroke-width="1" fill="none" fill-rule="evenodd">
        <path d="M22.4866836,12.7475165 C22.7930388,12.5637034 23.1741859,12.5572916 23.4865504,12.7306965 C23.7989149,12.9041013 23.9950411,13.2309785 24.0011924,13.5881965 C24.0070596,13.9454145 23.8220388,14.2787034 23.5156836,14.4625165 L12.5156836,21.0625165 C12.1987511,21.2529296 11.8026161,21.2529296 11.4856836,21.0625165 L0.485683592,14.4625165 C0.0120994194,14.178366 -0.141466911,13.5641007 0.142683592,13.0905165 C0.426834096,12.6169324 1.04109942,12.463366 1.51468359,12.7475165 L11.9996836,19.0395165 L22.4846836,12.7475165 Z M13.5306836,2.42451653 L23.5146836,8.41551653 C23.8154234,8.5963522 23.9993672,8.92159491 23.9993672,9.27251653 C23.9993672,9.62343815 23.8154234,9.94868086 23.5146836,10.1295165 L13.5306836,16.1205165 C13.0682984,16.398317 12.5391028,16.5452197 11.9996836,16.5455165 C11.4602644,16.5452197 10.9310688,16.398317 10.4686836,16.1205165 L0.484683592,10.1295165 C0.183943762,9.94868086 0,9.62343815 0,9.27251653 C0,8.92159491 0.183943762,8.5963522 0.484683592,8.41551653 L10.4686836,2.42451653 C11.4108768,1.85849449 12.5884904,1.85849449 13.5306836,2.42451653 Z M11.4977509,4.13945691 L2.94268359,9.27251653 L11.4986818,14.4061351 C11.6124137,14.4744651 11.7384704,14.5186476 11.8680944,14.5365092 L11.9985832,14.5455168 C12.1754895,14.5455168 12.3490429,14.4972417 12.5016163,14.4055761 L21.0556836,9.27251653 L12.5007475,4.13893528 C12.1923876,3.95368824 11.8069796,3.95368824 11.4977509,4.13945691 Z" id="Path-2" fill="#95A1AC"></path>
    </g>
</svg>