<?xml version="1.0" encoding="UTF-8"?>
<svg width="24px" height="24px" viewBox="0 0 24 24" version="1.1" xmlns="http://www.w3.org/2000/svg" xmlns:xlink="http://www.w3.org/1999/xlink">
    <title>UI Icons/-fi-rr-eye-crossed</title>
    <g id="UI-Icons/-fi-rr-eye-crossed" stroke="none" stroke-width="1" fill="none" fill-rule="evenodd">
        <path d="M22.3279237,9.70054978 C21.5007036,8.3459669 20.4572514,7.13598329 19.2389848,6.11862681 C19.7309624,5.62664915 20.0999457,5.2576659 20.3459345,5.01167706 C20.6701048,4.68750676 21.1563603,4.2012513 21.8047009,3.5529107 C22.1519634,3.19336325 22.1469971,2.62184459 21.7935387,2.26838623 C21.4400803,1.91492786 20.8685617,1.90996152 20.5090142,2.25722406 L17.718798,5.05110564 C15.989131,4.02373923 14.0117223,3.48827686 12,3.5025127 C6.3270184,3.5025127 3.09421609,7.38590731 1.6720763,9.70054978 C0.775974567,11.1499203 0.775974567,12.9812602 1.6720763,14.4306307 C2.49929637,15.7852136 3.54274859,16.9951972 4.76101524,18.0125537 L2.19529912,20.5782698 C1.95709384,20.8083362 1.86156122,21.1490297 1.9454193,21.4694047 C2.02927739,21.7897796 2.27947591,22.0399782 2.59985086,22.1238362 C2.92022582,22.2076943 3.2609194,22.1121617 3.49098576,21.8739564 L6.28761633,19.0773259 C8.01513822,20.1045272 9.99019285,20.6409031 12,20.6286678 C17.6729816,20.6286678 20.9057839,16.7452732 22.3279237,14.4306307 C23.2240254,12.9812602 23.2240254,11.1499203 22.3279237,9.70054978 Z M3.23349782,13.4712361 C2.70111245,12.6097538 2.70111245,11.5214267 3.23349782,10.6599443 C4.45587829,8.67517966 7.21860475,5.33516707 12,5.33516707 C13.5213536,5.32664387 15.0213474,5.69330204 16.3672154,6.40268824 L14.5226487,8.24725486 C12.7088052,7.04302625 10.2975484,7.28411447 8.7580363,8.82362654 C7.21852422,10.3631386 6.977436,12.7743955 8.18166462,14.588239 L6.06494882,16.7049548 C4.94254279,15.7975337 3.98473721,14.7036515 3.23349782,13.4712361 Z M14.7489816,12.0655902 C14.7489816,13.5838108 13.5182206,14.8145718 12,14.8145718 C11.5917883,14.8129914 11.189232,14.7190094 10.8225196,14.5396736 L14.4740834,10.8881098 C14.6534191,11.2548222 14.7474012,11.6573786 14.7489816,12.0655902 L14.7489816,12.0655902 Z M9.25101845,12.0655902 C9.25101845,10.5473697 10.4817794,9.31660869 12,9.31660869 C12.4082117,9.31818909 12.810768,9.41217112 13.1774804,9.59150684 L9.5259166,13.2430707 C9.34658088,12.8763583 9.25259885,12.4738019 9.25101845,12.0655902 L9.25101845,12.0655902 Z M20.7665022,13.4712361 C19.5441217,15.4560008 16.7813953,18.7960134 12,18.7960134 C10.4786464,18.8045366 8.9786526,18.4378784 7.63278464,17.7284922 L9.47735126,15.8839256 C11.2911948,17.0881542 13.7024516,16.847066 15.2419637,15.3075539 C16.7814758,13.7680419 17.022564,11.356785 15.8183354,9.5429415 L17.9350512,7.42622571 C19.0574572,8.33364678 20.0152628,9.42752895 20.7665022,10.6599443 C21.2988875,11.5214267 21.2988875,12.6097538 20.7665022,13.4712361 L20.7665022,13.4712361 Z" id="Shape" fill="#95A1AC"></path>
    </g>
</svg>