<?xml version="1.0" encoding="UTF-8"?>
<svg width="24px" height="24px" viewBox="0 0 24 24" version="1.1" xmlns="http://www.w3.org/2000/svg" xmlns:xlink="http://www.w3.org/1999/xlink">
    <title>UI Icons /SVG /-googleMapsWorld</title>
    <g id="UI-Icons-/-googleMapsWorld" stroke="none" stroke-width="1" fill="none" fill-rule="evenodd">
        <path d="M12,1 C5.92486775,1 1,5.92486775 1,12 C1,18.0751322 5.92486775,23 12,23 C18.0751322,23 23,18.0751322 23,12 C22.9934322,5.92759029 18.0724097,1.00656778 12,1 Z M21.1666683,12 C21.1677563,13.7964 20.6377073,15.5530244 19.6431667,17.049 L18.5505,15.9554167 C18.4648201,15.8695199 18.4166924,15.7531564 18.4166667,15.6318333 L18.4166667,14.75 C18.4166667,13.2312169 17.1854497,12 15.6666667,12 L12.9166667,12 C12.4104056,12 12,11.5895944 12,11.0833333 L12,10.625 C12,10.3718695 12.2052028,10.1666667 12.4583333,10.1666667 C13.7239859,10.1666667 14.75,9.14065255 14.75,7.875 L14.75,6.95833333 C14.75,6.70520282 14.9552028,6.5 15.2083333,6.5 L16.4724167,6.5 C17.0796111,6.49827255 17.6616289,6.25716499 18.0921667,5.829 L18.43775,5.48341667 C20.1842358,7.20192358 21.1674443,9.54980037 21.1666683,12 Z M2.87825,12.88275 L5.77308333,15.7775833 C6.28764477,16.2954632 6.98820369,16.585657 7.71825,16.5833333 L10.1666667,16.5833333 C10.6729277,16.5833333 11.0833333,16.993739 11.0833333,17.5 L11.0833333,21.1199167 C6.7367746,20.6762338 3.30496686,17.2310071 2.87825,12.88275 L2.87825,12.88275 Z M12.9166667,21.1199167 L12.9166667,17.5 C12.9166667,15.9812169 11.6854497,14.75 10.1666667,14.75 L7.71825,14.75 C7.47483713,14.7501914 7.24134288,14.6535617 7.06925,14.4814167 L2.98275,10.3949167 C3.51562058,7.36575862 5.53526031,4.80723389 8.35789532,3.58556246 C11.1805303,2.36389103 14.4281878,2.64266424 17.0013333,4.3275 L16.796,4.53283333 C16.7097132,4.61792655 16.5936014,4.66595012 16.4724167,4.66666667 L15.2083333,4.66666667 C13.9426808,4.66666667 12.9166667,5.69268078 12.9166667,6.95833333 L12.9166667,7.875 C12.9166667,8.12813051 12.7114638,8.33333333 12.4583333,8.33333333 C11.1926808,8.33333333 10.1666667,9.35934745 10.1666667,10.625 L10.1666667,11.0833333 C10.1666667,12.6021164 11.3978836,13.8333333 12.9166667,13.8333333 L15.6666667,13.8333333 C16.1729277,13.8333333 16.5833333,14.243739 16.5833333,14.75 L16.5833333,15.6318333 C16.5850608,16.2390277 16.8261683,16.8210456 17.2543333,17.2515833 L18.4799167,18.4771667 C16.9870863,19.9751701 15.0209793,20.9091438 12.9166667,21.1199167 L12.9166667,21.1199167 Z" id="Shape" fill="#95A1AC"></path>
    </g>
</svg>