<?xml version="1.0" encoding="UTF-8"?>
<svg width="24px" height="24px" viewBox="0 0 24 24" version="1.1" xmlns="http://www.w3.org/2000/svg" xmlns:xlink="http://www.w3.org/1999/xlink">
    <title>UI Icons /-paymentBrainTree_v2</title>
    <g id="UI-Icons-/-paymentBrainTree" stroke="none" stroke-width="1" fill="none" fill-rule="evenodd">
        <path d="M12,0 C18.627417,0 24,5.372583 24,12 C24,18.627417 18.627417,24 12,24 C5.372583,24 0,18.627417 0,12 C0,5.372583 5.372583,0 12,0 Z M12.4688434,5 L6,5 L6,7.05191462 L7.61721085,7.05191462 L7.61721085,16.9482421 L6,16.9482421 L6,19 L12.8067026,19 C16.041281,19 18.0204838,17.5756948 18.0204838,15.0171482 C18.0204838,13.400094 16.83782,12.2174302 15.1723435,11.7585937 C16.3308745,11.3000705 17.2480775,10.3346019 17.2480775,8.76565666 C17.2480775,6.37588287 15.4378043,5 12.4688434,5 Z M12.4205778,12.844883 C14.6412653,12.844883 15.7756635,13.5691803 15.7756635,14.8963275 C15.7756635,16.2480775 14.7136637,16.9482421 12.5895074,16.9482421 L9.83789834,16.9482421 L9.83789834,12.844883 Z M12.2275154,7.05191462 C14.0377886,7.05191462 15.0032573,7.70350015 15.0032573,8.95871904 C15.0032573,10.1896484 14.0619214,10.8656802 12.2516482,10.8656802 L9.83789834,10.8656802 L9.83789834,7.05191462 Z" id="paymentBrainTree" fill="#95A1AC"></path>
    </g>
</svg>