<?xml version="1.0" encoding="UTF-8"?>
<svg width="24px" height="24px" viewBox="0 0 24 24" version="1.1" xmlns="http://www.w3.org/2000/svg" xmlns:xlink="http://www.w3.org/1999/xlink">
    <title>UI Icons /-paymentRevenueCat_v2</title>
    <g id="UI-Icons-/-paymentRevenueCat" stroke="none" stroke-width="1" fill="none" fill-rule="evenodd">
        <path d="M12,0 C18.627417,0 24,5.372583 24,12 C24,18.627417 18.627417,24 12,24 C5.372583,24 0,18.627417 0,12 C0,5.372583 5.372583,0 12,0 Z M19.2836156,6.02917772 C18.6066109,6.04142012 17.9663334,6.19893899 17.5309121,6.51356866 L17.5309121,7.82187309 L16.842073,7.82187309 C16.6849623,8.20954907 16.6004897,8.80126505 16.6004897,9.32401551 L17.5313201,9.32401551 L17.5076515,13.5802897 C17.5076515,14.0491736 17.4260355,14.6486431 17.157927,14.836768 C15.8818608,15.739849 13.2864721,15.3027953 10.9049174,15.0550908 C7.48357478,14.6992451 4.52866762,14.2315854 4.0377474,16.1246684 C3.77820853,17.1248725 4.1152826,17.7639257 4.44297082,18.1242604 C5.10202,18.8477862 6.26504795,19.0126505 7.18812487,19.0126505 C7.6219139,19.0121608 8.05529484,18.9782085 8.4841869,18.9110386 C8.70250969,18.8755764 8.89757192,18.7549072 9.02693328,18.5755152 C9.15629463,18.396164 9.20934503,18.1727811 9.17384207,17.9544991 C9.10038768,17.499898 8.66986329,17.1791471 8.21771067,17.2632116 C7.26892471,17.4403183 5.9296062,17.8345236 5.4158335,17.2701489 C5.24199143,17.0795756 5.27218935,16.6115079 5.4158335,16.4666395 C5.79779637,15.8953275 8.25647827,16.1136503 10.7318915,16.4478678 C13.4660273,16.7335238 16.2968782,17.1338502 17.9043052,16.3299327 C18.5335646,16.015303 19.2836156,15.2827994 19.2836156,13.5802897 L19.2836156,9.32564783 L20.8910426,9.32564783 C20.9636809,9.18037135 21,8.87675984 21,8.57437258 C21,8.27198531 20.9636809,7.96878188 20.8910426,7.82309733 L19.2836156,7.82309733 Z M7.37135279,5 C4.77025097,5 3.00040808,6.69802081 3,9.68598245 C3,12.4556213 4.51724138,14.117323 7.09426648,14.117323 C7.93654356,14.117323 8.68373801,13.9369516 9.20159151,13.6839421 C9.49051214,13.2983065 9.70720261,12.5278515 9.68312589,12.0822281 C9.040808,12.3451541 8.35441747,12.4836156 7.66027341,12.4903081 C6.03489084,12.4903081 4.87880024,11.6590492 4.87880024,9.56396654 C4.87880024,7.4688839 6.04672516,6.60171394 7.74474597,6.60171394 C8.4311365,6.60171394 8.96082432,6.74617425 9.53866558,7.02285248 C9.59906142,6.49316466 9.47867782,5.78269741 9.20159151,5.3852275 C8.75596817,5.122424 8.05774332,5 7.37135279,5 Z M13.0554989,7.60028566 C12.1642522,7.60028566 11.4178739,7.75698837 10.9840849,7.99775556 C10.7069986,8.39522546 10.6470108,9.14160375 10.7914711,9.61130382 C11.3795144,9.28018772 12.0434605,9.10646807 12.7184248,9.10691696 C13.5133646,9.10691696 13.8745154,9.37176087 13.8745154,10.1063048 L13.8745154,10.2748419 C13.5194858,10.166415 13.1497654,10.1135687 12.7788206,10.1181392 C11.3831871,10.1181392 10.3221791,10.6841461 10.3221791,12.153234 C10.3221791,13.5492757 11.2358702,14.0797796 12.2968782,14.0797796 C13.127729,14.0797796 13.693736,13.7431137 13.9585799,13.2126097 L14.0536625,13.2113854 C14.1728219,13.7773924 14.535605,14.0785554 15.2338298,14.0785554 C15.6431341,14.0785554 15.9802081,13.9700061 16.2332177,13.8014691 C16.4499082,13.464395 16.5943685,12.8743114 16.5462151,12.392777 C16.3911447,12.4902673 16.2111814,12.5405019 16.0283616,12.5372373 C15.7888186,12.5372373 15.6202816,12.4531728 15.6202816,12.0797796 L15.6202816,9.99653132 C15.6202816,8.21240563 14.7894307,7.60028566 13.0554989,7.60028566 Z M13.1154866,11.2860641 C13.3872679,11.282881 13.6570088,11.3318915 13.9104264,11.4305244 L13.9104264,12.2495409 C13.6696593,12.5486635 13.2840237,12.6710875 12.8987962,12.6710875 C12.4172618,12.6710875 12.0679453,12.5025505 12.0679453,12.0328504 C12.0679453,11.5749847 12.4172618,11.2860641 13.1154866,11.2860641 Z" id="paymentRevenueCat" fill="#95A1AC"></path>
    </g>
</svg>