<?xml version="1.0" encoding="UTF-8"?>
<svg width="24px" height="24px" viewBox="0 0 24 24" version="1.1" xmlns="http://www.w3.org/2000/svg" xmlns:xlink="http://www.w3.org/1999/xlink">
    <title>UI Icons /-paymentStripe_v2</title>
    <g id="UI-Icons-/-paymentStripe" stroke="none" stroke-width="1" fill="none" fill-rule="evenodd">
        <path d="M12,0 C18.627417,0 24,5.372583 24,12 C24,18.627417 18.627417,24 12,24 C5.372583,24 0,18.627417 0,12 C0,5.372583 5.372583,0 12,0 Z M12.2,5 C9.07692308,5 7,6.63076923 7,9.35384615 C7,13.6 12.8461538,12.9230769 12.8461538,14.7538462 C12.8461538,15.4615385 12.2307692,15.6923077 11.3692308,15.6923077 C10.0923077,15.6923077 8.46153846,15.1692308 7.16923077,14.4615385 L7.16923077,18.1230769 C8.6,18.7384615 10.0461538,19 11.3692308,19 C14.5692308,19 16.7692308,17.4153846 16.7692308,14.6615385 C16.7538462,10.0769231 10.8923077,10.8923077 10.8923077,9.16923077 C10.8923077,8.56923077 11.3846154,8.33846154 12.2,8.33846154 C13.3692308,8.33846154 14.8461538,8.69230769 16.0153846,9.32307692 L16.0153846,5.70769231 C14.7384615,5.2 13.4769231,5 12.2,5 Z" id="paymentStripe" fill="#95A1AC"></path>
    </g>
</svg>