<?xml version="1.0" encoding="UTF-8"?>
<svg width="24px" height="24px" viewBox="0 0 24 24" version="1.1" xmlns="http://www.w3.org/2000/svg" xmlns:xlink="http://www.w3.org/1999/xlink">
    <title>UI Icons/SVG /2 User</title>
    <g id="UI-Icons/2-User" stroke="none" stroke-width="1" fill="none" fill-rule="evenodd">
        <g id="2-User" transform="translate(2.0004, 2.4998)" fill="#95A1AC" fill-rule="nonzero">
            <path d="M14.0197,1.0696 C16.2546034,1.0696 18.0667,2.88207623 18.0667,5.1166 C18.0667,7.35181356 16.2549136,9.1636 14.0197,9.1636 C13.6054864,9.1636 13.2697,8.82781356 13.2697,8.4136 C13.2697,7.99938644 13.6054864,7.6636 14.0197,7.6636 C15.4264864,7.6636 16.5667,6.52338644 16.5667,5.1166 C16.5667,3.71043301 15.426106,2.5696 14.0197,2.5696 C13.6054864,2.5696 13.2697,2.23381356 13.2697,1.8196 C13.2697,1.40538644 13.6054864,1.0696 14.0197,1.0696 Z M7.591,11.9565 L7.91078316,11.9578739 C12.5552087,11.9982992 15.183,12.9363377 15.183,15.4985 C15.183,18.0063805 12.6645072,18.9738365 8.22314451,19.0548788 L7.591,19.0605 C2.74666284,19.0605 0,18.1396313 0,15.5185 C0,12.8939483 2.75759142,11.9565 7.591,11.9565 Z M7.591,13.4565 C3.57364929,13.4565 1.5,14.1614409 1.5,15.5185 C1.5,16.8669386 3.56867627,17.5605 7.591,17.5605 C11.6086379,17.5605 13.683,16.8554581 13.683,15.4985 C13.683,14.1507626 11.6124358,13.4565 7.591,13.4565 Z M15.5866934,11.2483288 C16.1672603,11.2878158 16.7444491,11.3710359 17.2991213,11.4940118 C18.4871961,11.7303406 19.3704642,12.1715073 19.7751809,13.0206448 C20.0740064,13.6493618 20.0740064,14.3808382 19.7752284,15.0094551 C19.3727867,15.8564992 18.498687,16.2944737 17.3038994,16.5402216 C16.8981791,16.6236716 16.5016283,16.3624198 16.4181784,15.9566994 C16.3347284,15.5509791 16.5959802,15.1544283 17.0017006,15.0709784 C17.7705424,14.9128404 18.2822579,14.6564414 18.4204191,14.3656448 C18.5255936,14.1443618 18.5255936,13.8858382 18.4207679,13.665288 C18.2816672,13.3734407 17.7672988,13.1165287 16.9906841,12.9618694 C16.4933134,12.8517573 15.9904771,12.7792575 15.4849066,12.7448712 C15.0716478,12.7167636 14.7594211,12.3589653 14.7875288,11.9457066 C14.8156364,11.5324478 15.1734347,11.2202211 15.5866934,11.2483288 Z M7.591,0 C4.74310594,0 2.457,2.28646687 2.457,5.134 C2.457,7.9823527 4.7429255,10.269 7.591,10.269 C10.4392136,10.269 12.726,7.98221356 12.726,5.134 C12.726,2.28660597 10.4390331,0 7.591,0 Z M7.591,1.5 C9.61065895,1.5 11.226,3.1150861 11.226,5.134 C11.226,7.15378644 9.61078644,8.769 7.591,8.769 C5.57145865,8.769 3.957,7.15403157 3.957,5.134 C3.957,3.11484099 5.57158608,1.5 7.591,1.5 Z"></path>
        </g>
    </g>
</svg>