<?xml version="1.0" encoding="UTF-8"?>
<svg width="24px" height="24px" viewBox="0 0 24 24" version="1.1" xmlns="http://www.w3.org/2000/svg" xmlns:xlink="http://www.w3.org/1999/xlink">
    <title>UI Icons/SVG /3 User</title>
    <g id="UI-Icons/3-User" stroke="none" stroke-width="1" fill="none" fill-rule="evenodd">
        <g id="3-User" transform="translate(0.9376, 3.4375)" fill="#95A1AC" fill-rule="nonzero">
            <path d="M16.6573123,0.941875 C18.6739608,0.941875 20.3094789,2.57667959 20.3094789,4.593125 C20.3094789,6.60957041 18.6739608,8.244375 16.6573123,8.244375 C16.2430987,8.244375 15.9073123,7.90858856 15.9073123,7.494375 C15.9073123,7.08016144 16.2430987,6.744375 16.6573123,6.744375 C17.8456801,6.744375 18.8094789,5.78099671 18.8094789,4.593125 C18.8094789,3.40525329 17.8456801,2.441875 16.6573123,2.441875 C16.2430987,2.441875 15.9073123,2.10608856 15.9073123,1.691875 C15.9073123,1.27766144 16.2430987,0.941875 16.6573123,0.941875 Z M11.0001956,10.52205 L11.3050409,10.5234619 C15.4279573,10.5621907 17.7708623,11.4031904 17.7708623,13.7296333 C17.7708623,16.0013304 15.531296,16.8711555 11.6021678,16.9488447 L11.0001956,16.9546333 C6.68760372,16.9546333 4.22952894,16.1303212 4.22952894,13.74705 C4.22952894,11.3611081 6.69746806,10.52205 11.0001956,10.52205 Z M11.0001956,12.02205 C7.5134869,12.02205 5.72952894,12.6285659 5.72952894,13.74705 C5.72952894,14.8577182 7.50951247,15.4546333 11.0001956,15.4546333 C14.4858512,15.4546333 16.2708623,14.847573 16.2708623,13.7296333 C16.2708623,12.6190898 14.4903213,12.02205 11.0001956,12.02205 Z M18.0431222,9.89902725 C18.5649103,9.93501264 19.07808,10.0091014 19.5582828,10.1174725 C20.6272789,10.3267548 21.4306739,10.7275669 21.80385,11.5095198 C22.0785266,12.0871902 22.0785266,12.7588947 21.8038035,13.3380779 C21.433261,14.1170732 20.6434465,14.5124155 19.5652518,14.7341288 C19.1595275,14.8175595 18.7629891,14.5562888 18.6795584,14.1505645 C18.5961278,13.7448402 18.8573985,13.3483018 19.2631228,13.2648712 C19.9154387,13.130733 20.3432393,12.916597 20.448886,12.6944959 C20.5301813,12.5231053 20.5301813,12.3239764 20.4496504,12.1546109 C20.3425812,11.9302585 19.9111899,11.7150383 19.2495191,11.5851996 C18.8240337,11.4894446 18.3864416,11.4262674 17.939919,11.3954727 C17.526687,11.366974 17.2147991,11.0088804 17.2432979,10.5956484 C17.2717966,10.1824164 17.6298902,9.87052849 18.0431222,9.89902725 Z M4.76644335,10.5956484 C4.79494211,11.0088804 4.48305419,11.366974 4.06982217,11.3954727 C3.73493023,11.4185687 3.40506169,11.4598799 3.07287744,11.5213145 L2.73964946,11.5895275 C2.09877175,11.7149951 1.66781009,11.93008 1.56082212,12.1549989 C1.47977441,12.3245756 1.47977441,12.522508 1.5618323,12.6946233 C1.66715518,12.9167778 2.09453167,13.1307801 2.74661846,13.2648712 C3.15234275,13.3483018 3.41361339,13.7448402 3.33018276,14.1505645 C3.24675213,14.5562888 2.85021372,14.8175595 2.44448942,14.7341288 C1.3658444,14.5123229 0.576070056,14.1168555 0.207144938,13.3386881 C-0.0689998657,12.759492 -0.0689998657,12.086591 0.206854371,11.5094221 C0.553866748,10.7798944 1.27681865,10.3819933 2.22444025,10.1654755 L2.43088572,10.1218004 C2.93166122,10.0091014 3.44483094,9.93501264 3.96661904,9.89902725 C4.37985105,9.87052849 4.73794459,10.1824164 4.76644335,10.5956484 Z M5.35242894,0.941875 C5.7666425,0.941875 6.10242894,1.27766144 6.10242894,1.691875 C6.10242894,2.10608856 5.7666425,2.441875 5.35242894,2.441875 C4.16406107,2.441875 3.20026227,3.40525329 3.20026227,4.593125 C3.20026227,5.78099671 4.16406107,6.744375 5.35242894,6.744375 C5.7666425,6.744375 6.10242894,7.08016144 6.10242894,7.494375 C6.10242894,7.90858856 5.7666425,8.244375 5.35242894,8.244375 C3.33578044,8.244375 1.70026227,6.60957041 1.70026227,4.593125 C1.70026227,2.57667959 3.33578044,0.941875 5.35242894,0.941875 Z M11.0001956,0 C8.44464871,0 6.3919456,2.0527031 6.3919456,4.60825 C6.3919456,7.16454481 8.44447998,9.21741667 11.0001956,9.21741667 C13.5559112,9.21741667 15.6084456,7.16454481 15.6084456,4.60825 C15.6084456,2.0527031 13.5557425,0 11.0001956,0 Z M11.0001956,1.5 C12.7273154,1.5 14.1084456,2.88113023 14.1084456,4.60825 C14.1084456,6.33617289 12.7274289,7.71741667 11.0001956,7.71741667 C9.27296231,7.71741667 7.8919456,6.33617289 7.8919456,4.60825 C7.8919456,2.88113023 9.27307583,1.5 11.0001956,1.5 Z"></path>
        </g>
    </g>
</svg>