<?xml version="1.0" encoding="UTF-8"?>
<svg width="24px" height="24px" viewBox="0 0 24 24" version="1.1" xmlns="http://www.w3.org/2000/svg" xmlns:xlink="http://www.w3.org/1999/xlink">
    <title>UI Icons/NavIcons/_nav_Action_Update</title>
    <g id="UI-Icons/NavIcons/_nav_Action_Update" stroke="none" stroke-width="1" fill="none" fill-rule="evenodd">
        <path d="M3.72653195,6.69691901 L13.4701314,11.9633512 C14.0832448,12.29474 14.1089075,13.1724423 13.5155006,13.5150459 L9.24279752,15.9825563 L12.2937942,21.2678172 C12.5399286,21.6941345 12.4019098,22.2346176 11.9855206,22.47502 C11.6038305,22.6953889 11.1207253,22.5871115 10.8532723,22.2391621 L10.7859155,22.1383914 L7.7350473,16.8530563 L3.46096541,19.3200345 C2.90052554,19.6436046 2.20283368,19.2503127 2.14352455,18.6187286 L2.13984291,18.5048963 L2.4507786,7.43347555 C2.46907,6.78217737 3.15334548,6.38711074 3.72653195,6.69691901 Z M16.4666658,1.14766661 L17.2004893,2.41868625 L14.8778092,3.75968625 C17.1174625,4.04516535 19.2283663,5.35964369 20.4641016,7.5 C22.5318957,11.0815245 21.3836832,15.6293334 17.904488,17.6380477 C17.6956521,17.7586191 17.4832145,17.8666664 17.2676631,17.9636061 L16.5258984,16.6788319 C16.7437491,16.5870175 16.9593683,16.4856238 17.1691938,16.3644809 C19.9662085,14.7496238 20.8892754,11.0935655 19.2269225,8.21428571 C18.1919225,6.42161313 16.3945849,5.35367605 14.5107353,5.18846706 L15.8970588,7.58964984 L14.6598797,8.30393556 L12.0128209,3.71909519 L16.4666658,1.14766661 Z M4.16308123,8.92546116 L3.93755425,16.9875318 L7.58302952,14.8818904 L7.59690153,14.8737088 L7.6113458,14.866799 L11.258808,12.760604 L4.16308123,8.92546116 Z" id="Combined-Shape" fill="#95A1AC"></path>
    </g>
</svg>