<?xml version="1.0" encoding="UTF-8"?>
<svg width="24px" height="24px" viewBox="0 0 24 24" version="1.1" xmlns="http://www.w3.org/2000/svg" xmlns:xlink="http://www.w3.org/1999/xlink">
    <title>UI Icons/NavIcons/_nav_RecommendationsZapFast_v2</title>
    <g id="UI-Icons/NavIcons/_nav_RecommendationsZapFast" stroke="none" stroke-width="1" fill="none" fill-rule="evenodd">
        <path d="M17.0257,2.05256928 C17.346,2.17918928 17.5389,2.50773928 17.4934,2.84918928 L16.6066,9.50005928 L20.7244,9.50005928 C20.9504,9.50002928 21.1685,9.5 21.3457,9.51619928 C21.5207,9.53219928 21.7985,9.57248928 22.0421,9.76049928 C22.3359,9.98729928 22.5138,10.3328993 22.5275,10.7036993 C22.539,11.0112993 22.4103,11.2606993 22.3216,11.4124993 C22.2318,11.5660993 22.1049,11.7434993 21.9736,11.9273993 L15.3603,21.1859993 C15.1601,21.4662993 14.7947,21.5741993 14.4743,21.4475993 C14.154,21.3208993 13.9611,20.9923993 14.0066,20.6508993 L14.8934,14.0000993 L10.7756,14.0000993 C10.5496,14.0000993 10.3315,14.0000993 10.1543,13.9838993 C9.9793,13.9678993 9.70147,13.9275993 9.45785,13.7395993 C9.16405,13.5127993 8.98621,13.1672993 8.97245,12.7963993 C8.96105,12.4888993 9.08972,12.2393993 9.17844,12.0876993 C9.26825,11.9340993 9.39507,11.7565993 9.52643,11.5726993 L16.1397,2.31412928 C16.3399,2.03382928 16.7053,1.92594928 17.0257,2.05256928 Z M15.6082,5.63896928 L10.7639,12.4209993 C10.7439,12.4488993 10.7252,12.4751993 10.7075,12.4999993 C10.738,12.4999993 10.7703,12.5000993 10.8046,12.5000993 L15.75,12.5000993 C15.9662,12.5000993 16.1719,12.5933993 16.3143,12.7559993 C16.4567,12.9186993 16.522,13.1348993 16.4934,13.3491993 L15.8918,17.8611993 L20.7361,11.0790993 C20.7561,11.0511993 20.7748,11.0248993 20.7925,11.0000993 C20.762,11.0000993 20.7297,11.0000993 20.6954,11.0000993 L15.75,11.0000993 C15.5338,11.0000993 15.3281,10.9067993 15.1857,10.7440993 C15.0433,10.5813993 14.978,10.3651993 15.0066,10.1508993 L15.6082,5.63896928 Z M3,6.25005928 C3,5.83584928 3.33579,5.50005928 3.75,5.50005928 L8.75,5.50005928 C9.16421,5.50005928 9.5,5.83584928 9.5,6.25005928 C9.5,6.66427928 9.16421,7.00005928 8.75,7.00005928 L3.75,7.00005928 C3.33579,7.00005928 3,6.66427928 3,6.25005928 Z M1,11.7500993 C1,11.3357993 1.33579,11.0000993 1.75,11.0000993 L6.25,11.0000993 C6.66421,11.0000993 7,11.3357993 7,11.7500993 C7,12.1642993 6.66421,12.5000993 6.25,12.5000993 L1.75,12.5000993 C1.33579,12.5000993 1,12.1642993 1,11.7500993 Z M2.5,17.2500993 C2.5,16.8357993 2.83579,16.5000993 3.25,16.5000993 L8.75,16.5000993 C9.16421,16.5000993 9.5,16.8357993 9.5,17.2500993 C9.5,17.6642993 9.16421,18.0000993 8.75,18.0000993 L3.25,18.0000993 C2.83579,18.0000993 2.5,17.6642993 2.5,17.2500993 Z" id="Shape" fill="#95A1AC"></path>
    </g>
</svg>