<?xml version="1.0" encoding="UTF-8"?>
<svg width="24px" height="24px" viewBox="0 0 24 24" version="1.1" xmlns="http://www.w3.org/2000/svg" xmlns:xlink="http://www.w3.org/1999/xlink">
    <title>UI Icons/NavIcons/SVG /_nav_Action_disabled</title>
    <g id="UI-Icons/NavIcons/_nav_Action_disabled" stroke="none" stroke-width="1" fill="none" fill-rule="evenodd">
        <path d="M15.5,18 C16.8807119,18 18,19.1192881 18,20.5 C18,21.8807119 16.8807119,23 15.5,23 C14.2391829,23 13.196359,22.0666598 13.0247579,20.8532088 C11.2003068,20.8993601 9.54616862,20.2915855 8.08501298,19.031911 C7.985614,18.9462183 7.89121648,18.8594015 7.80163478,18.7712929 L8.509739,18.0647366 C8.5818504,18.1356052 8.65787557,18.205466 8.73796971,18.2745158 C10.0286157,19.3871925 11.4699295,19.9124348 13.0851221,19.8517685 C13.3710181,18.7847964 14.3438595,18 15.5,18 Z M19.4260664,4.57672795 C19.6882715,4.83893308 19.7084411,5.2515198 19.4865752,5.53686056 L19.4260664,5.60538413 L6.33341058,18.6980399 C6.04935502,18.9820955 5.58880996,18.9820955 5.3047544,18.6980399 C5.04254926,18.4358348 5.02237964,18.023248 5.24424552,17.7379073 L5.3047544,17.6693837 L18.3974102,4.57672795 C18.6814657,4.29267238 19.1420108,4.29267238 19.4260664,4.57672795 Z M20.3360287,6.22184013 L21.4729151,6.83643811 C21.9779535,7.10941227 21.9990926,7.8323999 21.5102869,8.114612 L17.9913062,10.1470182 L20.5039335,14.5007842 C20.7066812,14.8519535 20.5929913,15.2971644 20.25,15.4951905 C19.9355913,15.6767145 19.5376442,15.5875234 19.3173357,15.3009079 L19.2618521,15.2179002 L16.7485598,10.8645182 L14.293,12.2808056 L18.303,8.27080562 L19.6513867,7.49315731 L19.281,7.29280562 L20.1975585,6.37687627 L20.2861581,6.28181977 L20.3360287,6.22184013 Z M3.5,3 C4.88071187,3 6,4.11928813 6,5.5 C6,6.24870602 5.67087685,6.92054121 5.14941712,7.37871901 C5.72535519,8.28447481 6.27651426,9.17449302 6.80258997,10.0486788 C7.27010956,10.8255612 7.39924332,11.5186437 7.38412247,12.8631425 L7.37206938,13.3993007 L7.349,14.0808056 L6.34311153,15.0880194 C6.34210895,15.0602087 6.34121736,15.0322695 6.34043522,15.0042004 L6.33625745,14.6155008 L6.34499363,14.1442225 L6.37223138,13.3774545 L6.38359148,12.8770516 C6.39711978,11.7096389 6.29346988,11.1420711 5.94577419,10.5643014 C5.41630595,9.68447827 4.86104714,8.78820727 4.27999838,7.87549626 C4.03408375,7.95652357 3.77211911,8 3.5,8 C2.11928813,8 1,6.88071187 1,5.5 C1,4.11928813 2.11928813,3 3.5,3 Z M13.4468426,2.49833221 L17.007,4.42280562 L15.942,5.48780562 L13.8064403,4.33404404 L13.711,7.71880562 L12.224,9.20580562 L12.3959692,3.10505421 C12.4110364,2.56856188 12.974693,2.24313457 13.4468426,2.49833221 Z" id="Combined-Shape" fill="#95A1AC"></path>
    </g>
</svg>