<?xml version="1.0" encoding="UTF-8"?>
<svg width="24px" height="24px" viewBox="0 0 24 24" version="1.1" xmlns="http://www.w3.org/2000/svg" xmlns:xlink="http://www.w3.org/1999/xlink">
    <title>UI Icons/NavIcons/_nav_backend_Update</title>
    <g id="UI-Icons/NavIcons/_nav_backend_Update" stroke="none" stroke-width="1" fill="none" fill-rule="evenodd">
        <path d="M17.4666658,1.14766661 L18.2004893,2.41868625 L15.8778092,3.75968625 C18.1174625,4.04516535 20.2283663,5.35964369 21.4641016,7.5 C22.4101247,9.13856002 22.6830071,10.9793725 22.3674987,12.686763 C22.3173616,12.9580825 22.2523664,13.2260329 22.1728533,13.489267 C22.126793,13.6417531 22.0684472,13.7812361 22.0007322,13.9082958 L22,14 C22,14.4730579 21.8357617,14.9077559 21.5611955,15.2501836 C21.8354417,15.5913976 22,16.0264815 22,16.5 L22,20.5 C22,21.6045695 21.1045695,22.5 20,22.5 L4,22.5 C2.8954305,22.5 2,21.6045695 2,20.5 L2,16.5 C2,16.0264815 2.16455829,15.5913976 2.43960684,15.2488164 C2.16423829,14.9077559 2,14.4730579 2,14 L2,10 C2,9.52694209 2.16423829,9.09224408 2.43880449,8.74981637 C2.16455829,8.40860242 2,7.97351853 2,7.5 L2,3.5 C2,2.3954305 2.8954305,1.5 4,1.5 L11.9995129,1.49981661 C11.4316941,1.92639372 10.9263937,2.43169414 10.4998166,2.99951292 L4,3 C3.75454011,3 3.55039163,3.17687516 3.50805567,3.41012437 L3.5,3.5 L3.5,7.5 C3.5,7.74545989 3.67687516,7.94960837 3.91012437,7.99194433 L4,8 L9.01644104,8.00058855 C9.05044964,8.5166625 9.13665838,9.01847584 9.26983665,9.50079797 L4,9.5 C3.75454011,9.5 3.55039163,9.67687516 3.50805567,9.91012437 L3.5,10 L3.5,14 C3.5,14.2454599 3.67687516,14.4496084 3.91012437,14.4919443 L4,14.5 L13.8033429,14.5005963 C14.6401912,14.8231645 15.5494445,15 16.5,15 C17.4505555,15 18.3598088,14.8231645 19.1966571,14.5005963 L20,14.5 C20.0458432,14.5 20.0902455,14.4938304 20.1324218,14.4822762 L20.0932428,14.5429003 C20.4668268,13.9706959 20.7359878,13.3364235 20.8927086,12.6718379 C21.2350045,11.2203068 21.0409202,9.62417107 20.2269225,8.21428571 C19.1919225,6.42161313 17.3945849,5.35367605 15.5107353,5.18846706 L16.8970588,7.58964984 L15.6598797,8.30393556 L13.0128209,3.71909519 L17.4666658,1.14766661 Z M20,16 L4,16 C3.75454011,16 3.55039163,16.1768752 3.50805567,16.4101244 L3.5,16.5 L3.5,20.5 C3.5,20.7454599 3.67687516,20.9496084 3.91012437,20.9919443 L4,21 L20,21 C20.2454599,21 20.4496084,20.8231248 20.4919443,20.5898756 L20.5,20.5 L20.5,16.5 C20.5,16.2545401 20.3231248,16.0503916 20.0898756,16.0080557 L20,16 Z M18,17.5 C18.5522847,17.5 19,17.9477153 19,18.5 C19,19.0522847 18.5522847,19.5 18,19.5 C17.4477153,19.5 17,19.0522847 17,18.5 C17,17.9477153 17.4477153,17.5 18,17.5 Z M15,17.5 C15.5522847,17.5 16,17.9477153 16,18.5 C16,19.0522847 15.5522847,19.5 15,19.5 C14.4477153,19.5 14,19.0522847 14,18.5 C14,17.9477153 14.4477153,17.5 15,17.5 Z" id="Combined-Shape" fill="#95A1AC"></path>
    </g>
</svg>