<?xml version="1.0" encoding="UTF-8"?>
<svg width="24px" height="24px" viewBox="0 0 24 24" version="1.1" xmlns="http://www.w3.org/2000/svg" xmlns:xlink="http://www.w3.org/1999/xlink">
    <title>UI Icons/NavIcons/SVG /_nav_Animate</title>
    <g id="UI-Icons/NavIcons/_nav_Animate" stroke="none" stroke-width="1" fill="none" fill-rule="evenodd">
        <path d="M9.5,1 C10.3284271,1 11,1.67157288 11,2.5 C11,3.1528467 10.5829319,3.70828193 10.000703,3.91439849 L10,21.5 C10,21.7761424 9.77614237,22 9.5,22 C9.25454011,22 9.05039163,21.8231248 9.00805567,21.5898756 L9,21.5 L9.00029246,3.91475048 C8.41754351,3.70891488 8,3.15321869 8,2.5 C8,1.67157288 8.67157288,1 9.5,1 Z M8,16 L8,18 L5,18 C4.44771525,18 4,17.5522847 4,17 C4,16.4477153 4.44771525,16 5,16 L8,16 Z M22,16 C22.5522847,16 23,16.4477153 23,17 C23,17.5522847 22.5522847,18 22,18 L11,18 L11,16 L22,16 Z M8,11 L8,13 L2,13 C1.44771525,13 1,12.5522847 1,12 C1,11.4477153 1.44771525,11 2,11 L8,11 Z M19,11 C19.5522847,11 20,11.4477153 20,12 C20,12.5522847 19.5522847,13 19,13 L11,13 L11,11 L19,11 Z M8,6 L8,8 L4,8 C3.44771525,8 3,7.55228475 3,7 C3,6.44771525 3.44771525,6 4,6 L8,6 Z M21,6 C21.5522847,6 22,6.44771525 22,7 C22,7.55228475 21.5522847,8 21,8 L11,8 L11,6 L21,6 Z" id="Combined-Shape" fill="#95A1AC"></path>
    </g>
</svg>