<?xml version="1.0" encoding="UTF-8"?>
<svg width="24px" height="24px" viewBox="0 0 24 24" version="1.1" xmlns="http://www.w3.org/2000/svg" xmlns:xlink="http://www.w3.org/1999/xlink">
    <title>UI Icons/NavIcons/SVG /_nav_Action</title>
    <g id="UI-Icons/NavIcons/_nav_Action" stroke="none" stroke-width="1" fill="none" fill-rule="evenodd">
        <path d="M4.5,2 C5.88071187,2 7,3.11928813 7,4.5 C7,5.24870602 6.67087685,5.92054121 6.14941712,6.37871901 C6.72535519,7.28447481 7.27651426,8.17449302 7.80258997,9.04867877 C8.27010956,9.82556115 8.39924332,10.5186437 8.38412247,11.8631425 L8.37206938,12.3993007 L8.33869635,13.4073147 L8.33622355,13.7240358 C8.34114998,15.3362169 8.69375175,16.3742868 9.73796971,17.2745158 C11.0286157,18.3871925 12.4699295,18.9124348 14.0851221,18.8517685 C14.3710181,17.7847964 15.3438595,17 16.5,17 C17.8807119,17 19,18.1192881 19,19.5 C19,20.8807119 17.8807119,22 16.5,22 C15.2391829,22 14.196359,21.0666598 14.0247579,19.8532088 C12.2003068,19.8993601 10.5461686,19.2915855 9.08501298,18.031911 C7.85201888,16.9689365 7.38860711,15.7329886 7.34043522,14.0042004 L7.33625745,13.6155008 L7.34499363,13.1442225 L7.37223138,12.3774545 L7.38359148,11.8770516 C7.39711978,10.7096389 7.29346988,10.1420711 6.94577419,9.56430142 C6.41630595,8.68447827 5.86104714,7.78820727 5.27999838,6.87549626 C5.03408375,6.95652357 4.77211911,7 4.5,7 C3.11928813,7 2,5.88071187 2,4.5 C2,3.11928813 3.11928813,2 4.5,2 Z M14.4468426,1.49833221 L22.4729151,5.83643811 C22.9779535,6.10941227 22.9990926,6.8323999 22.5102869,7.114612 L18.9913062,9.14701818 L21.5039335,13.5007842 C21.7066812,13.8519535 21.5929913,14.2971644 21.25,14.4951905 C20.9355913,14.6767145 20.5376442,14.5875234 20.3173357,14.3009079 L20.2618521,14.2179002 L17.7485598,9.86451818 L14.2280881,11.8963417 C13.7680356,12.1619531 13.195706,11.8411448 13.1434016,11.3240501 L13.1398429,11.2248898 L13.3959692,2.10505421 C13.4110364,1.56856188 13.974693,1.24313457 14.4468426,1.49833221 Z M14.8064403,3.33404404 L14.6206675,9.9749947 L17.6226968,8.24103218 L17.6349731,8.23378023 L17.6458923,8.22869288 L20.6513867,6.49315732 L14.8064403,3.33404404 Z" id="Combined-Shape" fill="#95A1AC"></path>
    </g>
</svg>