<?xml version="1.0" encoding="UTF-8"?>
<svg width="24px" height="24px" viewBox="0 0 24 24" version="1.1" xmlns="http://www.w3.org/2000/svg" xmlns:xlink="http://www.w3.org/1999/xlink">
    <title>UI Icons/NavIcons/SVG /_nav_elementRemove</title>
    <g id="UI-Icons/NavIcons/_nav_elementRemove" stroke="none" stroke-width="1" fill="none" fill-rule="evenodd">
        <path d="M11.856,2.096 L11.856,3.596 L6,3.596 C4.6745166,3.596 3.58996133,4.62753594 3.50531768,5.93162431 L3.5,6.096 L3.5,18.096 C3.5,19.4214834 4.53153594,20.5060387 5.83562431,20.5906823 L6,20.596 L18,20.596 C19.3254834,20.596 20.4100387,19.5644641 20.4946823,18.2603757 L20.5,18.096 L20.5,11.999 L22,11.999 L22,18.096 C22,20.305139 20.209139,22.096 18,22.096 L6,22.096 C3.790861,22.096 2,20.305139 2,18.096 L2,6.096 C2,3.886861 3.790861,2.096 6,2.096 L11.856,2.096 Z M8.35631139,13 C9.73702326,13 10.8563114,14.1192881 10.8563114,15.5 C10.8563114,16.8807119 9.73702326,18 8.35631139,18 C6.97559951,18 5.85631139,16.8807119 5.85631139,15.5 C5.85631139,14.1192881 6.97559951,13 8.35631139,13 Z M8.35631139,14.5 C7.80402664,14.5 7.35631139,14.9477153 7.35631139,15.5 C7.35631139,16.0522847 7.80402664,16.5 8.35631139,16.5 C8.90859614,16.5 9.35631139,16.0522847 9.35631139,15.5 C9.35631139,14.9477153 8.90859614,14.5 8.35631139,14.5 Z M8.35631139,6 C9.73702326,6 10.8563114,7.11928813 10.8563114,8.5 C10.8563114,9.88071187 9.73702326,11 8.35631139,11 C6.97559951,11 5.85631139,9.88071187 5.85631139,8.5 C5.85631139,7.11928813 6.97559951,6 8.35631139,6 Z M8.35631139,7.5 C7.80402664,7.5 7.35631139,7.94771525 7.35631139,8.5 C7.35631139,9.05228475 7.80402664,9.5 8.35631139,9.5 C8.90859614,9.5 9.35631139,9.05228475 9.35631139,8.5 C9.35631139,7.94771525 8.90859614,7.5 8.35631139,7.5 Z M15.0278843,3.17157288 C15.3390112,2.86044589 15.8481281,2.86044589 16.1592551,3.17157288 L17.8563114,4.86862915 L19.5533677,3.17157288 C19.8644946,2.86044589 20.3736115,2.86044589 20.6847385,3.17157288 C20.9958655,3.48269986 20.9958655,3.99181674 20.6847385,4.30294373 L18.9876822,6 L20.6847385,7.69705627 C20.9958655,8.00818326 20.9958655,8.51730014 20.6847385,8.82842712 C20.3736115,9.13955411 19.8644946,9.13955411 19.5533677,8.82842712 L17.8563114,7.13137085 L16.1592551,8.82842712 C15.8481281,9.13955411 15.3390112,9.13955411 15.0278843,8.82842712 C14.7167573,8.51730014 14.7167573,8.00818326 15.0278843,7.69705627 L16.7249405,6 L15.0278843,4.30294373 C14.7167573,3.99181674 14.7167573,3.48269986 15.0278843,3.17157288 Z" id="Combined-Shape" fill="#95A1AC"></path>
    </g>
</svg>