<?xml version="1.0" encoding="UTF-8"?>
<svg width="24px" height="24px" viewBox="0 0 24 24" version="1.1" xmlns="http://www.w3.org/2000/svg" xmlns:xlink="http://www.w3.org/1999/xlink">
    <title>UI Icons/SVG /_navSettings</title>
    <g id="UI-Icons/_navSettings" stroke="none" stroke-width="1" fill="none" fill-rule="evenodd">
        <path d="M12.6809504,1.00000024 C13.4646028,0.999684273 14.2150174,1.31015263 14.7612472,1.86067992 C15.3074771,2.41120729 15.6030045,3.15491 15.5792212,3.8489906 L15.5886055,4.0122295 C15.607678,4.17298248 15.6611021,4.32812494 15.7477176,4.47112827 C15.9164899,4.75310863 16.1928121,4.9577371 16.5157494,5.03988874 C16.8386866,5.12204039 17.1817142,5.07496764 17.5065791,4.88874277 L17.6876453,4.7971288 C19.0470887,4.170971 20.6775403,4.66856823 21.4315893,5.95078081 L22.1092945,7.10297382 C22.1271595,7.1333468 22.1429092,7.16473646 22.1564846,7.1969271 L22.2193653,7.32035774 C22.8255173,8.58784106 22.3942442,10.0955039 21.2426715,10.8614664 L20.9583046,11.0365425 C20.8096391,11.1380938 20.6856875,11.2707418 20.5924833,11.4301284 C20.4241463,11.7132147 20.3779432,12.0503705 20.4641057,12.366934 C20.5502682,12.6834974 20.7616862,12.9533461 21.082382,13.1350051 L21.2669046,13.2508417 C21.8243195,13.6328436 22.2269708,14.1958741 22.4026162,14.8412003 C22.6007857,15.5692805 22.494521,16.3447223 22.1019965,17.004684 L21.372947,18.1945947 L21.2630353,18.3624364 C20.4064342,19.5692738 18.7432772,19.9380076 17.4740525,19.2202177 L17.3236267,19.1442809 C17.1667105,19.0755297 16.9973797,19.0377549 16.8432455,19.0335207 C16.5079405,19.0319375 16.1859015,19.1617381 15.9488023,19.394034 C15.7117031,19.6263298 15.5792184,19.9418446 15.5800839,20.3087197 L15.571118,20.4984201 C15.4483824,21.9671991 14.1933803,23.1052629 12.6812868,23.1052629 L11.3159099,23.1052629 C9.71452878,23.1052629 8.41635285,21.8333868 8.41797546,20.314859 L8.4085912,20.1516201 C8.38951868,19.9908671 8.33609458,19.8357246 8.24509059,19.6852981 C8.08002391,19.4026057 7.806537,19.1962271 7.48541916,19.1120351 C7.16430131,19.027843 6.82216101,19.0728139 6.49098312,19.2603964 L6.29421173,19.3566739 C5.67192677,19.6308695 4.97000708,19.681522 4.31228808,19.4983784 C3.57022745,19.2917496 2.94280301,18.8039181 2.57666443,18.1563314 L1.87224205,16.9646325 L1.77848876,16.7880637 C1.13700154,15.4614255 1.63983109,13.8666224 2.91600676,13.1440285 L3.0323951,13.0726175 C3.37332391,12.8414313 3.57774835,12.4602705 3.57774835,12.0526318 C3.57774835,11.6093757 3.33638268,11.1997907 2.91416544,10.9600893 L2.74285312,10.8524044 C1.51106078,10.0131571 1.13470225,8.38369411 1.8977782,7.08663451 L2.6154078,5.93130467 C3.41352441,4.57415787 5.18224316,4.10597458 6.54259753,4.870314 L6.68985917,4.94722467 C6.83998343,5.01473258 7.00305215,5.05056491 7.16006606,5.05220483 C7.85240724,5.05227471 8.41646533,4.50757639 8.42695024,3.80936617 L8.43635626,3.59494212 C8.49304687,2.93107505 8.78707574,2.30719566 9.26774272,1.83400244 C9.81004276,1.30013449 10.5471299,1.00000024 11.3159099,1.00000024 Z M12.6812868,2.60013276 L11.3159099,2.60013276 C10.9816392,2.60013276 10.661156,2.73063021 10.4253697,2.96275036 C10.2163845,3.16848607 10.0885336,3.43976404 10.0661019,3.6930955 L10.0512536,4.03008034 C9.93690408,5.49938452 8.68387022,6.65248947 7.15150151,6.65229413 C6.75649661,6.64827493 6.36708644,6.56270687 5.96997799,6.3829142 L5.75736372,6.27304997 C5.15156635,5.9329585 4.3791055,6.13743039 4.02063333,6.74653536 L3.30299705,7.90187655 C2.97416547,8.46101268 3.13862383,9.17304336 3.64778817,9.52074694 L3.93594551,9.69953023 C4.72954024,10.2252521 5.21096825,11.1053618 5.21096825,12.0526318 C5.21096825,12.9860841 4.74298094,13.8586725 3.9340025,14.4064309 L3.76179665,14.5125059 C3.19496257,14.8337862 2.97621572,15.5275762 3.23966748,16.0739498 L3.30188209,16.1917327 L3.99736499,17.3671889 C4.1606819,17.6559079 4.43469992,17.8689608 4.75878354,17.9592028 C5.04602545,18.0391861 5.35260083,18.0170627 5.59177432,17.9125314 L5.71193551,17.8548939 C6.37526681,17.4756788 7.16572887,17.3717805 7.90762183,17.5662931 C8.64951478,17.7608057 9.28136383,18.2376115 9.65614821,18.8796716 C9.85776362,19.2124908 9.98534106,19.5829729 10.0347268,20.0088305 L10.0570034,20.3996341 C10.1257558,21.0212523 10.6631565,21.5051305 11.3159099,21.5051305 L12.6812868,21.5051305 C13.3414743,21.5051305 13.8898653,21.0078373 13.9413811,20.3986297 L13.9476334,20.2780682 C13.9439168,19.5225067 14.248625,18.7968383 14.7939414,18.2625694 C15.3392579,17.7283006 16.0799316,17.4297655 16.8690288,17.4336839 C17.2561944,17.443836 17.6372466,17.5288423 18.0267513,17.7005675 L18.3759853,17.8753324 C18.9241193,18.111069 19.5742981,17.9390515 19.9038419,17.4758344 L19.9839517,17.3531444 L20.6961644,16.1903002 C20.8645015,15.907214 20.9107046,15.5700581 20.8245421,15.2534947 C20.7481747,14.9729187 20.5730921,14.7280993 20.3607847,14.5816507 L20.0598448,14.395258 C19.4844236,14.0142158 19.0661856,13.4411195 18.8860316,12.7792283 C18.6878621,12.0511481 18.7941268,11.2757063 19.1782804,10.6297328 C19.3885733,10.2700162 19.6775799,9.96073296 20.0543842,9.7043024 L20.2320344,9.59467572 C20.797985,9.27035779 21.0165465,8.57662215 20.7549992,8.02818637 L20.6768584,7.88058579 L20.6628511,7.84960004 L20.0164877,6.74967218 C19.7107779,6.22983207 19.074623,6.00521689 18.5348292,6.18268763 L18.4121662,6.23082867 L18.2981556,6.28774498 C17.6369817,6.66934492 16.8480351,6.7776099 16.1052955,6.5886652 C15.3625559,6.3997205 14.7270284,5.92908515 14.3410485,5.28417802 C14.1394331,4.9513588 14.0118556,4.58087664 13.9624699,4.15501913 L13.9479605,3.87643306 C13.9577859,3.54125665 13.8287188,3.21645587 13.5901612,2.97602146 C13.3516037,2.73558705 13.0238715,2.60013276 12.6812868,2.60013276 Z M12.0035815,8.44043343 C14.0397952,8.44043343 15.6904726,10.0576697 15.6904726,12.0526318 C15.6904726,14.0475938 14.0397952,15.6648301 12.0035815,15.6648301 C9.96736771,15.6648301 8.31669031,14.0475938 8.31669031,12.0526318 C8.31669031,10.0576697 9.96736771,8.44043343 12.0035815,8.44043343 Z M12.0035815,10.0405659 C10.8693702,10.0405659 9.94991021,10.9413985 9.94991021,12.0526318 C9.94991021,13.163865 10.8693702,14.0646976 12.0035815,14.0646976 C13.1377928,14.0646976 14.0572527,13.163865 14.0572527,12.0526318 C14.0572527,10.9413985 13.1377928,10.0405659 12.0035815,10.0405659 Z" id="Setting" fill="#95A1AC"></path>
    </g>
</svg>