<?xml version="1.0" encoding="UTF-8"?>
<svg width="24px" height="24px" viewBox="0 0 24 24" version="1.1" xmlns="http://www.w3.org/2000/svg" xmlns:xlink="http://www.w3.org/1999/xlink">
    <title>UI Icons/NavIcons/_nav_elementAdd</title>
    <g id="UI-Icons/NavIcons/_nav_elementAdd" stroke="none" stroke-width="1" fill="none" fill-rule="evenodd">
        <path d="M11.856,2.096 L11.856,3.596 L6,3.596 C4.6745166,3.596 3.58996133,4.62753594 3.50531768,5.93162431 L3.5,6.096 L3.5,18.096 C3.5,19.4214834 4.53153594,20.5060387 5.83562431,20.5906823 L6,20.596 L18,20.596 C19.3254834,20.596 20.4100387,19.5644641 20.4946823,18.2603757 L20.5,18.096 L20.5,11.999 L22,11.999 L22,18.096 C22,20.305139 20.209139,22.096 18,22.096 L6,22.096 C3.790861,22.096 2,20.305139 2,18.096 L2,6.096 C2,3.886861 3.790861,2.096 6,2.096 L11.856,2.096 Z M8.35631139,13 C9.73702326,13 10.8563114,14.1192881 10.8563114,15.5 C10.8563114,16.8807119 9.73702326,18 8.35631139,18 C6.97559951,18 5.85631139,16.8807119 5.85631139,15.5 C5.85631139,14.1192881 6.97559951,13 8.35631139,13 Z M8.35631139,14.5 C7.80402664,14.5 7.35631139,14.9477153 7.35631139,15.5 C7.35631139,16.0522847 7.80402664,16.5 8.35631139,16.5 C8.90859614,16.5 9.35631139,16.0522847 9.35631139,15.5 C9.35631139,14.9477153 8.90859614,14.5 8.35631139,14.5 Z M8.35631139,6 C9.73702326,6 10.8563114,7.11928813 10.8563114,8.5 C10.8563114,9.88071187 9.73702326,11 8.35631139,11 C6.97559951,11 5.85631139,9.88071187 5.85631139,8.5 C5.85631139,7.11928813 6.97559951,6 8.35631139,6 Z M8.35631139,7.5 C7.80402664,7.5 7.35631139,7.94771525 7.35631139,8.5 C7.35631139,9.05228475 7.80402664,9.5 8.35631139,9.5 C8.90859614,9.5 9.35631139,9.05228475 9.35631139,8.5 C9.35631139,7.94771525 8.90859614,7.5 8.35631139,7.5 Z" id="Combined-Shape" fill="#95A1AC"></path>
        <path d="M21.0908314,5.98964508 L19.4933482,7.58712828 L19.4933482,7.58712828 L19.4933482,0.998113488 C19.4933482,0.445828738 19.0456329,-0.00188651242 18.4933482,-0.00188651242 L18.1887582,-0.00188651242 C17.6364734,-0.00188651242 17.1887582,0.445828738 17.1887582,0.998113488 L17.1887582,7.58712828 L17.1887582,7.58712828 L15.591275,5.98964508 C15.2007507,5.59912079 14.5675857,5.59912079 14.1770614,5.98964508 L13.9619299,6.20477663 C13.5714056,6.59530092 13.5714056,7.2284659 13.9619299,7.61899019 L17.6339464,11.2910067 C18.0244707,11.681531 18.6576357,11.681531 19.04816,11.2910067 L22.7201765,7.61899019 C23.1107008,7.2284659 23.1107008,6.59530092 22.7201765,6.20477663 L22.5050449,5.98964508 C22.1145206,5.59912079 21.4813557,5.59912079 21.0908314,5.98964508 Z" id="Path" fill="#95A1AC" transform="translate(18.3411, 5.9981) scale(1, -1) rotate(-45) translate(-18.3411, -5.9981)"></path>
    </g>
</svg>