<?xml version="1.0" encoding="UTF-8"?>
<svg width="24px" height="24px" viewBox="0 0 24 24" version="1.1" xmlns="http://www.w3.org/2000/svg" xmlns:xlink="http://www.w3.org/1999/xlink">
    <title>UI Icons/NavIcons/SVG /_nav_backend</title>
    <g id="UI-Icons/NavIcons/_nav_backend" stroke="none" stroke-width="1" fill="none" fill-rule="evenodd">
        <path d="M20,1.5 C21.1045695,1.5 22,2.3954305 22,3.5 L22,7.5 C22,7.97351853 21.8354417,8.40860242 21.5603932,8.75118365 C21.8357617,9.09224408 22,9.52694209 22,10 L22,14 C22,14.4730579 21.8357617,14.9077559 21.5611955,15.2501836 C21.8354417,15.5913976 22,16.0264815 22,16.5 L22,20.5 C22,21.6045695 21.1045695,22.5 20,22.5 L4,22.5 C2.8954305,22.5 2,21.6045695 2,20.5 L2,16.5 C2,16.0264815 2.16455829,15.5913976 2.43960684,15.2488164 C2.16423829,14.9077559 2,14.4730579 2,14 L2,10 C2,9.52694209 2.16423829,9.09224408 2.43880449,8.74981637 C2.16455829,8.40860242 2,7.97351853 2,7.5 L2,3.5 C2,2.3954305 2.8954305,1.5 4,1.5 L20,1.5 Z M20,16 L4,16 C3.75454011,16 3.55039163,16.1768752 3.50805567,16.4101244 L3.5,16.5 L3.5,20.5 C3.5,20.7454599 3.67687516,20.9496084 3.91012437,20.9919443 L4,21 L20,21 C20.2454599,21 20.4496084,20.8231248 20.4919443,20.5898756 L20.5,20.5 L20.5,16.5 C20.5,16.2545401 20.3231248,16.0503916 20.0898756,16.0080557 L20,16 Z M18,17.5 C18.5522847,17.5 19,17.9477153 19,18.5 C19,19.0522847 18.5522847,19.5 18,19.5 C17.4477153,19.5 17,19.0522847 17,18.5 C17,17.9477153 17.4477153,17.5 18,17.5 Z M15,17.5 C15.5522847,17.5 16,17.9477153 16,18.5 C16,19.0522847 15.5522847,19.5 15,19.5 C14.4477153,19.5 14,19.0522847 14,18.5 C14,17.9477153 14.4477153,17.5 15,17.5 Z M20,9.5 L4,9.5 C3.75454011,9.5 3.55039163,9.67687516 3.50805567,9.91012437 L3.5,10 L3.5,14 C3.5,14.2454599 3.67687516,14.4496084 3.91012437,14.4919443 L4,14.5 L20,14.5 C20.2454599,14.5 20.4496084,14.3231248 20.4919443,14.0898756 L20.5,14 L20.5,10 C20.5,9.75454011 20.3231248,9.55039163 20.0898756,9.50805567 L20,9.5 Z M18,11 C18.5522847,11 19,11.4477153 19,12 C19,12.5522847 18.5522847,13 18,13 C17.4477153,13 17,12.5522847 17,12 C17,11.4477153 17.4477153,11 18,11 Z M15,11 C15.5522847,11 16,11.4477153 16,12 C16,12.5522847 15.5522847,13 15,13 C14.4477153,13 14,12.5522847 14,12 C14,11.4477153 14.4477153,11 15,11 Z M20,3 L4,3 C3.75454011,3 3.55039163,3.17687516 3.50805567,3.41012437 L3.5,3.5 L3.5,7.5 C3.5,7.74545989 3.67687516,7.94960837 3.91012437,7.99194433 L4,8 L20,8 C20.2454599,8 20.4496084,7.82312484 20.4919443,7.58987563 L20.5,7.5 L20.5,3.5 C20.5,3.25454011 20.3231248,3.05039163 20.0898756,3.00805567 L20,3 Z M18,4.5 C18.5522847,4.5 19,4.94771525 19,5.5 C19,6.05228475 18.5522847,6.5 18,6.5 C17.4477153,6.5 17,6.05228475 17,5.5 C17,4.94771525 17.4477153,4.5 18,4.5 Z M15,4.5 C15.5522847,4.5 16,4.94771525 16,5.5 C16,6.05228475 15.5522847,6.5 15,6.5 C14.4477153,6.5 14,6.05228475 14,5.5 C14,4.94771525 14.4477153,4.5 15,4.5 Z" id="Combined-Shape" fill="#95A1AC"></path>
    </g>
</svg>