<?xml version="1.0" encoding="UTF-8"?>
<svg width="24px" height="24px" viewBox="0 0 24 24" version="1.1" xmlns="http://www.w3.org/2000/svg" xmlns:xlink="http://www.w3.org/1999/xlink">
    <title>UI Icons/NavIcons/SVG /_nav_widgetTree</title>
    <g id="UI-Icons/NavIcons/_nav_widgetTree" stroke="none" stroke-width="1" fill="none" fill-rule="evenodd">
        <path d="M6.35631139,16 C7.73702326,16 8.85631139,17.1192881 8.85631139,18.5 C8.85631139,19.8254834 7.82477545,20.9100387 6.52068707,20.9946823 L6.35631139,21 C4.97559951,21 3.85631139,19.8807119 3.85631139,18.5 C3.85631139,17.1745166 4.88784732,16.0899613 6.1919357,16.0053177 L6.35631139,16 Z M6.35631139,17.5 C5.80402664,17.5 5.35631139,17.9477153 5.35631139,18.5 C5.35631139,19.0522847 5.80402664,19.5 6.35631139,19.5 C6.90859614,19.5 7.35631139,19.0522847 7.35631139,18.5 C7.35631139,17.9477153 6.90859614,17.5 6.35631139,17.5 Z M20.7763114,17.5 C21.3727789,17.5 21.8563114,17.9477153 21.8563114,18.5 C21.8563114,19.0128358 21.439388,19.4355072 20.9022622,19.4932723 L20.7763114,19.5 L11.9363114,19.5 C11.3398439,19.5 10.8563114,19.0522847 10.8563114,18.5 C10.8563114,17.9871642 11.2732348,17.5644928 11.8103606,17.5067277 L11.9363114,17.5 L20.7763114,17.5 Z M6.35631139,9 C7.73702326,9 8.85631139,10.1192881 8.85631139,11.5 C8.85631139,12.8254834 7.82477545,13.9100387 6.52068707,13.9946823 L6.35631139,14 C4.97559951,14 3.85631139,12.8807119 3.85631139,11.5 C3.85631139,10.1745166 4.88784732,9.08996133 6.1919357,9.00531768 L6.35631139,9 Z M6.35631139,10.5 C5.80402664,10.5 5.35631139,10.9477153 5.35631139,11.5 C5.35631139,12.0522847 5.80402664,12.5 6.35631139,12.5 C6.90859614,12.5 7.35631139,12.0522847 7.35631139,11.5 C7.35631139,10.9477153 6.90859614,10.5 6.35631139,10.5 Z M20.7763114,10.5 C21.3727789,10.5 21.8563114,10.9477153 21.8563114,11.5 C21.8563114,12.0128358 21.439388,12.4355072 20.9022622,12.4932723 L20.7763114,12.5 L11.9363114,12.5 C11.3398439,12.5 10.8563114,12.0522847 10.8563114,11.5 C10.8563114,10.9871642 11.2732348,10.5644928 11.8103606,10.5067277 L11.9363114,10.5 L20.7763114,10.5 Z M4.35631139,2 C5.73702326,2 6.85631139,3.11928813 6.85631139,4.5 C6.85631139,5.8254834 5.82477545,6.91003867 4.52068707,6.99468232 L4.35631139,7 C2.97559951,7 1.85631139,5.88071187 1.85631139,4.5 C1.85631139,3.1745166 2.88784732,2.08996133 4.1919357,2.00531768 L4.35631139,2 Z M4.35631139,3.5 C3.80402664,3.5 3.35631139,3.94771525 3.35631139,4.5 C3.35631139,5.05228475 3.80402664,5.5 4.35631139,5.5 C4.90859614,5.5 5.35631139,5.05228475 5.35631139,4.5 C5.35631139,3.94771525 4.90859614,3.5 4.35631139,3.5 Z M9.89543431,3.49327227 L20.8563114,3.5 C21.4085961,3.5 21.8563114,3.94771525 21.8563114,4.5 C21.8563114,5.01283584 21.4702712,5.43550716 20.9729325,5.49327227 L20.8563114,5.5 L9.89543431,5.49327227 C9.34314956,5.49327227 8.89543431,5.04555702 8.89543431,4.49327227 C8.89543431,3.98043643 9.2814745,3.55776511 9.77881319,3.5 L9.89543431,3.49327227 Z" id="Combined-Shape" fill="#95A1AC"></path>
    </g>
</svg>