<?xml version="1.0" encoding="UTF-8"?>
<svg width="24px" height="24px" viewBox="0 0 24 24" version="1.1" xmlns="http://www.w3.org/2000/svg" xmlns:xlink="http://www.w3.org/1999/xlink">
    <title>UI Icons/NavIcons/SVG /_templates</title>
    <g id="UI-Icons/NavIcons/_templates" stroke="none" stroke-width="1" fill="none" fill-rule="evenodd">
        <path d="M11.856,2.0955414 L11.856,3.5875414 L6,3.5883758 C4.6745166,3.5883758 3.58996133,4.61498401 3.50531768,5.91284267 L3.5,6.07643312 L3.5,18.0191083 C3.5,19.3382598 4.53153594,20.417634 5.83562431,20.5018733 L6,20.5071656 L18,20.5071656 C19.3254834,20.5071656 20.4100387,19.4805574 20.4946823,18.1826987 L20.5,18.0191083 L20.5,11.9515414 L22,11.9515414 L22,18.0191083 C22,20.2176941 20.209139,22 18,22 L6,22 C3.790861,22 2,20.2176941 2,18.0191083 L2,6.07643312 C2,3.87784733 3.790861,2.0955414 6,2.0955414 L11.856,2.0955414 Z M8.35631139,12.9474522 C9.73702326,12.9474522 10.8563114,14.0613934 10.8563114,15.4355096 C10.8563114,16.8096257 9.73702326,17.9235669 8.35631139,17.9235669 C6.97559951,17.9235669 5.85631139,16.8096257 5.85631139,15.4355096 C5.85631139,14.0613934 6.97559951,12.9474522 8.35631139,12.9474522 Z M8.35631139,14.4402866 C7.80402664,14.4402866 7.35631139,14.8858631 7.35631139,15.4355096 C7.35631139,15.985156 7.80402664,16.4307325 8.35631139,16.4307325 C8.90859614,16.4307325 9.35631139,15.985156 9.35631139,15.4355096 C9.35631139,14.8858631 8.90859614,14.4402866 8.35631139,14.4402866 Z M8.35631139,5.98089172 C9.73702326,5.98089172 10.8563114,7.09483293 10.8563114,8.46894904 C10.8563114,9.84306516 9.73702326,10.9570064 8.35631139,10.9570064 C6.97559951,10.9570064 5.85631139,9.84306516 5.85631139,8.46894904 C5.85631139,7.09483293 6.97559951,5.98089172 8.35631139,5.98089172 Z M18,2 C20.209139,2 22,3.78230593 22,5.98089172 C22,8.17947751 20.209139,9.96178344 18,9.96178344 C15.790861,9.96178344 14,8.17947751 14,5.98089172 C14,3.78230593 15.790861,2 18,2 Z M8.35631139,7.47372611 C7.80402664,7.47372611 7.35631139,7.9193026 7.35631139,8.46894904 C7.35631139,9.01859549 7.80402664,9.46417197 8.35631139,9.46417197 C8.90859614,9.46417197 9.35631139,9.01859549 9.35631139,8.46894904 C9.35631139,7.9193026 8.90859614,7.47372611 8.35631139,7.47372611 Z" id="Combined-Shape-Copy" fill="#95A1AC"></path>
    </g>
</svg>