<?xml version="1.0" encoding="UTF-8"?>
<svg width="24px" height="24px" viewBox="0 0 24 24" version="1.1" xmlns="http://www.w3.org/2000/svg" xmlns:xlink="http://www.w3.org/1999/xlink">
    <title>UI Icons/ addCodeMagic_ai</title>
    <g id="UI-Icons/-addCodeMagic_ai" stroke="none" stroke-width="1" fill="none" fill-rule="evenodd">
        <path d="M17.8061219,14.9605411 C18.3130768,14.5692196 19.0394756,14.5993212 19.5126699,15.0508461 C19.7535795,15.2902058 19.8889987,15.6158137 19.8888795,15.9554171 C19.8894262,16.2954736 19.7539671,16.6216291 19.5126699,16.8612422 L14.5509055,21.8225885 C14.0462404,22.2930207 13.2596312,22.2791718 12.7718386,21.7912665 C12.2840459,21.3033612 12.2703786,20.5167488 12.7409274,20.0121924 L17.7010198,15.0508461 Z M2.71428571,2 C3.0649427,2 3.35658339,2.1607956 3.41706333,2.37284033 L3.42857143,2.45454545 L3.42857143,21.5454545 C3.42857143,21.7964931 3.10877482,22 2.71428571,22 C2.36362873,22 2.07198804,21.8392044 2.0115081,21.6271597 L2,21.5454545 L2,2.45454545 C2,2.20350693 2.31979661,2 2.71428571,2 Z M16.5803382,17.3574186 L13.3328278,20.6053469 C13.1599916,20.7786195 13.1599916,21.0590874 13.3328278,21.2323601 C13.508349,21.3996698 13.7843198,21.3996698 13.959841,21.2323601 L17.2094414,17.9865218 L16.5803382,17.3574186 Z M20.7248954,17.1826093 C20.9470764,17.1826093 21.1423636,17.3298329 21.2035155,17.5434325 L21.3882754,18.1913461 L22.036189,18.376106 C22.2497887,18.437258 22.3970122,18.6325451 22.3970122,18.8547261 C22.3970122,19.076907 22.2497887,19.2721942 22.036189,19.3333462 L21.3882754,19.518106 L21.2035155,20.1660197 C21.1423636,20.3796193 20.9470764,20.5268428 20.7248954,20.5268428 C20.5027145,20.5268428 20.3074273,20.3796193 20.2462754,20.1660197 L20.0615155,19.518106 L19.4136018,19.3333462 C19.2000022,19.2721942 19.0527787,19.076907 19.0527787,18.8547261 C19.0527787,18.6325451 19.2000022,18.437258 19.4136018,18.376106 L20.0615155,18.1913461 L20.2462754,17.5434325 C20.3074273,17.3298329 20.5027145,17.1826093 20.7248954,17.1826093 Z M10.0054395,17.0007269 C10.0332764,17.6992157 10.1672871,18.3709345 10.3920685,19.0007599 L7.12820513,19 C6.56175923,19 6.1025641,18.5522847 6.1025641,18 C6.1025641,17.4871642 6.49850276,17.0644928 7.00859372,17.0067277 L7.12820513,17 L10.0054395,17.0007269 Z M18.7356713,15.5021041 C18.5746176,15.4627464 18.4050475,15.516325 18.2958463,15.6410745 L17.1718206,16.7646821 L17.7988338,17.3937854 L18.9224415,16.2697597 C19.047609,16.1588865 19.1011876,15.9893163 19.0618299,15.8282626 C19.0224723,15.6672089 18.8967251,15.5414617 18.7356713,15.5021041 Z M15.7087898,12.1665038 C15.9309708,12.1665038 16.126258,12.3137274 16.1874099,12.527327 L16.3721698,13.1752406 L17.0200834,13.3600005 C17.2336831,13.4211525 17.3809066,13.6164396 17.3809066,13.8386206 C17.3809066,14.0608015 17.2336831,14.2560887 17.0200834,14.3172407 L16.3721698,14.5020005 L16.1874099,15.1499142 C16.126258,15.3635138 15.9309708,15.5107373 15.7087898,15.5107373 C15.4866089,15.5107373 15.2913217,15.3635138 15.2301698,15.1499142 L15.0454099,14.5020005 L14.3974962,14.3172407 C14.1838966,14.2560887 14.0366731,14.0608015 14.0366731,13.8386206 C14.0366731,13.6164396 14.1838966,13.4211525 14.3974962,13.3600005 L15.0454099,13.1752406 L15.2301698,12.527327 C15.2913217,12.3137274 15.4866089,12.1665038 15.7087898,12.1665038 Z M20.9338998,12.1690328 C21.1273078,12.1690328 21.2975512,12.2965698 21.3519086,12.4821821 L21.513678,13.049002 L22.080498,13.2107714 C22.2661102,13.2651288 22.3936472,13.4353722 22.3936472,13.6287802 C22.3936472,13.8221881 22.2661102,13.9924315 22.080498,14.046789 L21.513678,14.2085584 L21.3519086,14.7766323 C21.2975512,14.9622445 21.1273078,15.0897815 20.9338998,15.0897815 C20.7404919,15.0897815 20.5702485,14.9622445 20.515891,14.7766323 L20.3541216,14.2102304 L19.7864657,14.047625 C19.6008535,13.9932675 19.4733164,13.8230241 19.4733164,13.6296162 C19.4733164,13.4362083 19.6008535,13.2659648 19.7864657,13.2116074 L20.3532856,13.049838 L20.515891,12.4821821 C20.5702485,12.2965698 20.7404919,12.1690328 20.9338998,12.1690328 Z M11.1111578,13.0067277 C10.8154565,13.4601169 10.5701096,13.95084 10.3863541,14.4698613 L10.3636813,14.5343574 C10.2632639,14.3797824 10.2051282,14.1965106 10.2051282,14 C10.2051282,13.4871642 10.6010669,13.0644928 11.1111578,13.0067277 Z M20.974359,9 C21.5408049,9 22,9.44771525 22,10 C22,10.5128358 21.6040613,10.9355072 21.0939704,10.9932723 L20.974359,11 L20.8700714,10.9995499 C19.7615185,10.2760728 18.4308973,9.85454545 17,9.85454545 C15.5691027,9.85454545 14.2384815,10.2760728 13.1299286,10.9995499 L11.7435897,11 C11.1771438,11 10.7179487,10.5522847 10.7179487,10 C10.7179487,9.48716416 11.1138874,9.06449284 11.6239783,9.00672773 L11.7435897,9 L20.974359,9 Z M18.4102564,5 C18.9767023,5 19.4358974,5.44771525 19.4358974,6 C19.4358974,6.51283584 19.0399588,6.93550716 18.5298678,6.99327227 L18.4102564,7 L7.12820513,7 C6.56175923,7 6.1025641,6.55228475 6.1025641,6 C6.1025641,5.48716416 6.49850276,5.06449284 7.00859372,5.00672773 L7.12820513,5 L18.4102564,5 Z" id="Combined-Shape" fill="#FFFFFF"></path>
    </g>
</svg>