<?xml version="1.0" encoding="UTF-8"?>
<svg width="24px" height="24px" viewBox="0 0 24 24" version="1.1" xmlns="http://www.w3.org/2000/svg" xmlns:xlink="http://www.w3.org/1999/xlink">
    <title>UI Icons/SVG /addDocumentation</title>
    <g id="UI-Icons/addDocumentation" stroke="none" stroke-width="1" fill="none" fill-rule="evenodd">
        <path d="M13.8035517,1.99851643 C13.541952,2.45044591 13.3376156,2.939663 13.2004655,3.4562444 L8.1377,3.457 C5.6817,3.457 4.4367,4.72 4.4367,7.209 L4.4367,16.791 C4.4367,19.28 5.6817,20.543 8.1377,20.543 L15.8537,20.543 C18.3087,20.543 19.5457,19.28 19.5457,16.791 L19.5463453,10.9754598 C20.0517047,10.9298439 20.5389896,10.8215666 21.00037,10.6584578 L20.9997,16.791 C20.9997,20.048 19.0837,22 15.8627,22 L8.1377,22 C7.7257,22 7.3347,21.968 6.9667,21.905 L6.7487,21.864 C4.3777,21.371 2.9997,19.555 2.9997,16.791 L2.9997,7.209 C2.9997,6.875 3.0197,6.555 3.0597,6.249 C3.4087,3.564 5.2537,2 8.1377,2 L13.8035517,1.99851643 Z M15.5927,15.51 C15.9867,15.51 16.3057,15.834 16.3057,16.234 C16.3057,16.634 15.9867,16.958 15.5927,16.958 L8.3817,16.958 C7.9877,16.958 7.6677,16.634 7.6677,16.234 C7.6677,15.834 7.9877,15.51 8.3817,15.51 L15.5927,15.51 Z M16.2837,11.61 C16.4307,11.849 16.4307,12.151 16.2837,12.39 C16.1367,12.627 15.8677,12.759 15.5927,12.729 L8.3817,12.729 C8.0157,12.687 7.7387,12.374 7.7387,12 C7.7387,11.626 8.0157,11.312 8.3817,11.271 L15.5927,11.271 C15.8677,11.241 16.1367,11.373 16.2837,11.61 Z M11.1337,7.042 C11.4997,7.083 11.7767,7.397 11.7767,7.771 C11.7767,8.144 11.4997,8.458 11.1337,8.499 L8.3907,8.499 C8.0237,8.458 7.7467,8.144 7.7467,7.771 C7.7467,7.397 8.0237,7.083 8.3907,7.042 L11.1337,7.042 Z M19.2003,2 C19.5799958,2 19.893791,2.28215388 19.9434534,2.64822944 L19.9503,2.75 L19.95,4.449 L21.651,4.4498 C22.0652136,4.4498 22.401,4.78558644 22.401,5.1998 C22.401,5.57949577 22.1188461,5.89329096 21.7527706,5.94295338 L21.651,5.9498 L19.95,5.949 L19.9503,7.651 C19.9503,8.06521356 19.6145136,8.401 19.2003,8.401 C18.8206042,8.401 18.506809,8.11884612 18.4571466,7.75277056 L18.4503,7.651 L18.45,5.949 L16.75,5.9498 C16.3357864,5.9498 16,5.61401356 16,5.1998 C16,4.82010423 16.2821539,4.50630904 16.6482294,4.45664662 L16.75,4.4498 L18.45,4.449 L18.4503,2.75 C18.4503,2.33578644 18.7860864,2 19.2003,2 Z" id="Combined-Shape" fill="#95A1AC"></path>
    </g>
</svg>