<?xml version="1.0" encoding="UTF-8"?>
<svg width="24px" height="24px" viewBox="0 0 24 24" version="1.1" xmlns="http://www.w3.org/2000/svg" xmlns:xlink="http://www.w3.org/1999/xlink">
    <title>UI Icons/NavIcons/SVG /addPage</title>
    <g id="UI-Icons/NavIcons/addPage" stroke="none" stroke-width="1" fill="none" fill-rule="evenodd">
        <path d="M14,5.096 C16.209139,5.096 18,6.886861 18,9.096 L18,18.096 C18,20.305139 16.209139,22.096 14,22.096 L6,22.096 C3.790861,22.096 2,20.305139 2,18.096 L2,9.096 C2,6.886861 3.790861,5.096 6,5.096 L14,5.096 Z M14,6.596 L6,6.596 C4.6745166,6.596 3.58996133,7.62753594 3.50531768,8.93162431 L3.5,9.096 L3.5,18.096 C3.5,19.4214834 4.53153594,20.5060387 5.83562431,20.5906823 L6,20.596 L14,20.596 C15.3254834,20.596 16.4100387,19.5644641 16.4946823,18.2603757 L16.5,18.096 L16.5,9.096 C16.5,7.7705166 15.4684641,6.68596133 14.1643757,6.60131768 L14,6.596 Z M18,2.096 C20.209139,2.096 22,3.886861 22,6.096 L22,16.096 C22,18.0110144 20.6542639,19.6117154 18.8568908,20.0040037 L18.8571285,18.4451982 C19.7666368,18.1132689 20.4292671,17.2682157 20.4946823,16.2603757 L20.5,16.096 L20.5,6.096 C20.5,4.7705166 19.4684641,3.68596133 18.1643757,3.60131768 L18,3.596 L9,3.596 C8.49772529,3.596 8.03004623,3.7441216 7.63826124,3.99906639 L5.59313864,3.99891334 C6.29750516,2.85705451 7.55987568,2.096 9,2.096 L18,2.096 Z M9.85631139,10 C10.2963114,10 10.6563114,10.36 10.6563114,10.8 L10.6563114,13.2 L13.0563114,13.2 C13.4963114,13.2 13.8563114,13.56 13.8563114,14 C13.8563114,14.44 13.4963114,14.8 13.0563114,14.8 L10.6563114,14.8 L10.6563114,17.2 C10.6563114,17.64 10.2963114,18 9.85631139,18 C9.41631139,18 9.05631139,17.64 9.05631139,17.2 L9.05631139,14.8 L6.65631139,14.8 C6.21631139,14.8 5.85631139,14.44 5.85631139,14 C5.85631139,13.56 6.21631139,13.2 6.65631139,13.2 L9.05631139,13.2 L9.05631139,10.8 C9.05631139,10.36 9.41631139,10 9.85631139,10 Z" id="Combined-Shape-Copy-2" fill="#95A1AC"></path>
    </g>
</svg>