<?xml version="1.0" encoding="UTF-8"?>
<svg width="24px" height="24px" viewBox="0 0 24 24" version="1.1" xmlns="http://www.w3.org/2000/svg" xmlns:xlink="http://www.w3.org/1999/xlink">
    <title>UI Icons/ addschemaMagic_ai</title>
    <g id="UI-Icons/-addschemaMagic_ai" stroke="none" stroke-width="1" fill="none" fill-rule="evenodd">
        <path d="M17.8061219,14.9605413 C18.3130768,14.5692198 19.0394756,14.5993215 19.5126699,15.0508463 C19.7535795,15.290206 19.8889987,15.6158139 19.8888795,15.9554174 C19.8894262,16.2954739 19.7539671,16.6216294 19.5126699,16.8612424 L14.5509055,21.8225889 C14.0462404,22.2930211 13.2596312,22.2791721 12.7718386,21.7912668 C12.2840459,21.3033615 12.2703786,20.5167491 12.7409274,20.0121928 L17.7010198,15.0508463 Z M16.5803382,17.3574189 L13.3328278,20.6053472 C13.1599916,20.7786199 13.1599916,21.0590878 13.3328278,21.2323604 C13.508349,21.3996702 13.7843198,21.3996702 13.959841,21.2323604 L17.2094414,17.9865221 L16.5803382,17.3574189 Z M20.7248954,17.1826096 C20.9470764,17.1826096 21.1423636,17.3298331 21.2035155,17.5434328 L21.3882754,18.1913464 L22.036189,18.3761063 C22.2497887,18.4372583 22.3970122,18.6325454 22.3970122,18.8547264 C22.3970122,19.0769073 22.2497887,19.2721945 22.036189,19.3333465 L21.3882754,19.5181064 L21.2035155,20.16602 C21.1423636,20.3796196 20.9470764,20.5268432 20.7248954,20.5268432 C20.5027145,20.5268432 20.3074273,20.3796196 20.2462754,20.16602 L20.0615155,19.5181064 L19.4136018,19.3333465 C19.2000022,19.2721945 19.0527787,19.0769073 19.0527787,18.8547264 C19.0527787,18.6325454 19.2000022,18.4372583 19.4136018,18.3761063 L20.0615155,18.1913464 L20.2462754,17.5434328 C20.3074273,17.3298331 20.5027145,17.1826096 20.7248954,17.1826096 Z M17.4,2.5 C18.2836556,2.5 19,3.18223276 19,4.02380952 L19,7.07142857 C19,7.43229887 18.8682846,7.76387031 18.648142,8.02491594 C18.8686157,8.28458292 19,8.61577411 19,8.97619048 L19.0010432,10.2901893 C18.6140137,10.1749376 18.2129515,10.092259 17.801036,10.0453327 L17.8,8.97619048 C17.8,8.78917342 17.6584999,8.63363172 17.4719005,8.60137575 L17.4,8.5952381 L4.6,8.5952381 C4.40363209,8.5952381 4.2403133,8.73000012 4.20644454,8.9077138 L4.2,8.97619048 L4.2,12.0238095 C4.2,12.2108266 4.34150013,12.3663683 4.52809949,12.3986243 L4.6,12.4047619 L11.7196409,12.4044316 C11.4132113,12.7562256 11.1413613,13.1389308 10.9093872,13.5472511 L4.6,13.547619 C4.40363209,13.547619 4.2403133,13.6823811 4.20644454,13.8600948 L4.2,13.9285714 L4.2,16.9761905 C4.2,17.1632075 4.34150013,17.3187492 4.52809949,17.3510052 L4.6,17.3571429 L10.0089823,17.3577229 C10.0286301,17.7480544 10.080251,18.1299572 10.1612787,18.5008652 L4.6,18.5 C3.7163444,18.5 3,17.8177672 3,16.9761905 L3,13.9285714 C3,13.5681551 3.13138428,13.2369639 3.35102767,12.9760695 C3.13171543,12.7162513 3,12.3846798 3,12.0238095 L3,8.97619048 C3,8.61577411 3.13138428,8.28458292 3.35102767,8.02368852 C3.13171543,7.76387031 3,7.43229887 3,7.07142857 L3,4.02380952 C3,3.18223276 3.7163444,2.5 4.6,2.5 L17.4,2.5 Z M18.7356713,15.5021043 C18.5746176,15.4627466 18.4050475,15.5163253 18.2958463,15.6410747 L17.1718206,16.7646824 L17.7988338,17.3937856 L18.9224415,16.26976 C19.047609,16.1588868 19.1011876,15.9893166 19.0618299,15.8282629 C19.0224723,15.6672092 18.8967251,15.541462 18.7356713,15.5021043 Z M15.7087898,12.166504 C15.9309708,12.166504 16.126258,12.3137276 16.1874099,12.5273272 L16.3721698,13.1752408 L17.0200834,13.3600007 C17.2336831,13.4211527 17.3809066,13.6164399 17.3809066,13.8386208 C17.3809066,14.0608017 17.2336831,14.2560889 17.0200834,14.3172409 L16.3721698,14.5020008 L16.1874099,15.1499144 C16.126258,15.363514 15.9309708,15.5107376 15.7087898,15.5107376 C15.4866089,15.5107376 15.2913217,15.363514 15.2301698,15.1499144 L15.0454099,14.5020008 L14.3974962,14.3172409 C14.1838966,14.2560889 14.0366731,14.0608017 14.0366731,13.8386208 C14.0366731,13.6164399 14.1838966,13.4211527 14.3974962,13.3600007 L15.0454099,13.1752408 L15.2301698,12.5273272 C15.2913217,12.3137276 15.4866089,12.166504 15.7087898,12.166504 Z M20.9338998,12.169033 C21.1273078,12.169033 21.2975512,12.29657 21.3519086,12.4821822 L21.513678,13.0490022 L22.080498,13.2107716 C22.2661102,13.265129 22.3936472,13.4353725 22.3936472,13.6287804 C22.3936472,13.8221883 22.2661102,13.9924317 22.080498,14.0467892 L21.513678,14.2085586 L21.3519086,14.7766325 C21.2975512,14.9622448 21.1273078,15.0897818 20.9338998,15.0897818 C20.7404919,15.0897818 20.5702485,14.9622448 20.515891,14.7766325 L20.3541216,14.2102306 L19.7864657,14.0476252 C19.6008535,13.9932677 19.4733164,13.8230243 19.4733164,13.6296164 C19.4733164,13.4362085 19.6008535,13.2659651 19.7864657,13.2116076 L20.3532856,13.0498382 L20.515891,12.4821822 C20.5702485,12.29657 20.7404919,12.169033 20.9338998,12.169033 Z M13.4380952,9.73809524 C13.8588836,9.73809524 14.2,10.0792116 14.2,10.5 L14.1940161,10.585079 C13.7997295,10.757791 13.4244189,10.9657888 13.0720783,11.2050782 C12.7950664,11.0908449 12.6,10.8182026 12.6,10.5 C12.6,10.0792116 12.9411164,9.73809524 13.3619048,9.73809524 L13.4380952,9.73809524 Z M15.8380952,9.73809524 C16.0782713,9.73809524 16.2924913,9.84922602 16.4321396,10.0228718 C15.950417,10.0613614 15.4822936,10.1488412 15.0328865,10.2801795 C15.1259884,9.96698603 15.4172164,9.73809524 15.7619048,9.73809524 L15.8380952,9.73809524 Z M17.4,3.64285714 L4.6,3.64285714 C4.40363209,3.64285714 4.2403133,3.77761917 4.20644454,3.95533285 L4.2,4.02380952 L4.2,7.07142857 C4.2,7.25844563 4.34150013,7.41398733 4.52809949,7.4462433 L4.6,7.45238095 L17.4,7.45238095 C17.5963679,7.45238095 17.7596867,7.31761893 17.7935555,7.13990524 L17.8,7.07142857 L17.8,4.02380952 C17.8,3.83679247 17.6584999,3.68125077 17.4719005,3.6489948 L17.4,3.64285714 Z M15.8380952,4.78571429 C16.2588836,4.78571429 16.6,5.12683067 16.6,5.54761905 C16.6,5.96840743 16.2588836,6.30952381 15.8380952,6.30952381 L15.7619048,6.30952381 C15.3411164,6.30952381 15,5.96840743 15,5.54761905 C15,5.12683067 15.3411164,4.78571429 15.7619048,4.78571429 L15.8380952,4.78571429 Z M13.4380952,4.78571429 C13.8588836,4.78571429 14.2,5.12683067 14.2,5.54761905 C14.2,5.96840743 13.8588836,6.30952381 13.4380952,6.30952381 L13.3619048,6.30952381 C12.9411164,6.30952381 12.6,5.96840743 12.6,5.54761905 C12.6,5.12683067 12.9411164,4.78571429 13.3619048,4.78571429 L13.4380952,4.78571429 Z" id="Combined-Shape" fill="#FFFFFF"></path>
    </g>
</svg>