<?xml version="1.0" encoding="UTF-8"?>
<svg width="24px" height="24px" viewBox="0 0 24 24" version="1.1" xmlns="http://www.w3.org/2000/svg" xmlns:xlink="http://www.w3.org/1999/xlink">
    <title>UI Icons/ addThemeMagic_ai</title>
    <g id="UI-Icons/-addThemeMagic_ai" stroke="none" stroke-width="1" fill="none" fill-rule="evenodd">
        <path d="M17.8061219,14.9605413 C18.3130768,14.5692198 19.0394756,14.5993215 19.5126699,15.0508463 C19.7535795,15.290206 19.8889987,15.6158139 19.8888795,15.9554174 C19.8894262,16.2954739 19.7539671,16.6216294 19.5126699,16.8612424 L14.5509055,21.8225889 C14.0462404,22.2930211 13.2596312,22.2791721 12.7718386,21.7912668 C12.2840459,21.3033615 12.2703786,20.5167491 12.7409274,20.0121928 L17.7010198,15.0508463 Z M16.5803382,17.3574189 L13.3328278,20.6053472 C13.1599916,20.7786199 13.1599916,21.0590878 13.3328278,21.2323604 C13.508349,21.3996702 13.7843198,21.3996702 13.959841,21.2323604 L17.2094414,17.9865221 L16.5803382,17.3574189 Z M20.7248954,17.1826096 C20.9470764,17.1826096 21.1423636,17.3298331 21.2035155,17.5434328 L21.3882754,18.1913464 L22.036189,18.3761063 C22.2497887,18.4372583 22.3970122,18.6325454 22.3970122,18.8547264 C22.3970122,19.0769073 22.2497887,19.2721945 22.036189,19.3333465 L21.3882754,19.5181064 L21.2035155,20.16602 C21.1423636,20.3796196 20.9470764,20.5268432 20.7248954,20.5268432 C20.5027145,20.5268432 20.3074273,20.3796196 20.2462754,20.16602 L20.0615155,19.5181064 L19.4136018,19.3333465 C19.2000022,19.2721945 19.0527787,19.0769073 19.0527787,18.8547264 C19.0527787,18.6325454 19.2000022,18.4372583 19.4136018,18.3761063 L20.0615155,18.1913464 L20.2462754,17.5434328 C20.3074273,17.3298331 20.5027145,17.1826096 20.7248954,17.1826096 Z M10.6144884,1.86896102 C12.5378977,2.06625477 14.0724501,3.1159639 14.824786,4.74875382 C15.5525625,6.32812708 15.4166672,8.15984803 14.4701075,9.5288292 C13.7445823,10.5830409 12.647801,11.1820853 11.8467556,11.6196517 C11.5195018,11.7985259 11.1809916,11.9835399 11.0622879,12.1065415 C10.6427078,12.5438913 10.3864026,12.9344602 10.6975056,13.9506591 C10.4738036,14.4116873 10.2992755,14.9014344 10.1807509,15.4126471 C9.27683072,13.473326 9.32364223,12.4412402 10.3240736,11.3986172 C10.5516573,11.1612098 10.9067451,10.9673953 11.3561819,10.7218014 C12.1062665,10.312069 13.0401372,9.80184772 13.6277205,8.94799969 C14.3591809,7.89030876 14.4639677,6.41060568 13.8956225,5.17711047 C13.2984201,3.88139814 12.0647202,3.04658364 10.5103157,2.88715228 C8.73139739,2.70479883 6.88371283,3.35275733 5.43757426,4.66504725 C3.76037278,6.18711526 2.84369366,8.40196265 2.85699666,10.9019036 C2.87725815,14.774305 5.99527701,18.0920735 8.533285,18.0920735 C9.02153634,18.0920735 9.62143461,18.0244676 10.0413501,17.7494275 C10.077788,18.1085463 10.1434876,18.4610448 10.2344596,18.8032437 C9.81709489,18.9896681 9.26388478,19.1151766 8.53308034,19.1151766 C5.51821091,19.1151766 1.8574296,15.453986 1.8334842,10.9072248 C1.81895323,8.11277587 2.85454072,5.62675191 4.74970676,3.90698083 C6.41053531,2.39985311 8.54883928,1.65672699 10.6144884,1.86896102 Z M18.7356713,15.5021043 C18.5746176,15.4627466 18.4050475,15.5163253 18.2958463,15.6410747 L17.1718206,16.7646824 L17.7988338,17.3937856 L18.9224415,16.26976 C19.047609,16.1588868 19.1011876,15.9893166 19.0618299,15.8282629 C19.0224723,15.6672092 18.8967251,15.541462 18.7356713,15.5021043 Z M7.3018364,13.451168 C8.09715122,13.451168 8.74408641,14.0983078 8.74408641,14.893418 C8.74408641,15.6885281 8.09715122,16.335668 7.3018364,16.335668 C6.50652158,16.335668 5.85938173,15.6887328 5.85938173,14.893418 C5.85938173,14.0983078 6.50652158,13.451168 7.3018364,13.451168 Z M7.3018364,14.2415709 C6.9424507,14.2415709 6.64978467,14.5340323 6.64978467,14.8936227 C6.64978467,15.253213 6.94224604,15.5456744 7.3018364,15.5456744 C7.66142676,15.5456744 7.95388813,15.2530083 7.95388813,14.8936227 C7.95388813,14.5340323 7.66142676,14.2415709 7.3018364,14.2415709 Z M15.7087898,12.166504 C15.9309708,12.166504 16.126258,12.3137276 16.1874099,12.5273272 L16.3721698,13.1752408 L17.0200834,13.3600007 C17.2336831,13.4211527 17.3809066,13.6164399 17.3809066,13.8386208 C17.3809066,14.0608017 17.2336831,14.2560889 17.0200834,14.3172409 L16.3721698,14.5020008 L16.1874099,15.1499144 C16.126258,15.363514 15.9309708,15.5107376 15.7087898,15.5107376 C15.4866089,15.5107376 15.2913217,15.363514 15.2301698,15.1499144 L15.0454099,14.5020008 L14.3974962,14.3172409 C14.1838966,14.2560889 14.0366731,14.0608017 14.0366731,13.8386208 C14.0366731,13.6164399 14.1838966,13.4211527 14.3974962,13.3600007 L15.0454099,13.1752408 L15.2301698,12.5273272 C15.2913217,12.3137276 15.4866089,12.166504 15.7087898,12.166504 Z M20.9338998,12.169033 C21.1273078,12.169033 21.2975512,12.29657 21.3519086,12.4821822 L21.513678,13.0490022 L22.080498,13.2107716 C22.2661102,13.265129 22.3936472,13.4353725 22.3936472,13.6287804 C22.3936472,13.8221883 22.2661102,13.9924317 22.080498,14.0467892 L21.513678,14.2085586 L21.3519086,14.7766325 C21.2975512,14.9622448 21.1273078,15.0897818 20.9338998,15.0897818 C20.7404919,15.0897818 20.5702485,14.9622448 20.515891,14.7766325 L20.3541216,14.2102306 L19.7864657,14.0476252 C19.6008535,13.9932677 19.4733164,13.8230243 19.4733164,13.6296164 C19.4733164,13.4362085 19.6008535,13.2659651 19.7864657,13.2116076 L20.3532856,13.0498382 L20.515891,12.4821822 C20.5702485,12.29657 20.7404919,12.169033 20.9338998,12.169033 Z M6.36632841,8.72573724 C7.52635013,8.72573724 8.46983992,9.66943169 8.46983992,10.8292487 C8.46983992,11.9890658 7.52635013,12.9327603 6.36632841,12.9327603 C5.20651136,12.9327603 4.26302157,11.9890658 4.26302157,10.8292487 C4.26302157,9.66943169 5.20651136,8.72573724 6.36632841,8.72573724 Z M6.36632841,9.74904504 C5.77076328,9.74904504 5.28632937,10.2334789 5.28632937,10.8292487 C5.28632937,11.4248139 5.77076328,11.9094525 6.36632841,11.9094525 C6.96189355,11.9094525 7.44653212,11.4248139 7.44653212,10.8292487 C7.44653212,10.2336836 6.96189355,9.74904504 6.36632841,9.74904504 Z M19.1439635,6.34675128 C19.28518,6.34675128 19.4304897,6.3754039 19.5655663,6.43884898 C20.0403812,6.65374362 20.2777886,7.19200352 20.1161059,7.68728449 C20.0823769,7.7911345 19.7068116,8.93200318 19.2241435,10.3611478 C18.9042102,10.2535958 18.5737492,10.1688904 18.2348504,10.1085718 L18.3046208,9.90073736 L18.4391743,9.49873675 C18.8318655,8.32327787 19.1198592,7.44194352 19.1419169,7.3741523 C19.096973,7.44864552 18.4060437,8.60897837 17.5805088,10.0243465 C17.3896164,10.0080346 17.1957465,10 17,10 L16.7270106,10.0052253 L16.4573333,10.0203333 L16.5469299,9.86334804 C17.42689,8.31419085 18.2090013,6.93852639 18.2639188,6.84612548 C18.4542541,6.52685345 18.7939923,6.34675128 19.1439635,6.34675128 Z M10.1202307,4.27864622 C11.5469265,4.27864622 12.7075622,5.43928192 12.7075622,6.86597765 C12.7075622,8.29267338 11.5469265,9.45330908 10.1202307,9.45330908 C8.693535,9.45330908 7.5328993,8.29267338 7.5328993,6.86597765 C7.5328993,5.43928192 8.693535,4.27864622 10.1202307,4.27864622 Z M10.1204354,5.30195402 C9.25799158,5.30195402 8.55641176,6.0037385 8.55641176,6.86597765 C8.55641176,7.72842146 9.25799158,8.43000129 10.1204354,8.43000129 C10.9828792,8.43000129 11.6842544,7.72842146 11.684459,6.86597765 C11.684459,6.00353384 10.9828792,5.30195402 10.1204354,5.30195402 Z" id="Combined-Shape" fill="#FFFFFF"></path>
    </g>
</svg>