<?xml version="1.0" encoding="UTF-8"?>
<svg width="24px" height="24px" viewBox="0 0 24 24" version="1.1" xmlns="http://www.w3.org/2000/svg" xmlns:xlink="http://www.w3.org/1999/xlink">
    <title>UI Icons /SVG / addWidgetsMagic</title>
    <g id="UI-Icons-/-addWidgetsMagic" stroke="none" stroke-width="1" fill="none" fill-rule="evenodd">
        <path d="M19.9505622,2 C20.5550808,2 21.1146722,2.3256111 21.3981721,2.85492551 C21.6698014,3.36193294 21.6582735,3.95939292 21.3680536,4.45530401 L21.3581654,4.47198138 L18.8144702,8.70745957 C18.7715564,8.77890998 18.7234874,8.8463541 18.6709136,8.90941825 C18.2751191,8.66141657 17.8537493,8.4518522 17.4113088,8.28529684 C17.5466978,8.28378378 17.6828935,8.20846049 17.7603073,8.08748784 L17.7664542,8.0775798 L20.3139966,3.83958443 C20.3899621,3.71319653 20.3983603,3.56662741 20.3382127,3.4347472 C20.2701986,3.28566455 20.1142527,3.18671107 19.939426,3.18256777 L11.7292308,3.18243243 L13.8100614,7.91918847 C13.4188053,7.98054165 13.0381739,8.07392265 12.6709345,8.19656431 L10.4741331,3.18243243 L7.05789603,3.18243243 C6.91740876,3.18243243 6.78191518,3.25757252 6.7048375,3.37835735 L6.69871702,3.38825016 L4.15786932,7.62632723 C4.08201324,7.75283128 4.07362985,7.89973073 4.13377994,8.03189693 C4.20153114,8.18083991 4.35663746,8.27951722 4.53041513,8.28364883 L12.42699,8.28305507 C11.6638884,8.56953324 10.9633459,8.98391251 10.3514733,9.500082 L4.76977136,9.5 L5.65771377,11.527027 L5.67501123,11.5211571 C5.82835242,11.4700805 5.98867728,11.442394 6.15075871,11.4398731 L8.74392197,11.4389256 C8.53474415,11.8093746 8.35795258,12.2005359 8.21739087,12.6085661 L6.15064642,12.6081081 C6.14162427,12.6081081 6.13260294,12.6084161 6.12359711,12.6090283 L8.36116781,17.7094595 L8.40494814,17.7101117 C8.58899394,18.1385373 8.81408685,18.5451613 9.07527738,18.9250342 L8.23285017,18.9241237 L5.66989738,21.6148296 C5.42386843,21.8638643 5.09800412,22 4.75825549,22 C4.67332469,22 4.58833893,21.9914492 4.50426458,21.9743899 C4.08982868,21.8901737 3.74549871,21.6071123 3.57975338,21.2167119 L3.57507786,21.205567 L2.22631669,18.1237113 L2.21185246,18.0991767 C1.92376023,17.5809751 1.93064681,16.9728313 2.22546716,16.4689197 L2.23540114,16.4521615 L4.70252325,12.3441924 L2.88462475,8.20163241 L2.91793708,8.18474227 C2.8405128,7.80120228 2.90243327,7.40382259 3.09997613,7.05577871 L3.11088568,7.03684382 L3.12097058,7.01982742 L5.66468105,2.78432385 C5.95237089,2.30541259 6.47168192,2.00647733 7.02664907,2 L19.9505622,2 Z M15.8061219,13.9605413 C16.3130768,13.5692198 17.0394756,13.5993215 17.5126699,14.0508463 C17.7535795,14.290206 17.8889987,14.6158139 17.8888795,14.9554174 C17.8894262,15.2954739 17.7539671,15.6216294 17.5126699,15.8612424 L12.5509055,20.8225889 C12.0462404,21.2930211 11.2596312,21.2791721 10.7718386,20.7912668 C10.2840459,20.3033615 10.2703786,19.5167491 10.7409274,19.0121928 L15.7010198,14.0508463 Z M6.59409568,18.8919263 L3.89139298,18.8918919 L4.6852007,20.7196681 C4.70031136,20.7572671 4.72159605,20.7751834 4.753276,20.7816663 C4.78153507,20.7874694 4.8043982,20.7814953 4.82602252,20.7618806 L6.59409568,18.8919263 Z M14.5803382,16.3574189 L11.3328278,19.6053472 C11.1599916,19.7786199 11.1599916,20.0590878 11.3328278,20.2323604 C11.508349,20.3996702 11.7843198,20.3996702 11.959841,20.2323604 L15.2094414,16.9865221 L14.5803382,16.3574189 Z M18.7248954,16.1826096 C18.9470764,16.1826096 19.1423636,16.3298331 19.2035155,16.5434328 L19.3882754,17.1913464 L20.036189,17.3761063 C20.2497887,17.4372583 20.3970122,17.6325454 20.3970122,17.8547264 C20.3970122,18.0769073 20.2497887,18.2721945 20.036189,18.3333465 L19.3882754,18.5181064 L19.2035155,19.16602 C19.1423636,19.3796196 18.9470764,19.5268432 18.7248954,19.5268432 C18.5027145,19.5268432 18.3074273,19.3796196 18.2462754,19.16602 L18.0615155,18.5181064 L17.4136018,18.3333465 C17.2000022,18.2721945 17.0527787,18.0769073 17.0527787,17.8547264 C17.0527787,17.6325454 17.2000022,17.4372583 17.4136018,17.3761063 L18.0615155,17.1913464 L18.2462754,16.5434328 C18.3074273,16.3298331 18.5027145,16.1826096 18.7248954,16.1826096 Z M5.30140839,13.6554054 L3.27962985,17.0473278 C3.19918072,17.1823324 3.19451799,17.3404362 3.266559,17.4795755 L3.27420051,17.4937251 L3.2864325,17.5139386 L3.30260136,17.5378722 L3.32065138,17.5612475 L3.33792045,17.5808827 L3.36274136,17.6054509 C3.42633868,17.6629135 3.50495594,17.6979721 3.59166696,17.7069799 L3.61114572,17.7086353 L3.62242522,17.7092223 L7.06706865,17.7094595 L5.30140839,13.6554054 Z M16.7356713,14.5021043 C16.5746176,14.4627466 16.4050475,14.5163253 16.2958463,14.6410747 L15.1718206,15.7646824 L15.7988338,16.3937856 L16.9224415,15.26976 C17.047609,15.1588868 17.1011876,14.9893166 17.0618299,14.8282629 C17.0224723,14.6672092 16.8967251,14.541462 16.7356713,14.5021043 Z M13.7087898,11.166504 C13.9309708,11.166504 14.126258,11.3137276 14.1874099,11.5273272 L14.3721698,12.1752408 L15.0200834,12.3600007 C15.2336831,12.4211527 15.3809066,12.6164399 15.3809066,12.8386208 C15.3809066,13.0608017 15.2336831,13.2560889 15.0200834,13.3172409 L14.3721698,13.5020008 L14.1874099,14.1499144 C14.126258,14.363514 13.9309708,14.5107376 13.7087898,14.5107376 C13.4866089,14.5107376 13.2913217,14.363514 13.2301698,14.1499144 L13.0454099,13.5020008 L12.3974962,13.3172409 C12.1838966,13.2560889 12.0366731,13.0608017 12.0366731,12.8386208 C12.0366731,12.6164399 12.1838966,12.4211527 12.3974962,12.3600007 L13.0454099,12.1752408 L13.2301698,11.5273272 C13.2913217,11.3137276 13.4866089,11.166504 13.7087898,11.166504 Z M18.9338998,11.169033 C19.1273078,11.169033 19.2975512,11.29657 19.3519086,11.4821822 L19.513678,12.0490022 L20.080498,12.2107716 C20.2661102,12.265129 20.3936472,12.4353725 20.3936472,12.6287804 C20.3936472,12.8221883 20.2661102,12.9924317 20.080498,13.0467892 L19.513678,13.2085586 L19.3519086,13.7766325 C19.2975512,13.9622448 19.1273078,14.0897818 18.9338998,14.0897818 C18.7404919,14.0897818 18.5702485,13.9622448 18.515891,13.7766325 L18.3541216,13.2102306 L17.7864657,13.0476252 C17.6008535,12.9932677 17.4733164,12.8230243 17.4733164,12.6296164 C17.4733164,12.4362085 17.6008535,12.2659651 17.7864657,12.2116076 L18.3532856,12.0498382 L18.515891,11.4821822 C18.5702485,11.29657 18.7404919,11.169033 18.9338998,11.169033 Z" id="Combined-Shape" fill="#FFFFFF"></path>
    </g>
</svg>