<?xml version="1.0" encoding="UTF-8"?>
<svg width="60px" height="60px" viewBox="0 0 60 60" version="1.1" xmlns="http://www.w3.org/2000/svg" xmlns:xlink="http://www.w3.org/1999/xlink">
    <title>UI Icons/Sidebar Icons/animatedCarousel</title>
    <g id="UI-Icons/Sidebar-Icons/animatedCarousel" stroke="none" stroke-width="1" fill="none" fill-rule="evenodd">
        <path d="M22.5,47 C23.3284271,47 24,47.6715729 24,48.5 C24,49.3284271 23.3284271,50 22.5,50 C21.6715729,50 21,49.3284271 21,48.5 C21,47.6715729 21.6715729,47 22.5,47 Z M37.5,47 C38.3284271,47 39,47.6715729 39,48.5 C39,49.3284271 38.3284271,50 37.5,50 C36.6715729,50 36,49.3284271 36,48.5 C36,47.6715729 36.6715729,47 37.5,47 Z M32.5,47 C33.3284271,47 34,47.6715729 34,48.5 C34,49.3284271 33.3284271,50 32.5,50 L27.5,50 C26.6715729,50 26,49.3284271 26,48.5 C26,47.6715729 26.6715729,47 27.5,47 L32.5,47 Z M43,12 C45.209139,12 47,13.790861 47,16 L47,40 C47,42.209139 45.209139,44 43,44 L17,44 C14.790861,44 13,42.209139 13,40 L13,16 C13,13.790861 14.790861,12 17,12 L43,12 Z M43,13.5 L17,13.5 C15.6192881,13.5 14.5,14.6192881 14.5,16 L14.5,40 C14.5,41.3807119 15.6192881,42.5 17,42.5 L43,42.5 C44.3807119,42.5 45.5,41.3807119 45.5,40 L45.5,16 C45.5,14.6192881 44.3807119,13.5 43,13.5 Z M29.5,37.8571429 C30.3284271,37.8571429 31,38.5287157 31,39.3571429 C31,40.18557 30.3284271,40.8571429 29.5,40.8571429 L17.5,40.8571429 C16.6715729,40.8571429 16,40.18557 16,39.3571429 C16,38.5287157 16.6715729,37.8571429 17.5,37.8571429 L29.5,37.8571429 Z M34.5,33 C35.3284271,33 36,33.6715729 36,34.5 C36,35.3284271 35.3284271,36 34.5,36 L17.5,36 C16.6715729,36 16,35.3284271 16,34.5 C16,33.6715729 16.6715729,33 17.5,33 L34.5,33 Z M39.4670542,15 C42.1903611,15 44,16.9437949 44,19.7333768 L44,26.2666232 C44,29.0563426 42.1902224,31 39.4662524,31 L20.5329458,31 C17.8096389,31 16,29.0562051 16,26.2666232 L16,19.7333768 C16,16.9461363 17.813955,15 20.5329458,15 L39.4670542,15 Z M38.3243828,25.4511461 C37.9525861,25.59985 35.5977436,25.8734392 31.2598554,26.2719137 C27.3995402,26.3959399 25.2540684,26.574465 24.82344,26.8074889 C24.0279168,27.2385138 23.3796611,27.1489547 22.5913425,26.6837797 L22.2410484,26.4620753 L21.9464422,26.2719137 C21.7828313,26.1702906 21.6658769,26.1077362 21.5419484,26.0557425 C21.0055923,25.8310802 20.5290107,26.0794312 19.8708455,26.8596386 L18.4257528,28.625084 C18.3482632,28.718867 18.2682039,28.815656 18.1851805,28.915936 C18.7570224,29.4815551 19.5598138,29.7974144 20.5329458,29.7974144 L39.4662524,29.7974144 C41.5061172,29.7974144 42.7974144,28.4105925 42.7974144,26.2666232 L42.797,25.651 L42.7583361,25.6168125 C42.6749207,25.5400575 42.5857565,25.4559523 42.4787584,25.3534506 L41.9192954,24.8148565 C41.3827906,24.3054515 41.0758583,24.055115 40.6838171,23.8188584 C40.0910396,23.4622576 38.8820779,25.2280903 38.3243828,25.4511461 Z M39.4670542,16.2025856 L20.5329458,16.2025856 C18.4977624,16.2025856 17.2025856,17.5921408 17.2025856,19.7333768 L17.2025856,26.2666232 C17.2025856,26.8624291 17.3023113,27.3997725 17.4901024,27.8651311 L18.4104765,26.7487651 L18.8169946,26.2475099 C19.8402529,24.9796744 20.7782896,24.4320489 22.0068803,24.9466662 C22.1934487,25.0249401 22.3530195,25.1094622 22.5572031,25.2354877 L23.0857101,25.5765065 C23.6134929,25.9110914 23.8648386,25.9591129 24.2508302,25.7499777 C24.4795846,25.6261929 26.8159263,25.4546962 31.2598554,25.2354877 L37.6915598,24.4733261 C37.8384377,24.2412931 38.6608804,23.6724028 38.8108982,23.5077769 L38.9828013,23.3216321 C39.5887711,22.6783889 40.2506426,22.1548511 41.3041352,22.7886073 C41.8033515,23.0894509 42.1660646,23.3880594 42.7954441,23.9884955 L42.7974144,19.7333768 C42.7974144,17.5895087 41.5062133,16.2025856 39.4670542,16.2025856 Z M21.4973393,18.3585809 C22.6463806,18.3585809 23.578614,19.2908144 23.578614,20.4398557 C23.578614,21.588897 22.6463806,22.5211304 21.4973393,22.5211304 C20.3489253,22.5211304 19.4168663,21.5887226 19.4168663,20.4398557 C19.4168663,19.2909888 20.3489253,18.3585809 21.4973393,18.3585809 Z M21.4973393,19.5611665 C21.0131957,19.5611665 20.6194518,19.9550578 20.6194518,20.4398557 C20.6194518,20.9246536 21.0131957,21.3185449 21.4973393,21.3185449 C21.9822109,21.3185449 22.3760285,20.9247273 22.3760285,20.4398557 C22.3760285,19.9549841 21.9822109,19.5611665 21.4973393,19.5611665 Z M58,15 C59.1045695,15 60,15.8954305 60,17 L60,37 C60,38.1045695 59.1045695,39 58,39 L52,39 C50.8954305,39 50,38.1045695 50,37 L50,17 C50,15.8954305 50.8954305,15 52,15 L58,15 Z M58,16.5 L52,16.5 C51.7238576,16.5 51.5,16.7238576 51.5,17 L51.5,37 C51.5,37.2761424 51.7238576,37.5 52,37.5 L58,37.5 C58.2761424,37.5 58.5,37.2761424 58.5,37 L58.5,17 C58.5,16.7238576 58.2761424,16.5 58,16.5 Z M2,15 C0.8954305,15 0,15.8954305 0,17 L0,37 C0,38.1045695 0.8954305,39 2,39 L8,39 C9.1045695,39 10,38.1045695 10,37 L10,17 C10,15.8954305 9.1045695,15 8,15 L2,15 Z M2,16.5 L8,16.5 C8.27614237,16.5 8.5,16.7238576 8.5,17 L8.5,37 C8.5,37.2761424 8.27614237,37.5 8,37.5 L2,37.5 C1.72385763,37.5 1.5,37.2761424 1.5,37 L1.5,17 C1.5,16.7238576 1.72385763,16.5 2,16.5 Z" id="carousel" fill="#95A1AC"></path>
    </g>
</svg>