<?xml version="1.0" encoding="UTF-8"?>
<svg width="24px" height="24px" viewBox="0 0 24 24" version="1.1" xmlns="http://www.w3.org/2000/svg" xmlns:xlink="http://www.w3.org/1999/xlink">
    <title>UI Icons/NavIcons/SVG /API_call_alt</title>
    <g id="UI-Icons/NavIcons/API_call_alt" stroke="none" stroke-width="1" fill="none" fill-rule="evenodd">
        <path d="M8.25797267,18.9466591 L8.1729309,18.9466591 C8.00993419,19.1450899 7.81327512,19.3151734 7.58295368,19.4569096 C7.35263225,19.5986459 7.05675778,19.669514 6.6953303,19.669514 C6.42603138,19.669514 6.1726778,19.6252215 5.93526955,19.5366363 C5.6978613,19.4480511 5.49057201,19.3258036 5.31340167,19.1698937 C5.13623133,19.0139838 4.99803847,18.8261832 4.89882308,18.606492 C4.79960769,18.3868008 4.75,18.1458492 4.75,17.8836371 C4.75,17.6143381 4.8031511,17.3716148 4.9094533,17.155467 C5.0157555,16.9393192 5.16457859,16.7532903 5.35592255,16.5973804 C5.54726651,16.4414705 5.77227284,16.3227664 6.03094153,16.241268 C6.28961023,16.1597697 6.57131106,16.1190205 6.87604404,16.1190205 C7.21621109,16.1190205 7.49614022,16.1455961 7.71583144,16.1987472 C7.93552265,16.2518983 8.1162364,16.3068211 8.25797267,16.3635156 L8.25797267,16.2040623 C8.25797267,15.9276765 8.14812706,15.6991268 7.92843584,15.5184131 C7.70874462,15.3376993 7.4359023,15.2473424 7.10990888,15.2473424 C6.62800557,15.2473424 6.22051379,15.4493166 5.88743356,15.853265 L4.87756264,15.1623007 C5.43033409,14.467793 6.18507973,14.1205391 7.14179954,14.1205391 C7.94969628,14.1205391 8.56624905,14.3101114 8.99145786,14.6892559 C9.41666667,15.0684004 9.62927107,15.6300304 9.62927107,16.3741458 L9.62927107,19.4994305 L8.25797267,19.4994305 L8.25797267,18.9466591 Z M8.25797267,17.3840167 C8.09497596,17.3060618 7.92666414,17.2440521 7.75303721,17.1979879 C7.57941028,17.1519236 7.38983802,17.1288914 7.18432043,17.1288914 C6.85124019,17.1288914 6.5943432,17.2015313 6.41362946,17.3468109 C6.23291572,17.4920906 6.14255885,17.6710326 6.14255885,17.8836371 C6.14255885,18.0962415 6.22937231,18.266325 6.40299924,18.3938876 C6.57662617,18.5214503 6.77682865,18.5852316 7.00360668,18.5852316 C7.18786383,18.5852316 7.35794736,18.5515692 7.51385725,18.4842445 C7.66976715,18.4169198 7.8026449,18.3283346 7.91249051,18.218489 C8.02233612,18.1086434 8.10737788,17.9810807 8.16761579,17.8358011 C8.22785371,17.6905214 8.25797267,17.5399266 8.25797267,17.3840167 Z M10.6922931,14.2906226 L11.9998102,14.2906226 L11.9998102,14.9178056 L12.0848519,14.9178056 C12.2124146,14.6981144 12.4108454,14.5103138 12.6801443,14.3544039 C12.9494432,14.1984941 13.2825234,14.1205391 13.679385,14.1205391 C14.0124652,14.1205391 14.3296001,14.1896355 14.6307897,14.3278284 C14.9319792,14.4660213 15.1977348,14.6573652 15.4280562,14.9018603 C15.6583776,15.1463554 15.8408631,15.4386864 15.9755125,15.7788535 C16.110162,16.1190205 16.1774867,16.4910782 16.1774867,16.8950266 C16.1774867,17.2989749 16.110162,17.6710326 15.9755125,18.0111997 C15.8408631,18.3513667 15.6583776,18.6436978 15.4280562,18.8881929 C15.1977348,19.1326879 14.9319792,19.3240319 14.6307897,19.4622248 C14.3296001,19.6004176 14.0124652,19.669514 13.679385,19.669514 C13.2825234,19.669514 12.9494432,19.5915591 12.6801443,19.4356492 C12.4108454,19.2797393 12.2124146,19.0919387 12.0848519,18.8722475 L11.9998102,18.8722475 L12.0848519,19.6163629 L12.0848519,21.7955581 L10.6922931,21.7955581 L10.6922931,14.2906226 Z M13.392369,18.3832574 C13.5766262,18.3832574 13.7520248,18.3478233 13.9185649,18.2769552 C14.085105,18.2060871 14.2321564,18.1068717 14.3597191,17.979309 C14.4872817,17.8517464 14.5900405,17.6958365 14.6679954,17.5115793 C14.7459504,17.3273222 14.7849279,17.1218046 14.7849279,16.8950266 C14.7849279,16.6682485 14.7459504,16.462731 14.6679954,16.2784738 C14.5900405,16.0942167 14.4872817,15.9383068 14.3597191,15.8107441 C14.2321564,15.6831815 14.085105,15.5839661 13.9185649,15.5130979 C13.7520248,15.4422298 13.5766262,15.4067957 13.392369,15.4067957 C13.2081119,15.4067957 13.0327132,15.4404581 12.8661731,15.5077828 C12.699633,15.5751076 12.5525816,15.6725513 12.425019,15.8001139 C12.2974563,15.9276765 12.1946975,16.0835864 12.1167426,16.2678436 C12.0387876,16.4521007 11.9998102,16.6611617 11.9998102,16.8950266 C11.9998102,17.1288914 12.0387876,17.3379524 12.1167426,17.5222096 C12.1946975,17.7064667 12.2974563,17.8623766 12.425019,17.9899393 C12.5525816,18.1175019 12.699633,18.2149456 12.8661731,18.2822703 C13.0327132,18.349595 13.2081119,18.3832574 13.392369,18.3832574 Z M17.8464313,13.535877 C17.7259555,13.535877 17.6107947,13.5128448 17.5009491,13.4667806 C17.3911035,13.4207163 17.2954315,13.356935 17.2139332,13.2754366 C17.1324348,13.1939382 17.0686535,13.100038 17.0225892,12.9937358 C16.9765249,12.8874336 16.9534928,12.7705011 16.9534928,12.6429385 C16.9534928,12.5153759 16.9765249,12.3984434 17.0225892,12.2921412 C17.0686535,12.185839 17.1324348,12.0919387 17.2139332,12.0104404 C17.2954315,11.928942 17.3911035,11.8651607 17.5009491,11.8190964 C17.6107947,11.7730321 17.7259555,11.75 17.8464313,11.75 C18.0944698,11.75 18.3070742,11.8368135 18.4842445,12.0104404 C18.6614148,12.1840673 18.75,12.3949 18.75,12.6429385 C18.75,12.890977 18.6614148,13.1018097 18.4842445,13.2754366 C18.3070742,13.4490635 18.0944698,13.535877 17.8464313,13.535877 Z M17.155467,19.4994305 L17.155467,14.2906226 L18.5480258,14.2906226 L18.5480258,19.4994305 L17.155467,19.4994305 Z M13.3953488,4.79069767 C13.7806638,4.79069767 14.0930233,5.10305715 14.0930233,5.48837209 C14.0930233,5.84157746 13.8305545,6.13347996 13.4900191,6.17967757 L13.3953488,6.18604651 L8.74418605,6.18604651 C8.3588711,6.18604651 8.04651163,5.87368703 8.04651163,5.48837209 C8.04651163,5.13516673 8.30898035,4.84326422 8.64951576,4.79706662 L8.74418605,4.79069767 L13.3953488,4.79069767 Z M19.4418605,2 L17.5813953,2 C16.1685739,2 15.0232558,3.14531808 15.0232558,4.55813953 L15.0232558,6.41860465 C15.0232558,7.8314261 16.1685739,8.97674419 17.5813953,8.97674419 L19.4418605,8.97674419 C20.8546819,8.97674419 22,7.8314261 22,6.41860465 L22,4.55813953 C22,3.14531808 20.8546819,2 19.4418605,2 Z M17.5813953,3.39534884 L19.4418605,3.39534884 C20.084052,3.39534884 20.6046512,3.91594797 20.6046512,4.55813953 L20.6046512,6.41860465 C20.6046512,7.06079622 20.084052,7.58139535 19.4418605,7.58139535 L17.5813953,7.58139535 C16.9392038,7.58139535 16.4186047,7.06079622 16.4186047,6.41860465 L16.4186047,4.55813953 C16.4186047,3.91594797 16.9392038,3.39534884 17.5813953,3.39534884 Z M4.55813953,2.93023256 C3.14531808,2.93023256 2,4.07555064 2,5.48837209 C2,6.90119355 3.14531808,8.04651163 4.55813953,8.04651163 C5.97096099,8.04651163 7.11627907,6.90119355 7.11627907,5.48837209 C7.11627907,4.07555064 5.97096099,2.93023256 4.55813953,2.93023256 Z M4.55813953,4.3255814 C5.2003311,4.3255814 5.72093023,4.84618052 5.72093023,5.48837209 C5.72093023,6.13056366 5.2003311,6.65116279 4.55813953,6.65116279 C3.91594797,6.65116279 3.39534884,6.13056366 3.39534884,5.48837209 C3.39534884,4.84618052 3.91594797,4.3255814 4.55813953,4.3255814 Z" id="api_updated" fill="#95A1AC"></path>
    </g>
</svg>