<?xml version="1.0" encoding="UTF-8"?>
<svg width="24px" height="24px" viewBox="0 0 24 24" version="1.1" xmlns="http://www.w3.org/2000/svg" xmlns:xlink="http://www.w3.org/1999/xlink">
    <title>UI Icons/NavIcons/SVG /API_call_Add</title>
    <g id="UI-Icons/NavIcons/API_call_Add" stroke="none" stroke-width="1" fill="none" fill-rule="evenodd">
        <path d="M19.7098205,12.3546568 L22.1573241,13.7692532 C22.3687665,13.918441 22.5,14.1743104 22.5,14.4364896 L22.5,19.2863741 C22.5,19.583779 22.3614959,19.8192361 22.0889485,20.0192643 L17.835616,22.4818556 C17.7202754,22.539526 17.5825906,22.5808314 17.4503464,22.5808314 C17.3181023,22.5808314 17.1804175,22.539526 17.0388224,22.4677348 L12.7854503,20.0096998 C12.5685926,19.8470564 12.4237875,19.5864073 12.4237875,19.3094688 L12.4237875,18.2009238 C12.4237875,17.7400239 12.809308,17.3545035 13.2702079,17.3545035 C13.7311077,17.3545035 14.1166282,17.7400239 14.1166282,18.2009238 L14.116,18.815 L17.473,20.764 L20.83,18.815 L20.83,14.932 L17.471,12.982 L16.9131965,13.3001724 C16.5480461,13.5088298 16.0854577,13.4219036 15.8326325,13.0940067 L15.7691117,12.9986468 C15.7434586,12.9537539 15.7222732,12.9073881 15.7054542,12.8601205 C16.1237765,12.9518301 16.5562629,13 17,13 C17.9750865,13 18.8958462,12.7673994 19.7098205,12.3546568 Z M6.08455351,11.3056646 C6.36635327,11.1365848 6.72445328,11.1365848 6.93629118,11.3002895 L7.74460527,11.7621833 C8.14961443,11.9936171 8.27375704,12.5079222 8.04613081,12.9062681 C7.814697,13.3112772 7.30039191,13.4354199 6.89521428,13.2038178 L6.523,12.984 L3.169,14.932 L3.169,18.816 L6.527,20.786 L9.883,18.838 L9.88337182,18.2240185 C9.88337182,17.7985724 10.2118626,17.437355 10.6249099,17.3843005 L10.7297921,17.3775982 C11.190692,17.3775982 11.5531178,17.7400239 11.5531178,18.2009238 L11.5531178,19.2863741 C11.5531178,19.5980566 11.4176166,19.8540033 11.1413162,20.0196979 L6.91182851,22.4587609 C6.77841859,22.5254659 6.68160612,22.5577367 6.52655889,22.5577367 C6.39431476,22.5577367 6.25662996,22.5164313 6.1168266,22.4456689 L1.86166282,20.0096998 C1.64480506,19.8470564 1.5,19.5864073 1.5,19.3094688 L1.5,14.4595843 C1.5,14.1479019 1.63550122,13.8919551 1.91076801,13.7268585 Z M11.9110564,10.1766286 L11.9666371,10.2670628 C12.5908657,11.2268055 13.4821502,11.9968841 14.5351407,12.4719488 L14.5357968,14.3931579 C14.5357968,14.6172446 14.4292949,14.8235327 14.2529673,14.9653675 L14.1591545,15.0306978 L12.1113199,16.204483 C12.0126636,16.2538112 11.8966066,16.2886283 11.777957,16.2886283 C11.6889699,16.2886283 11.6014411,16.2690437 11.5109921,16.232743 L11.4194077,16.1909766 L9.34555286,14.9969906 C9.18630914,14.8775579 9.07247875,14.6965497 9.04320565,14.4952863 L9.03579677,14.3931579 L9.03579677,12.0726004 C9.03579677,11.8442858 9.12398316,11.6450951 9.30090281,11.5018794 L9.3967596,11.4350605 L11.4109531,10.2797424 C11.5668978,10.1861756 11.750814,10.1522322 11.9110564,10.1766286 Z M11.793,11.741 L10.506,12.486 L10.506,13.981 L11.793,14.725 L13.081,13.98 L13.081,12.487 L11.793,11.741 Z M11.490979,1.57040369 C11.725658,1.4765321 11.9741111,1.4765321 12.2729559,1.60154924 L13.3599565,2.22990045 C12.8958711,2.58458115 12.4850689,3.00545223 12.1416449,3.47841866 L11.838,3.304 L8.481,5.235 L8.481,9.115 L8.78386624,9.29105164 C9.15512464,9.5031993 9.29037711,9.95303741 9.13501085,10.333365 L9.08539178,10.4351364 C8.85395797,10.8401456 8.33965288,10.9642882 7.94287016,10.7375515 L7.1965358,10.3099307 C6.97967804,10.1472874 6.83487298,9.88663829 6.83487298,9.60969977 L6.83487298,4.75981524 C6.83487298,4.44813281 6.9703742,4.19218607 7.24564099,4.02708944 L11.4257796,1.60214718 Z M18,2 C18.44,2 18.8,2.36 18.8,2.8 L18.8,5.2 L21.2,5.2 C21.64,5.2 22,5.56 22,6 C22,6.44 21.64,6.8 21.2,6.8 L18.8,6.8 L18.8,9.2 C18.8,9.64 18.44,10 18,10 C17.56,10 17.2,9.64 17.2,9.2 L17.2,6.8 L14.8,6.8 C14.36,6.8 14,6.44 14,6 C14,5.56 14.36,5.2 14.8,5.2 L17.2,5.2 L17.2,2.8 C17.2,2.36 17.56,2 18,2 Z" id="Combined-Shape" fill="#95A1AC"></path>
    </g>
</svg>