<?xml version="1.0" encoding="UTF-8"?>
<svg width="24px" height="24px" viewBox="0 0 24 24" version="1.1" xmlns="http://www.w3.org/2000/svg" xmlns:xlink="http://www.w3.org/1999/xlink">
    <title>UI Icons/theme/appAssets</title>
    <g id="UI-Icons/theme/appAssets" stroke="none" stroke-width="1" fill="none" fill-rule="evenodd">
        <path d="M14.95,1 C17.2009614,1 17.7360556,1.04371942 18.4524862,1.4087217 C19.1581043,1.76824321 19.7317531,2.34192118 20.0912455,3.04751875 C20.4562762,3.76388313 20.5,4.29900457 20.5,6.55 L20.5,12.25 C20.5,12.6642136 20.1642136,13 19.75,13 C19.3357864,13 19,12.6642136 19,12.25 L19,6.55 C19,4.60059543 18.9619738,4.13520437 18.7547346,3.72850218 C18.5390296,3.30512485 18.1948617,2.96093948 17.7715348,2.74524897 C17.4001544,2.55604057 16.9799253,2.50789175 15.4258209,2.50094873 L8.07418466,2.50094879 C6.52009452,2.50789221 6.0998311,2.55604261 5.72852098,2.74523586 C5.30515405,2.96095057 4.96095057,3.30515405 4.74523395,3.72852472 C4.55604244,4.09983143 4.50789219,4.52009455 4.50094879,6.07418466 L4.50094872,17.4258209 C4.50789167,18.9799251 4.55603964,19.4001526 4.7452383,19.7715138 C4.96093948,20.1948617 5.30512485,20.5390296 5.72854125,20.7547545 C6.13520437,20.9619738 6.60059543,21 8.55,21 L11.75,21 C12.1642136,21 12.5,21.3357864 12.5,21.75 C12.5,22.1642136 12.1642136,22.5 11.75,22.5 L8.55,22.5 C6.29900457,22.5 5.76388313,22.4562762 5.04755782,22.0912654 C4.34192118,21.7317531 3.76824321,21.1581043 3.40871103,20.4524652 C3.04371942,19.7360556 3,19.2009614 3,16.95 L3,6.55 C3,4.29901128 3.04372079,3.76389353 3.40872414,3.04753902 C3.76824943,2.34192595 4.34192595,1.76824943 5.04753528,1.40872605 C5.76389353,1.04372079 6.29901128,1 8.55,1 L14.95,1 Z M20.2196699,15.7196699 C20.5125631,15.4267767 20.9874369,15.4267767 21.2803301,15.7196699 C21.5732233,16.0125631 21.5732233,16.4874369 21.2803301,16.7803301 L16.7803301,21.2803301 C16.4874369,21.5732233 16.0125631,21.5732233 15.7196699,21.2803301 L13.7196699,19.2803301 C13.4267767,18.9874369 13.4267767,18.5125631 13.7196699,18.2196699 C14.0125631,17.9267767 14.4874369,17.9267767 14.7803301,18.2196699 L16.25,19.689 L20.2196699,15.7196699 Z M9.75,14 C10.1642136,14 10.5,14.3357864 10.5,14.75 C10.5,15.1642136 10.1642136,15.5 9.75,15.5 L7.75,15.5 C7.33578644,15.5 7,15.1642136 7,14.75 C7,14.3357864 7.33578644,14 7.75,14 L9.75,14 Z M13.75,10 C14.1642136,10 14.5,10.3357864 14.5,10.75 C14.5,11.1642136 14.1642136,11.5 13.75,11.5 L7.75,11.5 C7.33578644,11.5 7,11.1642136 7,10.75 C7,10.3357864 7.33578644,10 7.75,10 L13.75,10 Z M15.75,6 C16.1642136,6 16.5,6.33578644 16.5,6.75 C16.5,7.16421356 16.1642136,7.5 15.75,7.5 L7.75,7.5 C7.33578644,7.5 7,7.16421356 7,6.75 C7,6.33578644 7.33578644,6 7.75,6 L15.75,6 Z" id="Shape" fill="#95A1AC"></path>
    </g>
</svg>