<?xml version="1.0" encoding="UTF-8"?>
<svg width="24px" height="24px" viewBox="0 0 24 24" version="1.1" xmlns="http://www.w3.org/2000/svg" xmlns:xlink="http://www.w3.org/1999/xlink">
    <title>UI Icons/SVG /appBuiilder</title>
    <g id="UI-Icons/appBuiilder" stroke="none" stroke-width="1" fill="none" fill-rule="evenodd">
        <path d="M18.9411765,0 C20.317677,0 21.443204,1.0745455 21.5246882,2.43056722 L21.5294118,2.58823529 L21.5294118,21.4117647 C21.5294118,22.7882653 20.4548663,23.9137923 19.0988445,23.9952764 L18.9411765,24 L9.52941176,24 C8.15291121,24 7.02738421,22.9254545 6.94590004,21.5694328 L6.94117647,21.4117647 L6.94117647,12.6730625 C6.94117647,12.2832144 7.25721076,11.9671801 7.64705882,11.9671801 C8.00441954,11.9671801 8.2997562,12.2327367 8.3464973,12.5772784 L8.35294118,12.6730625 L8.35294118,21.4117647 C8.35294118,22.0209023 8.81588204,22.5219143 9.40912448,22.5821613 L9.52941176,22.5882353 L18.9411765,22.5882353 C19.5503141,22.5882353 20.051326,22.1252944 20.1115731,21.532052 L20.1176471,21.4117647 L20.1176471,2.58823529 C20.1176471,1.9790977 19.6547062,1.47808574 19.0614638,1.41783869 L18.9411765,1.41176471 L9.52941176,1.41176471 C9.13956371,1.41176471 8.82352941,1.09573041 8.82352941,0.705882353 C8.82352941,0.348521632 9.08908601,0.053184978 9.43362771,0.00644387388 L9.52941176,0 L18.9411765,0 Z M14.2352941,17.6470588 C15.2748889,17.6470588 16.1176471,18.4898169 16.1176471,19.5294118 C16.1176471,20.5690066 15.2748889,21.4117647 14.2352941,21.4117647 C13.1956993,21.4117647 12.3529412,20.5690066 12.3529412,19.5294118 C12.3529412,18.4898169 13.1956993,17.6470588 14.2352941,17.6470588 Z M14.2352941,18.5882353 C13.7154967,18.5882353 13.2941176,19.0096144 13.2941176,19.5294118 C13.2941176,20.0492092 13.7154967,20.4705882 14.2352941,20.4705882 C14.7550915,20.4705882 15.1764706,20.0492092 15.1764706,19.5294118 C15.1764706,19.0096144 14.7550915,18.5882353 14.2352941,18.5882353 Z M11.6470588,9.17647059 C12.0369069,9.17647059 12.3529412,9.49250488 12.3529412,9.88235294 C12.3529412,10.272201 12.0369069,10.5882353 11.6470588,10.5882353 L3.64705882,10.5882353 C3.25721076,10.5882353 2.94117647,10.272201 2.94117647,9.88235294 C2.94117647,9.49250488 3.25721076,9.17647059 3.64705882,9.17647059 L11.6470588,9.17647059 Z M10.7058824,5.88235294 C11.0957304,5.88235294 11.4117647,6.19838724 11.4117647,6.58823529 C11.4117647,6.97808335 11.0957304,7.29411765 10.7058824,7.29411765 L2.70588235,7.29411765 C2.31603429,7.29411765 2,6.97808335 2,6.58823529 C2,6.19838724 2.31603429,5.88235294 2.70588235,5.88235294 L10.7058824,5.88235294 Z M11.6470588,2.58823529 C12.0369069,2.58823529 12.3529412,2.90426959 12.3529412,3.29411765 C12.3529412,3.68396571 12.0369069,4 11.6470588,4 L3.64705882,4 C3.25721076,4 2.94117647,3.68396571 2.94117647,3.29411765 C2.94117647,2.90426959 3.25721076,2.58823529 3.64705882,2.58823529 L11.6470588,2.58823529 Z" id="UI_builder_2" fill="#95A1AC"></path>
    </g>
</svg>