<?xml version="1.0" encoding="UTF-8"?>
<svg width="24px" height="24px" viewBox="0 0 24 24" version="1.1" xmlns="http://www.w3.org/2000/svg" xmlns:xlink="http://www.w3.org/1999/xlink">
    <title>UI Icons/Arrow - Left Square</title>
    <g id="UI-Icons/Arrow---Left-Square" stroke="none" stroke-width="1" fill="none" fill-rule="evenodd">
        <g id="Arrow---Left-Square" transform="translate(12, 11.9999) rotate(-270) translate(-12, -11.9999)translate(2, 1.9999)" fill="#95A1AC" fill-rule="nonzero">
            <path d="M14.335,-1.21239849e-14 C17.7386303,-1.21239849e-14 20,2.4293097 20,5.916 L20,14.084 C20,17.5670397 17.7319015,20 14.335,20 L5.666,20 C2.26221556,20 0,17.5704962 0,14.084 L0,5.916 C0,2.42950377 2.26221556,-1.21239849e-14 5.666,-1.21239849e-14 Z M14.335,1.5 L5.666,1.5 C3.11549943,1.5 1.5,3.23496374 1.5,5.916 L1.5,14.084 C1.5,16.7650363 3.11549943,18.5 5.666,18.5 L14.335,18.5 C16.879041,18.5 18.5,16.761218 18.5,14.084 L18.5,5.916 C18.5,3.23467927 16.8852404,1.5 14.335,1.5 Z M10,5.164 C10.3796958,5.164 10.693491,5.44615388 10.7431534,5.81222944 L10.75,5.914 L10.75,12.268 L13.2165416,9.79310068 C13.4822404,9.52626759 13.8988516,9.50117414 14.1929264,9.71840273 L14.2771993,9.79084156 C14.5440324,10.0565404 14.5691259,10.4731516 14.3518973,10.7672264 L14.2794584,10.8514993 L10.5314584,14.6154993 C10.5068613,14.6397989 10.4818443,14.6617196 10.4554456,14.6819258 L10.5314584,14.6154993 C10.4946699,14.6524449 10.454992,14.684754 10.4131499,14.7124267 C10.3982505,14.7219026 10.3827929,14.731348 10.3669804,14.7402367 C10.3547042,14.7474984 10.3423921,14.7539599 10.3299461,14.7600558 C10.3118804,14.7685973 10.2927776,14.7770234 10.2732774,14.7846567 C10.2599222,14.7901454 10.2472661,14.7946796 10.2345201,14.7988632 C10.2145302,14.805202 10.1934266,14.8111577 10.1719681,14.816192 C10.1600367,14.8192187 10.148364,14.8216584 10.1366497,14.8238179 C10.1163698,14.8273287 10.095284,14.8303128 10.0739357,14.8324018 C10.058912,14.8341416 10.0442053,14.8351483 10.029485,14.8357238 C10.0197772,14.8358078 10.0099111,14.836 10,14.836 L9.97151412,14.8357622 C9.95612387,14.8351809 9.94074811,14.8341284 9.92541034,14.8326045 L10,14.836 C9.95315442,14.836 9.90731196,14.8317051 9.86284491,14.8234876 C9.85163603,14.8216584 9.8399633,14.8192187 9.82834286,14.8164987 C9.80657336,14.8111577 9.78546981,14.805202 9.76476527,14.7983689 C9.75273386,14.7946796 9.74007778,14.7901454 9.72752676,14.7852605 C9.70722235,14.7770234 9.68811963,14.7685973 9.66945413,14.7594181 C9.65760791,14.7539599 9.64529583,14.7474984 9.63313367,14.7406714 C9.61720712,14.731348 9.60174952,14.7219026 9.58667334,14.7119271 C9.57531882,14.7048004 9.5639519,14.6968219 9.55276453,14.6884913 L9.54455445,14.6819258 C9.51815569,14.6617196 9.49313874,14.6397989 9.46966991,14.6163301 L5.72054156,10.8514993 C5.42827284,10.5579829 5.42928428,10.0831103 5.72280068,9.79084156 C5.98963376,9.52514272 6.40634806,9.50182419 6.69949487,9.72030352 L6.78345844,9.79310068 L9.25,12.27 L9.25,5.914 C9.25,5.49978644 9.58578644,5.164 10,5.164 Z" id="Combined-Shape"></path>
        </g>
    </g>
</svg>