<?xml version="1.0" encoding="UTF-8"?>
<svg width="24px" height="24px" viewBox="0 0 24 24" version="1.1" xmlns="http://www.w3.org/2000/svg" xmlns:xlink="http://www.w3.org/1999/xlink">
    <title>UI Icons/newNav/branch_Delete</title>
    <g id="UI-Icons/newNav/branch_Delete" stroke="none" stroke-width="1" fill="none" fill-rule="evenodd">
        <path d="M19.7731493,15.1819805 C20.1231672,14.8319627 20.6959237,14.8319627 21.0459415,15.1819805 C21.3959594,15.5319984 21.3959594,16.1047549 21.0459415,16.4547727 L19.1367532,18.363961 L21.0459415,20.2731493 C21.3959594,20.6231672 21.3959594,21.1959237 21.0459415,21.5459415 C20.6959237,21.8959594 20.1231672,21.8959594 19.7731493,21.5459415 L17.863961,19.6367532 L15.9547727,21.5459415 C15.6047549,21.8959594 15.0319984,21.8959594 14.6819805,21.5459415 C14.3319627,21.1959237 14.3319627,20.6231672 14.6819805,20.2731493 L16.5911688,18.363961 L14.6819805,16.4547727 C14.3319627,16.1047549 14.3319627,15.5319984 14.6819805,15.1819805 C15.0319984,14.8319627 15.6047549,14.8319627 15.9547727,15.1819805 L17.863961,17.0911688 Z M3.0000003,1.25 C3.41421386,1.25 3.7500003,1.58578644 3.7500003,2 L3.7500003,5.75 L14.0701231,5.75039462 C14.4210217,3.89955342 16.0470693,2.5 18,2.5 C20.209139,2.5 22,4.290861 22,6.5 C22,8.709139 20.209139,10.5 18,10.5 C16.0474197,10.5 14.4216054,9.10094889 14.0703121,7.25060185 L3.7500003,7.25 L3.7500003,15 C3.7500003,16.7949254 5.20507486,18.25 7.0000003,18.25 L10.3016493,18.25 C10.7158629,18.25 11.0516493,18.5857864 11.0516493,19 C11.0516493,19.4142136 10.7158629,19.75 10.3016493,19.75 L7.0000003,19.75 C4.37664774,19.75 2.2500003,17.6233526 2.2500003,15 L2.2500003,2 C2.2500003,1.58578644 2.58578674,1.25 3.0000003,1.25 Z M18,4 C16.6192881,4 15.5,5.11928813 15.5,6.5 C15.5,7.88071187 16.6192881,9 18,9 C19.3807119,9 20.5,7.88071187 20.5,6.5 C20.5,5.11928813 19.3807119,4 18,4 Z" id="Combined-Shape" fill="#FFFFFF"></path>
    </g>
</svg>