<svg width="24" height="24" viewBox="0 0 24 24" fill="none" xmlns="http://www.w3.org/2000/svg">
<path fill-rule="evenodd" clip-rule="evenodd" d="M3 2C3.55229 2 4 2.44772 4 3V7L14.126 7C14.5701 5.27477 16.1362 4 18 4C20.2091 4 22 5.79086 22 8C22 10.2091 20.2091 12 18 12C16.1362 12 14.5701 10.7252 14.126 9L4 9V13.2C4 14.0566 4.00078 14.6389 4.03755 15.089C4.07337 15.5274 4.1383 15.7516 4.21799 15.908C4.40973 16.2843 4.7157 16.5903 5.09202 16.782C5.24842 16.8617 5.47262 16.9266 5.91104 16.9624C6.36113 16.9992 6.94342 17 7.8 17H14.126C14.5701 15.2748 16.1362 14 18 14C20.2091 14 22 15.7909 22 18C22 20.2091 20.2091 22 18 22C16.1362 22 14.5701 20.7252 14.126 19H7.75868C6.95372 19 6.28936 19 5.74817 18.9558C5.18608 18.9099 4.66937 18.8113 4.18404 18.564C3.43139 18.1805 2.81947 17.5686 2.43597 16.816C2.18868 16.3306 2.09012 15.8139 2.04419 15.2518C1.99998 14.7106 1.99999 14.0463 2 13.2413L2 3C2 2.44772 2.44772 2 3 2ZM18 6C16.8954 6 16 6.89543 16 8C16 9.10457 16.8954 10 18 10C19.1046 10 20 9.10457 20 8C20 6.89543 19.1046 6 18 6ZM18 16C16.8954 16 16 16.8954 16 18C16 19.1046 16.8954 20 18 20C19.1046 20 20 19.1046 20 18C20 16.8954 19.1046 16 18 16Z" fill="#7C8791"/>
</svg>
