<?xml version="1.0" encoding="UTF-8"?>
<svg width="24px" height="24px" viewBox="0 0 24 24" version="1.1" xmlns="http://www.w3.org/2000/svg" xmlns:xlink="http://www.w3.org/1999/xlink">
    <title>UI Icons/newNav/branch_New</title>
    <g id="UI-Icons/newNav/branch_New" stroke="none" stroke-width="1" fill="none" fill-rule="evenodd">
        <path d="M18,15 C18.44,15 18.8,15.36 18.8,15.8 L18.8,18.2 L21.2,18.2 C21.64,18.2 22,18.56 22,19 C22,19.44 21.64,19.8 21.2,19.8 L18.8,19.8 L18.8,22.2 C18.8,22.64 18.44,23 18,23 C17.56,23 17.2,22.64 17.2,22.2 L17.2,19.8 L14.8,19.8 C14.36,19.8 14,19.44 14,19 C14,18.56 14.36,18.2 14.8,18.2 L17.2,18.2 L17.2,15.8 C17.2,15.36 17.56,15 18,15 Z M3.0000003,1.25 C3.41421386,1.25 3.7500003,1.58578644 3.7500003,2 L3.7500003,5.75 L14.0701231,5.75039462 C14.4210217,3.89955342 16.0470693,2.5 18,2.5 C20.209139,2.5 22,4.290861 22,6.5 C22,8.709139 20.209139,10.5 18,10.5 C16.0474197,10.5 14.4216054,9.10094889 14.0703121,7.25060185 L3.7500003,7.25 L3.7500003,15 C3.7500003,16.7949254 5.20507486,18.25 7.0000003,18.25 L10.3016493,18.25 C10.7158629,18.25 11.0516493,18.5857864 11.0516493,19 C11.0516493,19.4142136 10.7158629,19.75 10.3016493,19.75 L7.0000003,19.75 C4.37664774,19.75 2.2500003,17.6233526 2.2500003,15 L2.2500003,2 C2.2500003,1.58578644 2.58578674,1.25 3.0000003,1.25 Z M18,4 C16.6192881,4 15.5,5.11928813 15.5,6.5 C15.5,7.88071187 16.6192881,9 18,9 C19.3807119,9 20.5,7.88071187 20.5,6.5 C20.5,5.11928813 19.3807119,4 18,4 Z" id="Combined-Shape" fill="#FFFFFF"></path>
    </g>
</svg>