<?xml version="1.0" encoding="UTF-8"?>
<svg width="24px" height="24px" viewBox="0 0 24 24" version="1.1" xmlns="http://www.w3.org/2000/svg" xmlns:xlink="http://www.w3.org/1999/xlink">
    <title>UI Icons/newNav/branch_Merge</title>
    <g id="UI-Icons/newNav/branch_Merge" stroke="none" stroke-width="1" fill="none" fill-rule="evenodd">
        <path d="M3,1.25 C3.41421356,1.25 3.75,1.58578644 3.75,2 L3.75,5.75 L14.0701231,5.75039462 C14.4210217,3.89955342 16.0470693,2.5 18,2.5 C20.209139,2.5 22,4.290861 22,6.5 C22,7.55594987 21.5908313,8.51633328 20.9223931,9.23125098 L19.8618722,8.16839672 C20.2586603,7.72589321 20.5,7.14113056 20.5,6.5 C20.5,5.11928813 19.3807119,4 18,4 C16.6192881,4 15.5,5.11928813 15.5,6.5 C15.5,7.25638998 15.8359134,7.93432319 16.3666987,8.39275817 L15.3177575,9.46746137 C14.6849103,8.89508474 14.2360101,8.12310589 14.0703539,7.25082173 L3.75,7.25 L3.75,16 C3.75,17.7949254 5.20507456,19.25 7,19.25 L10.301649,19.25 C10.7158626,19.25 11.051649,19.5857864 11.051649,20 C11.051649,20.4142136 10.7158626,20.75 10.301649,20.75 L7,20.75 C4.37664744,20.75 2.25,18.6233526 2.25,16 L2.25,2 C2.25,1.58578644 2.58578644,1.25 3,1.25 Z M18.751856,10.9124348 L21.2891444,13.4507109 C21.5819806,13.7436611 21.5818882,14.2185349 21.288938,14.5113711 C20.9959878,14.8042073 20.521114,14.8041149 20.2282778,14.5111646 L19.005,13.287 L19.005095,19.9264051 C19.005095,20.3406187 18.6693086,20.6764051 18.255095,20.6764051 L14,20.6764051 C13.5857864,20.6764051 13.25,20.3406187 13.25,19.9264051 C13.25,19.5121916 13.5857864,19.1764051 14,19.1764051 L17.505,19.176 L17.505,13.25 L16.2656422,14.5235143 C16.0027977,14.7931595 15.5864772,14.8226845 15.2901075,14.6085974 L15.2050686,14.5370594 C14.9084588,14.2479305 14.9023945,13.7730954 15.1915234,13.4764857 L17.6843634,10.9191474 C17.9761466,10.6198147 18.4563315,10.6167952 18.751856,10.9124348 Z" id="Combined-Shape" fill="#FFFFFF"></path>
    </g>
</svg>