<?xml version="1.0" encoding="UTF-8"?>
<svg width="24px" height="24px" viewBox="0 0 24 24" version="1.1" xmlns="http://www.w3.org/2000/svg" xmlns:xlink="http://www.w3.org/1999/xlink">
    <title>UI Icons/NavIcons/SVG /broadcastStop</title>
    <g id="UI-Icons/NavIcons/broadcastStop" stroke="none" stroke-width="1" fill="none" fill-rule="evenodd">
        <path d="M18.7296953,0.00158024609 C20.4716753,0.00158024609 21.9393162,1.18394132 22.0384615,2.73758122 L22.0437978,2.9054264 L22.0384615,21.0603472 C22.0384615,22.6394725 20.6308888,23.8762862 18.9099001,23.959706 L18.724359,23.9641934 L5.31410256,23.9641934 C3.57212256,23.9641934 2.10448158,22.7818323 2.00533628,21.2281924 L2,21.0603472 L2.00533628,12.0592726 C2.00533628,11.645059 2.34112271,11.3092726 2.75533628,11.3092726 C3.13503204,11.3092726 3.44882724,11.5914264 3.49848966,11.957502 L3.50533628,12.0592726 L3.5,21.0603472 C3.5,21.762589 4.20115204,22.3905702 5.145097,22.4581785 L5.31410256,22.4641934 L18.724359,22.4641934 C19.6952818,22.4641934 20.450374,21.8752257 20.5312764,21.1834024 L20.5384615,21.0603472 L20.5437978,2.9054264 C20.5437978,2.20318458 19.8426458,1.57520342 18.8987008,1.50759515 L18.7296953,1.50158025 L15.473285,1.50158025 C15.0590714,1.50158025 14.723285,1.16579381 14.723285,0.751580246 C14.723285,0.371884481 15.0054389,0.0580892852 15.3715144,0.00842686209 L15.473285,0.00158024609 L18.7296953,0.00158024609 Z M15,11.0000631 L15.1166842,11.0067277 C15.6140226,11.0644928 16.0000586,11.4871642 16,12 L16,18 C15.9999369,18.5522601 15.5522601,18.9999651 15,19.0000631 L8.99993687,19.0005051 C8.44765212,19.0005051 7.99993687,18.5527898 8,18.0005051 L8,12.0005051 C8.00006314,11.448245 8.44773991,11.0005399 9,11.0004419 L15,11.0000631 Z M10.3274276,4.21137913 C10.7634418,4.21131329 11.1169546,4.56471933 11.1170205,5.0007336 C11.1170863,5.43674787 10.7636803,5.79026064 10.327666,5.79032648 C9.01990249,5.79052395 7.95980007,6.85062638 7.95960259,8.15838988 C7.95953676,8.59440415 7.60602398,8.94781018 7.17000971,8.94774434 C6.73399544,8.9476785 6.38058941,8.59416573 6.38065524,8.15815146 C6.38098436,5.97854563 8.14782174,4.21170825 10.3274276,4.21137913 Z M10.3275871,-1.78701498e-12 C10.7636013,2.22456246e-05 11.1170427,0.353499687 11.1170205,0.789513962 C11.1169982,1.22552824 10.7635208,1.57896961 10.3275065,1.57894737 C8.58254486,1.57885834 6.90902675,2.27200222 5.67515254,3.50587643 C4.44127833,4.73975064 3.74813445,6.41326875 3.74822348,8.15823039 C3.74824572,8.59424466 3.39480435,8.9477221 2.95879007,8.94774435 C2.5227758,8.94776659 2.16929836,8.59432522 2.16927611,8.15831095 C2.16916572,5.99455851 3.02866413,3.91939606 4.55866815,2.38939204 C6.08867217,0.859388017 8.16383462,-0.000110395534 10.3275871,-1.78701498e-12 Z" id="Combined-Shape" fill="#95A1AC"></path>
    </g>
</svg>