<?xml version="1.0" encoding="UTF-8"?>
<svg width="24px" height="24px" viewBox="0 0 24 24" version="1.1" xmlns="http://www.w3.org/2000/svg" xmlns:xlink="http://www.w3.org/1999/xlink">
    <title>UI Icons/canvasSettings</title>
    <g id="UI-Icons/canvasSettings" stroke="none" stroke-width="1" fill="none" fill-rule="evenodd">
        <path d="M6.79450456,2.44074616 C7.12376898,2.60852822 7.39147178,2.87623102 7.55926816,3.20552355 C7.69331428,3.4686101 7.73399468,3.64862017 7.74563169,4.10496963 L7.748,4.25 L16.2516845,4.25051949 C16.2581574,3.73530008 16.2872469,3.53235817 16.4032968,3.28224695 L16.4407849,3.20543906 C16.6086069,2.87616491 16.8762473,2.60847918 17.2055009,2.44073827 C17.5212044,2.27987564 17.7172601,2.25346762 18.4148063,2.2503567 L19.4,2.25 C20.2508948,2.25 20.452487,2.26647042 20.7944571,2.44071688 C21.1237527,2.60847918 21.3913931,2.87616491 21.5592455,3.20549875 C21.7335261,3.54752047 21.75,3.74913925 21.75,4.6 L21.75,5.4 C21.75,6.25086075 21.7335261,6.45247953 21.5592151,6.79456094 C21.3913931,7.12383509 21.1237527,7.39152082 20.7944991,7.55926173 C20.5314129,7.69331392 20.3514154,7.73399486 19.8950516,7.7456318 L19.75,7.748 L19.7508596,10.5612156 C19.2756298,10.3579185 18.7733445,10.2056958 18.2509048,10.1114486 L18.25,7.748 L18.1049489,7.74563206 C17.6942231,7.7351596 17.5073585,7.70116388 17.2823266,7.5967574 L17.2055429,7.55928312 C16.8762473,7.39152082 16.6086069,7.12383509 16.4407545,6.79450125 C16.3066925,6.53140762 16.2660072,6.35139265 16.2543688,5.89503672 L16.251,5.75 L7.748,5.75 L7.74563152,5.89503072 C7.73515767,6.30574626 7.70115711,6.49263001 7.59673409,6.71770547 L7.55925384,6.79450456 C7.39147178,7.12376898 7.12376898,7.39147178 6.79447645,7.55926816 C6.5313899,7.69331428 6.35137983,7.73399468 5.89503037,7.74563169 L5.75,7.748 L5.75,16.251 L5.89503746,16.2543692 C6.30575999,16.2648449 6.49265296,16.2988519 6.71775305,16.4032968 L6.79456094,16.4407849 C7.12383509,16.6086069 7.39152082,16.8762473 7.55926173,17.2055009 C7.69331392,17.4685871 7.73399486,17.6485846 7.7456318,18.1049484 L7.748,18.25 L10.1114486,18.2509048 C10.2056958,18.7733445 10.3579185,19.2756298 10.5612156,19.7508596 L7.748,19.75 L7.74563206,19.8950511 C7.7351596,20.3057769 7.70116388,20.4926415 7.5967574,20.7176734 L7.55928312,20.7944571 C7.39152082,21.1237527 7.12383509,21.3913931 6.79450125,21.5592455 C6.45247953,21.7335261 6.25086075,21.75 5.4,21.75 L4.6,21.75 C3.74913925,21.75 3.54752047,21.7335261 3.20543906,21.5592151 C2.87616491,21.3913931 2.60847918,21.1237527 2.44073827,20.7944991 C2.27987564,20.4787956 2.25346762,20.2827399 2.2503567,19.5851937 L2.25,18.6 C2.25,17.7491052 2.26647042,17.547513 2.44071688,17.2055429 C2.60847918,16.8762473 2.87616491,16.6086069 3.20549875,16.4407545 C3.49490174,16.2932863 3.68377956,16.2588039 4.2505197,16.2516844 L4.25,7.748 L4.10496928,7.74563152 C3.69425374,7.73515767 3.50736999,7.70115711 3.28229453,7.59673409 L3.20549544,7.55925384 C2.87623102,7.39147178 2.60852822,7.12376898 2.44073184,6.79447645 C2.2798765,6.47877258 2.25346779,6.28269886 2.25035672,5.58518465 L2.25,4.6 C2.25,3.74914933 2.26647189,3.54753607 2.44074616,3.20549544 C2.60852822,2.87623102 2.87623102,2.60852822 3.20552355,2.44073184 C3.52122742,2.2798765 3.71730114,2.25346779 4.41481535,2.25035672 L5.4,2.25 C6.25085067,2.25 6.45246393,2.26647189 6.79450456,2.44074616 Z M5.53969122,17.7502634 L4.46030883,17.7502633 C4.02757427,17.7520061 3.91590877,17.7622708 3.88658094,17.7772151 C3.83942477,17.8012493 3.80120467,17.8394629 3.77724173,17.8864991 C3.76227166,17.9158788 3.75200607,18.0275398 3.75026332,18.4603001 L3.75026334,19.5396999 C3.75200625,19.9724605 3.7622736,20.084125 3.77726312,20.1135429 C3.80120467,20.1605371 3.83942477,20.1987507 3.88652125,20.2227545 C3.91884156,20.2392236 4.05073075,20.25 4.6,20.25 L5.4,20.25 C5.94926925,20.25 6.08115844,20.2392236 6.11341906,20.2227849 C6.16057523,20.1987507 6.19879533,20.1605371 6.22275827,20.1135009 C6.23922535,20.0811832 6.25,19.9493052 6.25,19.4 L6.25,18.6 C6.25,18.0506948 6.23922535,17.9188168 6.22273688,17.8864571 C6.19879533,17.8394629 6.16057523,17.8012493 6.11347875,17.7772455 C6.08703486,17.7637708 5.99393743,17.7541069 5.66011856,17.7510382 L5.53969122,17.7502634 Z M5.53969386,3.75026335 L4.46030616,3.75026334 C4.0275629,3.75200621 3.91588946,3.76227204 3.88652456,3.77723384 C3.83946898,3.80121178 3.80121178,3.83946898 3.77724816,3.88649645 C3.76227334,3.91588691 3.75200632,4.02756267 3.75026335,4.46030614 L3.75026334,5.53969384 C3.75200621,5.9724371 3.76227204,6.08411054 3.77723384,6.11347544 C3.80121178,6.16053102 3.83946898,6.19878822 3.88649645,6.22275184 C3.91882595,6.23922415 4.05072067,6.25 4.6,6.25 L5.4,6.25 C5.94927933,6.25 6.08117405,6.23922415 6.11347544,6.22276616 C6.16053102,6.19878822 6.19878822,6.16053102 6.22275184,6.11350355 C6.23922415,6.08117405 6.25,5.94927933 6.25,5.4 L6.25,4.6 C6.25,4.05072067 6.23922415,3.91882595 6.22276616,3.88652456 C6.19878822,3.83946898 6.16053102,3.80121178 6.11350355,3.77724816 C6.08705214,3.76377082 5.99394963,3.75410681 5.66012365,3.75103815 L5.53969386,3.75026335 Z M19.5396999,3.75026332 L18.4603001,3.75026334 C18.0275395,3.75200625 17.915875,3.7622736 17.8864571,3.77726312 C17.8394629,3.80120467 17.8012493,3.83942477 17.7772455,3.88652125 C17.7622736,3.91590335 17.7520064,4.02757378 17.7502634,4.46030878 L17.7502633,5.53969117 C17.7520061,5.97242573 17.7622708,6.08409123 17.7772151,6.11341906 C17.8012493,6.16057523 17.8394629,6.19879533 17.8864991,6.22275827 C17.9188168,6.23922535 18.0506948,6.25 18.6,6.25 L19.4,6.25 C19.9493052,6.25 20.0811832,6.23922535 20.1135429,6.22273688 C20.1605371,6.19879533 20.1987507,6.16057523 20.2227545,6.11347875 C20.2392236,6.08115844 20.25,5.94926925 20.25,5.4 L20.25,4.6 C20.25,4.05073075 20.2392236,3.91884156 20.2227849,3.88658094 C20.1987507,3.83942477 20.1605371,3.80120467 20.1135009,3.77724173 C20.0870591,3.76376866 19.9939696,3.75410623 19.6601338,3.75103801 L19.5396999,3.75026332 Z M17.3242621,12.0000001 C17.6974299,11.9998497 18.0547702,12.1476917 18.3148796,12.4098476 C18.5749891,12.6720035 18.7157164,13.0261476 18.7043911,13.3566622 L18.7088598,13.434395 C18.7179419,13.510944 18.743382,13.5848214 18.7846274,13.6529182 C18.8649952,13.7871946 18.9965772,13.8846367 19.1503568,13.9237565 C19.3041365,13.9628764 19.467483,13.9404608 19.6221805,13.8517823 L19.7084025,13.8081566 C20.3557565,13.5099862 21.132162,13.7469373 21.491233,14.3575147 L21.8139498,14.906178 C21.8224569,14.9206413 21.8299568,14.9355888 21.8364213,14.9509177 L21.8663644,15.0096942 C22.1550082,15.6132576 21.9496401,16.3311923 21.4012722,16.6959364 L21.2658593,16.779306 C21.1950663,16.8276637 21.1360417,16.8908294 21.0916587,16.9667278 C21.0114982,17.1015308 20.9894968,17.2620812 21.0305265,17.4128257 C21.0715563,17.5635702 21.1722315,17.6920696 21.3249438,17.7785738 L21.4128117,17.8337341 C21.6782474,18.0156398 21.8699861,18.2837496 21.9536268,18.5910478 C22.0479932,18.9377526 21.9973909,19.3070106 21.8104745,19.6212781 L21.4633081,20.1879022 L21.4109692,20.2678268 C21.0030639,20.8425113 20.2110844,21.0180989 19.6066917,20.6762942 L19.5350603,20.6401338 C19.4603383,20.6073951 19.3797046,20.5894071 19.3063074,20.5873908 C19.1466383,20.5866369 18.9932864,20.6484467 18.880382,20.7590638 C18.7674777,20.8696808 18.7043897,21.019926 18.7048019,21.1946284 L18.7005324,21.284962 C18.6420869,21.9843805 18.0444668,22.5263157 17.3244223,22.5263157 L16.6742428,22.5263157 C15.9116804,22.5263157 15.2935014,21.9206604 15.294274,21.1975519 L15.2898053,21.1198191 C15.2807232,21.0432701 15.2552831,20.9693927 15.2119479,20.897761 C15.1333447,20.7631456 15.0031129,20.66487 14.8501996,20.6247786 C14.6972863,20.5846872 14.5343624,20.6061019 14.3766586,20.6954269 L14.282958,20.7412733 C13.9866318,20.8718426 13.6523843,20.8959629 13.3391848,20.8087516 C12.9858226,20.7103569 12.6870491,20.4780562 12.5126973,20.1696816 L12.1772581,19.602206 L12.1326137,19.5181256 C11.8271436,18.8863931 12.0665862,18.1269631 12.6742889,17.7828707 L12.729712,17.7488655 C12.892059,17.6387768 12.989404,17.4572717 12.989404,17.263158 C12.989404,17.0520837 12.8744679,16.8570432 12.6734121,16.7428997 L12.5918348,16.6916211 C12.005267,16.2919796 11.8260487,15.5160448 12.1894182,14.8983974 L12.5311466,14.3482403 C12.9112021,13.7019799 13.7534491,13.4790355 14.4012369,13.8430067 L14.4713615,13.8796308 C14.5428493,13.9117774 14.620501,13.9288404 14.6952696,13.9296213 C15.0249558,13.9296546 15.2935549,13.6702745 15.2985477,13.3377934 L15.3030268,13.2356867 C15.3300223,12.9195595 15.4700361,12.6224741 15.6989251,12.397144 C15.9571632,12.1429212 16.3081571,12.0000001 16.6742428,12.0000001 Z M17.0017055,16.3050314 C16.4616048,16.3050314 16.0237668,16.7339993 16.0237668,17.263158 C16.0237668,17.7923167 16.4616048,18.2212846 17.0017055,18.2212846 C17.5418061,18.2212846 17.9796442,17.7923167 17.9796442,17.263158 C17.9796442,16.7339993 17.5418061,16.3050314 17.0017055,16.3050314 Z" id="Combined-Shape" fill="#95A1AC"></path>
    </g>
</svg>