<?xml version="1.0" encoding="UTF-8"?>
<svg width="24px" height="24px" viewBox="0 0 24 24" version="1.1" xmlns="http://www.w3.org/2000/svg" xmlns:xlink="http://www.w3.org/1999/xlink">
    <title>UI Icons/SVG /checkmarkIssues</title>
    <g id="UI-Icons/checkmarkIssues" stroke="none" stroke-width="1" fill="none" fill-rule="evenodd">
        <path d="M12.0000001,0 C18.6274171,0 24,5.37258311 24,12 C24,18.6274171 18.6274171,24 12.0000001,24 C11.7790862,24 11.6000001,23.8209141 11.6000001,23.6000002 C11.6000001,23.3790863 11.7790862,23.2000002 12.0000001,23.2000002 C18.1855893,23.2000002 23.2000002,18.1855893 23.2000002,12 C23.2000002,5.81441085 18.1855893,0.800000006 12.0000001,0.800000006 C11.7790862,0.800000006 11.6000001,0.620913905 11.6000001,0.400000003 C11.6000001,0.179086101 11.7790862,0 12.0000001,0 Z M6.12000005,21.5200002 C6.64840011,21.8494203 7.20323937,22.1343993 7.77880006,22.3720002 C7.95586056,22.4441864 8.05707203,22.6315901 8.02034117,22.819239 C7.98361031,23.0068879 7.81921004,23.1423001 7.62800006,23.1424002 C7.57504896,23.1404214 7.5238027,23.1302265 7.47600006,23.1104002 C6.8588388,22.8564517 6.26397035,22.551391 5.69760004,22.1984002 C5.56911582,22.1263746 5.49061175,21.9895643 5.49325975,21.8422929 C5.49590776,21.6950215 5.57927932,21.5611217 5.71026976,21.4937616 C5.8412602,21.4264016 5.99867163,21.436482 6.12000005,21.5200002 Z M17.4828001,6.98600005 L18.6140001,8.11720006 C18.7701529,8.2734 18.7701529,8.52660012 18.6140001,8.68280006 L9.88280007,17.4140001 C9.72660013,17.5701529 9.47340001,17.5701529 9.31720007,17.4140001 L4.98600004,13.0828001 C4.82984726,12.9266002 4.82984726,12.6734 4.98600004,12.5172001 L6.11720005,11.3860001 C6.27339999,11.2298473 6.52660011,11.2298473 6.68280005,11.3860001 L9.60000007,14.3032001 L16.9172001,6.98600005 C17.0734001,6.82984728 17.3266002,6.82984728 17.4828001,6.98600005 Z M7.65625625,0.854096631 L7.73825234,0.865506706 C7.79197652,0.878755996 7.8432139,0.903205964 7.88832228,0.938349783 C8.00109325,1.02620933 8.0584254,1.16755749 8.03872228,1.30914979 C8.01901917,1.45074208 7.92527414,1.57106727 7.79280006,1.62480001 C7.2185908,1.86031946 6.66495149,2.14315984 6.13760005,2.47040002 C6.09556945,2.49622723 6.04931188,2.51394433 6.00121838,2.52287602 L5.92800004,2.52960006 C5.74951624,2.52868184 5.59323844,2.40962329 5.54496519,2.23778906 C5.49669193,2.06595483 5.56810596,1.88293099 5.72000004,1.78920001 C6.28458233,1.43869283 6.87728372,1.13565251 7.49200006,0.883200007 C7.54498969,0.861706908 7.60095582,0.852174724 7.65625625,0.854096631 Z M0.448000003,13.3624024 C0.239286135,13.3631029 0.0651134514,13.2032124 0.0480000004,12.9952001 C0.0240000002,12.6800001 0,12.3428001 0,12.0000001 C0,11.6572001 0.0240000002,11.3200001 0.0496000004,11.0048001 C0.0613183118,10.8623226 0.148157329,10.7369196 0.277405635,10.6758291 C0.406653941,10.6147387 0.558675644,10.627242 0.676205638,10.7086291 C0.793735633,10.7900163 0.858918318,10.9279226 0.847200006,11.0704001 C0.822800006,11.3676001 0.800000006,11.6856001 0.800000006,12.0000001 C0.800000006,12.3144001 0.822800006,12.6324001 0.847200006,12.9296001 C0.85559439,13.0353714 0.82162052,13.1401444 0.752754522,13.2208632 C0.683888524,13.3015819 0.585773441,13.3516322 0.480000004,13.3600001 L0.448000003,13.3624024 Z M1.65360001,7.17400025 C1.51447284,7.17406816 1.38530419,7.10183964 1.31251551,6.98327243 C1.23972683,6.86470522 1.23377538,6.71683339 1.29680001,6.59280005 C1.59803011,6.00001606 1.94775468,5.43315187 2.34240002,4.89800004 C2.47362288,4.72016435 2.72416433,4.68237719 2.90200002,4.81360004 C3.0798357,4.9448229 3.11762287,5.19536435 2.98640002,5.37320004 C2.61790683,5.87243583 2.29158165,6.40145994 2.01080001,6.95480005 C1.94260303,7.08938636 1.80447838,7.17414819 1.65360001,7.17400025 L1.65360001,7.17400025 Z M2.64360002,19.2364002 C2.51607276,19.236442 2.39616863,19.1756728 2.32080002,19.0728001 C1.9274201,18.5352251 1.57954836,17.9657858 1.28080001,17.3704001 C1.18138876,17.1730136 1.26081345,16.9324114 1.45820001,16.8330001 C1.65558658,16.7335889 1.89618876,16.8130136 1.99560001,17.0104001 C2.27455902,17.5661862 2.59913847,18.0978757 2.96600002,18.6000001 C3.05503638,18.7215282 3.06823841,18.882775 3.00015542,19.0171671 C2.93207243,19.1515592 2.79425367,19.236299 2.64360002,19.2364002 L2.64360002,19.2364002 Z" id="Combined-Shape" fill="#95A1AC"></path>
    </g>
</svg>