<?xml version="1.0" encoding="UTF-8"?>
<svg width="24px" height="24px" viewBox="0 0 24 24" version="1.1" xmlns="http://www.w3.org/2000/svg" xmlns:xlink="http://www.w3.org/1999/xlink">
    <title>UI Icons/SVG /checkmarkIssuesErrors</title>
    <g id="UI-Icons/checkmarkIssuesErrors" stroke="none" stroke-width="1" fill="none" fill-rule="evenodd">
        <path d="M11.8045231,1 L11.9126978,1.01587529 L20.9126978,3.01587529 C21.255851,3.09213155 21.5,3.3964916 21.5,3.74801559 L21.5,12.7480156 C21.5,16.0896768 19.6783714,18.8221197 16.6891179,20.981025 C15.6626113,21.7223909 14.5669546,22.343263 13.4713427,22.8504908 C13.0874985,23.0281964 12.7303451,23.1792998 12.4085534,23.304441 L12.2971621,23.3472818 L11.9871708,23.4595281 C11.8332207,23.5108448 11.6667793,23.5108448 11.5128292,23.4595281 L11.2028379,23.3472818 L10.843608,23.2057072 C10.58941,23.1020854 10.3165405,22.98377 10.0286573,22.8504908 C8.93304542,22.343263 7.83738867,21.7223909 6.81088208,20.981025 C3.82162856,18.8221197 2,16.0896768 2,12.7480156 L2,3.74801559 C2,3.3964916 2.24414899,3.09213155 2.58730216,3.01587529 L11.5873022,1.01587529 C11.6230216,1.00793765 11.6591766,1.00264588 11.6954769,1 L11.8045231,1 Z M11.75,2.51601559 L3.5,4.34901559 L3.5,12.7480156 C3.5,15.4353771 4.94808942,17.7001789 7.42033483,19.5665602 L7.68911792,19.7650062 C8.63136133,20.4455153 9.64507958,21.0199556 10.6588427,21.4892904 C11.0132797,21.6533816 11.3416732,21.7923173 11.6351159,21.906434 L11.75,21.9500156 L12.0913802,21.8161877 C12.3241512,21.7212773 12.5753295,21.6123588 12.8411573,21.4892904 C13.8549204,21.0199556 14.8686387,20.4455153 15.8108821,19.7650062 C18.4466286,17.8614115 20,15.5313543 20,12.7480156 L20,4.35001559 L11.75,2.51601559 Z M17.2380935,7.17857314 C17.5239975,7.42363369 17.5800889,7.83721357 17.3853951,8.1466689 L17.3194425,8.23610912 L11.3194425,15.2361091 C11.0588164,15.5401729 10.6114711,15.5818577 10.3007744,15.3487445 L10.2196699,15.2783457 L7.21966991,12.2783457 C6.9267767,11.9854525 6.9267767,11.5105787 7.21966991,11.2176855 C7.48593648,10.9514189 7.90260016,10.9272129 8.19621165,11.1450673 L8.28033009,11.2176855 L10.707,13.6440156 L16.1805575,7.25992206 C16.4501242,6.94542768 16.9235991,6.90900652 17.2380935,7.17857314 Z" id="Combined-Shape" fill="#95A1AC"></path>
    </g>
</svg>