<?xml version="1.0" encoding="UTF-8"?>
<svg width="24px" height="24px" viewBox="0 0 24 24" version="1.1" xmlns="http://www.w3.org/2000/svg" xmlns:xlink="http://www.w3.org/1999/xlink">
    <title>UI Icons/SVG /check_errors</title>
    <g id="UI-Icons/check_errors" stroke="none" stroke-width="1" fill="none" fill-rule="evenodd">
        <path d="M20,2 C21.1045695,2 22,2.8954305 22,4 L22.0013298,11.255617 C21.5388281,10.9328528 21.0355239,10.6645176 20.5007039,10.4598981 L20.5,4 C20.5,3.72385763 20.2761424,3.5 20,3.5 L4,3.5 C3.72385763,3.5 3.5,3.72385763 3.5,4 L3.5,20 C3.5,20.2761424 3.72385763,20.5 4,20.5 L11.9367104,20.5004062 C12.2564222,21.053007 12.6495098,21.5578458 13.1026501,22.0015996 L4,22 C2.8954305,22 2,21.1045695 2,20 L2,4 C2,2.8954305 2.8954305,2 4,2 L20,2 Z M22.0072847,15.6669862 C22.3756511,16.0353525 22.3756511,16.6325924 22.0072847,17.0009587 L17.3011366,21.7071068 C16.9106123,22.0976311 16.2774474,22.0976311 15.8869231,21.7071068 L14.0464466,19.8666303 C13.6780803,19.498264 13.6780803,18.9010242 14.0464466,18.5326579 C14.414833,18.1642715 15.0120882,18.1642159 15.3805431,18.5325338 L16.5935672,19.7451068 L20.6731981,15.6668721 C21.041646,15.2985503 21.6388999,15.2986014 22.0072847,15.6669862 Z M12,15.1666667 C12.4602373,15.1666667 12.8333333,15.5397627 12.8333333,16 C12.8333333,16.4602373 12.4602373,16.8333333 12,16.8333333 C11.5397627,16.8333333 11.1666667,16.4602373 11.1666667,16 C11.1666667,15.5397627 11.5397627,15.1666667 12,15.1666667 Z M12,5.16666667 C12.4602373,5.16666667 12.8333333,5.53976271 12.8333333,6 L12.8333333,12.6666667 C12.8333333,13.126904 12.4602373,13.5 12,13.5 C11.5397627,13.5 11.1666667,13.126904 11.1666667,12.6666667 L11.1666667,6 C11.1666667,5.53976271 11.5397627,5.16666667 12,5.16666667 Z" id="Combined-Shape" fill="#95A1AC"></path>
    </g>
</svg>