<?xml version="1.0" encoding="UTF-8"?>
<svg width="24px" height="24px" viewBox="0 0 24 24" version="1.1" xmlns="http://www.w3.org/2000/svg" xmlns:xlink="http://www.w3.org/1999/xlink">
    <title>UI Icons/UI InspectorPanel/child</title>
    <g id="UI-Icons/UI-InspectorPanel/child" stroke="none" stroke-width="1" fill="none" fill-rule="evenodd">
        <path d="M3,6 L21,6 C21.5522847,6 22,6.44771525 22,7 L22,9 C22,9.55228475 21.5522847,10 21,10 L3,10 C2.44771525,10 2,9.55228475 2,9 L2,7 C2,6.44771525 2.44771525,6 3,6 Z M9,14 L21,14 C21.5522847,14 22,14.4477153 22,15 L22,17 C22,17.5522847 21.5522847,18 21,18 L9,18 C8.44771525,18 8,17.5522847 8,17 L8,15 C8,14.4477153 8.44771525,14 9,14 Z" id="Combined-Shape" fill="#95A1AC"></path>
    </g>
</svg>