<?xml version="1.0" encoding="UTF-8"?>
<svg width="24px" height="24px" viewBox="0 0 24 24" version="1.1" xmlns="http://www.w3.org/2000/svg" xmlns:xlink="http://www.w3.org/1999/xlink">
    <title>UI Icons/newNav/CloudFunctionsDeploy_v2</title>
    <g id="UI-Icons/newNav/CloudFunctionsDeploy" stroke="none" stroke-width="1" fill="none" fill-rule="evenodd">
        <path d="M11.527698,11.5340297 C11.7958366,11.2674809 12.2288281,11.2674809 12.4969667,11.5340297 L14.7620306,13.7990937 C15.0296867,14.0667498 15.0296867,14.5007062 14.7620306,14.7683623 C14.4943744,15.0360185 14.0604181,15.0360185 13.792762,14.7683623 L12.703194,13.6787944 L12.703194,19.5837714 C12.703194,19.9634255 12.3954236,20.2711959 12.0157695,20.2711959 C11.6361154,20.2711959 11.3283449,19.9634255 11.3283449,19.5837714 L11.3283449,13.6787944 L10.2329574,14.7694193 C9.96454778,15.0366619 9.53046084,15.0361891 9.26263408,14.7683623 C8.99497793,14.5007062 8.99497793,14.0667498 9.26263408,13.7990937 Z M10.1547823,3.2293395 C14.2053456,2.21255264 18.31318,4.67189995 19.3299668,8.72246326 C21.4790279,9.24744081 22.9932523,11.1701244 22.9999774,13.3823425 C23.008032,16.0399259 20.8601739,18.200845 18.2025905,18.2089122 L16.1403333,18.2089122 C15.7606701,18.2089122 15.4528923,17.9011344 15.4528923,17.5214712 C15.4528923,17.141808 15.7606701,16.8340302 16.1403333,16.8340302 L18.2025905,16.8340302 C19.9071457,16.8255233 21.3479876,15.5690401 21.5882854,13.8814987 C21.8558654,12.0022088 20.5493721,10.2617787 18.6700392,9.99415574 C18.3773682,9.95531626 18.1422261,9.73396555 18.0857284,9.44421609 C17.5135763,6.54229626 14.9673987,4.45123666 12.0095826,4.45420118 C8.59269588,4.45759534 5.82551126,7.23032232 5.82894838,10.6472091 C5.82894838,11.0268823 5.52119699,11.3346336 5.14152381,11.3346336 C3.62291702,11.3346336 2.39182556,12.5657251 2.39182556,14.0843319 C2.39182556,15.6029387 3.62291702,16.8340302 5.14152381,16.8340302 L7.89120561,16.8340302 C8.27086881,16.8340302 8.57864664,17.141808 8.57864664,17.5214712 C8.57864664,17.9011344 8.27086881,18.2089122 7.89120561,18.2089122 L5.14152381,18.2089122 C3.11645698,18.2169136 1.38509228,16.7536015 1.0556011,14.7554731 C0.684950365,12.5078955 2.20652167,10.3854292 4.45409925,10.0147785 C4.69091701,6.75978021 6.98936401,4.02395933 10.1547823,3.2293395 Z" id="Combined-Shape" fill="#FFFFFF"></path>
    </g>
</svg>