<?xml version="1.0" encoding="UTF-8"?>
<svg width="24px" height="24px" viewBox="0 0 24 24" version="1.1" xmlns="http://www.w3.org/2000/svg" xmlns:xlink="http://www.w3.org/1999/xlink">
    <title>UI Icons/newNav/CloudFunctions</title>
    <g id="UI-Icons/newNav/CloudFunctions" stroke="none" stroke-width="1" fill="none" fill-rule="evenodd">
        <path d="M19.3299668,8.72246326 C18.31318,4.67189995 14.2053456,2.21255264 10.1547823,3.2293395 C6.98936401,4.02395933 4.69091701,6.75978021 4.45409925,10.0147785 C2.20652167,10.3854292 0.684950365,12.5078955 1.0556011,14.7554731 C1.38509228,16.7536015 3.11645698,18.2169136 5.14152381,18.2089122 L7.89120561,18.2089122 C8.27086881,18.2089122 8.57864664,17.9011344 8.57864664,17.5214712 C8.57864664,17.141808 8.27086881,16.8340302 7.89120561,16.8340302 L5.14152381,16.8340302 L5.14152381,16.8340302 C3.62291702,16.8340302 2.39182556,15.6029387 2.39182556,14.0843319 C2.39182556,12.5657251 3.62291702,11.3346336 5.14152381,11.3346336 C5.52119699,11.3346336 5.82894838,11.0268823 5.82894838,10.6472091 C5.82551126,7.23032232 8.59269588,4.45759534 12.0095826,4.45420118 C14.9673987,4.45123666 17.5135763,6.54229626 18.0857284,9.44421609 C18.1422261,9.73396555 18.3773682,9.95531626 18.6700392,9.99415574 C20.5493721,10.2617787 21.8558654,12.0022088 21.5882854,13.8814987 C21.3479876,15.5690401 19.9071457,16.8255233 18.2025905,16.8340302 L10.1403333,16.8340302 C9.76067011,16.8340302 9.45289228,17.141808 9.45289228,17.5214712 C9.45289228,17.9011344 9.76067011,18.2089122 10.1403333,18.2089122 L18.2025905,18.2089122 L18.2025905,18.2089122 C20.8601739,18.200845 23.008032,16.0399259 23.0000891,13.3823425 C22.9932523,11.1701244 21.4790279,9.24744081 19.3299668,8.72246326 Z" id="Combined-Shape" fill="#FFFFFF"></path>
    </g>
</svg>