<?xml version="1.0" encoding="UTF-8"?>
<svg width="24px" height="24px" viewBox="0 0 24 24" version="1.1" xmlns="http://www.w3.org/2000/svg" xmlns:xlink="http://www.w3.org/1999/xlink">
    <title>UI Icons/newNav/SVG /codeExclude</title>
    <g id="UI-Icons/newNav/codeExclude" stroke="none" stroke-width="1" fill="none" fill-rule="evenodd">
        <path d="M10.554,13.499 L12.02,13.5 L9.89297252,19.35024 C9.76302075,19.7076074 9.36797052,19.8919642 9.01060314,19.7620124 C8.65323576,19.6320606 8.46887898,19.2370104 8.59883076,18.879643 L10.554,13.499 Z M4.784,13.499 L7.10981123,15.8248024 C7.35425266,16.0692438 7.37647461,16.4517548 7.17647707,16.7212997 L7.10981123,16.7985232 C6.84092565,17.0674088 6.40497599,17.0674088 6.13609041,16.7985232 L2.836,13.499 L4.784,13.499 Z M21.162,13.5 L17.8639096,16.7985232 C17.595024,17.0674088 17.1590744,17.0674088 16.8901888,16.7985232 C16.6213032,16.5296376 16.6213032,16.093688 16.8901888,15.8248024 L19.214,13.5 L21.162,13.5 Z M1.5,12 L22.5,12 C22.7761424,12 23,12.2238576 23,12.5 C23,12.7761424 22.7761424,13 22.5,13 L1.5,13 C1.22385763,13 1,12.7761424 1,12.5 C1,12.2238576 1.22385763,12 1.5,12 Z M17.8639096,7.95594994 L21.408,11.5 L19.46,11.5 L16.8901888,8.92967076 C16.6457473,8.68522932 16.6235254,8.3027184 16.8235229,8.03317342 L16.8901888,7.95594994 C17.1590744,7.68706436 17.595024,7.68706436 17.8639096,7.95594994 Z M14.7271018,4.04164111 C15.0844692,4.17159288 15.2688259,4.56664311 15.1388742,4.92401049 L12.747,11.5 L11.282,11.499 L13.8447324,4.45341349 C13.9746842,4.09604611 14.3697344,3.91168933 14.7271018,4.04164111 Z M7.10981123,7.95594994 C7.3786968,8.22483552 7.3786968,8.66078518 7.10981123,8.92967076 L4.54,11.499 L2.592,11.499 L6.13609041,7.95594994 C6.40497599,7.68706436 6.84092565,7.68706436 7.10981123,7.95594994 Z" id="Combined-Shape" fill="#FFFFFF"></path>
    </g>
</svg>