<?xml version="1.0" encoding="UTF-8"?>
<svg width="24px" height="24px" viewBox="0 0 24 24" version="1.1" xmlns="http://www.w3.org/2000/svg" xmlns:xlink="http://www.w3.org/1999/xlink">
    <title>UI Icons/newNav/codeView_v2</title>
    <g id="UI-Icons/newNav/codeView" stroke="none" stroke-width="1" fill="none" fill-rule="evenodd">
        <path d="M4.9633085,6.74713993 C5.28597119,6.42447724 5.80911078,6.42447724 6.13177347,6.74713993 C6.45443617,7.06980262 6.45443617,7.59294221 6.13177347,7.91560491 L1.99506885,12.0529986 L6.13177347,16.1897629 C6.42510319,16.4830926 6.45176953,16.9421057 6.21177249,17.2655597 L6.13177347,17.3582279 C5.80911078,17.6808906 5.28597119,17.6808906 4.9633085,17.3582279 L0.24199702,12.6369164 C-0.0806656734,12.3142537 -0.0806656734,11.7911141 0.24199702,11.4684514 L4.9633085,6.74713993 Z M17.8682265,6.74713993 C18.1908892,6.42447724 18.7140288,6.42447724 19.0366915,6.74713993 L23.758003,11.4684514 C24.0806657,11.7911141 24.0806657,12.3142537 23.758003,12.6369164 L19.0366915,17.3582279 C18.7140288,17.6808906 18.1908892,17.6808906 17.8682265,17.3582279 C17.5455638,17.0355652 17.5455638,16.5124256 17.8682265,16.1897629 L22.0052459,12.0529986 L17.8682265,7.91560491 C17.5748968,7.62227519 17.5482305,7.16326208 17.7882275,6.83980811 L17.8682265,6.74713993 Z M14.2136789,2.54409618 C14.369621,2.11525533 14.8436813,1.8940272 15.2725221,2.04996933 C15.701363,2.20591146 15.9225911,2.67997173 15.766649,3.10881259 L9.47156703,20.420288 C9.3156249,20.8491289 8.84156462,21.070357 8.41272376,20.9144149 C7.98388291,20.7584727 7.76265478,20.2844124 7.91859691,19.8555716 L14.2136789,2.54409618 Z" id="Combined-Shape" fill="#FFFFFF"></path>
    </g>
</svg>