<?xml version="1.0" encoding="UTF-8"?>
<svg width="24px" height="24px" viewBox="0 0 24 24" version="1.1" xmlns="http://www.w3.org/2000/svg" xmlns:xlink="http://www.w3.org/1999/xlink">
    <title>UI Icons/NavIcons/SVG /commentMode</title>
    <g id="UI-Icons/NavIcons/commentMode" stroke="none" stroke-width="1" fill="none" fill-rule="evenodd">
        <path d="M22.3895426,12.6654381 C22.787942,13.400023 22.9978186,14.2219941 23,15.0822316 C22.9493385,16.6663072 22.2315448,18.1466207 21.0380608,19.1661968 L20.9407508,19.2445366 L20.9407508,21.9251477 C20.9407508,22.4387912 20.4133824,22.7676215 19.9611696,22.5704668 L19.8774075,22.5272531 L17.3261386,20.9970758 L17.2651371,21.0129144 C16.6705293,21.146421 16.0655424,21.2249212 15.4610787,21.2474006 L15.0985505,21.2541576 C13.2730754,21.2774517 11.4814566,20.7605392 9.94894853,19.7684098 C9.62342849,19.5576715 9.53037942,19.1229483 9.74111763,18.7974283 C9.95185584,18.4719083 10.386579,18.3788592 10.7120991,18.5895974 C12.0121632,19.4312451 13.5320373,19.8697546 15.0895095,19.8499365 C15.8230202,19.8498509 16.5534585,19.7551881 17.2627588,19.5682895 C17.409188,19.5297058 17.5631176,19.5397262 17.7019385,19.5951332 L17.802868,19.6451482 L19.5364725,20.685326 L19.5364725,18.90027 C19.5364725,18.7054837 19.6172774,18.5210218 19.7569821,18.389346 L19.8316413,18.3281035 C20.9016179,17.567051 21.5544679,16.3497035 21.5960838,15.061919 C21.5942523,14.4586351 21.4427375,13.8652348 21.1551236,13.3349207 C20.9702511,12.9940453 21.0967164,12.5678424 21.4375918,12.3829699 C21.7784672,12.1980974 22.2046701,12.3245627 22.3895426,12.6654381 Z M10.9703754,2 C16.4441006,2 20.9407508,5.49719005 20.9407508,9.91076732 C20.9407508,14.3243446 16.4441006,17.8215346 10.969553,17.8215342 C10.0671945,17.8204772 9.16763316,17.7211766 8.28677071,17.5253876 L8.535,17.576 L4.0757902,19.8069975 C3.66729166,20.0112767 3.19565111,19.776897 3.08412377,19.3654274 L3.06589123,19.2746401 L3.05960806,19.1790036 L3.05960806,14.7368035 L2.89974095,14.5742382 C1.77857824,13.3844832 1.10804558,11.8348486 1.01086662,10.1863821 L1,9.91076732 C1,5.49719005 5.49665015,2 10.9703754,2 Z M10.9703754,3.40427822 C6.20593347,3.40427822 2.40413748,6.36094829 2.40413748,9.89670956 C2.43487081,11.4314313 3.09659662,12.885684 4.23351083,13.9170624 C4.38021892,14.0501521 4.46388628,14.2390182 4.46388628,14.4370993 L4.46388628,18.0424744 L8.12507404,16.2119815 C8.24047744,16.1542713 8.3689607,16.1297529 8.49634899,16.1401714 L8.59146343,16.1545631 C9.37282338,16.3282358 10.17077,16.4163194 10.9703754,16.4172564 C15.7348173,16.4172564 19.5364725,13.4605863 19.5364725,9.91076732 C19.5364725,6.36094829 15.7348173,3.40427822 10.9703754,3.40427822 Z M11.7505299,11.3618548 C12.1383107,11.3618548 12.4526691,11.6762132 12.4526691,12.0639939 C12.4526691,12.4194596 12.1885207,12.7132301 11.8458061,12.7597233 L11.7505299,12.766133 L6.25824179,12.766133 C5.87046106,12.766133 5.55610268,12.4517746 5.55610268,12.0639939 C5.55610268,11.7085283 5.82025104,11.4147578 6.16296567,11.3682645 L6.25824179,11.3618548 L11.7505299,11.3618548 Z M15.8697461,7.24263869 C16.2575268,7.24263869 16.5718852,7.55699708 16.5718852,7.94477781 C16.5718852,8.30024347 16.3077368,8.59401397 15.9650222,8.64050721 L15.8697461,8.64691692 L6.25824179,8.64691692 C5.87046106,8.64691692 5.55610268,8.33255853 5.55610268,7.94477781 C5.55610268,7.58931214 5.82025104,7.29554164 6.16296567,7.2490484 L6.25824179,7.24263869 L15.8697461,7.24263869 Z" id="Combined-Shape" fill="#95A1AC"></path>
    </g>
</svg>