<?xml version="1.0" encoding="UTF-8"?>
<svg width="24px" height="24px" viewBox="0 0 24 24" version="1.1" xmlns="http://www.w3.org/2000/svg" xmlns:xlink="http://www.w3.org/1999/xlink">
    <title>UI Icons /SVG /command</title>
    <g id="UI-Icons-/command" stroke="none" stroke-width="1" fill="none" fill-rule="evenodd">
        <path d="M6.90909091,9.81818182 L17.0909091,9.81818182 C18.6949091,9.81818182 20,8.51309091 20,6.90909091 C20,5.30509091 18.6949091,4 17.0909091,4 C15.4869091,4 14.1818182,5.30509091 14.1818182,6.90909091 L14.1818182,8.36363636 L9.81818182,8.36363636 L9.81818182,6.90909091 C9.81818182,5.30509091 8.51309091,4 6.90909091,4 C5.30509091,4 4,5.30509091 4,6.90909091 C4,8.51309091 5.30509091,9.81818182 6.90909091,9.81818182 Z M15.6363636,6.90909091 C15.6363636,6.10690909 16.2887273,5.45454545 17.0909091,5.45454545 C17.8930909,5.45454545 18.5454545,6.10690909 18.5454545,6.90909091 C18.5454545,7.71127273 17.8930909,8.36363636 17.0909091,8.36363636 L15.6363636,8.36363636 L15.6363636,6.90909091 Z M6.90909091,5.45454545 C7.71127273,5.45454545 8.36363636,6.10690909 8.36363636,6.90909091 L8.36363636,8.36363636 L6.90909091,8.36363636 C6.10690909,8.36363636 5.45454545,7.71127273 5.45454545,6.90909091 C5.45454545,6.10690909 6.10690909,5.45454545 6.90909091,5.45454545 Z M17.0909091,14.1818182 L15.6363636,14.1818182 L15.6363636,10.5454545 L14.1818182,10.5454545 L14.1818182,14.1818182 L9.81818182,14.1818182 L9.81818182,10.5454545 L8.36363636,10.5454545 L8.36363636,14.1818182 L6.90909091,14.1818182 C5.30509091,14.1818182 4,15.4869091 4,17.0909091 C4,18.6949091 5.30509091,20 6.90909091,20 C8.51309091,20 9.81818182,18.6949091 9.81818182,17.0909091 L9.81818182,16.3636364 L8.36363636,16.3636364 L8.36363636,17.0909091 C8.36363636,17.8930909 7.71127273,18.5454545 6.90909091,18.5454545 C6.10690909,18.5454545 5.45454545,17.8930909 5.45454545,17.0909091 C5.45454545,16.2887273 6.10690909,15.6363636 6.90909091,15.6363636 L17.0909091,15.6363636 C17.8930909,15.6363636 18.5454545,16.2887273 18.5454545,17.0909091 C18.5454545,17.8930909 17.8930909,18.5454545 17.0909091,18.5454545 C16.2887273,18.5454545 15.6363636,17.8930909 15.6363636,17.0909091 L15.6363636,16.3636364 L14.1818182,16.3636364 L14.1818182,17.0909091 C14.1818182,18.6949091 15.4869091,20 17.0909091,20 C18.6949091,20 20,18.6949091 20,17.0909091 C20,15.4869091 18.6949091,14.1818182 17.0909091,14.1818182 Z" id="Combined-Shape" fill="#95A1AC"></path>
    </g>
</svg>