<?xml version="1.0" encoding="UTF-8"?>
<svg width="24px" height="24px" viewBox="0 0 24 24" version="1.1" xmlns="http://www.w3.org/2000/svg" xmlns:xlink="http://www.w3.org/1999/xlink">
    <title>UI Icons/NavIcons/commentMode_alt</title>
    <g id="UI-Icons/NavIcons/commentMode_alt" stroke="none" stroke-width="1" fill="none" fill-rule="evenodd">
        <path d="M12,3 C17.5478999,3 22,6.52885355 22,11.1276596 C22,12.9723572 21.28178,14.7337978 19.9995877,16.1308673 L19.8340426,16.3038298 L20.1260827,20.4445222 C20.1572584,20.8872171 19.7423494,21.2162081 19.3295011,21.1075564 L19.2470917,21.0798949 L14.5617021,19.1574468 L14.3673037,19.1999272 C13.7065157,19.3324686 13.0534478,19.4125979 12.395474,19.435626 L12,19.4425532 C6.49372724,19.4425532 2,15.7564543 2,11.1276596 C2,6.52885355 6.45210012,3 12,3 Z M12,4.27659574 C7.10053059,4.27659574 3.27659574,7.30754871 3.27659574,11.1276596 C3.27659574,14.9893966 7.1491447,18.1659574 12,18.1659574 C12.8229,18.1659574 13.6376699,18.0641112 14.4777493,17.8702468 C14.6065005,17.8405349 14.7412994,17.8515127 14.8635466,17.9016654 L18.7795745,19.5080851 L18.540584,16.1029955 C18.5294566,15.9449858 18.5774967,15.7896942 18.6733888,15.6663666 L18.7365758,15.5964397 C20.0101921,14.3807151 20.7234043,12.7908462 20.7234043,11.1276596 C20.7234043,7.30754871 16.8994694,4.27659574 12,4.27659574 Z M12.6241135,12.3617021 C12.9766357,12.3617021 13.2624113,12.6474778 13.2624113,13 C13.2624113,13.3231453 13.0222804,13.5902051 12.7107267,13.632471 L12.6241135,13.6382979 L7.63120567,13.6382979 C7.27868349,13.6382979 6.9929078,13.3525222 6.9929078,13 C6.9929078,12.6768547 7.23303876,12.4097949 7.54459243,12.367529 L7.63120567,12.3617021 L12.6241135,12.3617021 Z M16.3687943,8.61702128 C16.7213165,8.61702128 17.0070922,8.90279697 17.0070922,9.25531915 C17.0070922,9.57846448 16.7669612,9.84552422 16.4554076,9.88779011 L16.3687943,9.89361702 L7.63120567,9.89361702 C7.27868349,9.89361702 6.9929078,9.60784133 6.9929078,9.25531915 C6.9929078,8.93217382 7.23303876,8.66511408 7.54459243,8.62284818 L7.63120567,8.61702128 L16.3687943,8.61702128 Z" id="Combined-Shape" fill="#FFFFFF" transform="translate(12, 12.0642) scale(-1, 1) translate(-12, -12.0642)"></path>
    </g>
</svg>