<?xml version="1.0" encoding="UTF-8"?>
<svg width="24px" height="24px" viewBox="0 0 24 24" version="1.1" xmlns="http://www.w3.org/2000/svg" xmlns:xlink="http://www.w3.org/1999/xlink">
    <title>UI Icons/NavIcons/commentMode_Add</title>
    <g id="UI-Icons/NavIcons/commentMode_Add" stroke="none" stroke-width="1" fill="none" fill-rule="evenodd">
        <path d="M10.5096788,4.37289779 L10.3512096,4.3942107 C6.26899446,4.98655297 3.27659574,7.74833073 3.27659574,11.1276596 C3.27659574,12.7908462 3.98980793,14.3807151 5.26342424,15.5964397 L5.32661121,15.6663666 C5.42250331,15.7896942 5.47054345,15.9449858 5.459416,16.1029955 L5.22042553,19.5080851 L9.13645339,17.9016654 C9.25870058,17.8515127 9.39349953,17.8405349 9.52225075,17.8702468 C10.3623301,18.0641112 11.1771,18.1659574 12,18.1659574 C15.9726674,18.1659574 19.2891856,16.0354406 20.3598127,13.1428682 C20.9460118,12.8212919 21.4821068,12.4177585 21.9517141,11.9477801 C21.4588202,16.1842132 17.1769317,19.4425532 12,19.4425532 L11.604526,19.435626 C10.9465522,19.4125979 10.2934843,19.3324686 9.63269627,19.1999272 L9.43829787,19.1574468 L4.75290831,21.0798949 L4.67049892,21.1075564 C4.25765063,21.2162081 3.84274163,20.8872171 3.87391733,20.4445222 L4.16595745,16.3038298 L4.00041226,16.1308673 C2.71822004,14.7337978 2,12.9723572 2,11.1276596 C2,6.74081637 6.05115597,3.3275686 11.2401902,3.02224896 C10.9493698,3.44116803 10.7037753,3.89384746 10.5096788,4.37289779 Z M14.7762977,13.6394094 L11.3758865,13.6382979 L11.2892733,13.632471 C10.9777196,13.5902051 10.7375887,13.3231453 10.7375887,13 C10.7375887,12.6474778 11.0233643,12.3617021 11.3758865,12.3617021 L12.5000149,12.3621263 C13.1647922,12.9206034 13.9349226,13.3577339 14.7762977,13.6394094 Z M17.8563114,2 C18.2963114,2 18.6563114,2.36 18.6563114,2.8 L18.6563114,5.2 L21.0563114,5.2 C21.4963114,5.2 21.8563114,5.56 21.8563114,6 C21.8563114,6.44 21.4963114,6.8 21.0563114,6.8 L18.6563114,6.8 L18.6563114,9.2 C18.6563114,9.64 18.2963114,10 17.8563114,10 C17.4163114,10 17.0563114,9.64 17.0563114,9.2 L17.0563114,6.8 L14.6563114,6.8 C14.2163114,6.8 13.8563114,6.44 13.8563114,6 C13.8563114,5.56 14.2163114,5.2 14.6563114,5.2 L17.0563114,5.2 L17.0563114,2.8 C17.0563114,2.36 17.4163114,2 17.8563114,2 Z M10.6242116,9.89366965 L7.63120567,9.89361702 L7.54459243,9.88779011 C7.23303876,9.84552422 6.9929078,9.57846448 6.9929078,9.25531915 C6.9929078,8.90279697 7.27868349,8.61702128 7.63120567,8.61702128 L10.1877823,8.61737745 C10.2926131,9.06058394 10.4395769,9.48750205 10.6242116,9.89366965 Z" id="Combined-Shape" fill="#FFFFFF"></path>
    </g>
</svg>