<?xml version="1.0" encoding="UTF-8"?>
<svg width="24px" height="24px" viewBox="0 0 24 24" version="1.1" xmlns="http://www.w3.org/2000/svg" xmlns:xlink="http://www.w3.org/1999/xlink">
    <title>UI Icons/NavIcons/SVG /componentActions</title>
    <g id="UI-Icons/NavIcons/componentActions" stroke="none" stroke-width="1" fill="none" fill-rule="evenodd">
        <path d="M10.0709112,2.99887029 C9.38982654,4.17581903 9,5.54238508 9,7 C9,7.29468909 9.0159336,7.58565669 9.04698628,7.87208828 L8.77246646,8.83404617 L9.21125213,8.8341835 C9.34797014,9.41699444 9.54841273,9.97525744 9.80482767,10.5012202 L8.75079714,10.5009167 L11.0010723,18.9336145 L12.4325164,13.5688193 C12.9004258,13.8947798 13.4048041,14.1720253 13.9383023,14.3932066 L12.4770861,19.8687289 L16.0050683,14.9387366 C16.3310363,14.9791731 16.663086,15 17,15 C17.3587062,15 17.7118984,14.9763918 18.0581076,14.9306443 L12.9829813,22.023159 C12.5098686,22.6391659 11.7777947,23.0008929 11.0010723,23.0024531 L10.8112009,22.9956783 C10.1190483,22.94448 9.47620926,22.6056922 9.04249948,22.0564964 L1.71493675,11.7819067 C0.79990703,10.6228093 0.75816648,8.99933941 1.61242421,7.79475241 L4.16690326,4.38016819 C4.79441688,3.5124518 5.80055796,2.99899429 6.87140065,2.99999794 L10.0709112,2.99887029 Z M7.02725304,10.5009167 L2.88591328,10.5009167 C2.92827629,10.596056 2.97992156,10.6867842 3.0400988,10.7717831 L9.52255818,19.8603945 L7.02725304,10.5009167 Z M14.4599823,1.74352274 L22.4860548,6.08162864 C22.9910933,6.3546028 23.0122323,7.07759043 22.5234266,7.35980253 L19.004446,9.39220871 L21.5170732,13.7459747 C21.7198209,14.0971441 21.606131,14.5423549 21.2631397,14.7403811 C20.948731,14.921905 20.5507839,14.832714 20.3304755,14.5460984 L20.2749918,14.4630908 L17.7616995,10.1097087 L14.2412278,12.1415322 C13.7811754,12.4071436 13.2088457,12.0863353 13.1565413,11.5692406 L13.1529826,11.4700804 L13.409109,2.35024474 C13.4241761,1.81375241 13.9878327,1.4883251 14.4599823,1.74352274 Z M14.81958,3.57923457 L14.6338072,10.2201852 L17.6358365,8.48622271 C17.6398953,8.48377003 17.6439875,8.48135252 17.6481128,8.47897076 L17.659032,8.47388341 L20.6645264,6.73834784 L14.81958,3.57923457 Z M8.22906667,4.66686991 L6.87140065,4.66686991 C6.33323941,4.66759149 5.82829414,4.92719787 5.51456806,5.36445522 L2.96008901,8.7757057 L2.93175222,8.83404617 L7.03892113,8.83404617 L8.22906667,4.66686991 Z" id="Combined-Shape" fill="#95A1AC"></path>
    </g>
</svg>