<?xml version="1.0" encoding="UTF-8"?>
<svg width="24px" height="24px" viewBox="0 0 24 24" version="1.1" xmlns="http://www.w3.org/2000/svg" xmlns:xlink="http://www.w3.org/1999/xlink">
    <title>UI Icons /SVG /component</title>
    <g id="UI-Icons-/component" stroke="none" stroke-width="1" fill="none" fill-rule="evenodd">
        <path d="M3.89753706,15.9507634 C3.40249901,15.9507634 3.00072901,16.3473517 3.00072901,16.8360051 C3.00072901,17.3246586 3.40249901,17.7212469 3.89753706,17.7212469 L11.2501673,17.7212469 C11.7452053,17.7212469 12.1469753,17.3246586 12.1469753,16.8360051 C12.1469753,16.3473517 11.7452053,15.9507634 11.2501673,15.9507634 L3.89753706,15.9507634 Z M17.3739892,18.392335 C16.3981575,18.392335 15.6056198,17.6089908 15.6056198,16.6467727 C15.6056198,15.6835266 16.3981575,14.9012104 17.3739892,14.9012104 C18.3498208,14.9012104 19.1423585,15.6835266 19.1423585,16.6467727 C19.1423585,17.6089908 18.3498208,18.392335 17.3739892,18.392335 M17.3739892,13.3591942 C15.5368846,13.3591942 14.0434561,14.8333616 14.0434561,16.6467727 C14.0434561,18.4591557 15.5368846,19.9343512 17.3739892,19.9343512 C19.2110937,19.9343512 20.7045222,18.4591557 20.7045222,16.6467727 C20.7045222,14.8333616 19.2110937,13.3591942 17.3739892,13.3591942 M20.103192,6.21310433 L12.749366,6.21310433 C12.2543279,6.21310433 11.8525579,6.60969263 11.8525579,7.09834606 C11.8525579,7.5869995 12.2543279,7.9835878 12.749366,7.9835878 L20.103192,7.9835878 C20.59823,7.9835878 21,7.5869995 21,7.09834606 C21,6.60969263 20.59823,6.21310433 20.103192,6.21310433 Z M6.33053306,5.54201618 C7.30636467,5.54201618 8.0989024,6.3253604 8.0989024,7.2875785 C8.0989024,8.2497966 7.30636467,9.03314082 6.33053306,9.03314082 C5.3557429,9.03314082 4.56216372,8.2497966 4.56216372,7.2875785 C4.56216372,6.3253604 5.3557429,5.54201618 6.33053306,5.54201618 M6.33053306,10.575157 C8.1676376,10.575157 9.66106612,9.09996152 9.66106612,7.2875785 C9.66106612,5.47519548 8.1676376,4 6.33053306,4 C4.49446996,4 3,5.47519548 3,7.2875785 C3,9.09996152 4.49446996,10.575157 6.33053306,10.575157" id="Filter" fill="#EE8B60"></path>
    </g>
</svg>