<?xml version="1.0" encoding="UTF-8"?>
<svg width="24px" height="24px" viewBox="0 0 24 24" version="1.1" xmlns="http://www.w3.org/2000/svg" xmlns:xlink="http://www.w3.org/1999/xlink">
    <title>UI Icons/newNav/CompileCode</title>
    <g id="UI-Icons/newNav/CompileCode" stroke="none" stroke-width="1" fill="none" fill-rule="evenodd">
        <path d="M16.5483639,16 L18,17.3733954 L12.0582227,22.6629047 C11.8236337,22.8818077 11.5231577,23 11.2081584,23 C10.8780452,23 10.5709274,22.875412 10.3441904,22.6489479 C10.1168631,22.4224553 9.99474215,22.1249565 10.0001737,21.8117384 C10.0056052,21.5031821 10.1349879,21.2161437 10.3641454,21.0030678 L16.5483639,16 Z M2.71428571,2 C3.0649427,2 3.35658339,2.1607956 3.41706333,2.37284033 L3.42857143,2.45454545 L3.42857143,21.5454545 C3.42857143,21.7964931 3.10877482,22 2.71428571,22 C2.36362873,22 2.07198804,21.8392044 2.0115081,21.6271597 L2,21.5454545 L2,2.45454545 C2,2.20350693 2.31979661,2 2.71428571,2 Z M20.0788662,13.8653004 C20.7874867,14.5736091 21.0066401,15.2829953 21.0744946,15.6565169 L21.7836408,15.6565169 C21.8541769,15.6565169 21.9220314,15.6839515 21.9726396,15.7340119 L22.9203413,16.6689195 C22.9714753,16.7195055 23,16.7884076 23,16.8605681 C23,16.9326761 22.9714753,17.0015782 22.920315,17.0521641 L21.0243858,18.9225049 C20.9726734,18.9741683 20.9042931,19 20.8359129,19 C20.7675063,19 20.699126,18.9741683 20.646362,18.9225049 L19.6992124,17.9870717 C19.6475263,17.9364595 19.6189754,17.8675837 19.6189754,17.7954494 L19.6189754,17.1296592 L18.9399837,17.1296592 C18.8699734,17.1296592 18.802119,17.1021983 18.7515107,17.0526897 L17.0284383,15.3605166 C16.9772779,15.3099044 16.9476754,15.2410286 16.9476754,15.1688944 C16.9476754,15.0967601 16.9762263,15.0278843 17.0279125,14.9767465 L17.8469246,14.1694207 C17.6837689,13.817973 17.1926981,12.95089 16.1852393,12.6193351 C16.0748476,12.5827292 16,12.479928 16,12.3636722 C16,12.2474165 16.0748476,12.1440634 16.1852393,12.1080094 C17.7925569,11.5794714 19.3363316,13.1236444 20.0788662,13.8653004 Z M10.2228816,15.0001479 C10.0774015,15.5520045 10,16.1307639 10,16.7272727 C10,16.8188535 10.0018244,16.9100159 10.0054395,17.0007269 L6.12820513,17 C5.56175923,17 5.1025641,16.5522847 5.1025641,16 C5.1025641,15.4871642 5.49850276,15.0644928 6.00859372,15.0067277 L6.12820513,15 L10.2228816,15.0001479 Z M13.1299286,10.9995499 C12.3274289,11.5232869 11.6413051,12.2052622 11.1177618,13.0001114 L10.2307692,13 C9.66432333,13 9.20512821,12.5522847 9.20512821,12 C9.20512821,11.4871642 9.60106686,11.0644928 10.1111578,11.0067277 L10.2307692,11 L13.1299286,10.9995499 Z M19.974359,7 C20.5408049,7 21,7.44771525 21,8 C21,8.51283584 20.6040613,8.93550716 20.0939704,8.99327227 L19.974359,9 L10.7435897,9 C10.1771438,9 9.71794872,8.55228475 9.71794872,8 C9.71794872,7.48716416 10.1138874,7.06449284 10.6239783,7.00672773 L10.7435897,7 L19.974359,7 Z M17.4102564,3 C17.9767023,3 18.4358974,3.44771525 18.4358974,4 C18.4358974,4.51283584 18.0399588,4.93550716 17.5298678,4.99327227 L17.4102564,5 L6.12820513,5 C5.56175923,5 5.1025641,4.55228475 5.1025641,4 C5.1025641,3.48716416 5.49850276,3.06449284 6.00859372,3.00672773 L6.12820513,3 L17.4102564,3 Z" id="Combined-Shape" fill="#FFFFFF"></path>
    </g>
</svg>