<?xml version="1.0" encoding="UTF-8"?>
<svg width="24px" height="24px" viewBox="0 0 24 24" version="1.1" xmlns="http://www.w3.org/2000/svg" xmlns:xlink="http://www.w3.org/1999/xlink">
    <title>UI Icons /SVG /componentVariableSet</title>
    <g id="UI-Icons-/componentVariableSet" stroke="none" stroke-width="1" fill="none" fill-rule="evenodd">
        <path d="M17.3739892,13.3591942 C19.2110937,13.3591942 20.7045222,14.8333616 20.7045222,16.6467727 C20.7045222,18.4591557 19.2110937,19.9343512 17.3739892,19.9343512 C15.9102677,19.9343512 14.664718,18.9978708 14.2188778,17.7005076 L4.01379472,17.7 C3.45458245,17.7 3.00072901,17.252 3.00072901,16.7 C3.00072901,16.148 3.45458245,15.7 4.01379472,15.7 L14.1839285,15.7004821 C14.5963903,14.3471904 15.8700228,13.3591942 17.3739892,13.3591942 Z M6.33053306,4 C7.78640216,4 9.02643413,4.9264596 9.47840015,6.21299521 L19.9505722,6.21310433 C20.5097845,6.21310433 20.9636379,6.66110433 20.9636379,7.21310433 C20.9636379,7.76510433 20.5097845,8.21310433 19.9505722,8.21310433 L9.52666189,8.21335386 C9.12074893,9.57664882 7.84195213,10.575157 6.33053306,10.575157 C4.49446996,10.575157 3,9.09996152 3,7.2875785 C3,5.47519548 4.49446996,4 6.33053306,4 Z" id="Filter" fill="#EE8B60"></path>
    </g>
</svg>