<?xml version="1.0" encoding="UTF-8"?>
<svg width="24px" height="24px" viewBox="0 0 24 24" version="1.1" xmlns="http://www.w3.org/2000/svg" xmlns:xlink="http://www.w3.org/1999/xlink">
    <title>UI Icons/NavIcons/SVG /componentsCreated</title>
    <g id="UI-Icons/NavIcons/componentsCreated" stroke="none" stroke-width="1" fill="none" fill-rule="evenodd">
        <g id="fi-rr-diamond" transform="translate(4, 4)" fill="#95A1AC">
            <path d="M11.305319,1.17492311e-06 C12.1662677,0.00074899425 12.9740412,0.416551291 13.4749176,1.11680559 L15.4824965,3.82913727 C16.201207,4.80765581 16.1683192,6.14810724 15.4024867,7.09020272 L9.58710886,15.21853 C9.20861868,15.7113355 8.62295955,16.0007171 8.00158164,16.0019653 L7.83596398,15.9954828 C7.28747347,15.9510955 6.77882369,15.6809255 6.43472337,15.2452 L0.572673186,7.02552815 C-0.159350588,6.09825025 -0.192743029,4.79947435 0.490663158,3.83580475 L2.53424639,1.10413737 C3.03625729,0.409964266 3.84117016,-0.000801747153 4.69784431,1.17492311e-06 Z M14.5070438,6.00073616 L11.1826373,6.00073616 L9.18239271,13.4949859 L14.345024,6.28143716 C14.4097143,6.19445726 14.464085,6.10025936 14.5070438,6.00073616 Z M4.82252622,6.00073616 L1.50945441,6.00073616 C1.54334482,6.07684764 1.58466103,6.14943017 1.63280283,6.21742933 L6.81877033,13.4883185 L4.82252622,6.00073616 Z M9.80180179,6.00073616 L6.2013615,6.00073616 L8.00158164,12.7468945 L9.80180179,6.00073616 Z M11.305319,1.33349876 L10.2191862,1.33349876 L11.1713026,4.66723976 L14.4330348,4.66723976 L14.4090319,4.61990064 L12.3967858,1.90090147 C12.1462315,1.54627198 11.7395283,1.33484593 11.305319,1.33349876 Z M8.8323499,1.33349876 L7.17081338,1.33349876 L6.21869695,4.66723976 L9.78446633,4.66723976 L8.8323499,1.33349876 Z M5.78397713,1.33349876 L4.69784431,1.33349876 C4.26731531,1.33407602 3.8633591,1.54176112 3.61237823,1.891567 L1.568795,4.62056739 C1.55812703,4.6345691 1.55546003,4.6525713 1.54612556,4.66723976 L4.83186069,4.66723976 L5.78397713,1.33349876 Z" id="Shape"></path>
        </g>
    </g>
</svg>