<?xml version="1.0" encoding="UTF-8"?>
<svg width="24px" height="24px" viewBox="0 0 24 24" version="1.1" xmlns="http://www.w3.org/2000/svg" xmlns:xlink="http://www.w3.org/1999/xlink">
    <title>UI Icons/NavIcons/SVG /componentNew</title>
    <g id="UI-Icons/NavIcons/componentNew" stroke="none" stroke-width="1" fill="none" fill-rule="evenodd">
        <path d="M10.0709112,2.99887029 C9.38982654,4.17581903 9,5.54238508 9,7 C9,7.29468909 9.0159336,7.58565669 9.04698628,7.87208828 L8.77246646,8.83404617 L9.21125213,8.8341835 C9.34797014,9.41699444 9.54841273,9.97525744 9.80482767,10.5012202 L8.75079714,10.5009167 L11.0010723,18.9336145 L12.4325164,13.5688193 C12.9004258,13.8947798 13.4048041,14.1720253 13.9383023,14.3932066 L12.4770861,19.8687289 L16.0050683,14.9387366 C16.3310363,14.9791731 16.663086,15 17,15 C17.3587062,15 17.7118984,14.9763918 18.0581076,14.9306443 L12.9829813,22.023159 C12.5098686,22.6391659 11.7777947,23.0008929 11.0010723,23.0024531 L10.8112009,22.9956783 C10.1190483,22.94448 9.47620926,22.6056922 9.04249948,22.0564964 L1.71493675,11.7819067 C0.79990703,10.6228093 0.75816648,8.99933941 1.61242421,7.79475241 L4.16690326,4.38016819 C4.79441688,3.5124518 5.80055796,2.99899429 6.87140065,2.99999794 L10.0709112,2.99887029 Z M7.02725304,10.5009167 L2.88591328,10.5009167 C2.92827629,10.596056 2.97992156,10.6867842 3.0400988,10.7717831 L9.52255818,19.8603945 L7.02725304,10.5009167 Z M17,2 C17.55,2 18,2.45 18,3 L18,6 L21,6 C21.55,6 22,6.45 22,7 C22,7.55 21.55,8 21,8 L18,8 L18,11 C18,11.55 17.55,12 17,12 C16.45,12 16,11.55 16,11 L16,8 L13,8 C12.45,8 12,7.55 12,7 C12,6.45 12.45,6 13,6 L16,6 L16,3 C16,2.45 16.45,2 17,2 Z M8.22906667,4.66686991 L6.87140065,4.66686991 C6.33323941,4.66759149 5.82829414,4.92719787 5.51456806,5.36445522 L2.96008901,8.7757057 L2.93175222,8.83404617 L7.03892113,8.83404617 L8.22906667,4.66686991 Z" id="Combined-Shape" fill="#95A1AC"></path>
    </g>
</svg>