<?xml version="1.0" encoding="UTF-8"?>
<svg width="24px" height="24px" viewBox="0 0 24 24" version="1.1" xmlns="http://www.w3.org/2000/svg" xmlns:xlink="http://www.w3.org/1999/xlink">
    <title>UI Icons/NavIcons/SVG /componentsCreatedUnconnect</title>
    <g id="UI-Icons/NavIcons/componentsCreatedUnconnect" stroke="none" stroke-width="1" fill="none" fill-rule="evenodd">
        <path d="M19.168,7.40499883 L19.4824965,7.8291361 C20.201207,8.80765464 20.1683192,10.1481061 19.4024867,11.0902015 L13.5871089,19.2185289 C13.2086187,19.7113343 12.6229596,20.0007159 12.0015816,20.0019641 L11.835964,19.9954816 C11.2874735,19.9510943 10.7788237,19.6809243 10.4347234,19.2451988 L9.141,17.4319988 L10.097,16.4759988 L10.8187703,17.4883173 L10.453,16.1199988 L11.543,15.0299988 L12.0015816,16.7468933 L12.792,13.7809988 L14.676,11.8969988 L13.1823927,17.4949848 L18.345024,10.281436 C18.4097143,10.1944561 18.464085,10.1002582 18.5070438,10.000735 L16.573,9.99999883 L17.906,8.66699883 L18.4330348,8.66723859 L18.4090319,8.61989946 L18.215,8.35799883 L19.168,7.40499883 Z M19.4260664,4.57672795 C19.6882715,4.83893308 19.7084411,5.2515198 19.4865752,5.53686056 L19.4260664,5.60538413 L6.33341058,18.6980399 C6.04935502,18.9820955 5.58880996,18.9820955 5.3047544,18.6980399 C5.04254926,18.4358348 5.02237964,18.023248 5.24424552,17.7379073 L5.3047544,17.6693837 L18.3974102,4.57672795 C18.6814657,4.29267238 19.1420108,4.29267238 19.4260664,4.57672795 Z M15.305319,4 C15.8873989,4.00050559 16.4451725,4.19073234 16.9002292,4.53031874 L15.9373345,5.49393238 C15.745726,5.39072511 15.529178,5.33419212 15.305319,5.33349758 L14.2191862,5.33349758 L14.636,6.79499883 L13.557,7.87399883 L12.8323499,5.33349758 L11.1708134,5.33349758 L10.218697,8.66723859 L12.764,8.66699883 L11.431,9.99999883 L10.2013615,10.000735 L10.46,10.9709988 L9.371,12.0599988 L8.82252622,10.000735 L5.50945441,10.000735 C5.54334482,10.0768465 5.58466103,10.149429 5.63280283,10.2174282 L7.956,13.4749988 L7.001,14.4299988 L4.57267319,11.025527 C3.84064941,10.0982491 3.80725697,8.79947318 4.49066316,7.83580358 L6.53424639,5.1041362 C7.03625729,4.40996309 7.84117016,3.99919708 8.69784431,4 L15.305319,4 Z M9.78397713,5.33349758 L8.69784431,5.33349758 C8.26731531,5.33407484 7.8633591,5.54175995 7.61237823,5.89156582 L5.568795,8.62056621 C5.55812703,8.63456792 5.55546003,8.65257013 5.54612556,8.66723859 L8.83186069,8.66723859 L9.78397713,5.33349758 Z" id="Combined-Shape" fill="#95A1AC"></path>
    </g>
</svg>