<?xml version="1.0" encoding="UTF-8"?>
<svg width="24px" height="24px" viewBox="0 0 24 24" version="1.1" xmlns="http://www.w3.org/2000/svg" xmlns:xlink="http://www.w3.org/1999/xlink">
    <title>UI Icons/conditionBasic</title>
    <g id="UI-Icons/conditionBasic" stroke="none" stroke-width="1" fill="none" fill-rule="evenodd">
        <path d="M10.8888889,2 L10.888,6.444 L10.5555556,6.44444444 C8.95787467,6.44444444 7.65189468,7.69336441 7.56064825,9.26817166 L7.55555556,9.44444444 L7.55555556,14.5555556 C7.55555556,16.2124098 8.89870131,17.5555556 10.5555556,17.5555556 L10.888,17.555 L10.8888889,22 L4,22 C2.8954305,22 2,21.1045695 2,20 L2,4 C2,2.8954305 2.8954305,2 4,2 L10.8888889,2 Z M18.7901235,2.27777778 C20.4776602,2.27777778 21.845679,3.6457966 21.845679,5.33333333 L21.845679,18.6666667 C21.845679,20.3542034 20.4776602,21.7222222 18.7901235,21.7222222 L13.1111111,21.7222222 C12.6508738,21.7222222 12.2777778,21.3491262 12.2777778,20.8888889 C12.2777778,20.4286516 12.6508738,20.0555556 13.1111111,20.0555556 L18.7901235,20.0555556 C19.5571856,20.0555556 20.1790123,19.4337288 20.1790123,18.6666667 L20.1790123,5.33333333 C20.1790123,4.56627118 19.5571856,3.94444444 18.7901235,3.94444444 L13.1111111,3.94444444 C12.6508738,3.94444444 12.2777778,3.5713484 12.2777778,3.11111111 C12.2777778,2.65087382 12.6508738,2.27777778 13.1111111,2.27777778 L18.7901235,2.27777778 Z M15.0690058,12.5847953 C15.5211688,12.5847953 15.8877193,12.9513458 15.8877193,13.4035088 C15.8877193,13.8556717 15.5211688,14.2222222 15.0690058,14.2222222 L9.48538012,14.2222222 C9.03321716,14.2222222 8.66666667,13.8556717 8.66666667,13.4035088 C8.66666667,12.9513458 9.03321716,12.5847953 9.48538012,12.5847953 L15.0690058,12.5847953 Z M15.0690058,9.77777778 C15.5211688,9.77777778 15.8877193,10.1443283 15.8877193,10.5964912 C15.8877193,11.0486542 15.5211688,11.4152047 15.0690058,11.4152047 L9.48538012,11.4152047 C9.03321716,11.4152047 8.66666667,11.0486542 8.66666667,10.5964912 C8.66666667,10.1443283 9.03321716,9.77777778 9.48538012,9.77777778 L15.0690058,9.77777778 Z" id="Combined-Shape" fill="#95A1AC"></path>
    </g>
</svg>