<?xml version="1.0" encoding="UTF-8"?>
<svg width="24px" height="24px" viewBox="0 0 24 24" version="1.1" xmlns="http://www.w3.org/2000/svg" xmlns:xlink="http://www.w3.org/1999/xlink">
    <title>UI Icons/conditionsLogic</title>
    <g id="UI-Icons/conditionsLogic" stroke="none" stroke-width="1" fill="none" fill-rule="evenodd">
        <path d="M9.76744186,0 L0.837209302,0 C0.374831372,0 0,0.374831372 0,0.837209302 L0,5.30232558 C0,5.76470351 0.374831372,6.13953488 0.837209302,6.13953488 L9.76744186,6.13953488 C10.2298198,6.13953488 10.6046512,5.76470351 10.6046512,5.30232558 L10.6046512,0.837209302 C10.6046512,0.374831372 10.2298198,0 9.76744186,0 Z M8.93023256,1.6744186 L8.93023256,4.46511628 L1.6744186,4.46511628 L1.6744186,1.6744186 L8.93023256,1.6744186 Z M9.76744186,17.8604651 L0.837209302,17.8604651 C0.374831372,17.8604651 0,18.2352965 0,18.6976744 L0,23.1627907 C0,23.6251686 0.374831372,24 0.837209302,24 L9.76744186,24 C10.2298198,24 10.6046512,23.6251686 10.6046512,23.1627907 L10.6046512,18.6976744 C10.6046512,18.2352965 10.2298198,17.8604651 9.76744186,17.8604651 Z M8.93023256,19.5348837 L8.93023256,22.3255814 L1.6744186,22.3255814 L1.6744186,19.5348837 L8.93023256,19.5348837 Z M5.30232558,7.81395349 C5.76470351,7.81395349 6.13953488,8.18878486 6.13953488,8.65116279 L6.13953488,15.3488372 C6.13953488,15.8112151 5.76470351,16.1860465 5.30232558,16.1860465 C4.83994765,16.1860465 4.46511628,15.8112151 4.46511628,15.3488372 L4.46511628,8.65116279 C4.46511628,8.18878486 4.83994765,7.81395349 5.30232558,7.81395349 Z M17.5813953,2.23255814 C18.0437733,2.23255814 18.4186047,2.60738951 18.4186047,3.06976744 L18.4186047,5.30232558 C18.4186047,5.76470351 18.0437733,6.13953488 17.5813953,6.13953488 C17.1190174,6.13953488 16.744186,5.76470351 16.744186,5.30232558 L16.744186,3.90697674 L13.1162791,3.90697674 C12.6924326,3.90697674 12.3421496,3.59201427 12.2867125,3.18337178 L12.2790698,3.06976744 C12.2790698,2.60738951 12.6539011,2.23255814 13.1162791,2.23255814 L17.5813953,2.23255814 Z M17.5813953,17.8604651 C18.0437733,17.8604651 18.4186047,18.2352965 18.4186047,18.6976744 L18.4186047,20.9302326 C18.4186047,21.3926105 18.0437733,21.7674419 17.5813953,21.7674419 L13.1162791,21.7674419 C12.6539011,21.7674419 12.2790698,21.3926105 12.2790698,20.9302326 C12.2790698,20.4678546 12.6539011,20.0930233 13.1162791,20.0930233 L16.744186,20.0930233 L16.744186,18.6976744 C16.744186,18.273828 17.0591485,17.923545 17.467791,17.8681079 L17.5813953,17.8604651 Z M17.1506547,7.93326174 L11.5692594,11.2820989 C11.0273011,11.6072739 11.0273011,12.3927261 11.5692594,12.7179011 L17.1506547,16.0667383 C17.4157842,16.2258159 17.7470065,16.2258159 18.012136,16.0667383 L23.5935313,12.7179011 C24.1354896,12.3927261 24.1354896,11.6072739 23.5935313,11.2820989 L18.012136,7.93326174 C17.7470065,7.77418407 17.4157842,7.77418407 17.1506547,7.93326174 Z" id="Combined-Shape" fill="#95A1AC"></path>
    </g>
</svg>