<?xml version="1.0" encoding="UTF-8"?>
<svg width="24px" height="24px" viewBox="0 0 24 24" version="1.1" xmlns="http://www.w3.org/2000/svg" xmlns:xlink="http://www.w3.org/1999/xlink">
    <title>UI Icons/SVG /copy</title>
    <g id="UI-Icons/copy" stroke="none" stroke-width="1" fill="none" fill-rule="evenodd">
        <path d="M13.4743111,1.91648889 C15.6664438,1.91648889 17.3130418,3.0510081 17.94686,4.93352968 C20.5537124,5.13648451 22.2305333,7.0203193 22.2305333,9.7616 L22.2305333,17.9358222 C22.2305333,20.8230948 20.3656772,22.7606743 17.5074917,22.7782666 L10.6725333,22.7809333 C8.4739433,22.7809333 6.8569623,21.6454904 6.21785836,19.8125549 L6.28656908,19.8135375 C6.10009433,19.8135375 5.96314366,19.796916 5.83055516,19.7548361 L5.69,19.701 L5.65615452,19.6944522 C3.41210493,19.2971899 2.00975479,17.5698474 1.9216157,15.1772725 L1.9172,14.9358222 L1.9172,6.7616 C1.9172,3.95452379 3.67905666,2.04596383 6.40375916,1.92593206 L6.72843248,1.91999853 L13.4743111,1.91648889 Z M17.4747018,6.41648879 L10.7407877,6.41999295 L10.4383974,6.42573509 C8.54422194,6.52006099 7.4172,7.7600658 7.4172,9.7616 L7.4172,17.9358222 C7.4172,20.0216038 8.63696743,21.2809334 10.6722403,21.2809334 L17.5025805,21.2782809 C19.5206928,21.2658505 20.7305333,20.0088301 20.7305333,17.9358222 L20.7305333,9.7616 C20.7305333,7.67607547 19.5101252,6.41648879 17.4747018,6.41648879 Z M13.4747019,3.41648889 L6.64426392,3.42003022 C4.69575079,3.43203193 3.50153874,4.60343216 3.42149619,6.55008142 L3.4172,6.7616 L3.4172,14.9358222 C3.4172,16.6760019 4.26764319,17.841963 5.73147591,18.1795524 L5.92332861,18.2205011 C5.91925353,18.1266825 5.9172,18.0317778 5.9172,17.9358222 L5.9172,9.7616 C5.9172,6.87432161 7.78117244,4.93763675 10.6392645,4.92004454 L16.3110588,4.91688573 C15.8191292,4.00694644 14.9134016,3.47540795 13.6860383,3.42110496 L13.4747019,3.41648889 Z M14.62,10.168 C15.808,10.168 16.589,10.52 17.26,11.037 C17.403,11.147 17.524,11.334 17.524,11.576 C17.524,11.95 17.227,12.236 16.853,12.236 C16.666,12.236 16.534,12.17 16.446,12.104 C15.918,11.675 15.346,11.411 14.609,11.411 C13.146,11.411 12.068,12.621 12.068,14.128 L12.068,14.15 C12.068,15.657 13.135,16.878 14.609,16.878 C15.423,16.878 15.973,16.614 16.534,16.141 C16.633,16.053 16.776,15.987 16.941,15.987 C17.282,15.987 17.579,16.273 17.579,16.614 C17.579,16.823 17.48,16.988 17.359,17.098 C16.633,17.736 15.808,18.132 14.565,18.132 C12.321,18.132 10.649,16.383 10.649,14.172 L10.649,14.15 C10.649,11.961 12.288,10.168 14.62,10.168 Z" id="Combined-Shape" fill="#95A1AC"></path>
    </g>
</svg>