<?xml version="1.0" encoding="UTF-8"?>
<svg width="24px" height="24px" viewBox="0 0 24 24" version="1.1" xmlns="http://www.w3.org/2000/svg" xmlns:xlink="http://www.w3.org/1999/xlink">
    <title>UI Icons/SVG /copyPaste</title>
    <g id="UI-Icons/copyPaste" stroke="none" stroke-width="1" fill="none" fill-rule="evenodd">
        <path d="M13.4743111,1.91648889 C15.6664438,1.91648889 17.3130418,3.0510081 17.94686,4.93352968 C20.5537124,5.13648451 22.2305333,7.0203193 22.2305333,9.7616 L22.2305333,17.9358222 C22.2305333,20.8230948 20.3656772,22.7606743 17.5074917,22.7782666 L10.6725333,22.7809333 C8.4739433,22.7809333 6.8569623,21.6454904 6.21785836,19.8125549 L6.28656908,19.8135375 C6.10009433,19.8135375 5.96314366,19.796916 5.83055516,19.7548361 L5.69,19.701 L5.65615452,19.6944522 C3.41210493,19.2971899 2.00975479,17.5698474 1.9216157,15.1772725 L1.9172,14.9358222 L1.9172,6.7616 C1.9172,3.95452379 3.67905666,2.04596383 6.40375916,1.92593206 L6.72843248,1.91999853 L13.4743111,1.91648889 Z M17.4747018,6.41648879 L10.7407877,6.41999295 L10.4383974,6.42573509 C8.54422194,6.52006099 7.4172,7.7600658 7.4172,9.7616 L7.4172,17.9358222 C7.4172,20.0216038 8.63696743,21.2809334 10.6722403,21.2809334 L17.5025805,21.2782809 C19.5206928,21.2658505 20.7305333,20.0088301 20.7305333,17.9358222 L20.7305333,9.7616 C20.7305333,7.67607547 19.5101252,6.41648879 17.4747018,6.41648879 Z M13.4747019,3.41648889 L6.64426392,3.42003022 C4.69575079,3.43203193 3.50153874,4.60343216 3.42149619,6.55008142 L3.4172,6.7616 L3.4172,14.9358222 C3.4172,16.6760019 4.26764319,17.841963 5.73147591,18.1795524 L5.92332861,18.2205011 C5.91925353,18.1266825 5.9172,18.0317778 5.9172,17.9358222 L5.9172,9.7616 C5.9172,6.87432161 7.78117244,4.93763675 10.6392645,4.92004454 L16.3110588,4.91688573 C15.8191292,4.00694644 14.9134016,3.47540795 13.6860383,3.42110496 L13.4747019,3.41648889 Z M14.24,9.84 C14.58,9.84 14.8983333,9.895 15.195,10.005 C15.4916667,10.115 15.75,10.27 15.97,10.47 C16.19,10.67 16.3633333,10.9083333 16.49,11.185 C16.6166667,11.4616667 16.68,11.7666667 16.68,12.1 C16.68,12.44 16.6166667,12.7483333 16.49,13.025 C16.3633333,13.3016667 16.19,13.54 15.97,13.74 C15.75,13.94 15.4916667,14.095 15.195,14.205 C14.8983333,14.315 14.58,14.37 14.24,14.37 L13.07,14.37 L13.07,17 L11.72,17 L11.72,9.84 L14.24,9.84 Z M14.26,11.12 L13.07,11.12 L13.07,13.09 L14.26,13.09 C14.6133333,13.09 14.88,12.99 15.06,12.79 C15.24,12.59 15.33,12.36 15.33,12.1 C15.33,11.9733333 15.3083333,11.85 15.265,11.73 C15.2216667,11.61 15.155,11.505 15.065,11.415 C14.975,11.325 14.8633333,11.2533333 14.73,11.2 C14.5966667,11.1466667 14.44,11.12 14.26,11.12 Z" id="Combined-Shape" fill="#95A1AC"></path>
    </g>
</svg>