<?xml version="1.0" encoding="UTF-8"?>
<svg width="24px" height="24px" viewBox="0 0 24 24" version="1.1" xmlns="http://www.w3.org/2000/svg" xmlns:xlink="http://www.w3.org/1999/xlink">
    <title>UI Icons/SVG /copyDuplicate 2</title>
    <g id="UI-Icons/copyDuplicate" stroke="none" stroke-width="1" fill="none" fill-rule="evenodd">
        <path d="M13.4743111,1.91648889 C15.6664438,1.91648889 17.3130418,3.0510081 17.94686,4.93352968 C20.5537124,5.13648451 22.2305333,7.0203193 22.2305333,9.7616 L22.2305333,17.9358222 C22.2305333,20.8230948 20.3656772,22.7606743 17.5074917,22.7782666 L10.6725333,22.7809333 C8.4739433,22.7809333 6.8569623,21.6454904 6.21785836,19.8125549 L6.28656908,19.8135375 C6.10009433,19.8135375 5.96314366,19.796916 5.83055516,19.7548361 L5.69,19.701 L5.65615452,19.6944522 C3.41210493,19.2971899 2.00975479,17.5698474 1.9216157,15.1772725 L1.9172,14.9358222 L1.9172,6.7616 C1.9172,3.95452379 3.67905666,2.04596383 6.40375916,1.92593206 L6.72843248,1.91999853 L13.4743111,1.91648889 Z M17.4747018,6.41648879 L10.7407877,6.41999295 L10.4383974,6.42573509 C8.54422194,6.52006099 7.4172,7.7600658 7.4172,9.7616 L7.4172,17.9358222 C7.4172,20.0216038 8.63696743,21.2809334 10.6722403,21.2809334 L17.5025805,21.2782809 C19.5206928,21.2658505 20.7305333,20.0088301 20.7305333,17.9358222 L20.7305333,9.7616 C20.7305333,7.67607547 19.5101252,6.41648879 17.4747018,6.41648879 Z M13.4747019,3.41648889 L6.64426392,3.42003022 C4.69575079,3.43203193 3.50153874,4.60343216 3.42149619,6.55008142 L3.4172,6.7616 L3.4172,14.9358222 C3.4172,16.6760019 4.26764319,17.841963 5.73147591,18.1795524 L5.92332861,18.2205011 C5.91925353,18.1266825 5.9172,18.0317778 5.9172,17.9358222 L5.9172,9.7616 C5.9172,6.87432161 7.78117244,4.93763675 10.6392645,4.92004454 L16.3110588,4.91688573 C15.8191292,4.00694644 14.9134016,3.47540795 13.6860383,3.42110496 L13.4747019,3.41648889 Z M13.4239106,9.84 C14.0570577,9.84 14.6268901,9.93683426 15.1334078,10.1305028 C15.6399255,10.3241713 16.0719553,10.5979143 16.4294972,10.9517318 C16.7870391,11.3055493 17.0607821,11.7282682 17.2507263,12.2198883 C17.4406704,12.7115084 17.5356425,13.2515456 17.5356425,13.84 C17.5356425,14.4359032 17.4406704,14.9796648 17.2507263,15.4712849 C17.0607821,15.962905 16.7870391,16.3837616 16.4294972,16.7338547 C16.0719553,17.0839479 15.6399255,17.3558287 15.1334078,17.5494972 C14.6268901,17.7431657 14.0570577,17.84 13.4239106,17.84 L10.72,17.84 L10.72,9.84 L13.4239106,9.84 Z M13.3568715,11.2701676 L12.2283799,11.2701676 L12.2283799,16.4098324 L13.3568715,16.4098324 C13.7963501,16.4098324 14.1836872,16.3483799 14.5188827,16.2254749 C14.8540782,16.1025698 15.1334078,15.9293855 15.3568715,15.7059218 C15.5803352,15.4824581 15.747933,15.2124395 15.8596648,14.8958659 C15.9713966,14.5792924 16.0272626,14.2273371 16.0272626,13.84 C16.0272626,13.4526629 15.9713966,13.1007076 15.8596648,12.7841341 C15.747933,12.4675605 15.5803352,12.1975419 15.3568715,11.9740782 C15.1334078,11.7506145 14.8540782,11.5774302 14.5188827,11.4545251 C14.1836872,11.3316201 13.7963501,11.2701676 13.3568715,11.2701676 Z" id="Combined-Shape" fill="#95A1AC"></path>
    </g>
</svg>