<?xml version="1.0" encoding="UTF-8"?>
<svg width="24px" height="24px" viewBox="0 0 24 24" version="1.1" xmlns="http://www.w3.org/2000/svg" xmlns:xlink="http://www.w3.org/1999/xlink">
    <title>UI Icons/SVG /copyCut</title>
    <g id="UI-Icons/copyCut" stroke="none" stroke-width="1" fill="none" fill-rule="evenodd">
        <path d="M13.4743111,1.91648889 C15.6664438,1.91648889 17.3130418,3.0510081 17.94686,4.93352968 C20.5537124,5.13648451 22.2305333,7.0203193 22.2305333,9.7616 L22.2305333,17.9358222 C22.2305333,20.8230948 20.3656772,22.7606743 17.5074917,22.7782666 L10.6725333,22.7809333 C8.4739433,22.7809333 6.8569623,21.6454904 6.21785836,19.8125549 L6.28656908,19.8135375 C6.10009433,19.8135375 5.96314366,19.796916 5.83055516,19.7548361 L5.69,19.701 L5.65615452,19.6944522 C3.41210493,19.2971899 2.00975479,17.5698474 1.9216157,15.1772725 L1.9172,14.9358222 L1.9172,6.7616 C1.9172,3.95452379 3.67905666,2.04596383 6.40375916,1.92593206 L6.72843248,1.91999853 L13.4743111,1.91648889 Z M17.4747018,6.41648879 L10.7407877,6.41999295 L10.4383974,6.42573509 C8.54422194,6.52006099 7.4172,7.7600658 7.4172,9.7616 L7.4172,17.9358222 C7.4172,20.0216038 8.63696743,21.2809334 10.6722403,21.2809334 L17.5025805,21.2782809 C19.5206928,21.2658505 20.7305333,20.0088301 20.7305333,17.9358222 L20.7305333,9.7616 C20.7305333,7.67607547 19.5101252,6.41648879 17.4747018,6.41648879 Z M13.4747019,3.41648889 L6.64426392,3.42003022 C4.69575079,3.43203193 3.50153874,4.60343216 3.42149619,6.55008142 L3.4172,6.7616 L3.4172,14.9358222 C3.4172,16.6760019 4.26764319,17.841963 5.73147591,18.1795524 L5.92332861,18.2205011 C5.91925353,18.1266825 5.9172,18.0317778 5.9172,17.9358222 L5.9172,9.7616 C5.9172,6.87432161 7.78117244,4.93763675 10.6392645,4.92004454 L16.310513,4.91587671 C15.8184595,4.0065535 14.9129479,3.47538787 13.6860383,3.42110496 L13.4747019,3.41648889 Z M12.738835,10 L14.307767,12.256 L15.876699,10 L18.1757282,10 L15.4572816,13.904 L18.3,18 L15.9854369,18 L14.307767,15.568 L12.6145631,18 L10.3,18 L13.1427184,13.92 L10.4242718,10 L12.738835,10 Z" id="Combined-Shape" fill="#95A1AC"></path>
    </g>
</svg>