<?xml version="1.0" encoding="UTF-8"?>
<svg width="24px" height="24px" viewBox="0 0 24 24" version="1.1" xmlns="http://www.w3.org/2000/svg" xmlns:xlink="http://www.w3.org/1999/xlink">
    <title>UI Icons /SVG /customIcon_notifications</title>
    <g id="UI-Icons-/customIcon_notifications" stroke="none" stroke-width="1" fill="none" fill-rule="evenodd">
        <g id="bell" transform="translate(2.000000, 1.000000)" fill="#95A1AC">
            <path d="M10.1070568,0 C6.04119381,0 2.74516058,3.29603317 2.74516052,7.36189618 L2.74516052,10.1070567 C2.74516052,11.1186641 2.411373,11.7936567 1.61186579,12.6997649 L1.10731433,13.260135 L0.912986889,13.4839388 C0.883545223,13.518877 0.855114478,13.5531933 0.827001358,13.5877264 C0.285476997,14.2529153 0,14.8586711 0,15.5973778 C0,17.338735 2.11530092,18.4859457 5.52119558,18.995828 L6.06957334,19.0710331 C6.25586082,19.0943318 6.44560312,19.1158588 6.63867999,19.1356077 L7.2277941,19.189514 C7.327607,19.1976073 7.42822348,19.2052545 7.52962851,19.2124548 L8.14740115,19.2502879 L8.7833777,19.2773584 C8.99832371,19.2845839 9.21618346,19.2900093 9.43683673,19.2936283 L10.1070568,19.29906 L10.7772769,19.2936283 C10.9979302,19.2900093 11.2157899,19.2845839 11.4307359,19.2773584 L12.0667125,19.2502879 L12.6844851,19.2124548 C12.7858902,19.2052545 12.8865066,19.1976073 12.9863195,19.189514 L13.5754336,19.1356077 C13.6719721,19.1257332 13.7676769,19.1154143 13.862533,19.1046516 L14.4213654,19.034757 C17.9860162,18.5459137 20.2141136,17.3845602 20.2141136,15.5973778 C20.2141136,14.8586711 19.9286366,14.2529153 19.3871123,13.5877264 L19.2090757,13.3764193 L18.6022478,12.6997649 C17.8027406,11.7936567 17.4689531,11.1186641 17.4689531,10.1070567 L17.4689531,7.3618962 C17.468953,3.29603317 14.1729198,0 10.1070568,0 Z M10.1070568,1.91304348 C13.1163751,1.91304348 15.5559096,4.35257793 15.5559096,7.36189621 L15.5559096,10.1070567 C15.5559096,11.5735676 16.0277413,12.6139816 16.982997,13.751021 L17.8171569,14.6937162 L17.9035285,14.7954989 C18.1932272,15.1513544 18.3010702,15.3801871 18.3010702,15.5973778 C18.3010702,15.7851178 18.1039336,15.9879505 17.734543,16.1872792 L17.5161238,16.2955446 C17.2025195,16.4391371 16.8001986,16.5790879 16.3187326,16.7082433 L15.942943,16.8029738 C15.877888,16.8183877 15.8116337,16.8336049 15.7441988,16.8486115 L15.3255727,16.9360121 C15.1093258,16.9783372 14.8827904,17.0185153 14.6464712,17.0561694 L14.1609375,17.1280003 C14.0778908,17.139374 13.9937945,17.1504392 13.9086672,17.1611821 L13.3856809,17.2216592 L12.8388479,17.2737287 C12.7457717,17.2816691 12.6517393,17.2892312 12.5567694,17.2964011 L11.9758489,17.3346019 C11.8772036,17.340147 11.7776582,17.3452719 11.6772313,17.3499626 L11.0642423,17.3727856 C10.9603645,17.3756839 10.8556425,17.3781201 10.7500953,17.3800803 L10.1070568,17.3860165 L9.46401837,17.3800803 C9.35847109,17.3781201 9.25374917,17.3756839 9.1498713,17.3727856 L8.53688233,17.3499626 C8.43645546,17.3452719 8.33691004,17.340147 8.23826475,17.3346019 L7.65734427,17.2964011 L7.09892445,17.2487868 C7.00777939,17.2401039 6.91760924,17.2310567 6.82843271,17.2216592 L6.30544641,17.1611821 C6.2203191,17.1504392 6.13622279,17.139374 6.05317618,17.1280003 L5.56764241,17.0561694 C5.4100963,17.0310667 5.25689854,17.0048421 5.10819867,16.9776076 L4.67574229,16.8929855 C4.60596503,16.8784141 4.53734963,16.8636181 4.46991479,16.8486115 L4.07962198,16.7561565 C3.51588148,16.6140187 3.05079465,16.4570862 2.69798986,16.2955446 L2.4795706,16.1872792 C2.11018002,15.9879505 1.91304348,15.7851178 1.91304348,15.5973778 C1.91304348,15.3801871 2.02088641,15.1513544 2.31058518,14.7954989 L2.59709974,14.4661235 L3.04633821,13.9654758 C4.12555023,12.7423689 4.658204,11.6652246 4.658204,10.1070567 L4.658204,7.3618962 C4.65820405,4.35257793 7.09773853,1.91304348 10.1070568,1.91304348 Z M10.1070568,20.1726453 C9.18193772,20.1726453 8.31263689,20.1415335 7.49457905,20.08114 C7.85251659,21.2229307 8.91047609,22 10.1070568,22 C11.3036375,22 12.361597,21.2229307 12.7195346,20.08114 C11.9014767,20.1415335 11.0321759,20.1726453 10.1070568,20.1726453 Z" id="Combined-Shape"></path>
        </g>
    </g>
</svg>