<?xml version="1.0" encoding="UTF-8"?>
<svg width="24px" height="24px" viewBox="0 0 24 24" version="1.1" xmlns="http://www.w3.org/2000/svg" xmlns:xlink="http://www.w3.org/1999/xlink">
    <title>UI Icons/NavIcons/SVG /customCode</title>
    <g id="UI-Icons/NavIcons/customCode" stroke="none" stroke-width="1" fill="none" fill-rule="evenodd">
        <path d="M18,5 C18.5522847,5 19,5.44771525 19,6 C19,6.51283584 18.6139598,6.93550716 18.1166211,6.99327227 L18,7 L7,7 C6.44771525,7 6,6.55228475 6,6 C6,5.48716416 6.38604019,5.06449284 6.88337887,5.00672773 L7,5 L18,5 Z M20.5,9 C21.0522847,9 21.5,9.44771525 21.5,10 C21.5,10.5128358 21.1139598,10.9355072 20.6166211,10.9932723 L20.5,11 L11.5,11 C10.9477153,11 10.5,10.5522847 10.5,10 C10.5,9.48716416 10.8860402,9.06449284 11.3833789,9.00672773 L11.5,9 L20.5,9 Z M18,13 C18.5522847,13 19,13.4477153 19,14 C19,14.5128358 18.6139598,14.9355072 18.1166211,14.9932723 L18,15 L11,15 C10.4477153,15 10,14.5522847 10,14 C10,13.4871642 10.3860402,13.0644928 10.8833789,13.0067277 L11,13 L18,13 Z M14,17 C14.5522847,17 15,17.4477153 15,18 C15,18.5128358 14.6139598,18.9355072 14.1166211,18.9932723 L14,19 L7,19 C6.44771525,19 6,18.5522847 6,18 C6,17.4871642 6.38604019,17.0644928 6.88337887,17.0067277 L7,17 L14,17 Z M2.5,2 C2.74545989,2 2.94960837,2.1607956 2.99194433,2.37284033 L3,2.45454545 L3,21.5454545 C3,21.7964931 2.77614237,22 2.5,22 C2.25454011,22 2.05039163,21.8392044 2.00805567,21.6271597 L2,21.5454545 L2,2.45454545 C2,2.20350693 2.22385763,2 2.5,2 Z" id="Combined-Shape" fill="#95A1AC"></path>
    </g>
</svg>