<?xml version="1.0" encoding="UTF-8"?>
<svg width="24px" height="24px" viewBox="0 0 24 24" version="1.1" xmlns="http://www.w3.org/2000/svg" xmlns:xlink="http://www.w3.org/1999/xlink">
    <title>UI Icons/NavIcons/customWidgets_v2</title>
    <g id="UI-Icons/NavIcons/customWidgets" stroke="none" stroke-width="1" fill="none" fill-rule="evenodd">
        <path d="M16.9973565,20.4775021 C17.4544198,20.4775021 17.8249427,20.848025 17.8249427,21.3050883 C17.8249427,21.7621515 17.4544198,22.1326745 16.9973565,22.1326745 L11.2042531,22.1326745 C10.7471898,22.1326745 10.3766669,21.7621515 10.3766669,21.3050883 C10.3766669,20.848025 10.7471898,20.4775021 11.2042531,20.4775021 L16.9973565,20.4775021 Z M21.9628738,17.1671572 C22.419937,17.1671572 22.79046,17.5376802 22.79046,17.9947434 C22.79046,18.4518067 22.419937,18.8223296 21.9628738,18.8223296 L16.1697703,18.8223296 C15.7127071,18.8223296 15.3421841,18.4518067 15.3421841,17.9947434 C15.3421841,17.5376802 15.7127071,17.1671572 16.1697703,17.1671572 L21.9628738,17.1671572 Z M10.2613886,2 C12.5625157,2 13.93844,3.38240427 13.96004,5.69505141 L13.9605067,9.43215435 C13.6028811,9.51502079 13.2534238,9.61920351 12.9135457,9.7432916 L12.9131568,5.75049158 C12.9131568,3.95840605 12.022514,3.04904324 10.2549086,3.04904324 L4.69937143,3.04904324 C2.93104596,3.04904324 2.0346432,3.95840605 2.0346432,5.75049158 L2.0346432,12.6495529 C2.0346432,14.4416384 2.93104596,15.3510012 4.69937143,15.3510012 L7.460464,15.3511369 C7.34673865,15.6921948 7.25287306,16.0423345 7.18023938,16.400184 L4.69937143,16.4000445 C4.40273051,16.4000445 4.12120964,16.3770044 3.85624882,16.3316443 L3.69928834,16.3021242 C1.99216306,15.9471631 1,14.639639 1,12.6495529 L1,5.75049158 C1,5.51001084 1.01440004,5.27961013 1.04320013,5.05928945 C1.29448091,3.12608348 2.62288501,2 4.69937143,2 L10.2613886,2 Z M19.4801151,13.8568124 C19.9371784,13.8568124 20.3077013,14.2273354 20.3077013,14.6843986 C20.3077013,15.1414618 19.9371784,15.5119848 19.4801151,15.5119848 L12.8594255,15.5119848 C12.4023622,15.5119848 12.0318393,15.1414618 12.0318393,14.6843986 C12.0318393,14.2273354 12.4023622,13.8568124 12.8594255,13.8568124 L19.4801151,13.8568124 Z M9.74764843,11.7266064 C9.41320656,12.0497093 9.10373348,12.3984922 8.8224058,12.7697783 L4.87505197,12.7697933 C4.59137109,12.7697933 4.36097038,12.5365125 4.36097038,12.2485117 C4.36097038,11.9605108 4.59137109,11.72723 4.87505197,11.72723 L9.74764843,11.7266064 Z M10.5645095,8.91922137 C10.6703499,9.0913019 10.6703499,9.30874257 10.5645095,9.4808231 C10.4586692,9.65146363 10.2649886,9.74650393 10.066988,9.72490386 L4.87505197,9.72490386 C4.61153115,9.69466377 4.41209054,9.46930307 4.41209054,9.20002224 C4.41209054,8.93074141 4.61153115,8.70466071 4.87505197,8.67514062 L10.066988,8.67514062 C10.2649886,8.65354055 10.4586692,8.74858084 10.5645095,8.91922137 Z M6.85649809,5.63025121 C7.1200189,5.6597713 7.31945952,5.885852 7.31945952,6.15513283 C7.31945952,6.42369366 7.1200189,6.64977436 6.85649809,6.67929445 L4.88153199,6.67929445 C4.61729117,6.64977436 4.41785056,6.42369366 4.41785056,6.15513283 C4.41785056,5.885852 4.61729117,5.6597713 4.88153199,5.63025121 L6.85649809,5.63025121 Z" id="Combined-Shape" fill="#95A1AC"></path>
    </g>
</svg>