<?xml version="1.0" encoding="UTF-8"?>
<svg width="24px" height="24px" viewBox="0 0 24 24" version="1.1" xmlns="http://www.w3.org/2000/svg" xmlns:xlink="http://www.w3.org/1999/xlink">
    <title>UI Icons/SVG /customIcon_lightMode_filled</title>
    <g id="UI-Icons/customIcon_lightMode_filled" stroke="none" stroke-width="1" fill="none" fill-rule="evenodd">
        <path d="M11.9999964,4.92694418 C11.5661109,4.92694418 11.2143701,4.57520705 11.2143701,4.14132158 L11.2143701,1.78443374 C11.21503,1.35100989 11.5665747,1 11.9999991,1 C12.4334234,1 12.7849682,1.35100989 12.7856281,1.78443374 L12.7856281,4.14132158 C12.7856281,4.34968322 12.7028561,4.54951079 12.5555213,4.69684387 C12.4081865,4.84417694 12.208358,4.92694418 11.9999964,4.92694418 L11.9999964,4.92694418 Z M11.9999964,22.9964207 C11.7916336,22.9964207 11.5918042,22.9136524 11.4444695,22.7663177 C11.2971348,22.6189829 11.2143656,22.4191535 11.2143656,22.2107908 L11.2143656,19.8539047 C11.2139387,19.5729416 11.3635851,19.3131378 11.6068353,19.1725326 C11.8500854,19.0319274 12.1499055,19.0319274 12.3931556,19.1725326 C12.6364058,19.3131378 12.7860522,19.5729416 12.7856253,19.8539047 L12.7856253,22.2107908 C12.7856253,22.4191544 12.7028615,22.6189858 12.5555263,22.7663213 C12.4081912,22.9136568 12.20836,22.9964207 11.9999964,22.9964207 Z M17.5553578,7.22785671 C17.2376033,7.22785671 16.9511427,7.03642636 16.8295464,6.74285812 C16.7079501,6.44928987 16.7751632,6.1113807 16.9998455,5.88669024 L18.6663824,4.22017705 C18.9732486,3.91368072 19.4704327,3.91383595 19.7771075,4.22052383 C20.0837823,4.52721171 20.0839164,5.02439579 19.777407,5.33124898 L18.1108701,6.99776217 C17.9636853,7.145311 17.763766,7.22811784 17.5553578,7.22785671 L17.5553578,7.22785671 Z M4.77809621,20.005142 C4.46034773,20.005142 4.17389141,19.8137189 4.05229121,19.5201589 C3.93069102,19.2265989 3.99789177,18.8886949 4.22256024,18.6639992 L5.88907343,16.9974623 C6.19587692,16.6906473 6.693313,16.6906379 7.00012804,16.9974414 C7.30694308,17.3042449 7.30695246,17.801681 7.000149,18.108496 L5.33363581,19.7750329 C5.1864459,19.9225926 4.98651566,20.0054051 4.77809621,20.005142 L4.77809621,20.005142 Z M22.213174,12.7832421 L19.8562861,12.7832421 C19.4228623,12.7825813 19.0718524,12.4310366 19.0718524,11.9976123 C19.0718524,11.5641879 19.4228623,11.2126432 19.8562861,11.2119824 L22.213174,11.2119824 C22.4941371,11.2115555 22.7539409,11.3612019 22.8945461,11.6044521 C23.0351513,11.8477022 23.0351513,12.1475223 22.8945461,12.3907724 C22.7539409,12.6340226 22.4941371,12.783669 22.213174,12.7832421 L22.213174,12.7832421 Z M4.14370477,12.7832421 L1.78682604,12.7832421 C1.50586292,12.783669 1.24605908,12.6340226 1.10545389,12.3907724 C0.964848702,12.1475223 0.964848702,11.8477022 1.10545389,11.6044521 C1.24605908,11.3612019 1.50586292,11.2115555 1.78682604,11.2119824 L4.14371388,11.2119824 C4.57713773,11.2126432 4.92814761,11.5641879 4.92814761,11.9976123 C4.92814761,12.4310366 4.57713773,12.7825813 4.14371388,12.7832421 L4.14370477,12.7832421 Z M19.2218947,20.0051505 C19.0134813,20.0054059 18.8135582,19.922589 18.6663824,19.7750238 L16.9998455,18.108496 C16.8010129,17.9101041 16.7232252,17.6206527 16.795822,17.3493163 C16.8684188,17.0779799 17.080354,16.8660447 17.3516904,16.7934479 C17.6230268,16.7208511 17.9124782,16.7986389 18.1108701,16.9974714 L19.777407,18.6640083 C20.0020855,18.8886965 20.069296,19.2266015 19.9476995,19.5201649 C19.8261031,19.8137284 19.5396449,20.0051505 19.2218947,20.0051505 L19.2218947,20.0051505 Z M6.4446094,7.22785677 C6.23619402,7.22813071 6.03626719,7.14531223 5.88909711,6.99773849 L4.22256024,5.33124898 C4.02408636,5.13277509 3.94657348,4.8434931 4.01921997,4.57237274 C4.09186645,4.30125237 4.30363556,4.08948326 4.57475593,4.01683677 C4.8458763,3.94419029 5.13515829,4.02170316 5.33363217,4.22017705 L7.00012169,5.88671391 C7.22480019,6.11140207 7.29201068,6.44930706 7.17041424,6.74287052 C7.04881781,7.03643398 6.76235961,7.22785677 6.4446094,7.22785677 L6.4446094,7.22785677 Z M11.9999964,16.711387 C10.0934535,16.711387 8.3746412,15.5629133 7.64503885,13.8014974 C6.9154365,12.0400816 7.31872683,10.0126042 8.66685618,8.66447481 C10.0149855,7.31634545 12.0424629,6.91305513 13.8038788,7.64265748 C15.5652947,8.37225983 16.7137684,10.0910722 16.7137684,11.997615 C16.7108247,14.5997391 14.6021205,16.7084434 11.9999964,16.711387 L11.9999964,16.711387 Z" id="Combined-Shape" fill="#95A1AC"></path>
    </g>
</svg>