<?xml version="1.0" encoding="UTF-8"?>
<svg width="24px" height="24px" viewBox="0 0 24 24" version="1.1" xmlns="http://www.w3.org/2000/svg" xmlns:xlink="http://www.w3.org/1999/xlink">
    <title>UI Icons /SVG / Datatypes</title>
    <g id="UI-Icons-/-Datatypes" stroke="none" stroke-width="1" fill="none" fill-rule="evenodd">
        <path d="M2.77922078,13.6168831 L9.22077922,13.6168831 C9.65113097,13.6168831 10,13.9657521 10,14.3961039 C10,14.8264556 9.65113097,15.1753247 9.22077922,15.1753247 L2.77922078,15.1753247 C2.34886903,15.1753247 2,14.8264556 2,14.3961039 C2,13.9657521 2.34886903,13.6168831 2.77922078,13.6168831 Z M2.77922078,18.4253247 L9.22077922,18.4253247 C9.65113097,18.4253247 10,18.7741937 10,19.2045455 C10,19.6348972 9.65113097,19.9837662 9.22077922,19.9837662 L2.77922078,19.9837662 C2.34886903,19.9837662 2,19.6348972 2,19.2045455 C2,18.7741937 2.34886903,18.4253247 2.77922078,18.4253247 Z M2.77922078,8.80844156 L9.22077922,8.80844156 C9.65113097,8.80844156 10,9.15731058 10,9.58766234 C10,10.0180141 9.65113097,10.3668831 9.22077922,10.3668831 L2.77922078,10.3668831 C2.34886903,10.3668831 2,10.0180141 2,9.58766234 C2,9.15731058 2.34886903,8.80844156 2.77922078,8.80844156 Z M2.77922078,4 L9.22077922,4 C9.65113097,4 10,4.34886903 10,4.77922078 C10,5.20957253 9.65113097,5.55844156 9.22077922,5.55844156 L2.77922078,5.55844156 C2.34886903,5.55844156 2,5.20957253 2,4.77922078 C2,4.34886903 2.34886903,4 2.77922078,4 Z M20.1578947,4 C21.1752614,4 22,4.80877594 22,5.80645161 L22,18.1935484 C22,19.1912241 21.1752614,20 20.1578947,20 L13.8421053,20 C12.8247386,20 12,19.1912241 12,18.1935484 L12,5.80645161 C12,4.80877594 12.8247386,4 13.8421053,4 L20.1578947,4 Z M20.1578947,5.5483871 L13.8421053,5.5483871 C13.6967672,5.5483871 13.5789474,5.66392652 13.5789474,5.80645161 L13.5789474,18.1935484 C13.5789474,18.3360735 13.6967672,18.4516129 13.8421053,18.4516129 L20.1578947,18.4516129 C20.3032328,18.4516129 20.4210526,18.3360735 20.4210526,18.1935484 L20.4210526,5.80645161 C20.4210526,5.66392652 20.3032328,5.5483871 20.1578947,5.5483871 Z M18.5,10 C19.0522847,10 19.5,10.4477153 19.5,11 C19.5,11.5522847 19.0522847,12 18.5,12 C17.9477153,12 17.5,11.5522847 17.5,11 C17.5,10.4477153 17.9477153,10 18.5,10 Z M15.5,10 C16.0522847,10 16.5,10.4477153 16.5,11 C16.5,11.5522847 16.0522847,12 15.5,12 C14.9477153,12 14.5,11.5522847 14.5,11 C14.5,10.4477153 14.9477153,10 15.5,10 Z M18.5,7 C19.0522847,7 19.5,7.44771525 19.5,8 C19.5,8.55228475 19.0522847,9 18.5,9 C17.9477153,9 17.5,8.55228475 17.5,8 C17.5,7.44771525 17.9477153,7 18.5,7 Z M15.5,7 C16.0522847,7 16.5,7.44771525 16.5,8 C16.5,8.55228475 16.0522847,9 15.5,9 C14.9477153,9 14.5,8.55228475 14.5,8 C14.5,7.44771525 14.9477153,7 15.5,7 Z" id="Shape" fill="#95A1AC" transform="translate(12.000000, 12.000000) scale(-1, 1) translate(-12.000000, -12.000000) "></path>
    </g>
</svg>