<?xml version="1.0" encoding="UTF-8"?>
<svg width="24px" height="24px" viewBox="0 0 24 24" version="1.1" xmlns="http://www.w3.org/2000/svg" xmlns:xlink="http://www.w3.org/1999/xlink">
    <title>UI Icons/debug</title>
    <g id="UI-Icons/debug" stroke="none" stroke-width="1" fill="none" fill-rule="evenodd">
        <g id="UI-Icons-/debug" transform="translate(1.25, 1.25)" fill="#95A1AC" fill-rule="nonzero">
            <path d="M6.65075711,0.147051761 L6.73487554,0.219669914 L8.22860635,1.71213789 C8.94822502,1.20446027 9.81967103,0.909090909 10.75,0.909090909 C11.6804451,0.909090909 12.5519926,1.20453403 13.2716871,1.71235404 L14.7651245,0.219669914 C15.0580177,-0.0732233047 15.5328914,-0.0732233047 15.8257846,0.219669914 C16.0920512,0.485936477 16.1162572,0.902600159 15.8984028,1.19621165 L15.8257846,1.28033009 L14.3359716,2.77071294 C14.627559,3.17855565 14.8539327,3.63897628 14.9983861,4.13704545 C15.4249509,4.43908239 15.8208992,4.78416785 16.1833125,5.16663534 L17.4923972,3.85603355 C17.7852904,3.56314033 18.2601641,3.56314033 18.5530574,3.85603355 C18.8193239,4.12230011 18.84353,4.5389638 18.6256755,4.83257529 L18.5530574,4.91669372 L17.120551,6.34947732 C17.978114,7.64690673 18.5315125,9.21258648 18.7099573,10.9090748 L20.75,10.9090909 C21.1642136,10.9090909 21.5,11.2448773 21.5,11.6590909 C21.5,12.0387867 21.2178461,12.3525819 20.8517706,12.4022443 L20.75,12.4090909 L18.7687418,12.4093146 C18.7138957,14.4418322 18.0957856,16.3266468 17.08821,17.8469361 L18.5530574,19.310579 C18.8459506,19.6034722 18.8459506,20.078346 18.5530574,20.3712392 C18.2867908,20.6375057 17.8701271,20.6617118 17.5765156,20.4438573 L17.4923972,20.3712392 L16.1547048,19.0327913 C14.7300249,20.5601878 12.8343447,21.5 10.75,21.5 C8.66565535,21.5 6.76997512,20.5601878 5.34529521,19.0327913 L4.00760281,20.3712392 C3.71470959,20.6641324 3.23983586,20.6641324 2.94694264,20.3712392 C2.68067608,20.1049726 2.65647003,19.6883089 2.87432449,19.3946974 L2.94694264,19.310579 L4.41178997,17.8469361 C3.40421437,16.3266468 2.78610427,14.4418322 2.73125824,12.4093146 L0.75,12.4090909 C0.335786438,12.4090909 0,12.0733045 0,11.6590909 C0,11.2793951 0.282153882,10.9655999 0.648229443,10.9159375 L0.75,10.9090909 L2.79355907,10.909267 C2.97860111,9.23697309 3.5441475,7.67575266 4.40298508,6.37312512 L2.94694264,4.91669372 C2.65404942,4.6238005 2.65404942,4.14892677 2.94694264,3.85603355 C3.2132092,3.58976699 3.62987289,3.56556094 3.92348438,3.7834154 L4.00760281,3.85603355 L5.33527046,5.18472108 C5.69307478,4.80049714 6.08215641,4.45250701 6.49897514,4.14673889 C6.64323288,3.64490707 6.87063807,3.18110976 7.16414264,2.77058222 L5.67421537,1.28033009 C5.38132215,0.987436867 5.38132215,0.512563133 5.67421537,0.219669914 C5.94048193,-0.0465966484 6.35714561,-0.0708026996 6.65075711,0.147051761 Z M6.99204412,5.66883069 L6.81350168,5.8281717 C6.53166116,6.087835 6.26847206,6.37391292 6.02617863,6.68289317 C5.99940272,6.73125557 5.96511984,6.77594161 5.92516893,6.8171746 C4.8610237,8.23502663 4.22727273,10.1075207 4.22727273,12.1136364 C4.22727273,16.1505001 6.79312704,19.4909408 10.0004426,19.9469627 L10.0006138,6.89516378 C9.30962504,6.7880528 8.6093052,6.54090536 7.9145898,6.19354767 C7.54967628,6.0110909 7.23732153,5.82822317 6.99204412,5.66883069 Z M14.5195649,5.6597553 L14.4727115,5.69159765 C14.2330197,5.84551712 13.9330677,6.0197189 13.5854102,6.19354767 C12.8910307,6.5407374 12.1910522,6.78781376 11.5003886,6.8950083 L11.5005548,19.9468208 C14.7074049,19.4902482 17.2727273,16.1500816 17.2727273,12.1136364 C17.2727273,10.1183595 16.6903216,8.29365972 15.6811285,6.90561824 C15.6461316,6.88348395 15.6137367,6.8562151 15.5833063,6.82578463 C15.506222,6.74870033 15.4494249,6.65901116 15.412915,6.56335187 C15.1422156,6.23049774 14.8428353,5.92832449 14.5195649,5.6597553 Z M10.75,2.40909091 C9.49048237,2.40909091 8.38639232,3.23948595 7.98349004,4.42414963 L7.959,4.502 L8.19138658,4.64107543 L8.31921014,4.71254191 L8.5854102,4.85190688 C9.34261647,5.23051002 10.0894013,5.45454545 10.75,5.45454545 L10.9732877,5.44634314 C11.5766796,5.40285156 12.2415176,5.188443 12.9145898,4.85190688 C13.0964486,4.76097747 13.2699207,4.6655605 13.4326212,4.56881446 L13.666,4.424 L13.54,4.502 L13.51651,4.42414963 C13.1327935,3.29589851 12.1130791,2.48897948 10.9288148,2.41468844 L10.75,2.40909091 Z" id="Combined-Shape"></path>
        </g>
    </g>
</svg>