<?xml version="1.0" encoding="UTF-8"?>
<svg width="24px" height="24px" viewBox="0 0 24 24" version="1.1" xmlns="http://www.w3.org/2000/svg" xmlns:xlink="http://www.w3.org/1999/xlink">
    <title>UI Icons/theme/designSystem</title>
    <g id="UI-Icons/theme/designSystem" stroke="none" stroke-width="1" fill="none" fill-rule="evenodd">
        <path d="M12,2 C17.5228188,2 22,6.4771657 22,12 C22,17.5228033 17.5228033,22 12,22 C10.2184405,22 8.54569156,21.5341123 7.09693875,20.717524 L7.01953488,20.6725581 L7.00370592,20.6643184 L6.98325581,20.6511628 L6.88132019,20.59242 C4.02918972,18.8896793 2.09608105,15.8071743 2.00347975,12.2664027 L2,12 C2,8.34779286 3.95787967,5.15287529 6.88131329,3.407573 L6.98325581,3.34790698 L7.00369832,3.33570453 L7.01953488,3.32651163 L7.09693185,3.28246941 C8.47324713,2.50671376 10.0517205,2.0474652 11.7335958,2.00347974 L12,2 Z M12,3.39534884 C10.9161604,3.39534884 9.87912414,3.59573692 8.92391942,3.961485 L8.74232558,4.03348837 L8.94136988,4.18749305 C11.2012319,5.99382535 12.6020853,8.71593352 12.6929645,11.6913246 L12.6976744,12 C12.6976744,15.0952288 11.2791665,17.9438536 8.94137823,19.8125025 L8.74232558,19.9655814 L8.92392619,20.0385114 C9.80565277,20.3761269 10.7571046,20.5728435 11.7507308,20.6011099 L12,20.6046512 C16.7521734,20.6046512 20.6046512,16.7521734 20.6046512,12 C20.6046512,7.24779666 16.75219,3.39534884 12,3.39534884 Z M7.34790698,4.76 L7.26159599,4.81641372 C4.9320527,6.35611436 3.39534884,8.99859793 3.39534884,12 C3.39534884,15.0013832 4.93205933,17.6438717 7.26160331,19.1835786 L7.34790698,19.2390698 L7.48317666,19.1525327 C9.76385131,17.6249853 11.2040041,15.0897019 11.2974802,12.2904851 L11.3023256,12 C11.3023256,9.08632736 9.84248867,6.42766041 7.48318166,4.84748114 L7.34790698,4.76 Z" id="Shape" fill="#95A1AC"></path>
    </g>
</svg>