<?xml version="1.0" encoding="UTF-8"?>
<svg width="24px" height="24px" viewBox="0 0 24 24" version="1.1" xmlns="http://www.w3.org/2000/svg" xmlns:xlink="http://www.w3.org/1999/xlink">
    <title>UI Icons/deviceMobile_Bundlev0</title>
    <g id="UI-Icons/deviceMobile_Bundle" stroke="none" stroke-width="1" fill="none" fill-rule="evenodd">
        <path d="M13.2433862,3.42857143 C14.4301764,3.43036596 15.4091232,4.55165362 15.5531739,6.00088214 L14.4860346,6.00006007 C14.3011933,5.33681209 13.7992972,4.86122449 13.2091362,4.86122449 L5.54329768,4.86122449 C4.79616961,4.86122449 4.19050265,5.62344316 4.19050265,6.56368754 L4.19050265,19.6159043 C4.19050265,20.5561487 4.79616961,21.3183673 5.54329768,21.3183673 L13.2091362,21.3183673 C13.9562643,21.3183673 14.5619312,20.5561487 14.5619312,19.6159043 L14.561,17 L15.571,17 L15.5714286,21.0612245 C15.5698892,22.6834598 14.5284904,23.9980568 13.2433862,24 L5.32804233,24 C4.04293822,23.9980568 3.00153936,22.6834598 3,21.0612245 L3,6.36734694 C3.00153936,4.74511162 4.04293822,3.43051462 5.32804233,3.42857143 L13.2433862,3.42857143 Z M19.2705211,0 C20.5556252,0.00194318674 21.5970241,1.31654019 21.5985634,2.93877551 L21.5985634,17.6326531 C21.5970241,19.2548884 20.5556252,20.5694854 19.2705211,20.5714286 L16.9675116,20.571 L16.9675116,17.889 L19.2362711,17.8897959 C19.9833991,17.8897959 20.5890661,17.1275772 20.5890661,16.1873329 L20.5890661,3.13511612 C20.5890661,2.19487173 19.9833991,1.43265306 19.2362711,1.43265306 L11.5704326,1.43265306 C11.0691543,1.43265306 10.6315563,1.77577396 10.3978431,2.28557143 L9.08554013,2.2848875 C9.32192179,0.977465573 10.2481229,0.00167396026 11.3551772,0 L19.2705211,0 Z M16.7706367,7 C17.1333478,7 17.4691027,7.19536666 17.6392026,7.51295531 C17.8021802,7.81715976 17.7952634,8.17563575 17.6211315,8.47318241 L17.6151986,8.48318883 L16.0889815,11.0244757 C15.9163875,11.3118404 15.6048143,11.4911989 15.2717929,11.4950229 L13.5180945,11.4950722 L14.2424757,13.1457732 L14.2498186,13.1584075 C14.4204089,13.4653127 14.4162523,13.8302022 14.2393377,14.1325362 L14.2333765,14.1425906 L12.7071594,16.6838775 C12.5345676,16.9712385 12.2229965,17.1506007 11.8899939,17.1544247 L9.74000945,17.1544742 L8.20223777,18.7688978 C8.05462041,18.9183186 7.85910182,19 7.65525264,19 C7.60429416,19 7.5533027,18.9948695 7.50285809,18.984634 C7.25419656,18.9341042 7.04759858,18.7642674 6.94815138,18.5300271 L6.13608936,16.6742268 L6.12514929,16.6554659 C5.95455549,16.3485851 5.95868743,15.9836988 6.13557964,15.6813518 L6.14154003,15.6712969 L7.6218133,13.2065155 L6.5310742,10.7209794 L6.5510616,10.7108454 C6.50460703,10.4807214 6.54175931,10.2422936 6.66028503,10.0334672 L6.6728817,10.0118965 L8.19910798,7.47059431 C8.37172188,7.18324756 8.6833085,7.0038864 9.01628879,7 L16.7706367,7 Z M8.75675676,17.1351558 L7.13513514,17.1351351 L7.61141977,18.2318009 C7.62048617,18.2543602 7.63325698,18.2651101 7.65226495,18.2689998 C7.66922039,18.2724817 7.68293827,18.2688972 7.69591286,18.2571283 L8.75675676,17.1351558 Z M13.3924595,13.3648649 L8.4906872,13.3648649 L8.47297297,13.3655267 L9.81700003,16.4256757 L11.8788847,16.4256757 C11.9636386,16.4256757 12.0452834,16.380512 12.0917078,16.30797 L13.6238189,13.7591823 C13.669419,13.6833305 13.674461,13.595323 13.6383308,13.5161257 C13.5966771,13.4248021 13.4999859,13.3648649 13.3924595,13.3648649 Z M7.98114438,13.9932432 L6.76807726,16.0283967 C6.71980778,16.1093994 6.71701014,16.2042617 6.76023475,16.2877453 L6.76726257,16.300393 L6.78186016,16.3227233 L6.79269017,16.3367485 L6.80305162,16.3485296 L6.81794417,16.3632705 C6.85610255,16.3977481 6.90327291,16.4187833 6.95529953,16.4241879 L6.96698678,16.4251812 L9.04054054,16.4256757 L7.98114438,13.9932432 Z M12.7469674,11.5000208 L7.66216216,11.5 L8.19492761,12.7162162 L8.20530609,12.7126943 C8.2973108,12.6820483 8.39350572,12.6654364 8.49075458,12.6639238 L13.2567568,12.663797 L12.7469674,11.5000208 Z M16.763955,7.70954066 L11.8378378,7.70945946 L13.1822711,10.7702703 L15.2434089,10.7702703 C15.328318,10.7702703 15.4100354,10.7250763 15.4564837,10.6524927 L16.9886973,8.10375066 C17.0342766,8.02791792 17.0393155,7.93997644 17.003227,7.86084832 C16.9624185,7.77139873 16.8688509,7.71202664 16.763955,7.70954066 Z M11.0847792,7.70945946 L9.03503697,7.70945946 C8.9507446,7.70945946 8.86944846,7.75454351 8.82320185,7.82701441 L7.29502094,10.3757963 C7.24950729,10.4516988 7.24447726,10.5398384 7.28056731,10.6191382 C7.32121803,10.7085039 7.41428182,10.7677103 7.51854843,10.7701893 L12.4256757,10.7702703 L11.0847792,7.70945946 Z" id="Combined-Shape" fill="#95A1AC"></path>
    </g>
</svg>