<?xml version="1.0" encoding="UTF-8"?>
<svg width="24px" height="24px" viewBox="0 0 24 24" version="1.1" xmlns="http://www.w3.org/2000/svg" xmlns:xlink="http://www.w3.org/1999/xlink">
    <title>UI Icons/SVG /deviceMobile</title>
    <g id="UI-Icons/deviceMobile" stroke="none" stroke-width="1" fill="none" fill-rule="evenodd">
        <path d="M16.8518519,24 L7.69360269,24 C6.20670537,23.9977329 5.00178107,22.4640364 5,20.5714286 L5,3.42857143 C5.00178107,1.53596355 6.20670537,0.0022670512 7.69360269,0 L16.8518519,0 C18.3387492,0.0022670512 19.5436735,1.53596355 19.5454545,3.42857143 L19.5454545,20.5714286 C19.5436735,22.4640364 18.3387492,23.9977329 16.8518519,24 Z M7.85150354,1.68 C6.9897008,1.68 6.29107164,2.56925512 6.29107164,3.6662069 L6.29107164,18.8937931 C6.29107164,19.9907449 6.9897008,20.88 7.85150354,20.88 L16.693951,20.88 C17.5557537,20.88 18.2543829,19.9907449 18.2543829,18.8937931 L18.2543829,3.6662069 C18.2543829,2.56925512 17.5557537,1.68 16.693951,1.68 L7.85150354,1.68 Z" id="Shape" fill="#95A1AC"></path>
    </g>
</svg>