<?xml version="1.0" encoding="UTF-8"?>
<svg width="24px" height="24px" viewBox="0 0 24 24" version="1.1" xmlns="http://www.w3.org/2000/svg" xmlns:xlink="http://www.w3.org/1999/xlink">
    <title>UI Icons/SVG /deviceDesktop</title>
    <g id="UI-Icons/deviceDesktop" stroke="none" stroke-width="1" fill="none" fill-rule="evenodd">
        <path d="M19.2832,22.6088 C17.1462727,22.174621 14.9785362,21.9090037 12.8,21.8144 L12.8,20.2 L11.2,20.2 L11.2,21.8144 C9.02145809,21.9089347 6.8537162,22.1745526 4.7168,22.6088 C4.57696625,22.6385245 4.46361236,22.7405915 4.41943766,22.8765533 C4.37526295,23.0125151 4.40697861,23.161716 4.50263766,23.2679533 C4.5982967,23.3741906 4.74336625,23.4213245 4.8832,23.3916 C7.2270415,22.9155709 9.60884297,22.6506437 12,22.6 C14.3911086,22.6510619 16.772861,22.9158498 19.1168,23.3912 C19.2575656,23.4234817 19.404802,23.3773776 19.5020168,23.2705771 C19.5992316,23.1637765 19.6313271,23.0128658 19.5859888,22.8757472 C19.5406505,22.7386287 19.4249194,22.6365969 19.2832,22.6088 L19.2832,22.6088 Z M23.2,1 L0.8,1 C0.3581722,1 0,1.3581722 0,1.8 L0,18.6 C0,19.0418278 0.3581722,19.4 0.8,19.4 L23.2,19.4 C23.6418278,19.4 24,19.0418278 24,18.6 L24,1.8 C24,1.3581722 23.6418278,1 23.2,1 Z M23.2,2.2 L23.2,16.6 L0.8,16.6 L0.8,2.2 L23.2,2.2 Z" id="Combined-Shape" fill="#95A1AC"></path>
    </g>
</svg>