<?xml version="1.0" encoding="UTF-8"?>
<svg width="24px" height="24px" viewBox="0 0 24 24" version="1.1" xmlns="http://www.w3.org/2000/svg" xmlns:xlink="http://www.w3.org/1999/xlink">
    <title>UI Icons/SVG /deviceTablet</title>
    <g id="UI-Icons/deviceTablet" stroke="none" stroke-width="1" fill="none" fill-rule="evenodd">
        <path d="M18.0857143,24 L6.42857143,24 C4.53596355,23.9977329 3.00226705,22.4640364 3,20.5714286 L3,3.42857143 C3.00226705,1.53596355 4.53596355,0.0022670512 6.42857143,0 L18.0857143,0 C19.9783222,0.0022670512 21.5120187,1.53596355 21.5142857,3.42857143 L21.5142857,20.5714286 C21.5120187,22.4640364 19.9783222,23.9977329 18.0857143,24 Z M6.42857143,1.37142857 C5.2924428,1.37142857 4.37142857,2.2924428 4.37142857,3.42857143 L4.37142857,17.8285714 C4.37142857,18.9647001 5.2924428,19.8857143 6.42857143,19.8857143 L18.0857143,19.8857143 C19.2218429,19.8857143 20.1428571,18.9647001 20.1428571,17.8285714 L20.1428571,3.42857143 C20.1428571,2.2924428 19.2218429,1.37142857 18.0857143,1.37142857 L6.42857143,1.37142857 Z" id="Shape" fill="#95A1AC"></path>
    </g>
</svg>