<?xml version="1.0" encoding="UTF-8"?>
<svg width="24px" height="24px" viewBox="0 0 24 24" version="1.1" xmlns="http://www.w3.org/2000/svg" xmlns:xlink="http://www.w3.org/1999/xlink">
    <title>UI Icons/deviceSmallScreens@2x</title>
    <g id="UI-Icons/deviceSmallScreens" stroke="none" stroke-width="1" fill="none" fill-rule="evenodd">
        <path d="M11.461,18.541 L11.461,19.706 L0.58279371,19.706753 C0.260925631,19.706753 0,19.4458274 0,19.1239593 C0,18.8289136 0.21925001,18.5850764 0.503712055,18.5464858 L0.58279371,18.5411656 L11.461,18.541 Z M20.786309,3 C21.1081771,3 21.3691027,3.26092563 21.3691027,3.58279371 L21.369,5.136 L20.203,5.136 L20.2035153,4.16558742 L4.27382054,4.16558742 L4.27382054,15.4329325 L11.461,15.432 L11.461,16.598 L3.69102683,16.5985199 C3.40134556,16.5985199 3.16102767,16.3871701 3.1158609,16.1102583 L3.10823312,16.0157262 L3.10823312,3.58279371 C3.10823312,3.26092563 3.36915875,3 3.69102683,3 Z M22.0018501,20.6780759 L15.2081406,20.6780759 C14.1051406,20.6767546 13.211312,19.782926 13.2099907,18.679926 L13.2099907,8.68917669 C13.211312,7.58617672 14.1051406,6.69234805 15.2081406,6.69102683 L22.0018501,6.69102683 C23.1048501,6.69234805 23.9986788,7.58617672 24,8.68917669 L24,18.679926 C23.9986788,19.782926 23.1048501,20.6767546 22.0018501,20.6780759 Z M15.2081406,7.49028677 C14.546012,7.49028677 14.0092507,8.02704807 14.0092507,8.68917669 L14.0092507,17.0814061 C14.0092507,17.7435347 14.546012,18.280296 15.2081406,18.280296 L22.0018501,18.280296 C22.6639788,18.280296 23.2007401,17.7435347 23.2007401,17.0814061 L23.2007401,8.68917669 C23.2007401,8.02704807 22.6639788,7.49028677 22.0018501,7.49028677 L15.2081406,7.49028677 Z" id="Combined-Shape" fill="#95A1AC"></path>
    </g>
</svg>