<?xml version="1.0" encoding="UTF-8"?>
<svg width="24px" height="24px" viewBox="0 0 24 24" version="1.1" xmlns="http://www.w3.org/2000/svg" xmlns:xlink="http://www.w3.org/1999/xlink">
    <title>UI Icons/SVG /deviceMobileLandscape</title>
    <g id="UI-Icons/deviceMobileLandscape" stroke="none" stroke-width="1" fill="none" fill-rule="evenodd">
        <path d="M16.5791246,24 L7.42087542,24 C5.9339781,23.9977329 4.7290538,22.4640364 4.72727273,20.5714286 L4.72727273,3.42857143 C4.7290538,1.53596355 5.9339781,0.0022670512 7.42087542,0 L16.5791246,0 C18.0660219,0.0022670512 19.2709462,1.53596355 19.2727273,3.42857143 L19.2727273,20.5714286 C19.2709462,22.4640364 18.0660219,23.9977329 16.5791246,24 Z M7.57877627,1.68 C6.71697352,1.68 6.01834436,2.56925512 6.01834436,3.6662069 L6.01834436,18.8937931 C6.01834436,19.9907449 6.71697352,20.88 7.57877627,20.88 L16.4212237,20.88 C17.2830265,20.88 17.9816556,19.9907449 17.9816556,18.8937931 L17.9816556,3.6662069 C17.9816556,2.56925512 17.2830265,1.68 16.4212237,1.68 L7.57877627,1.68 Z" id="Shape" fill="#95A1AC" transform="translate(12, 12) rotate(90) translate(-12, -12)"></path>
    </g>
</svg>