<?xml version="1.0" encoding="UTF-8"?>
<svg width="24px" height="24px" viewBox="0 0 24 24" version="1.1" xmlns="http://www.w3.org/2000/svg" xmlns:xlink="http://www.w3.org/1999/xlink">
    <title>UI Icons/deviceMobileResponsive</title>
    <g id="UI-Icons/deviceMobileResponsive" stroke="none" stroke-width="1" fill="none" fill-rule="evenodd">
        <path d="M15.5714286,2 C16.8584405,2.00154164 17.9462877,2.85289375 18.3040274,4.02311346 C18.204622,4.00782004 18.1032242,4 18,4 L17.0561844,3.99967342 C16.7597299,3.48745235 16.2058215,3.14285714 15.5714286,3.14285714 L5.85714286,3.14285714 C4.910369,3.14285714 4.14285714,3.910369 4.14285714,4.85714286 L4.14285714,16.8571429 C4.14285714,17.8039167 4.910369,18.5714286 5.85714286,18.5714286 L10,18.571 L10,20 C10,21.0543618 10.8158778,21.9181651 11.8507377,21.9945143 L12,22 L5.85714286,22 C4.27996963,21.9981108 3.00188921,20.7200304 3,19.1428571 L3,4.85714286 C3.00188921,3.27996963 4.27996963,2.00188921 5.85714286,2 L15.5714286,2 Z M19.9012346,6 C20.8924994,6.00151137 21.6957823,7.0239757 21.6969697,8.28571429 L21.6969697,19.7142857 C21.6957823,20.9760243 20.8924994,21.9984886 19.9012346,22 L13.7957351,22 C12.8044702,21.9984886 12.0011874,20.9760243 12,19.7142857 L12,8.28571429 C12.0011874,7.0239757 12.8044702,6.00151137 13.7957351,6 L19.9012346,6 Z M19.9012346,6.91428571 L13.7957351,6.91428571 C13.2006809,6.91428571 12.7182941,7.5282952 12.7182941,8.28571429 L12.7182941,18.8 C12.7182941,19.5574191 13.2006809,20.1714286 13.7957351,20.1714286 L19.9012346,20.1714286 C20.4962888,20.1714286 20.9786756,19.5574191 20.9786756,18.8 L20.9786756,8.28571429 C20.9786756,7.5282952 20.4962888,6.91428571 19.9012346,6.91428571 Z" id="Combined-Shape" fill="#95A1AC"></path>
    </g>
</svg>