<?xml version="1.0" encoding="UTF-8"?>
<svg width="24px" height="24px" viewBox="0 0 24 24" version="1.1" xmlns="http://www.w3.org/2000/svg" xmlns:xlink="http://www.w3.org/1999/xlink">
    <title>UI Icons/SVG /Document</title>
    <g id="UI-Icons/Document" stroke="none" stroke-width="1" fill="none" fill-rule="evenodd">
        <path d="M13.8032504,1.99903697 C13.5416252,2.45111533 13.3372973,2.94049732 13.2001981,3.45725174 L8.1377,3.457 C5.6817,3.457 4.4367,4.72 4.4367,7.209 L4.4367,16.791 C4.4367,19.28 5.6817,20.543 8.1377,20.543 L15.8537,20.543 C18.3087,20.543 19.5457,19.28 19.5457,16.791 L19.5463453,10.9754598 C20.0517047,10.9298439 20.5389896,10.8215666 21.00037,10.6584578 L20.9997,16.791 C20.9997,20.048 19.0837,22 15.8627,22 L8.1377,22 C7.7257,22 7.3347,21.968 6.9667,21.905 L6.7487,21.864 C4.3777,21.371 2.9997,19.555 2.9997,16.791 L2.9997,7.209 C2.9997,6.875 3.0197,6.555 3.0597,6.249 C3.4087,3.564 5.2537,2 8.1377,2 L13.8032504,1.99903697 Z M15.5927,15.51 C15.9867,15.51 16.3057,15.834 16.3057,16.234 C16.3057,16.634 15.9867,16.958 15.5927,16.958 L8.3817,16.958 C7.9877,16.958 7.6677,16.634 7.6677,16.234 C7.6677,15.834 7.9877,15.51 8.3817,15.51 L15.5927,15.51 Z M16.2837,11.61 C16.4307,11.849 16.4307,12.151 16.2837,12.39 C16.1367,12.627 15.8677,12.759 15.5927,12.729 L8.3817,12.729 C8.0157,12.687 7.7387,12.374 7.7387,12 C7.7387,11.626 8.0157,11.312 8.3817,11.271 L15.5927,11.271 C15.8677,11.241 16.1367,11.373 16.2837,11.61 Z M11.1337,7.042 C11.4997,7.083 11.7767,7.397 11.7767,7.771 C11.7767,8.144 11.4997,8.458 11.1337,8.499 L8.3907,8.499 C8.0237,8.458 7.7467,8.144 7.7467,7.771 C7.7467,7.397 8.0237,7.083 8.3907,7.042 L11.1337,7.042 Z M19,2 C20.6568542,2 22,3.34314575 22,5 C22,6.65685425 20.6568542,8 19,8 C17.3431458,8 16,6.65685425 16,5 C16,3.34314575 17.3431458,2 19,2 Z" id="Combined-Shape" fill="#95A1AC"></path>
    </g>
</svg>