<?xml version="1.0" encoding="UTF-8"?>
<svg width="24px" height="24px" viewBox="0 0 24 24" version="1.1" xmlns="http://www.w3.org/2000/svg" xmlns:xlink="http://www.w3.org/1999/xlink">
    <title>UI Icons/SVG /documentationSearch</title>
    <g id="UI-Icons/documentationSearch" stroke="none" stroke-width="1" fill="none" fill-rule="evenodd">
        <path d="M11.255917,2.99867024 C10.9418469,3.44871377 10.6793131,3.93739121 10.4768718,4.45614638 L7.138,4.457 C4.682,4.457 3.437,5.72 3.437,8.209 L3.437,17.791 C3.437,20.28 4.682,21.543 7.138,21.543 L14.854,21.543 C17.309,21.543 18.546,20.28 18.546,17.791 L18.54666,13.8286228 C19.0545817,13.714093 19.5415865,13.5443456 20.0010361,13.3260191 L20,17.791 C20,21.048 18.084,23 14.863,23 L7.138,23 C6.726,23 6.335,22.968 5.967,22.905 L5.749,22.864 C3.378,22.371 2,20.555 2,17.791 L2,8.209 C2,7.875 2.02,7.555 2.06,7.249 C2.409,4.564 4.254,3 7.138,3 L11.255917,2.99867024 Z M14.593,16.51 C14.987,16.51 15.306,16.834 15.306,17.234 C15.306,17.634 14.987,17.958 14.593,17.958 L7.382,17.958 C6.988,17.958 6.668,17.634 6.668,17.234 C6.668,16.834 6.988,16.51 7.382,16.51 L14.593,16.51 Z M12.3939731,12.2709688 C13.1198347,12.9058235 13.9779979,13.3931643 14.9216899,13.6862187 L14.8937266,13.6974121 C14.7984063,13.7287187 14.696125,13.74025 14.593,13.729 L7.382,13.729 C7.016,13.687 6.739,13.374 6.739,13 C6.739,12.626 7.016,12.312 7.382,12.271 L12.3939731,12.2709688 Z M18.222507,1.34267364 C19.9040417,2.03918814 21.0004315,3.68005143 21.0004315,5.50013153 C20.9981739,6.34576646 20.755391,7.17330939 20.3004315,7.88613153 L22.7074315,10.2931315 C23.0978135,10.6836314 23.0978135,11.3166317 22.7074315,11.7071315 C22.3169317,12.0975135 21.6839314,12.0975135 21.2934315,11.7071315 L18.8864315,9.30013153 C18.1736094,9.75509099 17.3460665,9.99787392 16.5004315,10.0001315 C14.6803514,10.0001315 13.0394881,8.90374173 12.3429736,7.22220698 C11.6464591,5.54067223 12.03146,3.605142 13.318451,2.31815102 C14.605442,1.03116004 16.5409722,0.646159138 18.222507,1.34267364 Z M7.391,8.042 L10.0773335,8.04204589 C10.1473956,8.51148453 10.2640687,8.96569538 10.4224936,9.39981909 L10.4097814,9.40887829 C10.3270165,9.45633058 10.2338182,9.48781818 10.134,9.499 L7.391,9.499 C7.024,9.458 6.747,9.144 6.747,8.771 C6.747,8.397 7.024,8.083 7.391,8.042 Z M16.5004315,3.00013153 C15.1197197,3.00013153 14.0004315,4.11941966 14.0004315,5.50013153 C14.0004315,6.88084341 15.1197197,8.00013153 16.5004315,8.00013153 C17.8811434,8.00013153 19.0004315,6.88084341 19.0004315,5.50013153 C19.0004315,4.11941966 17.8811434,3.00013153 16.5004315,3.00013153 Z" id="Combined-Shape" fill="#95A1AC"></path>
    </g>
</svg>