<?xml version="1.0" encoding="UTF-8"?>
<svg width="24px" height="24px" viewBox="0 0 24 24" version="1.1" xmlns="http://www.w3.org/2000/svg" xmlns:xlink="http://www.w3.org/1999/xlink">
    <title>UI Icons/SVG /Document 2</title>
    <g id="UI-Icons/Document" stroke="none" stroke-width="1" fill="none" fill-rule="evenodd">
        <g id="Document" transform="translate(2.9997, 2)" fill="#95A1AC" fill-rule="nonzero">
            <path d="M12.863,0 C16.059,0 17.97,1.92 18,5.132 L18,14.791 C18,18.048 16.084,20 12.863,20 L5.138,20 C4.726,20 4.335,19.968 3.967,19.905 L3.749,19.864 C1.378,19.371 0,17.555 0,14.791 L0,5.209 C0,4.875 0.02,4.555 0.06,4.249 C0.409,1.564 2.254,0 5.138,0 L12.863,0 Z M12.854,1.457 L5.138,1.457 C2.682,1.457 1.437,2.72 1.437,5.209 L1.437,14.791 C1.437,17.28 2.682,18.543 5.138,18.543 L12.854,18.543 C15.309,18.543 16.546,17.28 16.546,14.791 L16.546,5.209 C16.546,2.72 15.309,1.457 12.854,1.457 Z M12.593,13.51 C12.987,13.51 13.306,13.834 13.306,14.234 C13.306,14.634 12.987,14.958 12.593,14.958 L5.382,14.958 C4.988,14.958 4.668,14.634 4.668,14.234 C4.668,13.834 4.988,13.51 5.382,13.51 L12.593,13.51 Z M12.593,9.271 C12.868,9.241 13.137,9.373 13.284,9.61 C13.431,9.849 13.431,10.151 13.284,10.39 C13.137,10.627 12.868,10.759 12.593,10.729 L5.382,10.729 C5.016,10.687 4.739,10.374 4.739,10 C4.739,9.626 5.016,9.312 5.382,9.271 L12.593,9.271 Z M8.134,5.042 C8.5,5.083 8.777,5.397 8.777,5.771 C8.777,6.144 8.5,6.458 8.134,6.499 L5.391,6.499 C5.024,6.458 4.747,6.144 4.747,5.771 C4.747,5.397 5.024,5.083 5.391,5.042 L8.134,5.042 Z"></path>
        </g>
    </g>
</svg>