<?xml version="1.0" encoding="UTF-8"?>
<svg width="24px" height="24px" viewBox="0 0 24 24" version="1.1" xmlns="http://www.w3.org/2000/svg" xmlns:xlink="http://www.w3.org/1999/xlink">
    <title>UI Icons/double</title>
    <g id="UI-Icons/double" stroke="none" stroke-width="1" fill="none" fill-rule="evenodd">
        <path d="M4.65932337,17.0149489 L4.65932337,8.67505901 L2.75531078,9.47757671 L2,7.73092054 L5.16286389,6.25177026 L6.72069237,6.25177026 L6.72069237,17.0149489 L4.65932337,17.0149489 Z M10.1667978,17.1093627 C9.78914241,17.1093627 9.46656176,16.9756098 9.19905586,16.7081039 C8.93154996,16.440598 8.79779701,16.1180173 8.79779701,15.7403619 C8.79779701,15.3627065 8.93154996,15.0427485 9.19905586,14.7804878 C9.46656176,14.5182271 9.78914241,14.3870968 10.1667978,14.3870968 C10.5444532,14.3870968 10.8644112,14.5182271 11.1266719,14.7804878 C11.3889326,15.0427485 11.5200629,15.3627065 11.5200629,15.7403619 C11.5200629,16.1180173 11.3889326,16.440598 11.1266719,16.7081039 C10.8644112,16.9756098 10.5444532,17.1093627 10.1667978,17.1093627 Z M17.483871,17.2667191 C16.7915028,17.2667191 16.1673223,17.1224757 15.6113297,16.833989 C15.055337,16.5455022 14.5806452,16.1494886 14.1872541,15.6459481 C13.7938631,15.1424076 13.4922633,14.5470758 13.2824548,13.8599528 C13.0726462,13.1728298 12.9677419,12.430632 12.9677419,11.6333596 C12.9677419,10.8360871 13.0726462,10.0938893 13.2824548,9.40676633 C13.4922633,8.71964333 13.7938631,8.12431157 14.1872541,7.62077105 C14.5806452,7.11723053 15.055337,6.72121689 15.6113297,6.43273013 C16.1673223,6.14424338 16.7915028,6 17.483871,6 C18.1762392,6 18.8004196,6.14424338 19.3564123,6.43273013 C19.9124049,6.72121689 20.3870968,7.11723053 20.7804878,7.62077105 C21.1738788,8.12431157 21.4754786,8.71964333 21.6852872,9.40676633 C21.8950957,10.0938893 22,10.8360871 22,11.6333596 C22,12.430632 21.8950957,13.1728298 21.6852872,13.8599528 C21.4754786,14.5470758 21.1738788,15.1424076 20.7804878,15.6459481 C20.3870968,16.1494886 19.9124049,16.5455022 19.3564123,16.833989 C18.8004196,17.1224757 18.1762392,17.2667191 17.483871,17.2667191 Z M17.483871,15.3154996 C17.8615264,15.3154996 18.2024653,15.2237084 18.5066876,15.0401259 C18.81091,14.8565434 19.0705481,14.5995279 19.2856019,14.2690795 C19.5006557,13.938631 19.6632573,13.5478626 19.7734068,13.0967742 C19.8835563,12.6456858 19.938631,12.1578809 19.938631,11.6333596 C19.938631,11.0983478 19.8835563,10.6079203 19.7734068,10.1620771 C19.6632573,9.71623394 19.5006557,9.32808812 19.2856019,8.99763965 C19.0705481,8.66719119 18.81091,8.41017571 18.5066876,8.22659323 C18.2024653,8.04301075 17.8615264,7.95121951 17.483871,7.95121951 C17.0957252,7.95121951 16.749541,8.04301075 16.4453186,8.22659323 C16.1410962,8.41017571 15.8840808,8.66719119 15.6742722,8.99763965 C15.4644637,9.32808812 15.3044847,9.71623394 15.1943352,10.1620771 C15.0841857,10.6079203 15.0291109,11.0983478 15.0291109,11.6333596 C15.0291109,12.1578809 15.0841857,12.6456858 15.1943352,13.0967742 C15.3044847,13.5478626 15.4644637,13.938631 15.6742722,14.2690795 C15.8840808,14.5995279 16.1410962,14.8565434 16.4453186,15.0401259 C16.749541,15.2237084 17.0957252,15.3154996 17.483871,15.3154996 Z" id="Combined-Shape" fill="#95A1AC"></path>
    </g>
</svg>