<?xml version="1.0" encoding="UTF-8"?>
<svg width="24px" height="24px" viewBox="0 0 24 24" version="1.1" xmlns="http://www.w3.org/2000/svg" xmlns:xlink="http://www.w3.org/1999/xlink">
    <title>UI Icons /SVG /download_Marketplace</title>
    <g id="UI-Icons-/download_Marketplace" stroke="none" stroke-width="1" fill="none" fill-rule="evenodd">
        <path d="M21.1666667,15.3333333 L21.2711982,15.3398262 C21.6820957,15.3912484 22,15.7418322 22,16.1666667 L22,19.5 C22,20.8807119 20.8807119,22 19.5,22 L4.5,22 C3.11928813,22 2,20.8807119 2,19.5 L2,16.1666667 C2,15.7064294 2.37309604,15.3333333 2.83333333,15.3333333 L2.9378649,15.3398262 C3.34876235,15.3912484 3.66666667,15.7418322 3.66666667,16.1666667 L3.66666667,19.5 C3.66666667,19.9602373 4.03976271,20.3333333 4.5,20.3333333 L19.5,20.3333333 C19.9602373,20.3333333 20.3333333,19.9602373 20.3333333,19.5 L20.3333333,16.1666667 C20.3333333,15.7064294 20.7064294,15.3333333 21.1666667,15.3333333 Z M12,2 C12.4602373,2 12.8333333,2.37309604 12.8333333,2.83333333 L12.8333333,15.68 L16.4108333,12.1041667 C16.6200621,11.8875362 16.9298982,11.8006562 17.2212561,11.876919 C17.512614,11.9531819 17.7401514,12.1807194 17.8164143,12.4720772 C17.8926772,12.7634351 17.8057972,13.0732713 17.5891667,13.2825 L13.7675,17.1041667 C12.7899244,18.0769143 11.2100756,18.0769143 10.2325,17.1041667 L6.41083333,13.2816667 C6.19420285,13.0724379 6.10732284,12.7626018 6.1835857,12.4712439 C6.25984857,12.179886 6.48738604,11.9523486 6.7787439,11.8760857 C7.07010176,11.7998228 7.37993794,11.8867028 7.58916667,12.1033333 L11.1666667,15.6808333 L11.1666667,2.83333333 C11.1666667,2.37309604 11.5397627,2 12,2 Z" id="Combined-Shape" fill="#95A1AC"></path>
    </g>
</svg>