<?xml version="1.0" encoding="UTF-8"?>
<svg width="24px" height="24px" viewBox="0 0 24 24" version="1.1" xmlns="http://www.w3.org/2000/svg" xmlns:xlink="http://www.w3.org/1999/xlink">
    <title>UI Icons /SVG /drawerClose</title>
    <g id="UI-Icons-/drawerClose" stroke="none" stroke-width="1" fill="none" fill-rule="evenodd">
        <path d="M10.258213,11.1983411 C10.6713449,11.6021312 10.7083242,12.2432355 10.3695642,12.6895197 L10.2566645,12.8171283 L6.51812823,16.4571685 C6.07069535,16.8928133 5.35481951,16.8832571 4.91917476,16.4358242 C4.52313409,16.0290671 4.49502805,15.4004562 4.82935387,14.9622186 L4.94051906,14.8368708 L7.84883125,12.0046436 L4.93897056,9.16161847 C4.53297184,8.76480033 4.48929711,8.13707899 4.81266049,7.6906912 L4.92068536,7.5626271 C5.31750351,7.15662838 5.94522484,7.11295366 6.39161264,7.43631704 L6.51967673,7.54434191 L10.258213,11.1983411 Z M15.5985914,4 L17.5985914,4 C18.1508762,4 18.5985914,4.44771525 18.5985914,5 L18.5985914,19 C18.5985914,19.5522847 18.1508762,20 17.5985914,20 L15.5985914,20 C15.0463067,20 14.5985914,19.5522847 14.5985914,19 L14.5985914,5 C14.5985914,4.44771525 15.0463067,4 15.5985914,4 Z" id="Combined-Shape" fill="#95A1AC"></path>
    </g>
</svg>