<?xml version="1.0" encoding="UTF-8"?>
<svg width="24px" height="24px" viewBox="0 0 24 24" version="1.1" xmlns="http://www.w3.org/2000/svg" xmlns:xlink="http://www.w3.org/1999/xlink">
    <title>UI Icons /SVG /drawerOpen</title>
    <g id="UI-Icons-/drawerOpen" stroke="none" stroke-width="1" fill="none" fill-rule="evenodd">
        <path d="M4.93896993,11.1983411 C4.52583797,11.6021312 4.48885868,12.2432355 4.82761867,12.6895197 L4.94051843,12.8171283 L8.67905467,16.4571685 C9.12648754,16.8928133 9.84236339,16.8832571 10.2780081,16.4358242 C10.6740488,16.0290671 10.7021548,15.4004562 10.367829,14.9622186 L10.2566638,14.8368708 L7.34835164,12.0046436 L10.2582123,9.16161847 C10.6642111,8.76480033 10.7078858,8.13707899 10.3845224,7.6906912 L10.2764975,7.5626271 C9.87967939,7.15662838 9.25195805,7.11295366 8.80557025,7.43631704 L8.67750616,7.54434191 L4.93896993,11.1983411 Z M15.5985914,4 L17.5985914,4 C18.1508762,4 18.5985914,4.44771525 18.5985914,5 L18.5985914,19 C18.5985914,19.5522847 18.1508762,20 17.5985914,20 L15.5985914,20 C15.0463067,20 14.5985914,19.5522847 14.5985914,19 L14.5985914,5 C14.5985914,4.44771525 15.0463067,4 15.5985914,4 Z" id="Combined-Shape" fill="#95A1AC"></path>
    </g>
</svg>