<?xml version="1.0" encoding="UTF-8"?>
<svg width="24px" height="24px" viewBox="0 0 24 24" version="1.1" xmlns="http://www.w3.org/2000/svg" xmlns:xlink="http://www.w3.org/1999/xlink">
    <title>UI Icons/SVG /editProperties</title>
    <g id="UI-Icons/editProperties" stroke="none" stroke-width="1" fill="none" fill-rule="evenodd">
        <path d="M17.8212096,0.270926416 L23.7287918,6.17850868 C24.0892656,6.53898242 24.0892594,7.12342328 23.7287857,7.48389702 L7.48350973,23.728868 C7.12303739,24.0893336 6.5386026,24.0893308 6.17813364,23.7288619 L0.270551375,17.8212796 C-0.0899223608,17.4608059 -0.0899162336,16.876365 0.270557503,16.5158913 L16.5158335,0.270920289 C16.8763058,-0.0895452782 17.4607406,-0.089542535 17.8212096,0.270926416 Z M19.9496635,14.2235761 L20.0366218,14.3003621 L22.2519289,16.5156275 C22.3406528,16.6043498 22.410041,16.7099059 22.456308,16.8256102 L22.4947277,16.9444496 L23.9715991,22.8518242 C24.1321567,23.4940424 23.5875491,24.0787936 22.9530838,23.9907651 L22.8522481,23.9711852 L16.9447625,22.4943415 C16.8230376,22.4639109 16.7092318,22.4090981 16.6100304,22.3336883 L16.5159448,22.251553 L14.3006377,20.0362875 C13.940163,19.6758195 13.9401575,19.09138 14.3006255,18.7309053 C14.6333651,18.3981594 15.1569445,18.3725589 15.5190494,18.654107 L15.6060077,18.730893 L17.6403056,20.7648116 L21.806929,21.806929 L20.7648116,17.6393825 L18.7312519,15.6057565 C18.398506,15.2730169 18.3729055,14.7494375 18.6544536,14.3873326 L18.7312396,14.3003743 C19.0639793,13.9676284 19.5875586,13.9420279 19.9496635,14.2235761 Z M17.1673928,2.22895095 L14.781,4.614 L16.3444434,6.17772199 C16.7049181,6.53818995 16.7049236,7.12262947 16.3444556,7.4831042 C16.011716,7.8158501 15.4881367,7.84145061 15.1260317,7.55990243 L15.0390734,7.48311645 L13.476,5.92 L11.827,7.568 L13.3907006,9.13140929 C13.7511754,9.49187725 13.7511808,10.0763168 13.3907129,10.4367915 C13.0579732,10.7695374 12.5343939,10.7951379 12.172289,10.5135897 L12.0853307,10.4368038 L10.522,8.873 L8.873,10.522 L10.4369579,12.0850966 C10.7974326,12.4455646 10.7974381,13.0300041 10.4369701,13.3904788 C10.1042305,13.7232247 9.58065114,13.7488252 9.21854621,13.467277 L9.13158791,13.3904911 L7.568,11.827 L5.92,13.475 L7.48321511,15.0387839 C7.84368984,15.3992519 7.84369532,15.9836914 7.48322736,16.3441661 C7.15048771,16.676912 6.62690838,16.7025125 6.26480345,16.4209643 L6.17784515,16.3441784 L4.614,14.781 L2.22794611,17.1683976 L6.83007109,21.7705226 L21.7701705,6.83172862 L17.1673928,2.22895095 Z M5.91938661,0.193562326 L6.00634373,0.27034738 L9.69852218,3.96245651 C10.0589969,4.32292447 10.0590024,4.90736399 9.69853443,5.26783872 C9.36579478,5.60058462 8.84221545,5.62618513 8.48011052,5.34463695 L8.39315222,5.26785097 L5.35365875,2.22915274 L2.22915274,5.35365875 L5.26790804,8.39298746 C5.60065394,8.72572712 5.62625445,9.24930645 5.34470627,9.61141138 L5.26792029,9.69836967 C4.93518064,10.0311156 4.41160131,10.0567161 4.04949638,9.77516791 L3.96253808,9.69838193 L0.270359635,6.0062728 C-0.0623906849,5.67352873 -0.0879868634,5.149941 0.193571099,4.78783637 L0.270359635,4.70087834 L4.70097377,0.27034738 C5.03371526,-0.062387857 5.55728668,-0.0879828753 5.91938661,0.193562326 Z" id="Combined-Shape" fill="#95A1AC"></path>
    </g>
</svg>