<?xml version="1.0" encoding="UTF-8"?>
<svg width="24px" height="24px" viewBox="0 0 24 24" version="1.1" xmlns="http://www.w3.org/2000/svg" xmlns:xlink="http://www.w3.org/1999/xlink">
    <title>UI Icons /SVG / expanded</title>
    <g id="UI-Icons-/-expanded" stroke="none" stroke-width="1" fill="none" fill-rule="evenodd">
        <path d="M16.3348837,2 C19.887953,2 22,4.10334354 22,7.65581395 L22,16.3441953 C22,19.8861968 19.8890986,22 16.344186,22 L7.65581395,22 C4.10479335,22 2,19.8894061 2,16.3441953 L2,7.65581395 C2,4.09840599 4.09840599,2 7.65581395,2 Z M16.3348837,3.39534884 L7.65581395,3.39534884 C4.86903587,3.39534884 3.39534884,4.86903587 3.39534884,7.65581395 L3.39534884,16.3441953 C3.39534884,19.1196346 4.87628418,20.6046512 7.65581395,20.6046512 L16.344186,20.6046512 C19.1180393,20.6046512 20.6046512,19.1159957 20.6046512,16.3441953 L20.6046512,7.65581395 C20.6046512,4.87526622 19.11861,3.39534884 16.3348837,3.39534884 Z M16.0099035,9.07870377 L16.0889205,9.14535636 L18.3956405,11.399916 C18.6505477,11.6490592 18.6733644,12.0446279 18.4643455,12.3199904 L18.3946851,12.3987264 L16.0879651,14.6446732 C15.8118939,14.913471 15.3701902,14.9075747 15.1013924,14.6315035 C14.8570307,14.3805296 14.839689,13.9926695 15.0459718,13.7222718 L15.1145621,13.6449308 L16.9087908,11.8969487 L15.1136066,10.1432347 C14.8631007,9.89839328 14.8361529,9.51108198 15.0356718,9.23565556 L15.1023244,9.15663853 C15.3471658,8.90613264 15.7344771,8.87918483 16.0099035,9.07870377 Z M8.12545569,4.3255814 L12.1453174,4.3255814 L12.1536141,19.6744186 L8.12545569,19.6744186 C5.64641562,19.6744186 4.3255814,18.3499443 4.3255814,15.8745526 L4.3255814,8.12545569 C4.3255814,5.63995091 5.63995091,4.3255814 8.12545569,4.3255814 Z" id="Combined-Shape-Copy-4" fill="#95A1AC"></path>
    </g>
</svg>