<?xml version="1.0" encoding="UTF-8"?>
<svg width="24px" height="24px" viewBox="0 0 24 24" version="1.1" xmlns="http://www.w3.org/2000/svg" xmlns:xlink="http://www.w3.org/1999/xlink">
    <title>UI Icons /SVG / expanded_alt</title>
    <g id="UI-Icons-/-expanded_alt" stroke="none" stroke-width="1" fill="none" fill-rule="evenodd">
        <path d="M16.3348837,2 C19.887953,2 22,4.10334354 22,7.65581395 L22,16.3441953 C22,19.8861968 19.8890986,22 16.344186,22 L7.65581395,22 C4.10479335,22 2,19.8894061 2,16.3441953 L2,7.65581395 C2,4.09840599 4.09840599,2 7.65581395,2 Z M16.3348837,3.39534884 L7.65581395,3.39534884 C4.86903587,3.39534884 3.39534884,4.86903587 3.39534884,7.65581395 L3.39534884,16.3441953 C3.39534884,19.1196346 4.87628418,20.6046512 7.65581395,20.6046512 L16.344186,20.6046512 C19.1180393,20.6046512 20.6046512,19.1159957 20.6046512,16.3441953 L20.6046512,7.65581395 C20.6046512,4.87526622 19.11861,3.39534884 16.3348837,3.39534884 Z M15.8662476,4.3255814 C18.3490305,4.3255814 19.6744186,5.64550771 19.6744186,8.12545569 L19.6744186,15.8745526 C19.6744186,18.3466989 18.3485215,19.6744186 15.8745443,19.6744186 L8.12545569,19.6744186 C5.64641562,19.6744186 4.3255814,18.3499443 4.3255814,15.8745526 L4.3255814,8.12545569 C4.3255814,5.63995091 5.63995091,4.3255814 8.12545569,4.3255814 L15.8662476,4.3255814 Z" id="Combined-Shape" fill="#95A1AC"></path>
    </g>
</svg>