<?xml version="1.0" encoding="UTF-8"?>
<svg width="24px" height="24px" viewBox="0 0 24 24" version="1.1" xmlns="http://www.w3.org/2000/svg" xmlns:xlink="http://www.w3.org/1999/xlink">
    <title>UI Icons/UI InspectorPanel/SVG /figma</title>
    <g id="UI-Icons/UI-InspectorPanel/figma" stroke="none" stroke-width="1" fill="none" fill-rule="evenodd">
        <g id="figma_icon" transform="translate(4.000000, 1.000000)" fill="#95A1AC">
            <path d="M8.18181818,17.9090909 C8.18181818,18.9940752 7.75081492,20.0345937 6.98361341,20.8017952 C6.21641189,21.5689967 5.17589343,22 4.09090909,22 C3.00592476,22 1.96540629,21.5689967 1.19820478,20.8017952 C0.431003257,20.0345937 0,18.9940752 0,17.9090909 C0,16.8241066 0.431003257,15.7835881 1.19820478,15.0163866 C1.41252771,14.8020637 1.64818036,14.6139777 1.90017352,14.4541956 C1.64818036,14.2951132 1.41252771,14.1070273 1.19820478,13.8927043 C0.431003257,13.1255028 0,12.0849843 0,11 C0,9.91501567 0.431003257,8.8744972 1.19820478,8.10729568 C1.41252771,7.89297275 1.64818036,7.70488679 1.90017352,7.54510467 C1.64818036,7.3860223 1.41252771,7.19793634 1.19820478,6.98361341 C0.431003257,6.21641189 0,5.17589343 0,4.09090909 C0,3.00592476 0.431003257,1.96540629 1.19820478,1.19820478 C1.96540629,0.431003257 3.00592476,0 4.09090909,0 L11,0 C12.0849843,0 13.1255028,0.431003257 13.8927043,1.19820478 C14.6599058,1.96540629 15.0909091,3.00592476 15.0909091,4.09090909 C15.0909091,5.17589343 14.6599058,6.21641189 13.8927043,6.98361341 C13.6783814,7.19793634 13.4427287,7.3860223 13.1907356,7.54580443 C13.4427287,7.70488679 13.6783814,7.89297275 13.8927043,8.10729568 C14.6599058,8.8744972 15.0909091,9.91501567 15.0909091,11 C15.0909091,12.0849843 14.6599058,13.1255028 13.8927043,13.8927043 C13.1255028,14.6599058 12.0849843,15.0909091 11,15.0909091 C9.91501567,15.0909091 8.8744972,14.6599058 8.10729568,13.8927043 L8.181,13.962 Z M6.90909091,15.0909091 L4.09090909,15.0909091 C3.34347542,15.0909091 2.62667941,15.3878201 2.09815886,15.9163407 C1.56963831,16.4448612 1.27272727,17.1616572 1.27272727,17.9090909 C1.27272727,18.6565246 1.56963831,19.3733206 2.09815886,19.9018411 C2.62667941,20.4303617 3.34347542,20.7272727 4.09090909,20.7272727 C4.83834276,20.7272727 5.55513877,20.4303617 6.08365932,19.9018411 C6.61217987,19.3733206 6.90909091,18.6565246 6.90909091,17.9090909 L6.90909091,15.0909091 Z M11,8.18181818 C10.2525663,8.18181818 9.53577032,8.47872922 9.00724977,9.00724977 C8.47872922,9.53577032 8.18181818,10.2525663 8.18181818,11 C8.18181818,11.7474337 8.47872922,12.4642297 9.00724977,12.9927502 C9.53577032,13.5212708 10.2525663,13.8181818 11,13.8181818 C11.7474337,13.8181818 12.4642297,13.5212708 12.9927502,12.9927502 C13.5212708,12.4642297 13.8181818,11.7474337 13.8181818,11 C13.8181818,10.2525663 13.5212708,9.53577032 12.9927502,9.00724977 C12.4642297,8.47872922 11.7474337,8.18181818 11,8.18181818 Z M3.87885516,8.18980106 C3.24599286,8.23753037 2.64647498,8.49777404 2.1788293,8.92971692 L2.09815886,9.00724977 C1.56963831,9.53577032 1.27272727,10.2525663 1.27272727,11 C1.27272727,11.7474337 1.56963831,12.4642297 2.09815886,12.9927502 C2.62667941,13.5212708 3.34347542,13.8181818 4.09090909,13.8181818 L6.90909091,13.8181818 L6.90909091,8.18181818 L4.09090909,8.18181818 Z M11,1.27272727 L8.18181818,1.27272727 L8.18181818,6.90909091 L11,6.90909091 C11.7474337,6.90909091 12.4642297,6.61217987 12.9927502,6.08365932 C13.5212708,5.55513877 13.8181818,4.83834276 13.8181818,4.09090909 C13.8181818,3.34347542 13.5212708,2.62667941 12.9927502,2.09815886 C12.4642297,1.56963831 11.7474337,1.27272727 11,1.27272727 Z M6.90909091,1.27272727 L4.09090909,1.27272727 C3.3808471,1.27272727 2.69843561,1.54068948 2.1788293,2.02062601 L2.09815886,2.09815886 C1.56963831,2.62667941 1.27272727,3.34347542 1.27272727,4.09090909 C1.27272727,4.83834276 1.56963831,5.55513877 2.09815886,6.08365932 C2.62667941,6.61217987 3.34347542,6.90909091 4.09090909,6.90909091 L6.90909091,6.90909091 L6.90909091,1.27272727 Z" id="Combined-Shape"></path>
        </g>
    </g>
</svg>