<?xml version="1.0" encoding="UTF-8"?>
<svg width="24px" height="24px" viewBox="0 0 24 24" version="1.1" xmlns="http://www.w3.org/2000/svg" xmlns:xlink="http://www.w3.org/1999/xlink">
    <title>UI Icons/NavIcons/SVG /firebase</title>
    <g id="UI-Icons/NavIcons/firebase" stroke="none" stroke-width="1" fill="none" fill-rule="evenodd">
        <g id="firebase" transform="translate(4.0166, 1.0044)" fill="#95A1AC" fill-rule="nonzero">
            <path d="M13.280829,4.49557904 C13.5544041,4.45807904 13.8031088,4.63307904 13.8528497,4.90807904 L15.899,17.6355357 L15.9170984,17.745579 L8.65492228,21.808079 C8.47585492,21.908079 8.27888083,21.968079 8.07832539,21.988079 L7.92746114,21.995579 C7.67564767,21.995579 7.4238342,21.933079 7.2,21.808079 L1.8189894e-12,17.745579 L0.0124352332,17.633079 L0.076,17.6685357 L13.0072539,4.63307904 C13.0632124,4.57682904 13.1331606,4.53464154 13.2066062,4.51178998 Z" id="background"></path>
            <path d="M1.8189894e-12,17.745579 L2.6984456,0.420579042 C2.7357513,0.145579042 2.99689119,-0.041920958 3.27046632,0.00807904202 C3.41968912,0.033079042 3.55647668,0.133079042 3.63108808,0.270579042 L6.41658031,5.49557904 L7.52331606,3.37057904 C7.64766839,3.12057904 7.94611399,3.03307904 8.19481865,3.15807904 C8.28186528,3.20807904 8.35647668,3.28307904 8.40621762,3.37057904 L15.9170984,17.745579 L1.8189894e-12,17.745579 Z" id="up_1" opacity="0.702489944"></path>
            <polygon id="shadow" opacity="0.7" points="9.31398964 10.995579 6.41658031 5.48307904 0 17.745579"></polygon>
        </g>
    </g>
</svg>