<?xml version="1.0" encoding="UTF-8"?>
<svg width="24px" height="24px" viewBox="0 0 24 24" version="1.1" xmlns="http://www.w3.org/2000/svg" xmlns:xlink="http://www.w3.org/1999/xlink">
    <title>UI Icons/UI InspectorPanel/SVG /flexible</title>
    <g id="UI-Icons/UI-InspectorPanel/flexible" stroke="none" stroke-width="1" fill="none" fill-rule="evenodd">
        <path d="M16.3348837,2 C19.887953,2 22,4.10334354 22,7.65581395 L22,16.3441953 C22,19.8861968 19.8890986,22 16.344186,22 L7.65581395,22 C4.10479335,22 2,19.8894061 2,16.3441953 L2,7.65581395 C2,4.09840599 4.09840599,2 7.65581395,2 L16.3348837,2 Z M16.3348837,3.39534884 L7.65581395,3.39534884 C4.86903587,3.39534884 3.39534884,4.86903587 3.39534884,7.65581395 L3.39534884,16.3441953 C3.39534884,19.1196346 4.87628418,20.6046512 7.65581395,20.6046512 L16.344186,20.6046512 C19.1180393,20.6046512 20.6046512,19.1159957 20.6046512,16.3441953 L20.6046512,7.65581395 C20.6046512,4.87526622 19.11861,3.39534884 16.3348837,3.39534884 Z M11.1453174,4.3255814 C11.6973911,4.32612208 12.1450188,4.77350795 12.145858,5.32558125 L12.1530735,18.6744188 C12.1539125,19.2267031 11.7064393,19.6746603 11.1541546,19.6749589 L8.12545569,19.6744186 C5.64641562,19.6744186 4.3255814,18.3499443 4.3255814,15.8745526 L4.3255814,8.12545569 C4.3255814,5.63995091 5.63995091,4.3255814 8.12545569,4.3255814 L11.1453174,4.3255814 Z M17.4399454,9.41640686 L17.506598,9.49542389 C17.706117,9.77085031 17.6791692,10.1581616 17.4286633,10.403003 L15.6332457,12.1571823 L17.4277078,13.9046991 L17.496298,13.9820402 C17.7025809,14.2524378 17.6852392,14.640298 17.4408775,14.8912718 C17.1720797,15.1673431 16.730376,15.1732393 16.4543048,14.9044415 L14.1475848,12.6584947 L14.0779243,12.5797588 C13.8689055,12.3043962 13.8917222,11.9088275 14.1466293,11.6596844 L16.4533493,9.40512469 L16.5323663,9.3384721 C16.8077928,9.13895316 17.1951041,9.16590097 17.4399454,9.41640686 Z" id="Combined-Shape-Copy-2" fill="#95A1AC"></path>
    </g>
</svg>