<?xml version="1.0" encoding="UTF-8"?>
<svg width="24px" height="24px" viewBox="0 0 24 24" version="1.1" xmlns="http://www.w3.org/2000/svg" xmlns:xlink="http://www.w3.org/1999/xlink">
    <title>UI Icons/theme/SVG /format_color_fill_variant</title>
    <defs>
        <path d="M14.0200672,20.6046512 C14.4053822,20.6046512 14.7177416,20.9170106 14.7177416,21.3023256 C14.7177416,21.6876405 14.4053822,22 14.0200672,22 L2.85727653,22 C2.47196159,22 2.15960211,21.6876405 2.15960211,21.3023256 C2.15960211,20.9170106 2.47196159,20.6046512 2.85727653,20.6046512 L14.0200672,20.6046512 Z M8.93200219,2.20434411 L9.8576742,3.13116279 L14.5709967,7.84394553 C14.1733857,8.09459854 13.8101255,8.39477484 13.4898754,8.73581493 L9.36837188,4.61395349 L4.39137842,9.59238082 C4.00867756,9.97685065 3.79307874,10.2027964 3.66121491,10.3647016 L3.6548835,10.372093 L12.4267182,10.3722002 C12.2424382,10.8110522 12.1134394,11.2788474 12.0484355,11.7668719 L3.65581374,11.7674419 L3.68045942,11.7972233 C3.81773936,11.9614345 4.03470685,12.1884945 4.38678395,12.5424664 L7.75735098,15.913451 L8.02309484,16.1777171 C8.62921159,16.7761347 8.81727418,16.9239321 9.00955137,16.9864174 C9.24310798,17.0622947 9.4946974,17.0622947 9.72819794,16.9864338 C9.75406755,16.9780271 9.78015402,16.9674942 9.80755212,16.954253 C9.99190111,16.8651592 10.1787871,16.7079453 10.7238479,16.1688141 L10.9804113,15.9134604 L12.3799906,14.5128837 C12.5591997,14.9683623 12.7974315,15.3941525 13.0852666,15.7808349 L11.8163156,17.0505697 C11.0463456,17.8170812 10.8071456,18.0209204 10.4147188,18.2105758 C10.3309879,18.251042 10.24619,18.285281 10.1593888,18.313488 C9.64562309,18.480403 9.09218926,18.480403 8.57835684,18.3134704 C8.0529423,18.1427237 7.79082763,17.9202103 6.77069402,16.9001153 L3.53860053,13.6679474 C2.5184715,12.6478699 2.29592721,12.3857274 2.12519492,11.8602291 C1.95826807,11.3464408 1.95826807,10.7930941 2.12519665,10.2793004 C2.15338547,10.1925397 2.18762193,10.1077369 2.22808647,10.0240013 C2.42958976,9.60701866 2.64711904,9.36303174 3.53858808,8.47156271 L8.38139513,3.62697674 L7.94534156,3.19100473 C7.69765174,2.94331491 7.67513448,2.55572078 7.87778979,2.28259381 L7.94534156,2.20434411 C8.21780037,1.9318853 8.65954338,1.9318853 8.93200219,2.20434411 Z M18,9 C18.44,9 18.8,9.36 18.8,9.8 L18.8,12.2 L21.2,12.2 C21.64,12.2 22,12.56 22,13 C22,13.44 21.64,13.8 21.2,13.8 L18.8,13.8 L18.8,16.2 C18.8,16.64 18.44,17 18,17 C17.56,17 17.2,16.64 17.2,16.2 L17.2,13.8 L14.8,13.8 C14.36,13.8 14,13.44 14,13 C14,12.56 14.36,12.2 14.8,12.2 L17.2,12.2 L17.2,9.8 C17.2,9.36 17.56,9 18,9 Z" id="path-1"></path>
    </defs>
    <g id="UI-Icons/theme/format_color_fill_variant" stroke="none" stroke-width="1" fill="none" fill-rule="evenodd">
        <mask id="mask-2" fill="white">
            <use xlink:href="#path-1"></use>
        </mask>
        <use id="Combined-Shape" fill="#95A1AC" xlink:href="#path-1"></use>
    </g>
</svg>