<?xml version="1.0" encoding="UTF-8"?>
<svg width="24px" height="24px" viewBox="0 0 24 24" version="1.1" xmlns="http://www.w3.org/2000/svg" xmlns:xlink="http://www.w3.org/1999/xlink">
    <title>UI Icons/theme/format_color_fill</title>
    <defs>
        <path d="M14.0200672,20.6046512 C14.4053822,20.6046512 14.7177416,20.9170106 14.7177416,21.3023256 C14.7177416,21.6876405 14.4053822,22 14.0200672,22 L2.85727653,22 C2.47196159,22 2.15960211,21.6876405 2.15960211,21.3023256 C2.15960211,20.9170106 2.47196159,20.6046512 2.85727653,20.6046512 L14.0200672,20.6046512 Z M7.94534156,2.20434411 C8.21780037,1.9318853 8.65954338,1.9318853 8.93200219,2.20434411 L9.8576742,3.13116279 L16.3732048,9.6460351 C16.8300372,10.1069288 16.9416876,10.2533314 17.0433545,10.5665646 C17.1497002,10.8935817 17.1497002,11.2459532 17.0434766,11.5725944 C17.0245082,11.6310353 17.0015547,11.6879638 16.9746274,11.7437694 C16.8490006,12.0041246 16.7335184,12.1336746 16.2516301,12.6155629 L11.8163156,17.0505697 C11.0463456,17.8170812 10.8071456,18.0209204 10.4147188,18.2105758 C10.3309879,18.251042 10.24619,18.285281 10.1593888,18.313488 C9.64562309,18.480403 9.09218926,18.480403 8.57835684,18.3134704 C8.0529423,18.1427237 7.79082763,17.9202103 6.77069402,16.9001153 L3.53860053,13.6679474 C2.5184715,12.6478699 2.29592721,12.3857274 2.12519492,11.8602291 C1.95826807,11.3464408 1.95826807,10.7930941 2.12519665,10.2793004 C2.15338547,10.1925397 2.18762193,10.1077369 2.22808647,10.0240013 C2.42958976,9.60701866 2.64711904,9.36303174 3.53858808,8.47156271 L8.38139513,3.62697674 L7.94534156,3.19100473 C7.69765174,2.94331491 7.67513448,2.55572078 7.87778979,2.28259381 L7.94534156,2.20434411 Z M19.1215522,12.4238378 C19.3906664,12.1687983 19.8122587,12.1687983 20.0813729,12.4238378 C20.1469272,12.4859636 20.2562282,12.5938601 20.395009,12.7381574 C20.6252363,12.9775363 20.8555155,13.2339268 21.0719534,13.4988143 C21.3005879,13.7786286 21.500982,14.0525268 21.6657543,14.317741 C21.9796625,14.8230013 22.1596021,15.2814173 22.1596021,15.7209302 C22.1596021,17.1337801 21.0143124,18.2790698 19.6014626,18.2790698 C18.1886127,18.2790698 17.043323,17.1337801 17.043323,15.7209302 C17.043323,15.2814173 17.2232626,14.8230013 17.5371709,14.317741 C17.7019431,14.0525268 17.9023373,13.7786286 18.1309718,13.4988143 C18.3474096,13.2339268 18.5776888,12.9775363 18.8079162,12.7381574 C18.9466969,12.5938601 19.0559979,12.4859636 19.1215522,12.4238378 Z M15.1255812,11.7674419 L3.65581374,11.7674419 L3.68045942,11.7972233 C3.81773936,11.9614345 4.03470685,12.1884945 4.38678395,12.5424664 L4.52525438,12.68128 L7.75735098,15.913451 L8.02309484,16.1777171 C8.62921159,16.7761347 8.81727418,16.9239321 9.00955137,16.9864174 C9.24310798,17.0622947 9.4946974,17.0622947 9.72819794,16.9864338 C9.75406755,16.9780271 9.78015402,16.9674942 9.80755212,16.954253 C9.99190111,16.8651592 10.1787871,16.7079453 10.7238479,16.1688141 L10.9804113,15.9134604 L15.1255812,11.7674419 Z M19.6018602,13.9311628 L19.4065412,14.1502779 L19.2114882,14.3816974 C19.0182745,14.618162 18.8523159,14.8449938 18.7224016,15.0541012 C18.5337477,15.3577548 18.4386719,15.5999709 18.4386719,15.7209302 C18.4386719,16.3631502 18.9592426,16.8837209 19.6014626,16.8837209 C20.2436825,16.8837209 20.7642533,16.3631502 20.7642533,15.7209302 C20.7642533,15.5999709 20.6691775,15.3577548 20.4805235,15.0541012 C20.3506093,14.8449938 20.1846506,14.618162 19.9914369,14.3816974 C19.9279239,14.303967 19.8627189,14.2266913 19.7963839,14.1502779 L19.6018602,13.9311628 Z M9.36837188,4.61395349 L4.39137842,9.59238082 C4.00867756,9.97685065 3.79307874,10.2027964 3.66121491,10.3647016 L3.6548835,10.372093 L15.1265114,10.372093 L9.36837188,4.61395349 Z" id="path-1"></path>
    </defs>
    <g id="UI-Icons/theme/format_color_fill" stroke="none" stroke-width="1" fill="none" fill-rule="evenodd">
        <mask id="mask-2" fill="white">
            <use xlink:href="#path-1"></use>
        </mask>
        <use id="Mask" fill="#95A1AC" xlink:href="#path-1"></use>
    </g>
</svg>