<svg width="24" height="24" viewBox="0 0 24 24" fill="none" xmlns="http://www.w3.org/2000/svg">
<path fill-rule="evenodd" clip-rule="evenodd" d="M12 5.25C12.4142 5.25 12.75 5.58579 12.75 6V22C12.75 22.4142 12.4142 22.75 12 22.75C11.5858 22.75 11.25 22.4142 11.25 22V6C11.25 5.58579 11.5858 5.25 12 5.25Z" fill="#95A1AC"/>
<path fill-rule="evenodd" clip-rule="evenodd" d="M8.46429 2.75C8.14664 2.75 7.83922 2.87835 7.61041 3.11132C7.38116 3.34474 7.25 3.66416 7.25 4C7.25 4.33584 7.38116 4.65526 7.61041 4.88868C7.83922 5.12165 8.14664 5.25 8.46429 5.25H11.0008C10.9003 4.97378 10.7693 4.66343 10.6035 4.35645C10.1041 3.43186 9.4153 2.75 8.46429 2.75ZM12 6C12.7359 5.85544 12.7359 5.85519 12.7358 5.85492L12.7354 5.8528L12.7346 5.84868L12.732 5.83613L12.7231 5.79439C12.7154 5.75941 12.7042 5.71038 12.6892 5.64929C12.6593 5.52725 12.6138 5.35619 12.5504 5.15226C12.4244 4.74713 12.2232 4.19887 11.9233 3.64355C11.3424 2.56814 10.2633 1.25 8.46429 1.25C7.74001 1.25 7.04818 1.54308 6.54024 2.06026C6.03275 2.57698 5.75 3.27497 5.75 4C5.75 4.72503 6.03275 5.42302 6.54024 5.93974C7.04818 6.45692 7.74001 6.75 8.46429 6.75H12C12.2242 6.75 12.4367 6.64966 12.5792 6.47649C12.7217 6.30332 12.7791 6.07496 12.7358 5.85492L12 6Z" fill="#95A1AC"/>
<path fill-rule="evenodd" clip-rule="evenodd" d="M12.0767 3.64355C12.6576 2.56814 13.7367 1.25 15.5357 1.25C16.26 1.25 16.9518 1.54308 17.4598 2.06026C17.9673 2.57698 18.25 3.27497 18.25 4C18.25 4.72503 17.9673 5.42302 17.4598 5.93974C16.9518 6.45692 16.26 6.75 15.5357 6.75H12C11.7758 6.75 11.5633 6.64966 11.4208 6.47649C11.2784 6.30332 11.2208 6.07548 11.2641 5.85544L12 6C11.2641 5.85544 11.2641 5.85519 11.2642 5.85492L11.2643 5.8543L11.2646 5.8528L11.2654 5.84868L11.268 5.83613L11.2769 5.79439C11.2846 5.75941 11.2958 5.71038 11.3108 5.64929C11.3407 5.52725 11.3862 5.35619 11.4496 5.15226C11.5756 4.74713 11.7768 4.19887 12.0767 3.64355ZM12.9992 5.25H15.5357C15.8534 5.25 16.1608 5.12165 16.3896 4.88868C16.6189 4.65526 16.75 4.33584 16.75 4C16.75 3.66416 16.6189 3.34474 16.3896 3.11132C16.1608 2.87835 15.8534 2.75 15.5357 2.75C14.5847 2.75 13.8959 3.43186 13.3965 4.35645C13.2307 4.66343 13.0997 4.97378 12.9992 5.25Z" fill="#95A1AC"/>
<path fill-rule="evenodd" clip-rule="evenodd" d="M3.57378 5.25C3.5825 5.25 3.59124 5.25 3.6 5.25L20.4262 5.25C20.6837 5.24998 20.9202 5.24997 21.1179 5.26612C21.331 5.28353 21.5642 5.32339 21.7945 5.44074C22.1238 5.60852 22.3915 5.87624 22.5593 6.20552C22.6766 6.43583 22.7165 6.669 22.7339 6.88213C22.75 7.07981 22.75 7.31629 22.75 7.57377V9.42624C22.75 9.68372 22.75 9.92019 22.7339 10.1179C22.7165 10.331 22.6766 10.5642 22.5593 10.7945C22.3915 11.1238 22.1238 11.3915 21.7945 11.5593C21.5642 11.6766 21.331 11.7165 21.1179 11.7339C20.9202 11.75 20.6837 11.75 20.4262 11.75L3.57379 11.75C3.3163 11.75 3.07982 11.75 2.88213 11.7339C2.669 11.7165 2.43583 11.6766 2.20552 11.5593C1.87624 11.3915 1.60852 11.1238 1.44074 10.7945C1.32339 10.5642 1.28353 10.331 1.26612 10.1179C1.24997 9.92019 1.24998 9.6837 1.25 9.42622C1.25 9.4175 1.25 9.40876 1.25 9.4L1.25 7.6C1.25 7.59124 1.25 7.5825 1.25 7.57378C1.24998 7.3163 1.24997 7.07982 1.26612 6.88213C1.28353 6.669 1.32339 6.43583 1.44074 6.20552C1.60852 5.87624 1.87624 5.60852 2.20552 5.44074C2.43583 5.32339 2.669 5.28353 2.88213 5.26612C3.07982 5.24997 3.3163 5.24998 3.57378 5.25ZM2.88088 6.77973C2.88085 6.77972 2.88132 6.77952 2.88239 6.77917ZM2.88346 6.77883C2.89234 6.77607 2.92547 6.76757 3.00428 6.76114C3.13341 6.75059 3.3076 6.75 3.6 6.75L20.4 6.75C20.6924 6.75 20.8666 6.75059 20.9957 6.76114C21.0745 6.76757 21.1077 6.77607 21.1165 6.77883C21.1612 6.80235 21.1977 6.83882 21.2212 6.88346C21.2239 6.89234 21.2324 6.92546 21.2389 7.00428C21.2494 7.13341 21.25 7.3076 21.25 7.6V9.4C21.25 9.6924 21.2494 9.8666 21.2389 9.99573C21.2324 10.0745 21.2239 10.1077 21.2212 10.1165C21.1977 10.1612 21.1612 10.1977 21.1165 10.2212C21.1077 10.2239 21.0745 10.2324 20.9957 10.2389C20.8666 10.2494 20.6924 10.25 20.4 10.25L3.6 10.25C3.3076 10.25 3.13341 10.2494 3.00428 10.2389C2.92546 10.2324 2.89234 10.2239 2.88346 10.2212C2.83882 10.1977 2.80235 10.1612 2.77883 10.1165C2.77607 10.1077 2.76757 10.0745 2.76114 9.99573C2.75059 9.8666 2.75 9.6924 2.75 9.4V7.6C2.75 7.3076 2.75059 7.13341 2.76114 7.00428C2.76757 6.92547 2.77607 6.89234 2.77883 6.88346C2.80235 6.83883 2.83883 6.80235 2.88346 6.77883ZM2.77973 6.88088C2.77974 6.88091 2.77956 6.88144 2.77917 6.88239ZM2.77973 10.1191C2.77972 10.1192 2.77953 10.1187 2.77918 10.1176ZM2.88088 10.2203C2.88091 10.2203 2.88144 10.2204 2.88239 10.2208ZM21.1191 10.2203C21.1192 10.2203 21.1187 10.2205 21.1176 10.2208ZM21.2203 10.1191C21.2203 10.1191 21.2204 10.1186 21.2209 10.1175ZM21.2203 6.88088C21.2203 6.88085 21.2205 6.88132 21.2208 6.88236ZM21.1176 6.77918C21.1187 6.77953 21.1192 6.77972 21.1191 6.77973Z" fill="#95A1AC"/>
<path fill-rule="evenodd" clip-rule="evenodd" d="M4 10.25C4.41421 10.25 4.75 10.5858 4.75 11L4.75 18.8C4.75 19.3724 4.75058 19.7566 4.77476 20.0525C4.79822 20.3396 4.8401 20.4769 4.88624 20.5675C5.00608 20.8027 5.19731 20.9939 5.43251 21.1138C5.52307 21.1599 5.66035 21.2018 5.94748 21.2252C6.24336 21.2494 6.62757 21.25 7.2 21.25L16.8 21.25C17.3724 21.25 17.7566 21.2494 18.0525 21.2252C18.3396 21.2018 18.4769 21.1599 18.5675 21.1138C18.8027 20.9939 18.9939 20.8027 19.1138 20.5675C19.1599 20.4769 19.2018 20.3396 19.2252 20.0525C19.2494 19.7566 19.25 19.3724 19.25 18.8V11C19.25 10.5858 19.5858 10.25 20 10.25C20.4142 10.25 20.75 10.5858 20.75 11V18.8305C20.75 19.3646 20.75 19.8104 20.7203 20.1747C20.6892 20.5546 20.6221 20.9112 20.4503 21.2485C20.1866 21.7659 19.7659 22.1866 19.2485 22.4503C18.9112 22.6221 18.5546 22.6892 18.1747 22.7203C17.8104 22.75 17.3646 22.75 16.8304 22.75L7.16955 22.75C6.6354 22.75 6.18956 22.75 5.82533 22.7203C5.44545 22.6892 5.08879 22.6221 4.75153 22.4503C4.23408 22.1866 3.81338 21.7659 3.54973 21.2485C3.37789 20.9112 3.31078 20.5546 3.27974 20.1747C3.24998 19.8104 3.24999 19.3646 3.25 18.8304L3.25 11C3.25 10.5858 3.58579 10.25 4 10.25Z" fill="#95A1AC"/>
</svg>
