<?xml version="1.0" encoding="UTF-8"?>
<svg width="24px" height="24px" viewBox="0 0 24 24" version="1.1" xmlns="http://www.w3.org/2000/svg" xmlns:xlink="http://www.w3.org/1999/xlink">
    <title>UI Icons/NavIcons/SVG /grid_allPages</title>
    <g id="UI-Icons/NavIcons/grid_allPages" stroke="none" stroke-width="1" fill="none" fill-rule="evenodd">
        <path d="M8,2 C9.65685425,2 11,3.34314575 11,5 L11,8 C11,9.65685425 9.65685425,11 8,11 L5,11 C3.34314575,11 2,9.65685425 2,8 L2,5 C2,3.34314575 3.34314575,2 5,2 L8,2 Z M8,3.5 L5,3.5 C4.22030388,3.5 3.57955132,4.09488808 3.50686658,4.85553999 L3.5,5 L3.5,8 C3.5,8.77969612 4.09488808,9.42044868 4.85553999,9.49313342 L5,9.5 L8,9.5 C8.77969612,9.5 9.42044868,8.90511192 9.49313342,8.14446001 L9.5,8 L9.5,5 C9.5,4.22030388 8.90511192,3.57955132 8.14446001,3.50686658 L8,3.5 Z M8,13 C9.65685425,13 11,14.3431458 11,16 L11,19 C11,20.6568542 9.65685425,22 8,22 L5,22 C3.34314575,22 2,20.6568542 2,19 L2,16 C2,14.3431458 3.34314575,13 5,13 L8,13 Z M8,14.5 L5,14.5 C4.22030388,14.5 3.57955132,15.0948881 3.50686658,15.85554 L3.5,16 L3.5,19 C3.5,19.7796961 4.09488808,20.4204487 4.85553999,20.4931334 L5,20.5 L8,20.5 C8.77969612,20.5 9.42044868,19.9051119 9.49313342,19.14446 L9.5,19 L9.5,16 C9.5,15.2203039 8.90511192,14.5795513 8.14446001,14.5068666 L8,14.5 Z M19,2 C20.6568542,2 22,3.34314575 22,5 L22,8 C22,9.65685425 20.6568542,11 19,11 L16,11 C14.3431458,11 13,9.65685425 13,8 L13,5 C13,3.34314575 14.3431458,2 16,2 L19,2 Z M19,3.5 L16,3.5 C15.2203039,3.5 14.5795513,4.09488808 14.5068666,4.85553999 L14.5,5 L14.5,8 C14.5,8.77969612 15.0948881,9.42044868 15.85554,9.49313342 L16,9.5 L19,9.5 C19.7796961,9.5 20.4204487,8.90511192 20.4931334,8.14446001 L20.5,8 L20.5,5 C20.5,4.22030388 19.9051119,3.57955132 19.14446,3.50686658 L19,3.5 Z M19,13 C20.6568542,13 22,14.3431458 22,16 L22,19 C22,20.6568542 20.6568542,22 19,22 L16,22 C14.3431458,22 13,20.6568542 13,19 L13,16 C13,14.3431458 14.3431458,13 16,13 L19,13 Z M19,14.5 L16,14.5 C15.2203039,14.5 14.5795513,15.0948881 14.5068666,15.85554 L14.5,16 L14.5,19 C14.5,19.7796961 15.0948881,20.4204487 15.85554,20.4931334 L16,20.5 L19,20.5 C19.7796961,20.5 20.4204487,19.9051119 20.4931334,19.14446 L20.5,19 L20.5,16 C20.5,15.2203039 19.9051119,14.5795513 19.14446,14.5068666 L19,14.5 Z" id="Combined-Shape" fill="#95A1AC"></path>
    </g>
</svg>