<?xml version="1.0" encoding="UTF-8"?>
<svg width="24px" height="24px" viewBox="0 0 24 24" version="1.1" xmlns="http://www.w3.org/2000/svg" xmlns:xlink="http://www.w3.org/1999/xlink">
    <title>UI Icons/newNav/SVG /help</title>
    <g id="UI-Icons/newNav/help" stroke="none" stroke-width="1" fill="none" fill-rule="evenodd">
        <path d="M12,2 C17.5228475,2 22,6.4771525 22,12 C22,17.5228475 17.5228475,22 12,22 C6.4771525,22 2,17.5228475 2,12 C2,6.4771525 6.4771525,2 12,2 Z M12,3.39534884 C7.24778239,3.39534884 3.39534884,7.24778239 3.39534884,12 C3.39534884,16.7522176 7.24778239,20.6046512 12,20.6046512 C16.7522176,20.6046512 20.6046512,16.7522176 20.6046512,12 C20.6046512,7.24778239 16.7522176,3.39534884 12,3.39534884 Z M11.9437514,15.1056911 C12.2361822,15.1056911 12.4807149,15.2040083 12.6773494,15.4006428 C12.873984,15.5972774 12.9723012,15.84181 12.9723012,16.1342409 C12.9723012,16.4165879 12.873984,16.6585996 12.6773494,16.860276 C12.4807149,17.0619525 12.2361822,17.1627907 11.9437514,17.1627907 C11.6614044,17.1627907 11.4193927,17.0619525 11.2177162,16.860276 C11.0160398,16.6585996 10.9152016,16.4165879 10.9152016,16.1342409 C10.9152016,15.84181 11.0160398,15.5972774 11.2177162,15.4006428 C11.4193927,15.2040083 11.6614044,15.1056911 11.9437514,15.1056911 Z M11.9588771,6 C12.8664211,6 13.6101029,6.26974223 14.1899227,6.8092267 C14.7697424,7.34871116 15.0596523,8.036932 15.0596523,8.8738892 C15.0596523,9.29740972 14.9537722,9.70328354 14.7420119,10.0915107 C14.5302517,10.4797378 14.1319407,10.9410727 13.5470791,11.4755152 C12.9622174,12.0099578 12.6647447,12.5393584 12.6546608,13.0637171 C12.6546608,13.4229267 12.3634639,13.7141237 12.0042543,13.7141237 L11.9437514,13.7141237 C11.5838457,13.7141237 11.2864057,13.4466758 11.2393317,13.0996804 L11.232842,13.0032142 C11.232842,12.5897775 11.3160335,12.221718 11.4824165,11.8990357 C11.6487996,11.5763534 11.96644,11.1982101 12.4353377,10.7646058 C12.9042354,10.3310014 13.2218758,9.98815151 13.3882589,9.73605597 C13.5546419,9.48396042 13.6378335,9.1965715 13.6378335,8.8738892 C13.6378335,8.39994958 13.4865761,8.02432722 13.1840615,7.74702212 C12.8815468,7.46971702 12.473152,7.33106447 11.9588771,7.33106447 C11.2534587,7.33106447 10.7305928,7.64401178 10.3902795,8.2699064 L10.3090044,8.43289979 C10.2220166,8.6232341 9.99968405,8.71019507 9.80666127,8.62934808 L9.2482758,8.39560532 C9.04231465,8.3093868 8.94524189,8.07252927 9.03145851,7.86656733 L9.03665138,7.85469961 L9.04222181,7.84300435 C9.28384735,7.35596114 9.62078501,6.9483447 10.0530348,6.62015504 C10.5975612,6.20671835 11.232842,6 11.9588771,6 Z" id="Combined-Shape" fill="#FFFFFF"></path>
    </g>
</svg>