<?xml version="1.0" encoding="UTF-8"?>
<svg width="24px" height="24px" viewBox="0 0 24 24" version="1.1" xmlns="http://www.w3.org/2000/svg" xmlns:xlink="http://www.w3.org/1999/xlink">
    <title>UI Icons/newNav/Hide_v2</title>
    <g id="UI-Icons/newNav/Hide" stroke="none" stroke-width="1" fill="none" fill-rule="evenodd">
        <g id="Hide" transform="translate(2, 4)" fill="#FFFFFF" fill-rule="nonzero">
            <path d="M18.4177301,0.203468717 C18.6839966,0.450097466 18.7082027,0.836031177 18.4903482,1.1079881 L18.4177301,1.18590259 L2.64373009,15.7965313 C2.35083687,16.0678229 1.87596313,16.0678229 1.58306991,15.7965313 C1.31680335,15.5499025 1.2925973,15.1639688 1.51045176,14.8920119 L1.58306991,14.8140974 L3.55445222,12.9881331 C2.13598299,11.7887562 0.946429758,10.1856155 0.0608141631,8.27467191 C-0.0204885613,8.09924036 -0.0202619566,7.90054882 0.06144074,7.72527676 C1.08696521,5.52527858 2.51054081,3.73083796 4.21855822,2.4866023 C5.94745393,1.21921726 7.94315121,0.541576936 10,0.541576936 C11.8554617,0.541576936 13.6564877,1.0945024 15.2692924,2.13729713 L17.3570699,0.203468717 C17.6499631,-0.0678229058 18.1248369,-0.0678229058 18.4177301,0.203468717 Z M18.0472124,4.66842815 C18.7730256,5.56154788 19.4072507,6.58683886 19.938387,7.72444443 C20.0204669,7.90024583 20.0205405,8.09963646 19.9385905,8.27548982 C17.8612901,12.7330892 14.1345132,15.4583304 10,15.4583304 C9.05877619,15.4583304 8.12750776,15.3173285 7.23056828,15.0400606 C6.83765885,14.9186019 6.62544463,14.5251154 6.75657455,14.161184 C6.88770447,13.7972526 7.31252229,13.6006897 7.70543172,13.7221485 C8.44972968,13.9522308 9.2206795,14.0689591 10,14.0689591 C13.3046144,14.0689591 16.381021,11.9401339 18.272707,8.31038109 L18.4284,8.00129675 L18.3754574,7.89135419 C17.9948129,7.13260859 17.5644665,6.43666502 17.0897933,5.81095855 L16.8487876,5.50399283 C16.5996806,5.19746431 16.6660159,4.76192632 16.9969517,4.53119151 C17.3278876,4.30045669 17.7981053,4.36189963 18.0472124,4.66842815 Z M10,1.93094825 C8.29025108,1.93094825 6.61991664,2.49811141 5.14764326,3.57737263 C3.73781433,4.604391 2.52944797,6.08067591 1.61706204,7.90627274 L1.5704,8.00129675 L1.6157526,8.09437458 C2.40881758,9.68945287 3.43074956,11.0157059 4.61681192,12.0048908 L6.75482853,10.0251505 C6.32281321,9.4365166 6.086,8.73917534 6.086,8.0011115 C6.086,5.99380274 7.83371349,4.37392613 10,4.37392613 C10.7924403,4.37392613 11.5532658,4.59477967 12.1873871,4.99298647 L14.1890384,3.13762674 C12.8814355,2.3440207 11.4564366,1.93094825 10,1.93094825 Z M13.1365784,7.82666866 L13.2379539,7.83711248 C13.645627,7.90502305 13.9166754,8.26618576 13.8433574,8.64379196 C13.555968,10.1239209 12.299155,11.2903344 10.7021626,11.5588645 C10.2946101,11.6273933 9.90424643,11.3769272 9.83026096,10.9994327 C9.75627548,10.6219382 10.026685,10.2603649 10.4342374,10.191836 C11.4152471,10.0268819 12.1904323,9.30745379 12.3670426,8.39786602 C12.4342507,8.051727 12.7674927,7.8119237 13.1365784,7.82666866 Z M10,5.76329744 C8.66236076,5.76329744 7.586,6.76092756 7.586,8.0011115 C7.586,8.36238483 7.67669918,8.70538761 7.84677952,9.01230347 L11.093661,6.00516016 C10.7619462,5.84860728 10.387642,5.76329744 10,5.76329744 Z"></path>
        </g>
    </g>
</svg>