<?xml version="1.0" encoding="UTF-8"?>
<svg width="24px" height="24px" viewBox="0 0 24 24" version="1.1" xmlns="http://www.w3.org/2000/svg" xmlns:xlink="http://www.w3.org/1999/xlink">
    <title>UI Icons/SVG /invalidErrorExclaim</title>
    <g id="UI-Icons/invalidErrorExclaim" stroke="none" stroke-width="1" fill="none" fill-rule="evenodd">
        <path d="M12,2 C17.5203725,2.00597071 21.9940293,6.47962754 22,12 C22,17.5228475 17.5228475,22 12,22 C6.4771525,22 2,17.5228475 2,12 C2,6.4771525 6.4771525,2 12,2 Z M12,3.66666667 C7.39762708,3.66666667 3.66666667,7.39762708 3.66666667,12 C3.66666667,16.6023729 7.39762708,20.3333333 12,20.3333333 C16.6002787,20.3282814 20.3282814,16.6002787 20.3333333,12 C20.3333333,7.39762708 16.6023729,3.66666667 12,3.66666667 Z M12,16.1666667 C12.4602373,16.1666667 12.8333333,16.5397627 12.8333333,17 C12.8333333,17.4602373 12.4602373,17.8333333 12,17.8333333 C11.5397627,17.8333333 11.1666667,17.4602373 11.1666667,17 C11.1666667,16.5397627 11.5397627,16.1666667 12,16.1666667 Z M12,6.16666667 C12.4602373,6.16666667 12.8333333,6.53976271 12.8333333,7 L12.8333333,13.6666667 C12.8333333,14.126904 12.4602373,14.5 12,14.5 C11.5397627,14.5 11.1666667,14.126904 11.1666667,13.6666667 L11.1666667,7 C11.1666667,6.53976271 11.5397627,6.16666667 12,6.16666667 Z" id="Combined-Shape" fill="#95A1AC"></path>
    </g>
</svg>