<?xml version="1.0" encoding="UTF-8"?>
<svg width="24px" height="24px" viewBox="0 0 24 24" version="1.1" xmlns="http://www.w3.org/2000/svg" xmlns:xlink="http://www.w3.org/1999/xlink">
    <title>UI Icons/UI InspectorPanel/keyhboardShortCut_v2</title>
    <g id="UI-Icons/UI-InspectorPanel/keyhboardShortCut" stroke="none" stroke-width="1" fill="none" fill-rule="evenodd">
        <path d="M18.2745098,6.48179272 C20.3320412,6.48179272 22,8.14975149 22,10.2072829 L22,18.2745098 C22,20.3320412 20.3320412,22 18.2745098,22 L10.2072829,22 C8.14975149,22 6.48179272,20.3320412 6.48179272,18.2745098 L6.48179272,10.2072829 C6.48179272,8.14975149 8.14975149,6.48179272 10.2072829,6.48179272 Z M18.2745098,7.65826331 L10.2072829,7.65826331 C8.79949826,7.65826331 7.65826331,8.79949826 7.65826331,10.2072829 L7.65826331,18.2745098 C7.65826331,19.6822945 8.79949826,20.8235294 10.2072829,20.8235294 L18.2745098,20.8235294 C19.6822945,20.8235294 20.8235294,19.6822945 20.8235294,18.2745098 L20.8235294,10.2072829 C20.8235294,8.79949826 19.6822945,7.65826331 18.2745098,7.65826331 Z M17.3781513,9.17086835 C18.3836198,9.17086835 19.218725,9.94145228 19.3054576,10.9626281 L19.3109244,11.1036415 C19.3109244,12.1710826 18.4455924,13.0364146 17.3781513,13.0364146 L16.621,13.036 L16.621,15.445 L17.3781513,15.4453782 C18.3307004,15.4453782 19.1303473,16.1369826 19.2856281,17.0780579 L19.3054576,17.2371379 L19.3109244,17.3781513 C19.3109244,18.3836198 18.5403404,19.218725 17.5191646,19.3054576 L17.3781513,19.3109244 C16.3107101,19.3109244 15.4453782,18.4455924 15.4453782,17.3781513 L15.445,16.621 L13.036,16.621 L13.0364146,17.3781513 C13.0364146,18.3307004 12.3448102,19.1303473 11.4037348,19.2856281 L11.2446548,19.3054576 L11.1036415,19.3109244 C10.0981729,19.3109244 9.26306768,18.5403404 9.17633516,17.5191646 L9.17086835,17.3781513 C9.17086835,16.3107101 10.0362003,15.4453782 11.1036415,15.4453782 L11.859,15.445 L11.859,13.036 L11.1036415,13.0364146 C10.1510923,13.0364146 9.35144542,12.3448102 9.19616466,11.4037348 L9.17633516,11.2446548 L9.17086835,11.1036415 C9.17086835,10.0981729 9.94145228,9.26306768 10.9626281,9.17633516 L11.1036415,9.17086835 C12.1710826,9.17086835 13.0364146,10.0362003 13.0364146,11.1036415 L13.036,11.859 L15.445,11.859 L15.4453782,11.1036415 C15.4453782,10.1510923 16.1369826,9.35144542 17.0780579,9.19616466 L17.2371379,9.17633516 Z M11.8596078,16.6211765 L11.1036415,16.6218487 C10.6859471,16.6218487 10.3473389,16.9604569 10.3468074,17.3531498 L10.3501377,17.444074 C10.3833521,17.832719 10.7103512,18.1344538 11.07864,18.1349853 L11.1695642,18.131655 C11.5582092,18.0984406 11.859944,17.7714415 11.859944,17.3781513 L11.8596078,16.6211765 Z M17.3781513,16.6218487 L16.6221849,16.6221849 L16.6218487,17.3781513 C16.6218487,17.7660103 16.9138119,18.0856777 17.2899504,18.1293656 L17.3696359,18.1343417 L17.444074,18.131655 C17.8028232,18.1009956 18.0875188,17.8200107 18.1296134,17.4872946 L18.1349853,17.4031527 L18.131655,17.3122285 C18.0984406,16.9235835 17.7714415,16.6218487 17.3781513,16.6218487 Z M15.1372549,2 C16.4052556,2 17.4417477,2.99120632 17.5141655,4.24105334 L17.5182073,4.38095238 L17.5182073,4.82913165 C17.5182073,5.15400503 17.2548454,5.41736695 16.929972,5.41736695 C16.6321714,5.41736695 16.3860575,5.19606978 16.3471066,4.9089517 L16.3417367,4.82913165 L16.3417367,4.38095238 C16.3417367,3.75269195 15.8607257,3.23677765 15.2468873,3.18139291 L15.1372549,3.17647059 L4.38095238,3.17647059 C3.75269195,3.17647059 3.23677765,3.65748153 3.18139291,4.27131999 L3.17647059,4.38095238 L3.17647059,15.1372549 C3.17647059,15.7655153 3.65748153,16.2814296 4.27131999,16.3368144 L4.38095238,16.3417367 L4.82913165,16.3417367 C5.15400503,16.3417367 5.41736695,16.6050986 5.41736695,16.929972 C5.41736695,17.2277726 5.19606978,17.4738865 4.9089517,17.5128374 L4.82913165,17.5182073 L4.38095238,17.5182073 C3.11295168,17.5182073 2.07645962,16.527001 2.00404182,15.2771539 L2,15.1372549 L2,4.38095238 C2,3.11295168 2.99120632,2.07645962 4.24105334,2.00404182 L4.38095238,2 L15.1372549,2 Z M15.4447059,13.0360784 L13.0360784,13.0360784 L13.0360784,15.4447059 L15.4447059,15.4447059 L15.4447059,13.0360784 Z M17.4031527,10.3468074 L17.3122285,10.3501377 C16.9235835,10.3833521 16.6218487,10.7103512 16.6218487,11.1036415 L16.6221849,11.8606162 L17.3781513,11.859944 C17.7958456,11.859944 18.1344538,11.5213358 18.1349853,11.1286429 L18.131655,11.0377187 C18.0984406,10.6490737 17.7714415,10.3473389 17.4031527,10.3468074 Z M11.1121569,10.347451 L11.0377187,10.3501377 C10.6789695,10.3807971 10.3942739,10.6617821 10.3521793,10.9944981 L10.3468074,11.07864 L10.3501377,11.1695642 C10.3833521,11.5582092 10.7103512,11.859944 11.1036415,11.859944 L11.8596078,11.8596078 L11.859944,11.1036415 C11.859944,10.7157824 11.5679808,10.396115 11.1918423,10.3524271 L11.1121569,10.347451 Z" id="Combined-Shape" fill="#95A1AC"></path>
    </g>
</svg>