<?xml version="1.0" encoding="UTF-8"?>
<svg width="24px" height="24px" viewBox="0 0 24 24" version="1.1" xmlns="http://www.w3.org/2000/svg" xmlns:xlink="http://www.w3.org/1999/xlink">
    <title>UI Icons/NavIcons/king</title>
    <g id="UI-Icons/NavIcons/king" stroke="none" stroke-width="1" fill="none" fill-rule="evenodd">
        <path d="M22.6149274,5.76699062 C22.3390404,5.58963468 21.9777598,5.60277216 21.7084415,5.78669683 L15.9739329,9.78705849 L12.7027012,4.3941243 C12.5516203,4.15108098 12.2888707,4 11.9998462,4 C11.7108217,4 11.4480722,4.15108098 11.2969912,4.3941243 L8.02575953,9.78705849 L2.29125095,5.78669683 C2.02193268,5.59620342 1.66065207,5.58963468 1.38476506,5.76699062 C1.10887804,5.94434655 0.957797063,6.26621473 1.01034697,6.59465165 L2.63939408,16.7105087 L2.63939408,19.4365351 C2.63939408,19.8897781 3.00724343,20.2576274 3.46048638,20.2576274 L20.5392061,20.2576274 C20.992449,20.2576274 21.3602984,19.8897781 21.3602984,19.4365351 L21.3602984,16.7105087 L22.9893455,6.59465165 C23.0418954,6.26621473 22.8973832,5.93777781 22.6149274,5.76699062 Z M7.80242243,11.632874 C7.9863471,11.7642487 8.22282168,11.8102299 8.43959005,11.7642487 C8.66292715,11.7182676 8.85342057,11.5803241 8.97165786,11.3898306 L11.9998462,6.40415824 L15.0280346,11.3898306 C15.1462719,11.5868928 15.3367653,11.7182676 15.5601024,11.7642487 C15.7834395,11.8102299 16.0133454,11.7642487 16.19727,11.632874 L21.0647052,8.23683624 L19.8429198,15.8171603 L4.15677264,15.8171603 L2.93498731,8.24340498 L7.80242243,11.632874 Z M19.7181138,18.6154428 L4.28157867,18.6154428 L4.28157867,17.4659136 L19.7181138,17.4659136 L19.7181138,18.6154428 Z" id="Shape" fill="#95A1AC"></path>
    </g>
</svg>