<?xml version="1.0" encoding="UTF-8"?>
<svg width="24px" height="24px" viewBox="0 0 24 24" version="1.1" xmlns="http://www.w3.org/2000/svg" xmlns:xlink="http://www.w3.org/1999/xlink">
    <title>UI Icons/Bookmark</title>
    <g id="UI-Icons/Bookmark" stroke="none" stroke-width="1" fill="none" fill-rule="evenodd">
        <path d="M14.9856614,2 C18.0481528,2 20,3.43502603 20,6.25765285 L20,20.3309321 C20,20.7736205 19.8284786,21.1981776 19.5231687,21.5112057 C19.2178587,21.8242337 18.8037695,22 18.3607995,22 C18.096526,21.9957025 17.8367603,21.9291194 17.5863163,21.7971157 L11.9739971,18.66352 L6.38441723,21.8036796 C5.71120355,22.1623977 4.89544527,21.9969141 4.38430801,21.3975296 L4.28627466,21.2718941 L4.19262562,21.1173783 C4.07041553,20.8781767 4.00448265,20.6129782 4,20.3309321 L4,6.43434186 C4,3.49929061 5.90914522,2 9.01433861,2 Z M14.9856614,3.44774552 L9.01433861,3.44774552 C6.6192515,3.44774552 5.41204981,4.39578559 5.41204981,6.43434186 L5.41195196,20.3188806 C5.41266947,20.3630616 5.42345848,20.4064577 5.41172487,20.389716 L5.44918886,20.451893 C5.5137291,20.5420766 5.63485233,20.5714937 5.71961631,20.5265233 L11.3068302,17.3882634 C11.723268,17.1576022 12.2250322,17.1576022 12.6435053,17.3893952 L18.2462574,20.5173373 C18.288672,20.5396519 18.3355257,20.5516614 18.371996,20.5523455 C18.4292706,20.5523455 18.4841994,20.5290181 18.5246987,20.487495 C18.5651979,20.4459719 18.5879502,20.3896545 18.5879502,20.3309321 L18.5879502,6.25765285 C18.5879502,4.35788246 17.3500296,3.44774552 14.9856614,3.44774552 Z M15.4078761,8.31663191 C15.7978029,8.31663191 16.113901,8.64072078 16.113901,9.04050467 C16.113901,9.40697323 15.8482908,9.70983696 15.5036795,9.75776933 L15.4078761,9.76437743 L8.5404241,9.76437743 C8.15049731,9.76437743 7.83439919,9.44028856 7.83439919,9.04050467 C7.83439919,8.67403611 8.10000942,8.37117238 8.4446207,8.32324002 L8.5404241,8.31663191 L15.4078761,8.31663191 Z" id="Bookmark" fill="#95A1AC"></path>
    </g>
</svg>