<?xml version="1.0" encoding="UTF-8"?>
<svg width="24px" height="24px" viewBox="0 0 24 24" version="1.1" xmlns="http://www.w3.org/2000/svg" xmlns:xlink="http://www.w3.org/1999/xlink">
    <title>UI Icons/NavIcons/SVG /LocalState_alt</title>
    <g id="UI-Icons/NavIcons/LocalState_alt" stroke="none" stroke-width="1" fill="none" fill-rule="evenodd">
        <path d="M22,7.18953824 L22,20.3333333 L22,20.3333333 C22,20.7777778 21.8333333,21.1666667 21.5,21.5 C21.1666667,21.8333333 20.7777778,22 20.3333333,22 L3.66666667,22 C3.22222222,22 2.83333333,21.8333333 2.5,21.5 C2.16666667,21.1666667 2,20.7777778 2,20.3333333 L2,3.66666667 C2,3.22222222 2.16666667,2.83333333 2.5,2.5 C2.83333333,2.16666667 3.22222222,2 3.66666667,2 L16.8104618,2 C17.3408947,2 17.8496026,2.21071368 18.2246753,2.58578644 L21.4142136,5.77532467 C21.7892863,6.15039743 22,6.65910526 22,7.18953824 Z M20.3333333,7.11111111 L16.8888889,3.66666667 L3.66666667,3.66666667 L3.66666667,20.3333333 L20.3333333,20.3333333 L20.3333333,7.11111111 Z M12,12.75 C12.7962963,12.75 13.4768519,13.0324074 14.0416667,13.5972222 C14.6064815,14.162037 14.8888889,14.8425926 14.8888889,15.6388889 C14.8888889,16.4351852 14.6064815,17.1157407 14.0416667,17.6805556 C13.4768519,18.2453704 12.7962963,18.5277778 12,18.5277778 C11.2037037,18.5277778 10.5231481,18.2453704 9.95833333,17.6805556 C9.39351852,17.1157407 9.11111111,16.4351852 9.11111111,15.6388889 C9.11111111,14.8425926 9.39351852,14.162037 9.95833333,13.5972222 C10.5231481,13.0324074 11.2037037,12.75 12,12.75 Z M12,14.25 C11.6018754,14.25 11.3027483,14.3741276 11.0189935,14.6578824 C10.7352387,14.9416372 10.6111111,15.2407643 10.6111111,15.6388889 C10.6111111,16.0370135 10.7352387,16.3361406 11.0189935,16.6198954 C11.3027483,16.9036502 11.6018754,17.0277778 12,17.0277778 C12.3981246,17.0277778 12.6972517,16.9036502 12.9810065,16.6198954 C13.2647613,16.3361406 13.3888889,16.0370135 13.3888889,15.6388889 C13.3888889,15.2407643 13.2647613,14.9416372 12.9810065,14.6578824 C12.6972517,14.3741276 12.3981246,14.25 12,14.25 Z M13,5.25 C13.9664983,5.25 14.75,6.03350169 14.75,7 L14.75,9 C14.75,9.96649831 13.9664983,10.75 13,10.75 L7,10.75 C6.03350169,10.75 5.25,9.96649831 5.25,9 L5.25,7 C5.25,6.03350169 6.03350169,5.25 7,5.25 Z M13,6.75 L7,6.75 C6.86192881,6.75 6.75,6.86192881 6.75,7 L6.75,9 C6.75,9.13807119 6.86192881,9.25 7,9.25 L13,9.25 C13.1380712,9.25 13.25,9.13807119 13.25,9 L13.25,7 C13.25,6.86192881 13.1380712,6.75 13,6.75 Z" id="Shape" fill="#95A1AC"></path>
    </g>
</svg>