<?xml version="1.0" encoding="UTF-8"?>
<svg width="24px" height="24px" viewBox="0 0 24 24" version="1.1" xmlns="http://www.w3.org/2000/svg" xmlns:xlink="http://www.w3.org/1999/xlink">
    <title>UI Icons/NavIcons/SVG /LocalState</title>
    <g id="UI-Icons/NavIcons/LocalState" stroke="none" stroke-width="1" fill="none" fill-rule="evenodd">
        <path d="M18,0 C20.209139,0 22,1.790861 22,4 L22,20 C22,22.209139 20.209139,24 18,24 L6,24 C3.790861,24 2,22.209139 2,20 L2,4 C2,1.790861 3.790861,0 6,0 L18,0 Z M6.856,1.5 L6,1.5 C4.6745166,1.5 3.58996133,2.53153594 3.50531768,3.83562431 L3.5,4 L3.5,20 C3.5,21.3254834 4.53153594,22.4100387 5.83562431,22.4946823 L6,22.5 L18,22.5 C19.3254834,22.5 20.4100387,21.4684641 20.4946823,20.1643757 L20.5,20 L20.5,4 C20.5,2.6745166 19.4684641,1.58996133 18.1643757,1.50531768 L18,1.5 L16.856,1.5 L16.8563114,1.654 C16.8563114,2.20628475 16.4085961,2.654 15.8563114,2.654 L7.85631139,2.654 C7.30402664,2.654 6.85631139,2.20628475 6.85631139,1.654 L6.856,1.5 Z M10.6798408,7.60988235 C10.8766167,7.61090038 11.0598505,7.71024399 11.1680761,7.87458824 L12.1739584,9.37458824 L17.150429,9.37458824 C17.4753024,9.37458824 17.7386643,9.63795015 17.7386643,9.96282353 L17.7386643,16.4334118 C17.7386643,16.7582851 17.4753024,17.0216471 17.150429,17.0216471 L6.56219374,17.0216471 C6.23732036,17.0216471 5.97395844,16.7582851 5.97395844,16.4334118 L5.97395844,8.19811765 C5.97395844,7.87324426 6.23732036,7.60988235 6.56219374,7.60988235 L10.6798408,7.60988235 Z M10.3621937,8.78635294 L7.15042903,8.78635294 L7.15042903,15.8451765 L16.5621937,15.8451765 L16.5621937,10.5510588 L11.8563114,10.5510588 C11.6595354,10.5500408 11.4763017,10.4506972 11.3680761,10.2863529 L10.3621937,8.78635294 Z" id="Combined-Shape" fill="#95A1AC"></path>
    </g>
</svg>