<svg width="32" height="32" viewBox="0 0 32 32" fill="none" xmlns="http://www.w3.org/2000/svg">
<path fill-rule="evenodd" clip-rule="evenodd" d="M31.6667 10.2C31.6667 10.2 31.3333 8.00001 30.4 7.00001C29.2 5.73334 27.8 5.73334 27.2 5.66668C22.7333 5.33334 16 5.33334 16 5.33334C16 5.33334 9.26667 5.33334 4.8 5.66668C4.2 5.73334 2.8 5.73334 1.6 7.00001C0.666667 8.00001 0.333333 10.2 0.333333 10.2C0.333333 10.2 0 12.8 0 15.4V17.8C0 20.4 0.333333 23 0.333333 23C0.333333 23 0.666667 25.2 1.6 26.2C2.8 27.4667 4.4 27.4667 5.13333 27.6C7.66667 27.8667 16 27.9333 16 27.9333C16 27.9333 22.7333 27.9333 27.2 27.6C27.8 27.5333 29.2 27.5333 30.4 26.2667C31.3333 25.2667 31.6667 23.0667 31.6667 23.0667C31.6667 23.0667 32 20.4667 32 17.8667V15.4667C32 12.8 31.6667 10.2 31.6667 10.2ZM12.6667 20.7333V11.7333L21.3333 16.2667L12.6667 20.7333Z" fill="#95A1AC"/>
</svg>
