<?xml version="1.0" encoding="UTF-8"?>
<svg width="47px" height="48px" viewBox="0 0 47 48" version="1.1" xmlns="http://www.w3.org/2000/svg" xmlns:xlink="http://www.w3.org/1999/xlink">
    <title>UI Elements/SVG /logoMark_outline</title>
    <g id="UI-Elements/logoMark_outline" stroke="none" stroke-width="1" fill="none" fill-rule="evenodd">
        <path d="M40.6972283,3 C41.9667173,3 43.1418594,3.6837833 43.7372092,4.79534358 C44.3076307,5.86005918 44.283422,7.11472514 43.6739604,8.15613843 L43.6531951,8.19116091 L38.3114351,17.0856651 C37.7073561,18.0914412 36.61685,18.7191963 35.451275,18.7325801 L35.413241,18.7327985 L29.3133309,18.7327526 L31.848665,24.5102062 L31.8587724,24.5271442 L31.8743651,24.5544261 C32.4714311,25.6285945 32.456883,26.9057079 31.8376818,27.9638766 L31.8168179,27.9990672 L26.4750579,36.8935714 C25.8709866,37.8993348 24.7804877,38.5271023 23.6149786,38.5404864 L23.5769468,38.5407048 L16.0900331,38.5406598 L10.7078322,44.1911422 L10.6976492,44.2016375 C10.1911714,44.714115 9.50685637,45 8.79338425,45 C8.61502957,45 8.43655946,44.9820433 8.26000333,44.9462189 C7.38968794,44.7693648 6.66659502,44.1749358 6.31852982,43.3550949 L6.30871122,43.3316907 L3.47631277,36.8597938 L3.46141337,36.83499 L3.44593789,36.8082711 C3.44336734,36.8037285 3.44075296,36.799057 3.4380225,36.7941305 C2.8409442,35.7200478 2.85540601,34.4429457 3.47452875,33.3847314 L3.49539012,33.3495392 L8.67634654,24.7228041 L4.85875969,16.0234281 L4.92871559,15.9879588 L4.9276569,15.9827296 C4.7661246,15.1825248 4.89615759,14.3480274 5.3109976,13.6171353 L5.33390765,13.577372 L5.35508594,13.5416376 L10.6968779,4.64708008 C11.3010266,3.64136644 12.3915797,3.01360239 13.5570108,3 L13.59504,3 L40.6972283,3 Z M12.6486486,38.4730452 L6.97297297,38.472973 L8.63996918,42.311303 L8.64406606,42.321497 C8.67170158,42.3902608 8.71639942,42.4278852 8.78292733,42.4414991 C8.84227137,42.4536858 8.89028394,42.4411402 8.935695,42.3999492 L8.94363273,42.3922587 L12.6486486,38.4730452 Z M28.8736084,25.277027 L11.7174052,25.277027 C11.6984587,25.277027 11.6795139,25.2776738 11.6606017,25.2789593 L11.6554054,25.2793433 L16.3595001,35.9898649 L23.5760964,35.9898649 C23.8727351,35.9898649 24.158492,35.831792 24.3209774,35.5778948 L24.3338795,35.5570998 L29.6833662,26.657138 C29.8429666,26.3916566 29.8606133,26.0836306 29.7341578,25.8064399 C29.58837,25.4868074 29.2499507,25.277027 28.8736084,25.277027 Z M9.93400534,27.4763514 L5.6882704,34.5993884 C5.51932723,34.8828981 5.50953549,35.2149159 5.66082162,35.5071085 L5.67686879,35.5368227 L5.68541899,35.5513754 L5.70255596,35.579271 L5.73651057,35.6295316 L5.77441561,35.6786198 L5.81068067,35.7198538 L5.8169719,35.7265349 L5.84149474,35.7512618 L5.86280458,35.7714468 C5.99635894,35.8921184 6.16145519,35.9657414 6.34354834,35.9846577 L6.38445373,35.9881342 L6.40814068,35.9893669 L6.43815342,35.9898649 L13.6418919,35.9898649 L9.93400534,27.4763514 Z M8.81756757,18.75 L10.6822466,23.0067568 L10.7185713,22.9944299 C11.0405878,22.8871691 11.37727,22.8290275 11.717641,22.8237334 L11.768723,22.8233361 L28.3986486,22.8232897 L26.614386,18.7500727 L8.81756757,18.75 Z M40.649844,5.48310811 L23.4324324,5.48310811 L28.1379488,16.1959459 L35.3519311,16.1959459 C35.6491131,16.1959459 35.935124,16.037767 36.0976931,15.7837245 L36.1106016,15.7629176 L41.4604405,6.8631273 C41.6199681,6.59771272 41.6376043,6.28991756 41.5112944,6.01296913 C41.3684647,5.69989555 41.0409783,5.49209324 40.6738424,5.48339232 L40.649844,5.48310811 Z M20.7967273,5.48310811 L13.6226294,5.48310811 C13.3276061,5.48310811 13.0430696,5.64090229 12.8812065,5.89455043 L12.8683535,5.91532533 L7.53257328,14.8152872 C7.37327553,15.0809457 7.3556704,15.3894345 7.4819856,15.6669836 C7.62426312,15.9797638 7.94998638,16.1869862 8.3149195,16.1956625 L8.33877359,16.1959459 L25.4898649,16.1959459 L20.7967273,5.48310811 Z" id="logo_fill" fill="#FFFFFF"></path>
    </g>
</svg>