<?xml version="1.0" encoding="UTF-8"?>
<svg width="24px" height="24px" viewBox="0 0 24 24" version="1.1" xmlns="http://www.w3.org/2000/svg" xmlns:xlink="http://www.w3.org/1999/xlink">
    <title>UI Icons/NavIcons/logo-githubv0</title>
    <g id="UI-Icons/NavIcons/logo-github" stroke="none" stroke-width="1" fill="none" fill-rule="evenodd">
        <g id="logo-github" transform="translate(0, 0.3)" fill="#95A1AC">
            <path d="M12,0 C5.35,0 0,5.35 0,12 C0,17.3 3.45,21.8 8.2,23.4 C8.8,23.5 9,23.15 9,22.8 C9,22.5 9,21.75 9,20.75 C5.65,21.5 4.95,19.15 4.95,19.15 C4.4,17.75 3.6,17.4 3.6,17.4 C2.5,16.65 3.7,16.65 3.7,16.65 C4.9,16.75 5.55,17.9 5.55,17.9 C6.6,19.75 8.35,19.2 9.05,18.9 C9.15,18.1 9.45,17.6 9.8,17.3 C7.15,17 4.35,15.95 4.35,11.35 C4.35,10.05 4.8,8.95 5.6,8.15 C5.5,7.85 5.05,6.65 5.7,4.95 C5.7,4.95 6.7,4.65 9,6.2 C9.95,5.95 11,5.8 12,5.8 C13,5.8 14.05,5.95 15,6.2 C17.3,4.65 18.3,4.95 18.3,4.95 C18.95,6.6 18.55,7.8 18.4,8.15 C19.15,9 19.65,10.05 19.65,11.35 C19.65,15.95 16.85,16.95 14.15,17.25 C14.6,17.6 14.95,18.35 14.95,19.45 C14.95,21.05 14.95,22.35 14.95,22.75 C14.95,23.05 15.15,23.45 15.8,23.35 C20.55,21.8 24,17.3 24,12 C24,5.35 18.65,0 12,0 Z" id="Path"></path>
        </g>
    </g>
</svg>