<?xml version="1.0" encoding="UTF-8"?>
<svg width="24px" height="24px" viewBox="0 0 24 24" version="1.1" xmlns="http://www.w3.org/2000/svg" xmlns:xlink="http://www.w3.org/1999/xlink">
    <title>UI Icons/SVG /logo_androidAPK</title>
    <g id="UI-Icons/logo_androidAPK" stroke="none" stroke-width="1" fill="none" fill-rule="evenodd">
        <path d="M4.12819526,16.2308285 L4.12819526,16.2308285 C3.50543148,16.2308285 3,15.725397 3,15.1026332 L3,10.5898522 C3,9.96708838 3.50543148,9.46165691 4.12819526,9.46165691 L4.12819526,9.46165691 C4.75095904,9.46165691 5.25639052,9.96708838 5.25639052,10.5898522 L5.25639052,15.1026332 C5.25639052,15.725397 4.75095904,16.2308285 4.12819526,16.2308285 Z M19.9229289,16.2308285 L19.9229289,16.2308285 C19.3001651,16.2308285 18.7947336,15.725397 18.7947336,15.1026332 L18.7947336,10.5898522 C18.7947336,9.96708838 19.3001651,9.46165691 19.9229289,9.46165691 L19.9229289,9.46165691 C20.5456926,9.46165691 21.0511241,9.96708838 21.0511241,10.5898522 L21.0511241,15.1026332 C21.0511241,15.725397 20.5456926,16.2308285 19.9229289,16.2308285 Z M6.38458577,9.46165691 L6.38458577,18.487219 C6.38458577,19.1099828 6.89001725,19.6154142 7.51278103,19.6154142 L8.64097629,19.6154142 L8.64097629,21.8718047 C8.64097629,22.4945685 9.14640776,23 9.76917155,23 C10.3919353,23 10.8973668,22.4945685 10.8973668,21.8718047 L10.8973668,19.6154142 L13.1537573,19.6154142 L13.1537573,21.8718047 C13.1537573,22.4945685 13.6591888,23 14.2819526,23 C14.9047164,23 15.4101478,22.4945685 15.4101478,21.8718047 L15.4101478,19.6154142 L16.5383431,19.6154142 C17.1611069,19.6154142 17.6665384,19.1099828 17.6665384,18.487219 L17.6665384,9.46165691 L6.38458577,9.46165691 Z M6.38458577,8.33346165 L17.6665384,8.33346165 C17.6665384,6.57911802 16.849725,5.03236232 15.5940437,3.99780727 L17.0076723,1.87680019 C17.1802862,1.61844347 17.1103381,1.26757475 16.8508532,1.09496087 C16.5902401,0.922347 16.2393714,0.991166911 16.0690139,1.25178002 L14.6553852,3.3716589 C13.8667767,2.95197027 12.9811434,2.69248536 12.0255621,2.69248536 C11.0699807,2.69248536 10.1843474,2.95197027 9.39573892,3.3716589 L7.98211026,1.25178002 C7.80949638,0.992295106 7.45862766,0.922347 7.20027094,1.09496087 C6.94078604,1.26757475 6.87083793,1.61844347 7.0434518,1.87680019 L8.45708046,3.99780727 C7.20139914,5.03236232 6.38458577,6.57911802 6.38458577,8.33346165 Z" id="Combined-Shape" fill="#95A1AC"></path>
    </g>
</svg>