<?xml version="1.0" encoding="UTF-8"?>
<svg width="24px" height="24px" viewBox="0 0 24 24" version="1.1" xmlns="http://www.w3.org/2000/svg" xmlns:xlink="http://www.w3.org/1999/xlink">
    <title>UI Icons/NavIcons/marketplacev0</title>
    <g id="UI-Icons/NavIcons/marketplace" stroke="none" stroke-width="1" fill="none" fill-rule="evenodd">
        <path d="M5.16599425,21.7909997 C4.81278893,21.7909997 4.52088646,21.528531 4.47468887,21.1879956 L4.46831992,21.0933253 L4.46831992,14.2593196 C4.46831992,13.8740047 4.78067936,13.5616452 5.16599425,13.5616452 C5.51919957,13.5616452 5.81110204,13.8241139 5.85729963,14.1646493 L5.86366858,14.2593196 L5.86325661,20.3953466 L9.438,20.395 L9.43850592,16.1231393 C9.43850592,15.769934 9.70097462,15.4780315 10.04151,15.4318339 L10.1361803,15.425465 L13.8638197,15.425465 C14.2170251,15.425465 14.5089275,15.6879337 14.5551251,16.0284691 L14.5614941,16.1231393 L14.561,20.395 L18.1358132,20.3953466 L18.1363314,14.2593196 C18.1363314,13.9061143 18.3988001,13.6142118 18.7393355,13.5680142 L18.8340057,13.5616452 C19.1872111,13.5616452 19.4791135,13.8241139 19.5253111,14.1646493 L19.5316801,14.2593196 L19.5316801,21.0933253 C19.5316801,21.4465306 19.2692114,21.7384331 18.928676,21.7846307 L18.8340057,21.7909997 L5.16599425,21.7909997 Z M13.1655812,16.8204633 L10.8334885,16.8204633 L10.833,20.395 L13.166,20.395 L13.1655812,16.8204633 Z M17.5914592,3 L6.40854075,3 C6.17475696,3 5.95651207,3.11709324 5.82723699,3.3118824 L2.11637187,8.90334165 C2.02578625,9.03983431 1.98611942,9.20385032 2.00432131,9.36665293 C2.20203294,11.1350398 3.69735984,12.4722425 5.47676481,12.471901 L5.68814167,12.46112 C6.38879863,12.4052309 7.04774806,12.1510435 7.59353604,11.7354565 L7.6437215,11.6948826 L7.69792425,11.7400677 C8.29992207,12.2079176 9.04599363,12.4700375 9.82387414,12.471901 L10.0356836,12.4630169 C10.7380362,12.4128269 11.4010318,12.1581039 11.9476815,11.737733 L12,11.6948826 L12.05212,11.737732 C12.6528888,12.2001372 13.3929352,12.4621008 14.1656588,12.471901 L14.378892,12.4649361 C15.0860336,12.4206667 15.7541103,12.1653822 16.3018773,11.7400667 L16.3534878,11.6967431 L16.4025107,11.7370771 C17.0029317,12.1979636 17.7413023,12.4598845 18.5125762,12.471901 C20.3026402,12.4722425 21.7979671,11.1350398 21.9956787,9.36665293 C22.0138806,9.20385032 21.9742138,9.03983431 21.8836281,8.90334165 L18.172763,3.3118824 C18.0434879,3.11709324 17.825243,3 17.5914592,3 Z M17.2167435,4.39534866 L20.5674407,9.44372009 L20.554364,9.50754067 C20.317623,10.4193491 19.4903934,11.0767297 18.5235031,11.0765523 C17.8951734,11.0667495 17.2933572,10.7744388 16.8905448,10.2783074 C16.6089806,9.93151351 16.0785813,9.93498173 15.8015762,10.285428 C15.4077026,10.7837278 14.8079537,11.0750344 14.1727869,11.0765543 C13.5450973,11.0685601 12.9437406,10.7764725 12.5428877,10.2798584 C12.2636378,9.9338975 11.7363622,9.9338975 11.4571123,10.2798584 C11.0562594,10.7764725 10.4549027,11.0685601 9.81674605,11.0766078 C9.19204631,11.0750344 8.59229743,10.7837278 8.19842376,10.285428 C7.94388606,9.96340578 7.47495349,9.93410512 7.18194469,10.2014607 L7.11258344,10.2744822 C6.70490829,10.7693978 6.10193671,11.0622697 5.46089734,11.0767297 L5.31158086,11.0713291 C4.42281792,11.0068497 3.66978216,10.3713607 3.44562253,9.50754082 L3.43162902,9.44372009 L6.78232626,4.39534866 L17.2167435,4.39534866 Z" id="Combined-Shape" fill="#95A1AC"></path>
    </g>
</svg>