<?xml version="1.0" encoding="UTF-8"?>
<svg width="24px" height="24px" viewBox="0 0 24 24" version="1.1" xmlns="http://www.w3.org/2000/svg" xmlns:xlink="http://www.w3.org/1999/xlink">
    <title>UI Icons/SVG /new_flare</title>
    <g id="UI-Icons/new_flare" stroke="none" stroke-width="1" fill="none" fill-rule="evenodd">
        <path d="M0,12.8181818 L0,11.1818182 L6.32727273,11.1818182 L6.32727273,12.8181818 L0,12.8181818 Z M7.39090909,8.53636364 L5.20909091,6.35454545 L6.35454545,5.20909091 L8.53636364,7.39090909 L7.39090909,8.53636364 Z M11.1818182,6.32727273 L11.1818182,0 L12.8181818,0 L12.8181818,6.32727273 L11.1818182,6.32727273 Z M16.6090909,8.53636364 L15.4636364,7.39090909 L17.6454545,5.20909091 L18.7909091,6.35454545 L16.6090909,8.53636364 Z M17.6727273,12.8181818 L17.6727273,11.1818182 L24,11.1818182 L24,12.8181818 L17.6727273,12.8181818 Z M12,14.7818182 C11.2363636,14.7818182 10.5818182,14.5090909 10.0363636,13.9636364 C9.49090909,13.4181818 9.21818182,12.7636364 9.21818182,12 C9.21818182,11.2181818 9.49090909,10.5590909 10.0363636,10.0227273 C10.5818182,9.48636364 11.2363636,9.21818182 12,9.21818182 C12.7818182,9.21818182 13.4409091,9.48636364 13.9772727,10.0227273 C14.5136364,10.5590909 14.7818182,11.2181818 14.7818182,12 C14.7818182,12.7636364 14.5136364,13.4181818 13.9772727,13.9636364 C13.4409091,14.5090909 12.7818182,14.7818182 12,14.7818182 Z M17.7818182,18.9272727 L15.4636364,16.6090909 L16.6090909,15.4636364 L18.9272727,17.7818182 L17.7818182,18.9272727 Z M6.21818182,18.9272727 L5.07272727,17.7818182 L7.39090909,15.4636364 L8.53636364,16.6090909 L6.21818182,18.9272727 Z M11.1818182,24 L11.1818182,17.6727273 L12.8181818,17.6727273 L12.8181818,24 L11.1818182,24 Z" id="Shape" fill="#95A1AC"></path>
    </g>
</svg>