<?xml version="1.0" encoding="UTF-8"?>
<svg width="24px" height="24px" viewBox="0 0 24 24" version="1.1" xmlns="http://www.w3.org/2000/svg" xmlns:xlink="http://www.w3.org/1999/xlink">
    <title>UI Icons/NavIcons/SVG /notificationBell_Active</title>
    <g id="UI-Icons/NavIcons/notificationBell_Active" stroke="none" stroke-width="1" fill="none" fill-rule="evenodd">
        <path d="M13.8713912,20.7292941 C14.0679515,20.4308469 14.4692343,20.3482512 14.7676816,20.5448114 C15.0661288,20.7413717 15.1487245,21.1426545 14.9521643,21.4411017 C14.3112479,22.4142371 13.2240662,23 12.058834,23 C10.8936017,23 9.80642006,22.4142371 9.16550366,21.4411017 C8.96894341,21.1426545 9.05153913,20.7413717 9.34998637,20.5448114 C9.6484336,20.3482512 10.0497165,20.4308469 10.2462767,20.7292941 C10.6477855,21.338925 11.3288619,21.7058824 12.058834,21.7058824 C12.788806,21.7058824 13.4698824,21.338925 13.8713912,20.7292941 Z M12.058834,1 C8.06288737,1 4.8235326,4.23935472 4.82353254,8.23530132 L4.82353254,11.0588339 C4.82353254,12.1440593 4.49016489,12.8888074 3.7324378,13.7832249 L2.87277112,14.7458057 C2.83547721,14.7886566 2.80412735,14.8253014 2.78155523,14.852679 C2.26418595,15.4801948 2,16.0348971 2,16.705899 C2,18.8844533 6.11372707,20.1764903 12.058834,20.1764903 L12.7000164,20.1713844 C18.2976814,20.0813517 22.1176679,18.8052331 22.1176679,16.705899 C22.1176679,16.0348971 21.853482,15.4801948 21.3361127,14.852679 L21.0465156,14.5214171 L20.5424606,13.9642492 C19.6734337,12.9865939 19.2941354,12.2164076 19.2941354,11.0588339 L19.2941354,8.23530133 C19.2941353,4.23935472 16.0547806,1 12.058834,1 Z" id="Combined-Shape" fill="#95A1AC" fill-rule="nonzero"></path>
    </g>
</svg>