<?xml version="1.0" encoding="UTF-8"?>
<svg width="24px" height="24px" viewBox="0 0 24 24" version="1.1" xmlns="http://www.w3.org/2000/svg" xmlns:xlink="http://www.w3.org/1999/xlink">
    <title>UI Icons/oneSignal</title>
    <g id="UI-Icons/oneSignal" stroke="none" stroke-width="1" fill="none" fill-rule="evenodd">
        <path d="M11.9762382,2.30424558e-05 C5.35565751,0.0129526998 -0.0372986386,5.46273907 0.000194317655,12.1003821 C0.0335084046,18.2997024 4.74878986,23.3889761 10.7808241,23.9993321 C10.8001922,24.0012564 10.8195603,23.9989822 10.8378815,23.9930343 C10.8563772,23.9869115 10.873128,23.977115 10.887436,23.9639947 C10.9017439,23.9508745 10.9132601,23.9351301 10.9209376,23.9172865 C10.9287895,23.8996178 10.9328027,23.8803748 10.9326282,23.8609567 L10.9326282,12.0307746 L10.0029586,12.0307746 C9.96649073,12.0307746 9.93124424,12.0162023 9.90542009,11.9902766 C9.87959593,11.9643334 9.86511347,11.9291535 9.86511347,11.8924867 L9.86511347,10.0274985 C9.86511347,9.99081413 9.87959593,9.95565175 9.90542009,9.92970856 C9.93124424,9.90378286 9.96649073,9.88921059 10.0029586,9.88921059 L12.9298126,9.88921059 C12.966455,9.88921059 13.001527,9.90378286 13.0273511,9.92970856 C13.0531753,9.95565175 13.0678322,9.99081413 13.0678322,10.0274985 L13.0678322,23.8609567 C13.0676578,23.8803748 13.071671,23.8994429 13.0793484,23.9171116 C13.0872004,23.9349552 13.098542,23.9506995 13.1126755,23.9638198 C13.1269835,23.9767652 13.1439088,23.9867366 13.16223,23.9928594 C13.1803767,23.9989822 13.1997448,24.0010814 13.2191129,23.9993321 C19.273656,23.3867019 24,18.2622659 24,12.0307746 C24,5.37838434 18.6142676,-0.0128603545 11.9762382,2.30424558e-05 Z M15.3895634,21.3189439 C15.3687994,21.3262913 15.346465,21.3285655 15.3246541,21.3254166 C15.3028431,21.3224427 15.2819046,21.3142206 15.2639324,21.3014502 C15.2459602,21.2885049 15.2313032,21.2717109 15.2210085,21.251943 C15.2108882,21.23235 15.2056536,21.2104829 15.2056536,21.1884408 L15.2056536,19.2137494 C15.205828,19.1743885 15.2169953,19.1360773 15.2379338,19.1028392 C15.2588723,19.0697761 15.2888841,19.0433606 15.3243051,19.0265666 C16.642035,18.3959179 17.7549165,17.4043037 18.5341779,16.166378 C19.3136137,14.9284522 19.7278471,13.4946842 19.728894,12.0307746 C19.728894,7.71767986 16.1960448,4.21678369 11.8797466,4.28317236 C7.7740548,4.34585237 4.40627082,7.66421905 4.27523068,11.7786376 C4.22742109,13.2848645 4.61809869,14.7724607 5.39980286,16.0596313 C6.18150704,17.3467844 7.3203872,18.3777244 8.67702781,19.0265666 C8.71244878,19.0433606 8.74246064,19.0697761 8.76357363,19.1028392 C8.78468663,19.1360773 8.79585383,19.1743885 8.79602832,19.2137494 L8.79602832,21.1887906 C8.7962028,21.2110077 8.79079369,21.2328748 8.78067341,21.2524678 C8.77055313,21.2720608 8.75589618,21.2890297 8.73792397,21.3018001 C8.71977726,21.3145705 8.69901324,21.3227926 8.6772023,21.3259414 C8.65521687,21.3289154 8.63305695,21.3266412 8.61229294,21.3192938 C4.81038396,19.9211955 2.09738191,16.2392218 2.13644967,11.9385827 C2.18473037,6.56624306 6.56206436,2.183086 11.922496,2.14160838 C17.3968681,2.0992036 21.8639236,6.55195069 21.8639236,12.0307746 C21.8639236,16.2913007 19.1628565,19.930992 15.3895634,21.3189439 Z" id="Shape" fill="#95A1AC"></path>
    </g>
</svg>