<?xml version="1.0" encoding="UTF-8"?>
<svg width="24px" height="24px" viewBox="0 0 24 24" version="1.1" xmlns="http://www.w3.org/2000/svg" xmlns:xlink="http://www.w3.org/1999/xlink">
    <title>UI Icons/UI InspectorPanel/SVG /opacity</title>
    <g id="UI-Icons/UI-InspectorPanel/opacity" stroke="none" stroke-width="1" fill="none" fill-rule="evenodd">
        <g id="opacity-4" transform="translate(2, 2)" fill="#95A1AC" fill-rule="nonzero">
            <path d="M12.3173181,0 C16.539006,0 20,3.46099402 20,7.68268191 C20,11.0008643 17.8595142,13.8314017 14.8863666,14.8861325 C13.8314017,17.8595142 11.0008643,20 7.68268191,20 C3.46099402,20 0,16.539006 0,12.3173181 C0,8.99913567 2.14048576,6.16859831 5.11363342,5.11386754 C6.16859831,2.14048576 8.99913567,0 12.3173181,0 Z M4.72419676,6.79449296 L4.69803064,6.80828959 C2.728527,7.86833354 1.38421134,9.94154094 1.38421134,12.3173181 C1.38421134,15.7745272 4.22547284,18.6157887 7.68268191,18.6157887 C10.0688371,18.6157887 12.1497734,17.2597027 13.2055441,15.2761236 C12.9139843,15.3094469 12.6176011,15.3267419 12.3173181,15.3267419 C10.667418,15.3267419 9.13960264,14.8040205 7.89044698,13.9151526 C7.88773193,13.9133268 7.88508295,13.9114267 7.88244447,13.9095057 C5.9398809,12.5234592 4.67325815,10.2509843 4.67325815,7.68268191 C4.67325815,7.38239892 4.69055314,7.08601566 4.72419676,6.79449296 Z M13.9326905,11.9633419 L11.9633419,13.9326905 C12.080503,13.9392215 12.1985241,13.9425305 12.3173181,13.9425305 C12.8179272,13.9425305 13.3053285,13.8838783 13.7728926,13.7731245 C13.8838783,13.3053285 13.9425305,12.8179272 13.9425305,12.3173181 C13.9425305,12.1985241 13.9392215,12.080503 13.9326905,11.9633419 Z M13.2205264,9.39607097 L9.39607097,13.2205264 C9.69105355,13.3764546 9.99999622,13.509504 10.3205362,13.6173119 L13.6173119,10.3205362 C13.509504,9.99999622 13.3764546,9.69105355 13.2205264,9.39607097 Z M12.3173181,1.38421134 C9.93116288,1.38421134 7.85022661,2.74029735 6.79445594,4.7238764 C7.08601566,4.69055314 7.38239892,4.67325815 7.68268191,4.67325815 C9.33258201,4.67325815 10.8603974,5.19597955 12.109553,6.08484742 C12.1122681,6.08667321 12.1149171,6.08857328 12.1175555,6.09049431 C14.0601191,7.47654078 15.3267419,9.74901571 15.3267419,12.3173181 C15.3267419,12.6176011 15.3094469,12.9139843 15.2758032,13.205507 C17.2597027,12.1497734 18.6157887,10.0688371 18.6157887,7.68268191 C18.6157887,4.22547284 15.7745272,1.38421134 12.3173181,1.38421134 Z M11.7673402,7.57363395 L7.57363395,11.7673402 C7.77670684,12.0029637 7.99703628,12.2232932 8.23265981,12.4263661 L12.4263661,8.23265981 C12.2232932,7.99703628 12.0029637,7.77670684 11.7673402,7.57363395 Z M9.67946376,6.38268808 L6.38268808,9.67946376 C6.49049602,10.0000038 6.62354544,10.3089465 6.77947357,10.603929 L10.603929,6.77947357 C10.3089465,6.62354544 10.0000038,6.49049602 9.67946376,6.38268808 Z M7.68268191,6.05746949 C7.18207279,6.05746949 6.69467154,6.11612167 6.22710738,6.22687549 C6.11612167,6.69467154 6.05746949,7.18207279 6.05746949,7.68268191 C6.05746949,7.80147588 6.06077855,7.919497 6.06730952,8.03665813 L8.03665813,6.06730952 C7.919497,6.06077855 7.80147588,6.05746949 7.68268191,6.05746949 Z" id="Combined-Shape"></path>
        </g>
    </g>
</svg>