<?xml version="1.0" encoding="UTF-8"?>
<svg width="24px" height="24px" viewBox="0 0 24 24" version="1.1" xmlns="http://www.w3.org/2000/svg" xmlns:xlink="http://www.w3.org/1999/xlink">
    <title>UI Icons/NavIcons/SVG /pages</title>
    <g id="UI-Icons/NavIcons/pages" stroke="none" stroke-width="1" fill="none" fill-rule="evenodd">
        <path d="M14,5.096 C16.209139,5.096 18,6.886861 18,9.096 L18,18.096 C18,20.305139 16.209139,22.096 14,22.096 L6,22.096 C3.790861,22.096 2,20.305139 2,18.096 L2,9.096 C2,6.886861 3.790861,5.096 6,5.096 L14,5.096 Z M14,6.596 L6,6.596 C4.6745166,6.596 3.58996133,7.62753594 3.50531768,8.93162431 L3.5,9.096 L3.5,18.096 C3.5,19.4214834 4.53153594,20.5060387 5.83562431,20.5906823 L6,20.596 L14,20.596 C15.3254834,20.596 16.4100387,19.5644641 16.4946823,18.2603757 L16.5,18.096 L16.5,9.096 C16.5,7.7705166 15.4684641,6.68596133 14.1643757,6.60131768 L14,6.596 Z M18,2.096 C20.209139,2.096 22,3.886861 22,6.096 L22,16.096 C22,18.0110144 20.6542639,19.6117154 18.8568908,20.0040037 L18.8571285,18.4451982 C19.7666368,18.1132689 20.4292671,17.2682157 20.4946823,16.2603757 L20.5,16.096 L20.5,6.096 C20.5,4.7705166 19.4684641,3.68596133 18.1643757,3.60131768 L18,3.596 L9,3.596 C8.49772529,3.596 8.03004623,3.7441216 7.63826124,3.99906639 L5.59313864,3.99891334 C6.29750516,2.85705451 7.55987568,2.096 9,2.096 L18,2.096 Z M11.3563114,16.75 C11.7705249,16.75 12.1063114,17.0857864 12.1063114,17.5 C12.1063114,17.8796958 11.8241575,18.193491 11.4580819,18.2431534 L11.3563114,18.25 L5.35631139,18.25 C4.94209782,18.25 4.60631139,17.9142136 4.60631139,17.5 C4.60631139,17.1203042 4.88846527,16.806509 5.25454083,16.7568466 L5.35631139,16.75 L11.3563114,16.75 Z M14.3563114,12.75 C14.7705249,12.75 15.1063114,13.0857864 15.1063114,13.5 C15.1063114,13.8796958 14.8241575,14.193491 14.4580819,14.2431534 L14.3563114,14.25 L5.35631139,14.25 C4.94209782,14.25 4.60631139,13.9142136 4.60631139,13.5 C4.60631139,13.1203042 4.88846527,12.806509 5.25454083,12.7568466 L5.35631139,12.75 L14.3563114,12.75 Z M14.3563114,8.75 C14.7705249,8.75 15.1063114,9.08578644 15.1063114,9.5 C15.1063114,9.87969577 14.8241575,10.193491 14.4580819,10.2431534 L14.3563114,10.25 L5.35631139,10.25 C4.94209782,10.25 4.60631139,9.91421356 4.60631139,9.5 C4.60631139,9.12030423 4.88846527,8.80650904 5.25454083,8.75684662 L5.35631139,8.75 L14.3563114,8.75 Z" id="Combined-Shape" fill="#95A1AC"></path>
    </g>
</svg>