<?xml version="1.0" encoding="UTF-8"?>
<svg width="24px" height="24px" viewBox="0 0 24 24" version="1.1" xmlns="http://www.w3.org/2000/svg" xmlns:xlink="http://www.w3.org/1999/xlink">
    <title>UI Icons/NavIcons/SVG /pagesComponents</title>
    <g id="UI-Icons/NavIcons/pagesComponents" stroke="none" stroke-width="1" fill="none" fill-rule="evenodd">
        <path d="M19.5724129,9.60002647 C20.3471502,9.60069941 21.0740371,9.97486519 21.524758,10.6049993 L23.3313072,13.0457306 C23.9780494,13.9262648 23.9484548,15.1324897 23.2593092,15.9802481 L18.0262564,23.2946423 C17.6856665,23.7381005 17.1586526,23.9985048 16.5994966,23.999628 L16.4356669,23.9925355 C15.9477564,23.9489748 15.4960835,23.7068147 15.1895362,23.3186416 L9.9144846,15.9220497 C9.2557623,15.0876251 9.22571363,13.9189026 9.84068668,13.0517304 L11.679635,10.5935996 C12.1313768,9.96893776 12.8556894,9.59930395 13.6265802,9.60002647 L19.5724129,9.60002647 Z M22.4535319,14.9998756 L19.462016,14.9998756 L17.6620667,21.7436859 L22.307736,15.2524685 C22.3659484,15.1741984 22.4148748,15.089433 22.4535319,14.9998756 Z M13.738777,14.9998756 L10.7574609,14.9998756 C10.7879577,15.0683657 10.8251367,15.1336801 10.8684578,15.1948702 L15.5351265,21.7376861 L13.738777,14.9998756 Z M18.219451,14.9998756 L14.9795421,14.9998756 L16.5994966,21.0705049 L18.219451,14.9998756 Z M10.2613886,0 C12.5625157,0 13.93844,1.38240427 13.96004,3.69505141 L13.9605067,7.43215435 C13.6028811,7.51502079 13.2534238,7.61920351 12.9135457,7.7432916 L12.9131568,3.75049158 C12.9131568,1.95840605 12.022514,1.04904324 10.2549086,1.04904324 L4.69937143,1.04904324 C2.93104596,1.04904324 2.0346432,1.95840605 2.0346432,3.75049158 L2.0346432,10.6495529 C2.0346432,12.4416384 2.93104596,13.3510012 4.69937143,13.3510012 L7.460464,13.3511369 C7.34673865,13.6921948 7.25287306,14.0423345 7.18023938,14.400184 L4.69937143,14.4000445 C4.40273051,14.4000445 4.12120964,14.3770044 3.85624882,14.3316443 L3.69928834,14.3021242 C1.99216306,13.9471631 1,12.639639 1,10.6495529 L1,3.75049158 C1,3.51001084 1.01440004,3.27961013 1.04320013,3.05928945 C1.29448091,1.12608348 2.62288501,0 4.69937143,0 L10.2613886,0 Z M19.5724129,10.7999938 L18.5950404,10.7999938 L19.4518163,13.7999094 L22.3869338,13.7999094 C22.377334,13.7861098 22.3749341,13.7705102 22.3653344,13.7573106 L20.5545853,11.3105794 C20.3291204,10.9914609 19.9631425,10.801206 19.5724129,10.7999938 Z M17.3470755,10.7999938 L15.8519176,10.7999938 L14.9951417,13.7999094 L18.2038514,13.7999094 L17.3470755,10.7999938 Z M14.6039527,10.7999938 L13.6265802,10.7999938 C13.2391624,10.8005132 12.8756565,10.9874017 12.6498077,11.3021797 L10.8108594,13.7579106 L10.79046,13.7999094 L13.7471768,13.7999094 L14.6039527,10.7999938 Z M9.74764843,9.72660645 C9.41320656,10.0497093 9.10373348,10.3984922 8.8224058,10.7697783 L4.87505197,10.7697933 C4.59137109,10.7697933 4.36097038,10.5365125 4.36097038,10.2485117 C4.36097038,9.96051076 4.59137109,9.72723004 4.87505197,9.72723004 L9.74764843,9.72660645 Z M10.5645095,6.91922137 C10.6703499,7.0913019 10.6703499,7.30874257 10.5645095,7.4808231 C10.4586692,7.65146363 10.2649886,7.74650393 10.066988,7.72490386 L4.87505197,7.72490386 C4.61153115,7.69466377 4.41209054,7.46930307 4.41209054,7.20002224 C4.41209054,6.93074141 4.61153115,6.70466071 4.87505197,6.67514062 L10.066988,6.67514062 C10.2649886,6.65354055 10.4586692,6.74858084 10.5645095,6.91922137 Z M6.85649809,3.63025121 C7.1200189,3.6597713 7.31945952,3.885852 7.31945952,4.15513283 C7.31945952,4.42369366 7.1200189,4.64977436 6.85649809,4.67929445 L4.88153199,4.67929445 C4.61729117,4.64977436 4.41785056,4.42369366 4.41785056,4.15513283 C4.41785056,3.885852 4.61729117,3.6597713 4.88153199,3.63025121 L6.85649809,3.63025121 Z" id="pageComponenet" fill="#95A1AC"></path>
    </g>
</svg>