<?xml version="1.0" encoding="UTF-8"?>
<svg width="24px" height="24px" viewBox="0 0 24 24" version="1.1" xmlns="http://www.w3.org/2000/svg" xmlns:xlink="http://www.w3.org/1999/xlink">
    <title>UI Icons/NavIcons/SVG /pageSingle</title>
    <g id="UI-Icons/NavIcons/pageSingle" stroke="none" stroke-width="1" fill="none" fill-rule="evenodd">
        <path d="M15.5,5 C17.4329966,5 19,6.56700338 19,8.5 L19,16.375 C19,18.3079966 17.4329966,19.875 15.5,19.875 L8.5,19.875 C6.56700338,19.875 5,18.3079966 5,16.375 L5,8.5 C5,6.56700338 6.56700338,5 8.5,5 L15.5,5 Z M15.5,6.3125 L8.5,6.3125 C7.34020203,6.3125 6.39121616,7.21509394 6.31715297,8.35617127 L6.3125,8.5 L6.3125,16.375 C6.3125,17.534798 7.21509394,18.4837838 8.35617127,18.557847 L8.5,18.5625 L15.5,18.5625 C16.659798,18.5625 17.6087838,17.6599061 17.682847,16.5188287 L17.6875,16.375 L17.6875,8.5 C17.6875,7.34020203 16.7849061,6.39121616 15.6438287,6.31715297 L15.5,6.3125 Z M13.1867725,15.19725 C13.5492093,15.19725 13.8430225,15.4910631 13.8430225,15.8535 C13.8430225,16.1857338 13.5961378,16.4603046 13.2758217,16.5037592 L13.1867725,16.50975 L7.93677246,16.50975 C7.5743356,16.50975 7.28052246,16.2159369 7.28052246,15.8535 C7.28052246,15.5212662 7.52740711,15.2466954 7.84772323,15.2032408 L7.93677246,15.19725 L13.1867725,15.19725 Z M15.8117725,11.69725 C16.1742093,11.69725 16.4680225,11.9910631 16.4680225,12.3535 C16.4680225,12.6857338 16.2211378,12.9603046 15.9008217,13.0037592 L15.8117725,13.00975 L7.93677246,13.00975 C7.5743356,13.00975 7.28052246,12.7159369 7.28052246,12.3535 C7.28052246,12.0212662 7.52740711,11.7466954 7.84772323,11.7032408 L7.93677246,11.69725 L15.8117725,11.69725 Z M15.8117725,8.19725 C16.1742093,8.19725 16.4680225,8.49106313 16.4680225,8.8535 C16.4680225,9.18573379 16.2211378,9.46030459 15.9008217,9.50375921 L15.8117725,9.50975 L7.93677246,9.50975 C7.5743356,9.50975 7.28052246,9.21593687 7.28052246,8.8535 C7.28052246,8.52126621 7.52740711,8.24669541 7.84772323,8.20324079 L7.93677246,8.19725 L15.8117725,8.19725 Z" id="Combined-Shape" fill="#95A1AC"></path>
    </g>
</svg>