<?xml version="1.0" encoding="UTF-8"?>
<svg width="24px" height="24px" viewBox="0 0 24 24" version="1.1" xmlns="http://www.w3.org/2000/svg" xmlns:xlink="http://www.w3.org/1999/xlink">
    <title>UI Icons/newNav/perksGift_v2</title>
    <g id="UI-Icons/newNav/perksGift" stroke="none" stroke-width="1" fill="none" fill-rule="evenodd">
        <path d="M7.50655942,22 C7.00967569,22 6.59494081,22 6.25612221,21.9723721 C5.90274546,21.9434419 5.57096872,21.8810233 5.25723848,21.7212093 C4.77588965,21.475907 4.38454081,21.0845581 4.139285,20.6032558 C3.97943383,20.2894884 3.91700593,19.9577674 3.88813151,19.6043721 C3.86599914,19.3332651 3.86157267,19.0136372 3.86068737,18.642202 L3.85940146,11.7661812 C3.73625624,11.7645653 3.62156571,11.7608783 3.51826174,11.7524651 C3.32000128,11.7362791 3.10309895,11.6991628 2.88885709,11.5900465 C2.58255011,11.4339535 2.33350825,11.1849302 2.17743383,10.8786047 C2.06827104,10.6643721 2.03119197,10.4474419 2.01499662,10.2492093 C2.00374916,10.1112721 2.00093729,9.95304302 2.00023432,9.78150363 L2,7.88258605 C2,7.64306977 2,7.42308837 2.01499662,7.2391907 C2.03119197,7.04093023 2.06827104,6.82402791 2.17743383,6.60978605 C2.33350825,6.30347907 2.58255011,6.05443721 2.88885709,5.89836279 C3.10309895,5.7892 3.32000128,5.75212093 3.51826174,5.73592558 C3.70215942,5.72092896 3.92214081,5.72092896 4.16165709,5.72092896 L6.46202242,5.72109403 C6.28200288,5.36369453 6.18604779,4.96550523 6.18604779,4.55813953 C6.18604779,3.88369302 6.44907104,3.2344 6.92115476,2.75373023 C7.39365709,2.27263256 8.03721988,2 8.71096872,2 C10.3844664,2 11.3882803,3.22617674 11.9286524,4.22655814 C11.9537189,4.27297324 11.9780441,4.31933533 12.0016439,4.36555257 L12.0713501,4.22655814 C12.6117222,3.22617674 13.6155362,2 15.2890245,2 C15.962792,2 16.6063269,2.27263256 17.078885,2.75373023 C17.550978,3.2344 17.8139548,3.88369302 17.8139548,4.55813953 C17.8139548,4.96550523 17.7180166,5.36369453 17.5380085,5.72109403 L19.8383269,5.72092896 C20.0778617,5.72092896 20.2978617,5.72092896 20.4817687,5.73592558 C20.6800013,5.75212093 20.8969315,5.7892 21.1111641,5.89836279 C21.4174896,6.05443721 21.6665129,6.30347907 21.8226059,6.60978605 C21.9317222,6.82402791 21.9688385,7.04093023 21.9850245,7.2391907 C22,7.42307907 22,7.64306047 22,7.88257674 L22,9.60580465 C22,9.84532093 22,10.065293 21.9850245,10.2492093 C21.9688385,10.4474419 21.9317222,10.6643721 21.8226059,10.8786047 C21.6665129,11.1849302 21.4174896,11.4339535 21.1111641,11.5900465 C20.8969315,11.6991628 20.6800013,11.7362791 20.4817687,11.7524651 C20.3784595,11.7608783 20.2637608,11.7645653 20.1406078,11.7661812 L20.1395362,18.3539535 C20.1395362,18.8507907 20.1395362,19.2654884 20.1119083,19.6043721 C20.082978,19.9577674 20.0205594,20.2894884 19.8607455,20.6032558 C19.6154431,21.0845581 19.2240943,21.475907 18.742792,21.7212093 C18.4290245,21.8810233 18.0973036,21.9434419 17.7439083,21.9723721 C17.4050245,22 16.9903269,22 16.4933966,22 L7.50655942,22 Z M5.27884779,19.4906977 C5.30067104,19.7577674 5.33962918,19.8854884 5.38255011,19.9697674 C5.49402918,20.1885581 5.67191755,20.3664186 5.89070825,20.4779535 C5.97495011,20.5208372 6.10265244,20.559814 6.36975011,20.5815814 C6.56634812,20.5976611 6.80486829,20.6025401 7.11917394,20.6040155 L11.302,20.604 L11.302,11.767 L5.255,11.767 L5.25591069,18.5433331 C5.25641741,18.9584832 5.25956805,19.2547641 5.27884779,19.4906977 Z M18.744,11.767 L12.697,11.767 L12.697,20.604 L16.8808095,20.6040155 C17.1951033,20.6025401 17.4336225,20.5976611 17.6302338,20.5815814 C17.8973036,20.559814 18.0250245,20.5208372 18.1093036,20.4779535 C18.3280943,20.3664186 18.5059548,20.1885581 18.6174896,19.9697674 C18.6603734,19.8854884 18.6993501,19.7577674 18.7211176,19.4906977 C18.7404132,19.2547641 18.7435798,18.9584832 18.7440908,18.5433331 L18.744,11.767 Z M11.302,7.116 L4.03549895,7.11641466 C3.85090955,7.11686921 3.72798639,7.1187907 3.63188965,7.12664186 C3.55857802,7.13262326 3.52775941,7.14053023 3.51949895,7.14309767 C3.47798267,7.16497674 3.44404779,7.19891163 3.42216872,7.24042791 C3.41960128,7.24868837 3.4116943,7.27950698 3.4057129,7.3528186 C3.39589895,7.47293953 3.39535011,7.63497674 3.39535011,7.90697674 L3.3954857,9.73194515 C3.39594025,9.91653693 3.39786174,10.039466 3.4057129,10.1355628 C3.4116943,10.2088372 3.41960128,10.2397209 3.42216872,10.247907 C3.44404779,10.2894884 3.47797337,10.3234419 3.51949895,10.3453023 C3.52775941,10.347814 3.55856872,10.3557209 3.63188965,10.3617674 C3.75201058,10.3715349 3.91404779,10.372093 4.18604779,10.372093 L11.302,10.372 L11.302,7.116 Z M19.9645043,7.11641466 L12.697,7.116 L12.697,10.372 L19.8139548,10.372093 C20.0315548,10.372093 20.1787845,10.3717358 20.2904601,10.366592 L20.3680943,10.3617674 C20.4413966,10.3557209 20.4722803,10.347814 20.4804664,10.3453023 C20.5220478,10.3234419 20.5560013,10.2894884 20.5778617,10.247907 C20.5803734,10.2397209 20.5882803,10.2088372 20.5943269,10.1355628 C20.6040943,10.0154419 20.6046524,9.85339535 20.6046524,9.58139535 L20.6045163,7.75642791 C20.6040608,7.57183851 20.6021408,7.44891535 20.5943269,7.3528186 C20.5882803,7.27949767 20.5803734,7.24868837 20.5778617,7.24042791 C20.5560013,7.19890233 20.5220478,7.16497674 20.4804664,7.14309767 C20.4722803,7.14053023 20.4413966,7.13262326 20.3680943,7.12664186 C20.2480013,7.11682791 20.0859548,7.11627907 19.8139548,7.11627907 Z M8.71096872,3.39534884 C8.41548035,3.39534884 8.12950825,3.51474419 7.91666174,3.73146047 C7.70340593,3.94859535 7.58139662,4.24573023 7.58139662,4.55813953 C7.58139662,4.87054884 7.70340593,5.16768372 7.91666174,5.3848186 C8.12950825,5.60153488 8.41548035,5.72093023 8.71096872,5.72093023 L11.0705129,5.72093023 C10.9770245,5.4639814 10.8551641,5.17528372 10.7009315,4.88972093 C10.2363734,4.02963721 9.59562918,3.39534884 8.71096872,3.39534884 Z M15.2890245,3.39534884 C14.4043734,3.39534884 13.7636292,4.02963721 13.299071,4.88972093 C13.1448385,5.17528372 13.022978,5.4639814 12.9294896,5.72093023 L15.2890245,5.72093023 C15.5845594,5.72093023 15.8705129,5.60153488 16.0833501,5.3848186 C16.2966524,5.16768372 16.4186059,4.87054884 16.4186059,4.55813953 C16.4186059,4.24573023 16.2966524,3.94859535 16.0833501,3.73146047 C15.8705129,3.51474419 15.5845594,3.39534884 15.2890245,3.39534884 Z" id="Combined-Shape" fill="#FFFFFF"></path>
    </g>
</svg>