<?xml version="1.0" encoding="UTF-8"?>
<svg width="24px" height="24px" viewBox="0 0 24 24" version="1.1" xmlns="http://www.w3.org/2000/svg" xmlns:xlink="http://www.w3.org/1999/xlink">
    <title>UI Icons/NavIcons/SVG /photo</title>
    <g id="UI-Icons/NavIcons/photo" stroke="none" stroke-width="1" fill="none" fill-rule="evenodd">
        <path d="M18,2 C20.209139,2 22,3.790861 22,6 L22,14 C22,16.209139 20.209139,18 18,18 L6,18 C3.790861,18 2,16.209139 2,14 L2,6 C2,3.790861 3.790861,2 6,2 L18,2 Z M18,3.5 L6,3.5 C4.6745166,3.5 3.58996133,4.53153594 3.50531768,5.83562431 L3.5,6 L3.5,14 C3.5,15.3254834 4.53153594,16.4100387 5.83562431,16.4946823 L6,16.5 L18,16.5 C19.3254834,16.5 20.4100387,15.4684641 20.4946823,14.1643757 L20.5,14 L20.5,6 C20.5,4.6745166 19.4684641,3.58996133 18.1643757,3.50531768 L18,3.5 Z M14.2723017,7.11666241 C14.5342711,6.8765238 14.9495776,6.93126764 15.1403721,7.23108755 L19.1396798,13.5157139 C19.3817197,13.8960624 19.1085016,14.3937765 18.657671,14.3937765 L7.80240723,14.3937765 C7.28134949,14.3937765 7.03224583,13.7533803 7.4163457,13.4012888 Z M14.541812,8.4188108 L9.27072448,13.2511171 L17.6172796,13.2511171 L14.541812,8.4188108 Z M7.26256139,4.904 C8.59149657,4.904 9.66881139,5.98131482 9.66881139,7.31025 C9.66881139,8.63918518 8.59149657,9.7165 7.26256139,9.7165 C5.93362621,9.7165 4.85631139,8.63918518 4.85631139,7.31025 C4.85631139,5.98131482 5.93362621,4.904 7.26256139,4.904 Z M7.26256139,6.279 C6.69301774,6.279 6.23131139,6.74070635 6.23131139,7.31025 C6.23131139,7.87979365 6.69301774,8.3415 7.26256139,8.3415 C7.83210503,8.3415 8.29381139,7.87979365 8.29381139,7.31025 C8.29381139,6.74070635 7.83210503,6.279 7.26256139,6.279 Z M18.8563114,19.904 C19.2705249,19.904 19.6063114,20.2397864 19.6063114,20.654 C19.6063114,21.0336958 19.3241575,21.347491 18.9580819,21.3971534 L18.8563114,21.404 L4.85631139,21.404 C4.44209782,21.404 4.10631139,21.0682136 4.10631139,20.654 C4.10631139,20.2743042 4.38846527,19.960509 4.75454083,19.9108466 L4.85631139,19.904 L18.8563114,19.904 Z" id="Combined-Shape" fill="#95A1AC"></path>
    </g>
</svg>