<?xml version="1.0" encoding="UTF-8"?>
<svg width="24px" height="24px" viewBox="0 0 24 24" version="1.1" xmlns="http://www.w3.org/2000/svg" xmlns:xlink="http://www.w3.org/1999/xlink">
    <title>UI Icons/newNav/preview_v2</title>
    <g id="UI-Icons/newNav/preview" stroke="none" stroke-width="1" fill="none" fill-rule="evenodd">
        <path d="M12.001352,5 C17.0261874,5 20.6753644,9.59840851 21.8209886,11.2431976 C22.0606653,11.5894429 22.0595772,12.0482635 21.8182609,12.393368 L21.5541273,12.759097 C20.167871,14.6290952 16.6542838,18.6383841 12.001352,18.6383841 C6.97060676,18.6383841 3.31824749,14.0290649 2.1789878,12.3897311 C1.94133823,12.0459706 1.94025346,11.5912704 2.17626012,11.2463799 L2.42899576,10.8895632 C3.78575123,9.02413328 7.26172696,5 12.001352,5 Z M12.001352,6.5 C8.81292071,6.5 5.95808769,8.64752119 3.81912389,11.5273302 L3.609,11.815 C5.72587647,14.7497437 8.55649072,16.9942884 11.6965255,17.1317108 L12.001352,17.1383841 C15.1289474,17.1383841 17.9950721,14.9867916 20.1756171,12.1010965 L20.387,11.814 L20.1800656,11.5330069 C18.0858709,8.73977422 15.3415736,6.6392643 12.3058795,6.50665412 L12.001352,6.5 Z M12.001352,7.72767683 C14.2610335,7.72767683 16.0928673,9.55951059 16.0928673,11.8191921 C16.0928673,14.0788735 14.2610335,15.9107073 12.001352,15.9107073 C9.74167058,15.9107073 7.90983681,14.0788735 7.90983681,11.8191921 C7.90983681,9.55951059 9.74167058,7.72767683 12.001352,7.72767683 Z M12.001352,9.22767683 C10.5700977,9.22767683 9.40983681,10.3879377 9.40983681,11.8191921 C9.40983681,13.2504464 10.5700977,14.4107073 12.001352,14.4107073 C13.4326064,14.4107073 14.5928673,13.2504464 14.5928673,11.8191921 C14.5928673,10.3879377 13.4326064,9.22767683 12.001352,9.22767683 Z" id="Shape" fill="#FFFFFF"></path>
    </g>
</svg>