<?xml version="1.0" encoding="UTF-8"?>
<svg width="24px" height="24px" viewBox="0 0 24 24" version="1.1" xmlns="http://www.w3.org/2000/svg" xmlns:xlink="http://www.w3.org/1999/xlink">
    <title>UI Icons/SVG /qrCode</title>
    <g id="UI-Icons/qrCode" stroke="none" stroke-width="1" fill="none" fill-rule="evenodd">
        <path d="M9.5,2 L9.5,9.5 L2,9.5 L2,2 L9.5,2 Z M8.25,3.25 L3.25,3.25 L3.25,8.25 L8.25,8.25 L8.25,3.25 Z M7,4.5 L7,7 L4.5,7 L4.5,4.5 L7,4.5 Z M9.5,14.5 L9.5,22 L2,22 L2,14.5 L9.5,14.5 Z M8.25,15.75 L3.25,15.75 L3.25,20.75 L8.25,20.75 L8.25,15.75 Z M7,17 L7,19.5 L4.5,19.5 L4.5,17 L7,17 Z M20.75,10.125 L20.75,11.375 L22,11.375 L22,12.625 L19.5,12.625 L19.5,15.125 L22,15.125 L22,16.375 L13.875,16.375 L13.875,15.125 L18.25,15.125 L18.25,11.375 L19.5,11.375 L19.5,10.125 L20.75,10.125 Z M13.875,2.625 L13.875,6.375 L12,6.375 L12,8.25 L13.25,8.25 L13.25,9.5 L12,9.5 L12,11.375 L16.375,11.375 L16.375,13.875 L15.125,13.875 L15.125,12.625 L13.25,12.625 L13.25,14.5 L10.75,14.5 L10.75,5.125 L12.625,5.125 L12.625,2.625 L13.875,2.625 Z M22,2 L22,9.5 L14.5,9.5 L14.5,2 L22,2 Z M20.75,3.25 L15.75,3.25 L15.75,8.25 L20.75,8.25 L20.75,3.25 Z M19.5,4.5 L19.5,7 L17,7 L17,4.5 L19.5,4.5 Z M2.625,10.125 L2.625,12.625 L6.375,12.625 L6.375,13.875 L7.625,13.875 L7.625,12.625 L8.875,12.625 L8.875,11.375 L3.875,11.375 L3.875,10.125 L2.625,10.125 Z M20.75,17.625 L19.5,17.625 L19.5,18.875 L18.25,18.875 L18.25,20.75 L16.375,20.75 L16.375,18.25 L12.625,18.25 L12.625,17 L11.375,17 L11.375,22 L12.625,22 L12.625,19.5 L15.125,19.5 L15.125,22 L22,22 L22,20.75 L20.75,20.75 L20.75,17.625 Z" id="Combined-Shape" fill="#95A1AC"></path>
    </g>
</svg>