<?xml version="1.0" encoding="UTF-8"?>
<svg width="24px" height="24px" viewBox="0 0 24 24" version="1.1" xmlns="http://www.w3.org/2000/svg" xmlns:xlink="http://www.w3.org/1999/xlink">
    <title>UI Icons/SVG /random_icon</title>
    <g id="UI-Icons/random_icon" stroke="none" stroke-width="1" fill="none" fill-rule="evenodd">
        <path d="M12.0833333,9.63888889 L16.75,9.63888889 C16.9907407,9.63888889 17.1898148,9.56018519 17.3472222,9.40277778 C17.5046296,9.24537037 17.5833333,9.0462963 17.5833333,8.80555556 C17.5833333,8.56481481 17.5046296,8.36574074 17.3472222,8.20833333 C17.1898148,8.05092593 16.9907407,7.97222222 16.75,7.97222222 L12.0833333,7.97222222 C11.8425926,7.97222222 11.6435185,8.05092593 11.4861111,8.20833333 C11.3287037,8.36574074 11.25,8.56481481 11.25,8.80555556 C11.25,9.0462963 11.3287037,9.24537037 11.4861111,9.40277778 C11.6435185,9.56018519 11.8425926,9.63888889 12.0833333,9.63888889 Z M12.0833333,16.0277778 L16.75,16.0277778 C16.9907407,16.0277778 17.1898148,15.9490741 17.3472222,15.7916667 C17.5046296,15.6342593 17.5833333,15.4351852 17.5833333,15.1944444 C17.5833333,14.9537037 17.5046296,14.7546296 17.3472222,14.5972222 C17.1898148,14.4398148 16.9907407,14.3611111 16.75,14.3611111 L12.0833333,14.3611111 C11.8425926,14.3611111 11.6435185,14.4398148 11.4861111,14.5972222 C11.3287037,14.7546296 11.25,14.9537037 11.25,15.1944444 C11.25,15.4351852 11.3287037,15.6342593 11.4861111,15.7916667 C11.6435185,15.9490741 11.8425926,16.0277778 12.0833333,16.0277778 Z M7.72222222,10.25 L8.94444444,10.25 C9.18518519,10.25 9.38425926,10.1712963 9.54166667,10.0138889 C9.69907407,9.85648148 9.77777778,9.65740741 9.77777778,9.41666667 L9.77777778,8.19444444 C9.77777778,7.9537037 9.69907407,7.75462963 9.54166667,7.59722222 C9.38425926,7.43981481 9.18518519,7.36111111 8.94444444,7.36111111 L7.72222222,7.36111111 C7.48148148,7.36111111 7.28240741,7.43981481 7.125,7.59722222 C6.96759259,7.75462963 6.88888889,7.9537037 6.88888889,8.19444444 L6.88888889,9.41666667 C6.88888889,9.65740741 6.96759259,9.85648148 7.125,10.0138889 C7.28240741,10.1712963 7.48148148,10.25 7.72222222,10.25 L7.72222222,10.25 Z M7.72222222,16.6388889 L8.94444444,16.6388889 C9.18518519,16.6388889 9.38425926,16.5601852 9.54166667,16.4027778 C9.69907407,16.2453704 9.77777778,16.0462963 9.77777778,15.8055556 L9.77777778,14.5833333 C9.77777778,14.3425926 9.69907407,14.1435185 9.54166667,13.9861111 C9.38425926,13.8287037 9.18518519,13.75 8.94444444,13.75 L7.72222222,13.75 C7.48148148,13.75 7.28240741,13.8287037 7.125,13.9861111 C6.96759259,14.1435185 6.88888889,14.3425926 6.88888889,14.5833333 L6.88888889,15.8055556 C6.88888889,16.0462963 6.96759259,16.2453704 7.125,16.4027778 C7.28240741,16.5601852 7.48148148,16.6388889 7.72222222,16.6388889 L7.72222222,16.6388889 Z M3.66666667,22 C3.22222222,22 2.83333333,21.8333333 2.5,21.5 C2.16666667,21.1666667 2,20.7777778 2,20.3333333 L2,3.66666667 C2,3.22222222 2.16666667,2.83333333 2.5,2.5 C2.83333333,2.16666667 3.22222222,2 3.66666667,2 L20.3333333,2 C20.7777778,2 21.1666667,2.16666667 21.5,2.5 C21.8333333,2.83333333 22,3.22222222 22,3.66666667 L22,20.3333333 C22,20.7777778 21.8333333,21.1666667 21.5,21.5 C21.1666667,21.8333333 20.7777778,22 20.3333333,22 L3.66666667,22 Z M3.66666667,20.3333333 L20.3333333,20.3333333 L20.3333333,3.66666667 L3.66666667,3.66666667 L3.66666667,20.3333333 Z M3.66666667,20.3333333 L3.66666667,3.66666667 L3.66666667,20.3333333 Z" id="Shape" fill="#95A1AC"></path>
    </g>
</svg>