<?xml version="1.0" encoding="UTF-8"?>
<svg width="24px" height="24px" viewBox="0 0 24 24" version="1.1" xmlns="http://www.w3.org/2000/svg" xmlns:xlink="http://www.w3.org/1999/xlink">
    <title>UI Icons/UI InspectorPanel/SVG /refresh</title>
    <g id="UI-Icons/UI-InspectorPanel/refresh" stroke="none" stroke-width="1" fill="none" fill-rule="evenodd">
        <path d="M4.53977557,2.84241812 C4.91633248,2.84323001 5.2274754,3.12141097 5.28026381,3.48318667 L5.28815675,3.59403345 L5.28117272,6.64412787 C8.33240396,2.97343781 13.7616085,2.31205074 17.6141681,5.21516267 C21.5836205,8.20635958 22.3769305,13.8495248 19.3855525,17.8192175 C16.3945334,21.7884338 10.7507141,22.5816209 6.78149769,19.5906019 C6.45069203,19.3413219 6.38460238,18.8710696 6.63388233,18.540264 C6.88316227,18.2094583 7.35341457,18.1433686 7.68422023,18.3926486 C10.9918253,20.8851078 15.69514,20.2241 18.1875992,16.9164949 C20.6804022,13.6084336 20.0193066,8.90576804 16.7114456,6.41311594 C13.4481245,3.95402714 8.82725986,4.56398626 6.30995579,7.75708259 L9.4452767,7.75115339 C9.82183361,7.7503415 10.1341732,8.02717816 10.1885212,8.38872286 L10.196892,8.49953458 C10.1977039,8.87609149 9.92086726,9.18843108 9.55932256,9.24277904 L9.44851084,9.25114991 L4.52916897,9.26175651 C4.15146335,9.26257088 3.83858519,8.98410362 3.78549282,8.62131308 L3.77755364,8.51014118 L3.78816024,3.5907993 C3.78905333,3.1765867 4.12556297,2.84152503 4.53977557,2.84241812 Z" id="Combined-Shape" fill="#95A1AC"></path>
    </g>
</svg>