<?xml version="1.0" encoding="UTF-8"?>
<svg width="24px" height="24px" viewBox="0 0 24 24" version="1.1" xmlns="http://www.w3.org/2000/svg" xmlns:xlink="http://www.w3.org/1999/xlink">
    <title>UI Icons/newNav/SVG /search</title>
    <defs>
        <path d="M16.7006249,15.2824458 C17.8301854,13.842832 18.4486411,12.0821317 18.4486411,10.2234224 C18.4486411,2.89464763 9.55369436,-0.733862176 4.41075525,4.4089964 C1.19699211,7.62255821 1.19590491,12.824045 4.41055391,16.0380095 C7.39387093,19.0208836 12.0623076,19.2268879 15.2848087,16.6986244 L19.8760977,21.2895647 C20.2671054,21.6805426 20.901022,21.6805441 21.2920315,21.289568 C21.6830091,20.8986237 21.6830361,20.2647508 21.2920919,19.8737732 C21.2920782,19.8737596 21.2920646,19.8737459 21.2920509,19.8737323 L16.7006249,15.2824458 L16.7006249,15.2824458 Z M10.2255034,16.4439781 C4.66286484,16.4439781 1.94470383,9.70651924 5.82693389,5.82493344 C9.74822262,1.90328231 16.4459785,4.72436493 16.4459785,10.2233822 C16.4459785,13.6601824 13.6641156,16.4439781 10.2255034,16.4439781 Z" id="path-1"></path>
    </defs>
    <g id="UI-Icons/newNav/search" stroke="none" stroke-width="1" fill="none" fill-rule="evenodd">
        <mask id="mask-2" fill="white">
            <use xlink:href="#path-1"></use>
        </mask>
        <use id="Shape" fill="#FFFFFF" xlink:href="#path-1"></use>
    </g>
</svg>