<?xml version="1.0" encoding="UTF-8"?>
<svg width="24px" height="24px" viewBox="0 0 24 24" version="1.1" xmlns="http://www.w3.org/2000/svg" xmlns:xlink="http://www.w3.org/1999/xlink">
    <title>UI Icons /SVG /search_CommandK</title>
    <g id="UI-Icons-/search_CommandK" stroke="none" stroke-width="1" fill="none" fill-rule="evenodd">
        <path d="M14.5,7.5 C14.9142136,7.5 15.25,7.83578644 15.25,8.25 C15.25,8.66421356 14.9142136,9 14.5,9 L8.5,9 C8.08578644,9 7.75,8.66421356 7.75,8.25 C7.75,7.83578644 8.08578644,7.5 8.5,7.5 L14.5,7.5 Z M20.28025,20.78025 C19.9873751,21.0730365 19.5126249,21.0730365 19.21975,20.78025 L17.4145,18.975 C16.8798834,19.3162196 16.2592262,19.4983068 15.625,19.5 C14.2599399,19.5 13.0292925,18.6777076 12.5069066,17.4165566 C11.9845207,16.1554055 12.2732714,14.7037579 13.2385146,13.7385146 C14.2037579,12.7732714 15.6554055,12.4845207 16.9165566,13.0069066 C18.1777076,13.5292925 19,14.7599399 19,16.125 C18.9983068,16.7592262 18.8162196,17.3798834 18.475,17.9145 L20.28025,19.71975 C20.5730365,20.0126249 20.5730365,20.4873751 20.28025,20.78025 Z M15.625,18 C16.6605339,18 17.5,17.1605339 17.5,16.125 C17.5,15.0894661 16.6605339,14.25 15.625,14.25 C14.5894661,14.25 13.75,15.0894661 13.75,16.125 C13.75,17.1605339 14.5894661,18 15.625,18 Z M12.25,19.5 L7.75,19.5 C6.50735931,19.5 5.5,18.4926407 5.5,17.25 L5.5,6.75 C5.5,5.50735931 6.50735931,4.5 7.75,4.5 L16.75,4.5 C17.1642136,4.5 17.5,4.83578644 17.5,5.25 L17.5,11.25 C17.5,11.6642136 17.8357864,12 18.25,12 C18.6642136,12 19,11.6642136 19,11.25 L19,5.25 C19,4.00735931 17.9926407,3 16.75,3 L7.75,3 C5.67996014,3.00247959 4.00247959,4.67996014 4,6.75 L4,17.25 C4.00247959,19.3200399 5.67996014,20.9975204 7.75,21 L12.25,21 C12.6642136,21 13,20.6642136 13,20.25 C13,19.8357864 12.6642136,19.5 12.25,19.5 Z" id="Shape" fill="#95A1AC"></path>
    </g>
</svg>