<?xml version="1.0" encoding="UTF-8"?>
<svg width="24px" height="24px" viewBox="0 0 24 24" version="1.1" xmlns="http://www.w3.org/2000/svg" xmlns:xlink="http://www.w3.org/1999/xlink">
    <title>UI Icons/newNav/SVG /share_1</title>
    <g id="UI-Icons/newNav/share_1" stroke="none" stroke-width="1" fill="none" fill-rule="evenodd">
        <path d="M11.3227234,3 C11.6822411,3 11.9736878,3.29144673 11.9736878,3.65096448 C11.9736878,3.98052242 11.7287916,4.25288179 11.4110554,4.29598642 L11.3227234,4.30192896 L5.38686976,4.30192896 C4.82512327,4.30192896 4.3630902,4.72885287 4.30753039,5.27594087 L4.30192896,5.38686976 L4.30192896,18.5209428 C4.30192896,19.0826893 4.72885287,19.5447224 5.27594087,19.6002822 L5.38686976,19.6058836 L18.6131302,19.6058836 C19.1748767,19.6058836 19.6369098,19.1789597 19.6924696,18.6318717 L19.698071,18.5209428 L19.698071,12.6792158 C19.698071,12.319698 19.9895178,12.0282513 20.3490355,12.0282513 C20.6785935,12.0282513 20.9509528,12.2731475 20.9940575,12.5908837 L21,12.6792158 L21,18.5209428 C21,19.7903512 20.0090545,20.8283118 18.7585317,20.9034565 L18.6131302,20.9078126 L5.38686976,20.9078126 C4.11746139,20.9078126 3.07950075,19.916867 3.00435608,18.6663442 L3,18.5209428 L3,5.38686976 C3,4.11746139 3.99094552,3.07950075 5.24146831,3.00435608 L5.38686976,3 L11.3227234,3 Z M20.2745843,3.34262046 C20.368861,3.33383065 20.4622046,3.36714285 20.5296149,3.43363508 C20.5966817,3.50068316 20.6300933,3.59430547 20.6206295,3.68866562 L19.9885835,10.0091252 C19.9760089,10.1308785 19.894258,10.2344215 19.7787443,10.2749006 C19.7447205,10.2873076 19.7087758,10.2936193 19.6725605,10.2935459 C19.5887529,10.293528 19.5083843,10.2602211 19.4491323,10.2009512 L17.2752102,8.02702909 L12.4422708,12.8599685 C12.2042349,13.1064253 11.8517396,13.2052672 11.5202668,13.1185042 C11.188794,13.0317413 10.9299285,12.7728758 10.8431656,12.441403 C10.7564026,12.1099302 10.8552445,11.757435 11.1017013,11.519399 L15.9346407,6.68645961 L13.7622988,4.51190548 C13.6763947,4.42554112 13.6477755,4.29749261 13.688737,4.18277351 C13.7296985,4.06805441 13.8329473,3.98709052 13.9541247,3.97466642 Z" id="Combined-Shape" fill="#FFFFFF"></path>
    </g>
</svg>