<?xml version="1.0" encoding="UTF-8"?>
<svg width="24px" height="24px" viewBox="0 0 24 24" version="1.1" xmlns="http://www.w3.org/2000/svg" xmlns:xlink="http://www.w3.org/1999/xlink">
    <title>UI Icons/SVG /Shield Fail</title>
    <g id="UI-Icons/Shield-Fail" stroke="none" stroke-width="1" fill="none" fill-rule="evenodd">
        <g id="Shield-Fail" transform="translate(3.5, 2)" fill="#95A1AC" fill-rule="nonzero">
            <path d="M7.8853272,0.101689721 C8.28370932,-0.0339509019 8.71799521,-0.0339509019 9.11562899,0.102015984 L15.7574326,2.36976933 C16.502035,2.62306419 17,3.30544617 17,4.07197669 L17,10.7136378 C17,12.7332017 16.2482733,14.6794864 14.8940438,16.1968635 C14.2538544,16.9133997 13.4399586,17.5102769 12.4567685,18.0268945 L8.86581623,19.911624 C8.64142213,20.0293983 8.37107232,20.0294623 8.14661923,19.9117941 L4.54964886,18.0261036 C3.56273616,17.5087901 2.74862594,16.9128221 2.10912161,16.1960369 C0.752904265,14.6789317 0,12.7314745 0,10.7097154 L0,4.07197669 C0,3.30544617 0.497965037,2.62306419 1.24174152,2.3700508 Z M8.61305778,1.48951163 C8.54037572,1.46465873 8.45993827,1.46465873 8.38661279,1.48962419 L1.74282798,3.75805304 C1.6054962,3.80476983 1.51389219,3.93029858 1.51389219,4.07197669 L1.51389219,10.7097154 C1.51389219,12.3761237 2.13446398,13.9812905 3.25256087,15.2320276 C3.7611244,15.8020481 4.43180233,16.2930167 5.26848407,16.7315831 L8.50494538,18.4282808 L11.7369314,16.7328997 C12.4660329,16.349793 13.0709826,15.9250964 13.5519899,15.4430604 L13.7505483,15.2329171 C14.8664386,13.9825923 15.4861078,12.3782158 15.4861078,10.7136378 L15.4861078,4.07197669 C15.4861078,3.93029858 15.3945038,3.80476983 15.2563461,3.75777157 Z M7.05394194,7.34098383 L7.13883944,7.41219381 L8.5,8.735 L9.86136242,7.41219381 C10.1569683,7.12498024 10.63624,7.12498024 10.9318458,7.41219381 C11.2005784,7.67329705 11.2250087,8.08188099 11.0051366,8.3697989 L10.9318458,8.45228615 L9.57,9.775 L10.931644,11.0973204 C11.2272498,11.384534 11.2272498,11.8501992 10.931644,12.1374128 C10.6629114,12.398516 10.2423888,12.4222527 9.94605806,12.2086227 L9.86116056,12.1374128 L8.5,10.815 L7.13904129,12.1374128 C6.84343545,12.4246263 6.36416369,12.4246263 6.06855786,12.1374128 C5.79982528,11.8763095 5.77539504,11.4677256 5.99526715,11.1798077 L6.06855786,11.0973204 L7.429,9.775 L6.068356,8.45228615 C5.77275017,8.16507258 5.77275017,7.69940738 6.068356,7.41219381 C6.33708858,7.15109056 6.75761118,7.1273539 7.05394194,7.34098383 Z"></path>
        </g>
    </g>
</svg>