<?xml version="1.0" encoding="UTF-8"?>
<svg width="24px" height="24px" viewBox="0 0 24 24" version="1.1" xmlns="http://www.w3.org/2000/svg" xmlns:xlink="http://www.w3.org/1999/xlink">
    <title>UI Icons/SVG /Shield Done</title>
    <g id="UI-Icons/Shield-Done" stroke="none" stroke-width="1" fill="none" fill-rule="evenodd">
        <g id="Shield-Done" transform="translate(3.5, 2)" fill="#95A1AC" fill-rule="nonzero">
            <path d="M7.8853272,0.101689721 C8.28370932,-0.0339509019 8.71799521,-0.0339509019 9.11562899,0.102015984 L15.7574326,2.36976933 C16.502035,2.62306419 17,3.30544617 17,4.07197669 L17,10.7136378 C17,12.7341774 16.2485985,14.6803711 14.8944453,16.1964138 C14.2555493,16.9126727 13.441476,17.5094796 12.4567685,18.0268945 L8.86581623,19.911624 C8.64142213,20.0293983 8.37107232,20.0294623 8.14661923,19.9117941 L4.54931034,18.0259261 C3.56192402,17.5077347 2.74795438,16.9120694 2.10912161,16.1960369 C0.752904265,14.6789317 0,12.7314745 0,10.7097154 L0,4.07197669 C0,3.30544617 0.497965037,2.62306419 1.24174152,2.3700508 Z M8.61305778,1.48951163 C8.54037572,1.46465873 8.45993827,1.46465873 8.38661279,1.48962419 L1.74282798,3.75805304 C1.6054962,3.80476983 1.51389219,3.93029858 1.51389219,4.07197669 L1.51389219,10.7097154 C1.51389219,12.3761237 2.13446398,13.9812905 3.25256087,15.2320276 C3.76044455,15.8012861 4.43129755,16.2922182 5.26848407,16.7315831 L8.50504631,18.4282808 L11.7369314,16.7328997 C12.4671792,16.3491907 13.0722473,15.9245635 13.5525459,15.4427372 L13.7507504,15.2326907 C14.8668016,13.9832149 15.4861078,12.3791593 15.4861078,10.7136378 L15.4861078,4.07197669 C15.4861078,3.93029858 15.3945038,3.80476983 15.2563461,3.75777157 Z M12.2552904,7.2399009 C12.524023,7.50100414 12.5484532,7.90958808 12.3285811,8.19750599 L12.2552904,8.27999324 L8.32118923,12.102405 C8.05240645,12.3635571 7.63178915,12.3872473 7.33545879,12.1735112 L7.25056441,12.1022676 L5.34104173,10.2459758 C5.045514,9.95868636 5.04564063,9.49302117 5.34132455,9.20588349 C5.61012812,8.94484924 6.03065716,8.92122053 6.32692982,9.13492652 L6.41180795,9.20615829 L7.78544289,10.5422275 L11.184807,7.2399009 C11.4804128,6.95268733 11.9596846,6.95268733 12.2552904,7.2399009 Z"></path>
        </g>
    </g>
</svg>