<?xml version="1.0" encoding="UTF-8"?>
<svg width="24px" height="24px" viewBox="0 0 24 24" version="1.1" xmlns="http://www.w3.org/2000/svg" xmlns:xlink="http://www.w3.org/1999/xlink">
    <title>UI Icons/SVG /Show</title>
    <g id="UI-Icons/Show" stroke="none" stroke-width="1" fill="none" fill-rule="evenodd">
        <g id="Show" transform="translate(2, 4)" fill="#95A1AC" fill-rule="nonzero">
            <path d="M10.002,0 L10.2882066,0.0048188795 C14.2191625,0.135465638 17.7497293,2.90091312 19.7968383,7.38563367 L19.9361067,7.69904098 C20.0202495,7.88839471 20.0213285,8.10398931 19.9390851,8.29416505 C17.8707368,13.0769179 14.1389225,16 9.998,16 L9.71179343,15.9951811 C5.77544281,15.8643551 2.24638094,13.0931368 0.204238802,8.61679126 L0.0609148533,8.29416505 C-0.0203049511,8.10635613 -0.0203049511,7.89364387 0.0609148533,7.70583495 C2.12926315,2.92308213 5.86107753,0 10.002,0 Z M10.009,1.48941878 C6.69147997,1.49026826 3.61117475,3.7731456 1.72657686,7.66619076 L1.57,7.99910581 L1.73914461,8.35969784 C3.52637364,12.0344011 6.38271435,14.2720617 9.48060738,14.4914924 L9.74693118,14.5053518 L10.004,14.5087928 L10.2588872,14.5049566 C13.5569368,14.3852732 16.5987077,12.0004556 18.4197057,8.02313057 L18.429,7.99910581 C16.6525484,4.10552965 13.712159,1.73483647 10.5149497,1.50845078 L10.2479405,1.4945624 Z M9.9995,4.11346249 C12.1600223,4.11346249 13.9115,5.85324898 13.9115,8.00019871 C13.9115,10.146345 12.159831,11.8859414 9.9995,11.8859414 C7.83928644,11.8859414 6.0885,10.1464616 6.0885,8.00019871 C6.0885,5.85313237 7.83909517,4.11346249 9.9995,4.11346249 Z M9.9995,5.60377546 C8.66759567,5.60377546 7.5885,6.6761366 7.5885,8.00019871 C7.5885,9.32338444 8.66771356,10.3956284 9.9995,10.3956284 C11.3315506,10.3956284 12.4115,9.32312207 12.4115,8.00019871 C12.4115,6.676399 11.3316685,5.60377546 9.9995,5.60377546 Z"></path>
        </g>
    </g>
</svg>