<?xml version="1.0" encoding="UTF-8"?>
<svg width="24px" height="24px" viewBox="0 0 24 24" version="1.1" xmlns="http://www.w3.org/2000/svg" xmlns:xlink="http://www.w3.org/1999/xlink">
    <title>UI Icons/sideBar Responsive</title>
    <g id="UI-Icons/sideBar-Responsive" stroke="none" stroke-width="1" fill="none" fill-rule="evenodd">
        <path d="M5.63636364,3 C6.64051773,3 7.45454545,3.81402773 7.45454545,4.81818182 L7.45454545,19.3636364 C7.45454545,20.3677905 6.64051773,21.1818182 5.63636364,21.1818182 L3.81818182,21.1818182 C2.81402773,21.1818182 2,20.3677905 2,19.3636364 L2,4.81818182 C2,3.81402773 2.81402773,3 3.81818182,3 L5.63636364,3 Z M5.63636364,4.36363636 L3.81818182,4.36363636 C3.5671433,4.36363636 3.36363636,4.5671433 3.36363636,4.81818182 L3.36363636,19.3636364 C3.36363636,19.6146749 3.5671433,19.8181818 3.81818182,19.8181818 L5.63636364,19.8181818 C5.88740216,19.8181818 6.09090909,19.6146749 6.09090909,19.3636364 L6.09090909,4.81818182 C6.09090909,4.5671433 5.88740216,4.36363636 5.63636364,4.36363636 Z M12.9090909,3 C13.913245,3 14.7272727,3.81402773 14.7272727,4.81818182 L14.7272727,19.3636364 C14.7272727,20.3677905 13.913245,21.1818182 12.9090909,21.1818182 L11.0909091,21.1818182 C10.086755,21.1818182 9.27272727,20.3677905 9.27272727,19.3636364 L9.27272727,4.81818182 C9.27272727,3.81402773 10.086755,3 11.0909091,3 L12.9090909,3 Z M12.9090909,4.36363636 L11.0909091,4.36363636 C10.8398706,4.36363636 10.6363636,4.5671433 10.6363636,4.81818182 L10.6363636,19.3636364 C10.6363636,19.6146749 10.8398706,19.8181818 11.0909091,19.8181818 L12.9090909,19.8181818 C13.1601294,19.8181818 13.3636364,19.6146749 13.3636364,19.3636364 L13.3636364,4.81818182 C13.3636364,4.5671433 13.1601294,4.36363636 12.9090909,4.36363636 Z M20.1818182,3 C21.1859723,3 22,3.81402773 22,4.81818182 L22,19.3636364 C22,20.3677905 21.1859723,21.1818182 20.1818182,21.1818182 L18.3636364,21.1818182 C17.3594823,21.1818182 16.5454545,20.3677905 16.5454545,19.3636364 L16.5454545,4.81818182 C16.5454545,3.81402773 17.3594823,3 18.3636364,3 L20.1818182,3 Z M20.1818182,4.36363636 L18.3636364,4.36363636 C18.1125978,4.36363636 17.9090909,4.5671433 17.9090909,4.81818182 L17.9090909,19.3636364 C17.9090909,19.6146749 18.1125978,19.8181818 18.3636364,19.8181818 L20.1818182,19.8181818 C20.4328567,19.8181818 20.6363636,19.6146749 20.6363636,19.3636364 L20.6363636,4.81818182 C20.6363636,4.5671433 20.4328567,4.36363636 20.1818182,4.36363636 Z" id="Combined-Shape" fill="#95A1AC"></path>
    </g>
</svg>