<svg width="32" height="32" viewBox="0 0 32 32" fill="none" xmlns="http://www.w3.org/2000/svg">
<path d="M32 15.7727C32 13.6438 30.2703 11.9141 28.1414 11.9141C27.21 11.9141 26.4116 12.2467 25.7464 12.7789C23.4179 11.3153 20.4241 10.4504 17.2308 10.2509L18.894 4.99514L23.4844 6.05959C23.6175 7.72279 25.0146 9.05335 26.6778 9.05335C28.474 9.05335 29.8711 7.58973 29.8711 5.86C29.8711 4.06375 28.4075 2.66666 26.6778 2.66666C25.4137 2.66666 24.3493 3.39847 23.817 4.39639L18.4948 3.13235C18.0291 2.9993 17.6299 3.26541 17.4304 3.73111L15.368 10.2509C11.9085 10.3174 8.71518 11.2488 6.18711 12.7789C5.52183 12.2467 4.72349 11.9806 3.85863 11.9806C1.72973 11.9806 0 13.7103 0 15.8392C0 17.1698 0.665281 18.3008 1.6632 18.966C1.59667 19.2987 1.59667 19.5648 1.59667 19.8974C1.59667 22.5585 3.12682 25.0201 5.921 26.8163C8.58212 28.5461 12.1081 29.544 15.9002 29.544C19.6258 29.544 23.2183 28.6126 25.8794 26.8163C28.6736 25.0201 30.2037 22.5585 30.2037 19.8974C30.2037 19.6313 30.2037 19.3652 30.1372 19.0326C31.2682 18.3008 32 17.1032 32 15.7727ZM26.6778 4.32986C27.4761 4.32986 28.1414 4.99514 28.1414 5.79348C28.1414 6.59181 27.4761 7.25709 26.6778 7.25709C25.8794 7.25709 25.2141 6.59181 25.2141 5.79348C25.2141 4.99514 25.8794 4.32986 26.6778 4.32986ZM9.11435 18.1012C9.11435 16.9037 10.1123 15.9057 11.3098 15.9057C12.5073 15.9057 13.4387 16.9037 13.4387 18.1012C13.4387 19.2987 12.4407 20.2301 11.3098 20.2301C10.1123 20.2966 9.11435 19.2987 9.11435 18.1012ZM21.289 24.4879C20.158 25.6188 18.4948 26.1511 16.0333 26.1511C13.6383 26.1511 11.9085 25.6188 10.7775 24.4879C10.4449 24.1552 10.4449 23.623 10.7775 23.2238C11.1102 22.8912 11.6424 22.8912 12.0416 23.2238C12.8399 24.0222 14.104 24.3548 16.0333 24.3548C17.9626 24.3548 19.2931 23.9556 20.0249 23.2238C20.3576 22.8912 20.8898 22.8912 21.289 23.2238C21.6216 23.5565 21.6216 24.1552 21.289 24.4879ZM20.7568 20.2966C19.5593 20.2966 18.5613 19.2987 18.5613 18.1677C18.5613 17.0367 19.5593 15.9723 20.7568 15.9723C21.9543 15.9723 22.8857 16.9702 22.8857 18.1677C22.8857 19.3652 21.9543 20.2966 20.7568 20.2966Z" fill="#95A1AC"/>
</svg>
