<?xml version="1.0" encoding="UTF-8"?>
<svg width="24px" height="24px" viewBox="0 0 24 24" version="1.1" xmlns="http://www.w3.org/2000/svg" xmlns:xlink="http://www.w3.org/1999/xlink">
    <title>UI Icons/social - google</title>
    <g id="UI-Icons/social---google" stroke="none" stroke-width="1" fill="none" fill-rule="evenodd">
        <g id="search" fill-rule="nonzero">
            <path d="M5.33333333,14.7803946 L4.49566111,17.9346692 L1.43398843,18 C0.518997679,16.2881712 0,14.3296214 0,12.2483274 C0,10.2357303 0.48525014,8.33781775 1.34538938,6.66666667 L1.34604741,6.66666667 L4.07179578,7.17072858 L5.26583825,9.90362407 C5.01592785,10.6385247 4.87971564,11.4274252 4.87971564,12.2483274 C4.87980964,13.139254 5.03980494,13.992869 5.33333333,14.7803946 Z" id="Path" fill="#FBBB00"></path>
            <path d="M23.785615,10 C23.9265253,10.7092321 24,11.441684 24,12.1902568 C24,13.0296476 23.9076414,13.8484293 23.7316952,14.6382205 C23.134408,17.3258009 21.5737063,19.6725962 19.4116914,21.3333333 L19.4110204,21.3326922 L15.9101177,21.162002 L15.414631,18.2064101 C16.8492323,17.4024672 17.9703801,16.1443427 18.5609573,14.6382205 L12,14.6382205 L12,10 L18.6566709,10 L23.785615,10 L23.785615,10 Z" id="Path" fill="#518EF8"></path>
            <path d="M19.3326801,21.4027672 L19.3333333,21.4034121 C17.286252,23.0279726 14.6858134,24 11.8550542,24 C7.30598977,24 3.35092467,21.4896088 1.33333333,17.795269 L5.20440794,14.6666667 C6.21318028,17.3248038 8.81030594,19.21703 11.8550542,19.21703 C13.1637659,19.21703 14.3898403,18.8677286 15.4419144,18.2579483 L19.3326801,21.4027672 Z" id="Path" fill="#28B446"></path>
            <path d="M19.3333333,2.85343559 L15.5132965,6.14067705 C14.4384462,5.43448369 13.1678796,5.02653188 11.8066636,5.02653188 C8.7330109,5.02653188 6.12131122,7.10633085 5.17538769,10 L1.3339782,6.69436052 L1.33333333,6.69436052 C3.29583909,2.71724185 7.24931675,0 11.8066636,0 C14.6677875,0 17.2911408,1.07124874 19.3333333,2.85343559 Z" id="Path" fill="#F14336"></path>
        </g>
    </g>
</svg>