<svg width="32" height="32" viewBox="0 0 32 32" fill="none" xmlns="http://www.w3.org/2000/svg">
<g clip-path="url(#clip0_1760_8247)">
<path d="M7.14833 31.9644H0.527394V10.6477H7.14833V31.9644ZM3.8343 7.73988C1.71759 7.73988 0 5.98665 0 3.86994C0 1.75324 1.71759 0.0356445 3.8343 0.0356445C5.951 0.0356445 7.6686 1.75324 7.6686 3.86994C7.6686 5.98665 5.951 7.73988 3.8343 7.73988ZM31.9287 31.9644H25.3221V21.5875C25.3221 19.1145 25.2722 15.943 21.8797 15.943C18.4374 15.943 17.91 18.6299 17.91 21.4094V31.9644H11.2962V10.6477H17.6463V13.5555H17.739C18.6227 11.8806 20.7822 10.1131 24.0036 10.1131C30.7029 10.1131 31.9359 14.5247 31.9359 20.2548V31.9644H31.9287Z" fill="#95A1AC"/>
</g>
<defs>
<clipPath id="clip0_1760_8247">
<rect width="32" height="32" fill="white"/>
</clipPath>
</defs>
</svg>
