<svg width="32" height="32" viewBox="0 0 32 32" fill="none" xmlns="http://www.w3.org/2000/svg">
<path d="M28.7106 9.48225C28.7309 9.7665 28.7309 10.0508 28.7309 10.3351C28.7309 19.0051 22.132 28.9949 10.0711 28.9949C6.35531 28.9949 2.90356 27.9188 0 26.0508C0.527938 26.1117 1.0355 26.132 1.58375 26.132C4.64969 26.132 7.47206 25.0965 9.72588 23.33C6.84263 23.2691 4.42637 21.3808 3.59387 18.7818C4 18.8426 4.40606 18.8833 4.8325 18.8833C5.42131 18.8833 6.01019 18.802 6.55838 18.6599C3.55331 18.0508 1.29944 15.4112 1.29944 12.2234V12.1422C2.1725 12.6295 3.18781 12.9341 4.26388 12.9746C2.49738 11.7969 1.34006 9.78681 1.34006 7.51269C1.34006 6.29444 1.66488 5.17769 2.23344 4.20306C5.46187 8.18275 10.3147 10.7817 15.7563 11.066C15.6547 10.5787 15.5938 10.0711 15.5938 9.5635C15.5938 5.94925 18.5177 3.00513 22.1522 3.00513C24.0405 3.00513 25.7461 3.797 26.9441 5.07619C28.4263 4.79194 29.8476 4.24369 31.1065 3.49244C30.6191 5.01531 29.5836 6.2945 28.2232 7.10663C29.5431 6.96456 30.8223 6.599 31.9999 6.09144C31.1066 7.39088 29.9898 8.54819 28.7106 9.48225Z" fill="#95A1AC"/>
</svg>
