<?xml version="1.0" encoding="UTF-8"?>
<svg width="24px" height="24px" viewBox="0 0 24 24" version="1.1" xmlns="http://www.w3.org/2000/svg" xmlns:xlink="http://www.w3.org/1999/xlink">
    <title>UI Icons/UI InspectorPanel/spacing around</title>
    <g id="UI-Icons/UI-InspectorPanel/spacing-around" stroke="none" stroke-width="1" fill="none" fill-rule="evenodd">
        <path d="M9,2.5 C10.3807119,2.5 11.5,3.61928813 11.5,5 L11.5,19 C11.5,20.3807119 10.3807119,21.5 9,21.5 L5,21.5 C3.61928813,21.5 2.5,20.3807119 2.5,19 L2.5,5 C2.5,3.61928813 3.61928813,2.5 5,2.5 Z M9,3.5 L5,3.5 C4.17157288,3.5 3.5,4.17157288 3.5,5 L3.5,19 C3.5,19.8284271 4.17157288,20.5 5,20.5 L9,20.5 C9.82842712,20.5 10.5,19.8284271 10.5,19 L10.5,5 C10.5,4.17157288 9.82842712,3.5 9,3.5 Z M8,5 C8.55228475,5 9,5.44771525 9,6 L9,18 C9,18.5522847 8.55228475,19 8,19 L6,19 C5.44771525,19 5,18.5522847 5,18 L5,6 C5,5.44771525 5.44771525,5 6,5 L8,5 Z M19,2.5 C20.3807119,2.5 21.5,3.61928813 21.5,5 L21.5,19 C21.5,20.3807119 20.3807119,21.5 19,21.5 L15,21.5 C13.6192881,21.5 12.5,20.3807119 12.5,19 L12.5,5 C12.5,3.61928813 13.6192881,2.5 15,2.5 Z M19,3.5 L15,3.5 C14.1715729,3.5 13.5,4.17157288 13.5,5 L13.5,19 C13.5,19.8284271 14.1715729,20.5 15,20.5 L19,20.5 C19.8284271,20.5 20.5,19.8284271 20.5,19 L20.5,5 C20.5,4.17157288 19.8284271,3.5 19,3.5 Z M18,5 C18.5522847,5 19,5.44771525 19,6 L19,18 C19,18.5522847 18.5522847,19 18,19 L16,19 C15.4477153,19 15,18.5522847 15,18 L15,6 C15,5.44771525 15.4477153,5 16,5 L18,5 Z" id="Combined-Shape" fill="#95A1AC"></path>
    </g>
</svg>