<?xml version="1.0" encoding="UTF-8"?>
<svg width="24px" height="24px" viewBox="0 0 24 24" version="1.1" xmlns="http://www.w3.org/2000/svg" xmlns:xlink="http://www.w3.org/1999/xlink">
    <title>UI Icons/UI InspectorPanel/spacingBetween</title>
    <g id="UI-Icons/UI-InspectorPanel/spacingBetween" stroke="none" stroke-width="1" fill="none" fill-rule="evenodd">
        <path d="M3,4 L5,4 C5.55228475,4 6,4.44771525 6,5 L6,19 C6,19.5522847 5.55228475,20 5,20 L3,20 C2.44771525,20 2,19.5522847 2,19 L2,5 C2,4.44771525 2.44771525,4 3,4 Z M19,4 L21,4 C21.5522847,4 22,4.44771525 22,5 L22,19 C22,19.5522847 21.5522847,20 21,20 L19,20 C18.4477153,20 18,19.5522847 18,19 L18,5 C18,4.44771525 18.4477153,4 19,4 Z M9,11 L15,11 C15.5522847,11 16,11.4477153 16,12 C16,12.5522847 15.5522847,13 15,13 L9,13 C8.44771525,13 8,12.5522847 8,12 C8,11.4477153 8.44771525,11 9,11 Z" id="Combined-Shape" fill="#95A1AC"></path>
    </g>
</svg>