<?xml version="1.0" encoding="UTF-8"?>
<svg width="24px" height="24px" viewBox="0 0 24 24" version="1.1" xmlns="http://www.w3.org/2000/svg" xmlns:xlink="http://www.w3.org/1999/xlink">
    <title>UI Icons/UI InspectorPanel/space stretch</title>
    <g id="UI-Icons/UI-InspectorPanel/space-stretch" stroke="none" stroke-width="1" fill="none" fill-rule="evenodd">
        <path d="M11.4369077,2.19253932 C11.8120914,1.90774951 12.3510569,1.93883738 12.6905164,2.28615044 L15.7623719,5.42907476 L15.8531866,5.53673608 C16.1250327,5.91200677 16.0883161,6.4397215 15.7469998,6.77331982 L15.6393385,6.8641345 C15.2640678,7.13598064 14.7363531,7.09926404 14.4027548,6.75794777 L12.967,5.288 L12.967,18.711 L14.4027548,17.2420522 C14.7363531,16.900736 15.2640678,16.8640194 15.6393385,17.1358655 L15.7469998,17.2266802 C16.0883161,17.5602785 16.1250327,18.0879932 15.8531866,18.4632639 L15.7623719,18.5709252 L12.967,21.43 L12.9671623,21.5079733 L12.891,21.507 L12.6905164,21.7138496 C12.3510569,22.0611626 11.8120914,22.0922505 11.4369077,21.8074607 L11.3296294,21.7125478 L11.129,21.507 L11.0659884,21.5079733 L11.065,21.441 L8.26950899,18.5696234 C7.9032698,18.1934742 7.91130351,17.5916494 8.28745278,17.2254102 C8.62940665,16.8924655 9.15786919,16.8688373 9.52628814,17.1498993 L9.63166597,17.243354 L11.065,18.716 L11.065,5.283 L9.63166597,6.75664596 L9.52628814,6.85010067 C9.15786919,7.13116274 8.62940665,7.10753446 8.28745278,6.77458975 C7.91130351,6.40835057 7.9032698,5.80652583 8.26950899,5.43037656 L11.3296294,2.28745225 Z" id="Combined-Shape" fill="#95A1AC"></path>
    </g>
</svg>