<?xml version="1.0" encoding="UTF-8"?>
<svg width="24px" height="24px" viewBox="0 0 24 24" version="1.1" xmlns="http://www.w3.org/2000/svg" xmlns:xlink="http://www.w3.org/1999/xlink">
    <title>UI Icons/UI InspectorPanel/SVG /story_connection</title>
    <g id="UI-Icons/UI-InspectorPanel/story_connection" stroke="none" stroke-width="1" fill="none" fill-rule="evenodd">
        <path d="M17.75,16 C19.1307119,16 20.25,17.1192881 20.25,18.5 C20.25,19.8807119 19.1307119,21 17.75,21 C16.3692881,21 15.25,19.8807119 15.25,18.5 C15.25,17.1192881 16.3692881,16 17.75,16 Z M14.6742398,7.53889691 C14.9350536,7.97450121 15.3032356,8.3384368 15.7422191,8.59413681 L12.312,12.0004034 L15.7311504,15.4123422 C15.2936963,15.6696645 14.9272425,16.0347495 14.6682721,16.4711142 L10.94,12.7509473 L3.75,12.75 C3.33578644,12.75 3,12.4142136 3,12 C3,11.5857864 3.33578644,11.25 3.75,11.25 L10.939,11.25 L14.6742398,7.53889691 Z M17.75,3 C19.1307119,3 20.25,4.11928813 20.25,5.5 C20.25,6.88071187 19.1307119,8 17.75,8 C16.3692881,8 15.25,6.88071187 15.25,5.5 C15.25,4.11928813 16.3692881,3 17.75,3 Z" id="Combined-Shape" fill="#95A1AC"></path>
    </g>
</svg>