<?xml version="1.0" encoding="UTF-8"?>
<svg width="24px" height="24px" viewBox="0 0 24 24" version="1.1" xmlns="http://www.w3.org/2000/svg" xmlns:xlink="http://www.w3.org/1999/xlink">
    <title>UI Icons/NavIcons/SVG /storyboard</title>
    <g id="UI-Icons/NavIcons/storyboard" stroke="none" stroke-width="1" fill="none" fill-rule="evenodd">
        <path d="M21.5,8 C22.8807119,8 24,9.11928813 24,10.5 L24,21.5 C24,22.8807119 22.8807119,24 21.5,24 L15.5,24 C14.1192881,24 13,22.8807119 13,21.5 L12.9993406,16.9563206 C13.4821051,17.1919321 13.9826003,17.4127514 14.500777,17.618827 L14.5,21.5 C14.5,22.0522847 14.9477153,22.5 15.5,22.5 L21.5,22.5 C22.0522847,22.5 22.5,22.0522847 22.5,21.5 L22.5,10.5 C22.5,9.94771525 22.0522847,9.5 21.5,9.5 L15.5,9.5 C14.9477153,9.5 14.5,9.94771525 14.5,10.5 L14.4998777,14.0573828 C13.9718364,13.8025416 13.4717727,13.5283216 12.9995866,13.234834 L13,10.5 C13,9.11928813 14.1192881,8 15.5,8 L21.5,8 Z M6.9033984,7.35879168 C7.56947484,9.14977163 8.55426647,10.7019153 9.8613293,12.0199724 C9.94018984,12.0994942 10.0200942,12.1780399 10.1011687,12.2557373 L9.8613293,12.0199724 C9.96560066,12.1251209 10.071923,12.2287796 10.1802981,12.3309509 L10.1011687,12.2557373 C10.2001134,12.3505605 10.3008009,12.4441201 10.4032327,12.5364181 L10.1802981,12.3309509 C10.298166,12.4420717 10.4184621,12.5514332 10.5411887,12.6590385 L10.4032327,12.5364181 C10.5186653,12.6404307 10.636313,12.742841 10.7561778,12.8436518 L10.5411887,12.6590385 C10.6546061,12.7584816 10.7700993,12.8564248 10.88767,12.9528706 L11.243,13.234 L11,13.042 L11.2530973,13.2426906 C11.9943622,13.8111107 12.8118981,14.3235293 13.7059683,14.779696 C13.7752743,14.8150599 13.8455961,14.8503603 13.9163852,14.8853172 L13.7059683,14.779696 C13.8432121,14.8497197 13.9822593,14.9184178 14.1231109,14.9857895 L13.9163852,14.8853172 C14.0787061,14.9654739 14.2434843,15.0438243 14.4107213,15.1203671 L14.1231109,14.9857895 C15.5828689,15.6840168 17.2364321,16.2397767 19.0848606,16.6520601 C19.4253064,16.7279949 19.6397348,17.0655381 19.5638,17.4059839 C19.4878651,17.7464296 19.150322,17.9608581 18.8098762,17.8849232 C17.2465403,17.5362284 15.8092433,17.0873523 14.4985339,16.5377726 L14.3596167,16.4789449 C14.2595169,16.4361346 14.1601658,16.3927287 14.0615636,16.348727 L14.4995368,16.5381931 C14.3019524,16.4553579 14.1072444,16.3702345 13.9154146,16.2828211 C13.8074619,16.2336291 13.7004034,16.1837037 13.5942571,16.1330525 C13.5298048,16.1022961 13.4658818,16.0713668 13.4022932,16.0401715 C13.3045226,15.9922079 13.2074309,15.9435583 13.1111316,15.894278 C13.0738355,15.8751923 13.0365842,15.8559734 12.9994523,15.8366596 C12.088721,15.3628821 11.2506413,14.8325966 10.4844526,14.2450644 C10.3062641,14.1084251 10.1320882,13.9687816 9.9619293,13.8261398 C9.83426043,13.7191213 9.70862042,13.6102067 9.58525205,13.4996004 C7.84058186,11.9354112 6.5502286,10.032897 5.71946692,7.79910306 C5.59787829,7.47216941 5.76434332,7.10857026 6.09127697,6.98698163 C6.41821062,6.865393 6.78180977,7.03185803 6.9033984,7.35879168 Z M8.5,0 C9.88071187,0 11,1.11928813 11,2.5 L10.9992106,11.7268363 C10.442051,11.2167418 9.9422736,10.6661829 9.49911738,10.0741396 L9.5,2.5 C9.5,1.94771525 9.05228475,1.5 8.5,1.5 L2.5,1.5 C1.94771525,1.5 1.5,1.94771525 1.5,2.5 L1.5,13.5 C1.5,14.0522847 1.94771525,14.5 2.5,14.5 L8.5,14.5 C8.69643117,14.5 8.87963418,14.4433635 9.03416996,14.3455295 C9.30449427,14.5851955 9.58526587,14.8157126 9.87594222,15.0386103 C9.99257936,15.1280505 10.1107436,15.2162152 10.2304337,15.3031056 C9.7818228,15.7349695 9.171862,16 8.5,16 L2.5,16 C1.11928813,16 0,14.8807119 0,13.5 L0,2.5 C0,1.11928813 1.11928813,0 2.5,0 L8.5,0 Z" id="Combined-Shape" fill="#95A1AC"></path>
    </g>
</svg>