<?xml version="1.0" encoding="UTF-8"?>
<svg width="24px" height="24px" viewBox="0 0 24 24" version="1.1" xmlns="http://www.w3.org/2000/svg" xmlns:xlink="http://www.w3.org/1999/xlink">
    <title>UI Icons/UI InspectorPanel/SVG /Supabase</title>
    <defs>
        <linearGradient x1="20.8617445%" y1="20.6868812%" x2="63.4256086%" y2="44.0710077%" id="linearGradient-1">
            <stop stop-color="#249361" offset="0%"></stop>
            <stop stop-color="#3ECF8E" offset="100%"></stop>
        </linearGradient>
    </defs>
    <g id="UI-Icons/UI-InspectorPanel/Supabase" stroke="none" stroke-width="1" fill="none" fill-rule="evenodd">
        <g id="supabase-logo-icon" transform="translate(1.000000, 1.000000)">
            <path d="M12.5166964,21.6344917 C11.95467,22.3422577 10.8151097,21.9544703 10.8015676,21.0507468 L10.6035464,7.83269988 L19.4913466,7.83269988 C21.1011655,7.83269988 21.9989926,9.69205495 20.9979783,10.9528259 L12.5166964,21.6344917 Z" id="Path" fill="url(#linearGradient-1)" fill-rule="nonzero"></path>
            <path d="M12.5166964,21.6344917 C11.95467,22.3422577 10.8151097,21.9544703 10.8015676,21.0507468 L10.6035464,7.83269988 L19.4913466,7.83269988 C21.1011655,7.83269988 21.9989926,9.69205495 20.9979783,10.9528259 L12.5166964,21.6344917 Z" id="Path" fill="#95A1AC"></path>
            <path d="M8.90207762,0.365547909 C9.46410401,-0.342296761 10.603684,0.0455509765 10.6172261,0.949286853 L10.7040016,14.1673141 L1.92743333,14.1673141 C0.317565297,14.1673141 -0.580287336,12.3079591 0.420776102,11.0471881 L8.90207762,0.365547909 Z" id="Path" fill="#95A1AC"></path>
        </g>
    </g>
</svg>