<?xml version="1.0" encoding="UTF-8"?>
<svg width="24px" height="24px" viewBox="0 0 24 24" version="1.1" xmlns="http://www.w3.org/2000/svg" xmlns:xlink="http://www.w3.org/1999/xlink">
    <title>UI Icons/theme/themesFlutterFlowv0</title>
    <g id="UI-Icons/theme/themesFlutterFlow" stroke="none" stroke-width="1" fill="none" fill-rule="evenodd">
        <path d="M21.7727562,6.41610153 C21.942216,6.41610153 22.1165877,6.45048467 22.2786796,6.52661877 C22.8484574,6.78449234 23.1333463,7.43040422 22.9393271,8.02474139 L22.9158321,8.09651554 C22.7649882,8.55592371 21.9917179,10.8965507 21.1805812,13.2537906 L20.9929897,13.7972152 C20.4610837,15.3329446 19.9322131,16.8144572 19.5697792,17.7205418 L19.6284568,17.9132455 C19.7148979,18.2351497 19.7401395,18.5702148 19.6992072,18.907497 C19.5675689,19.9937587 18.7885451,21.0132189 17.3837482,21.9373886 C17.3702405,21.94623 17.3564873,21.9545802 17.3424884,21.9621936 C16.2220892,22.5788798 14.401993,23.025615 14.3852926,23.0292989 C14.3420681,23.0388771 14.2983524,23.0432978 14.2551279,23.0432978 C14.0618455,23.0432978 13.8769133,22.9521825 13.759765,22.7923009 C13.6165838,22.5968081 13.6018482,22.3352507 13.7219436,22.1247767 C13.7568179,22.0638694 14.5687512,20.6183039 14.1045788,19.2547667 C13.8358991,18.467884 13.9562401,17.6571786 14.4430072,16.9724629 C14.7360007,16.560602 15.1409849,16.2381372 15.5958248,16.0266809 C15.5970528,16.0244705 20.5619785,7.27568008 20.7167026,7.01535058 C20.9451049,6.63222414 21.3527907,6.41610153 21.7727562,6.41610153 Z M4.49964811,3.488377 C6.49264237,1.67982373 9.05860714,0.788072384 11.5373861,1.04275323 C13.8454773,1.27950572 15.6869401,2.53915668 16.5897432,4.49850459 C17.463075,6.39375249 17.3000007,8.59181764 16.164129,10.234595 C15.2934987,11.4996491 13.9773612,12.2185023 13.0161068,12.743582 C12.6234022,12.9582311 12.2171899,13.1802479 12.0747455,13.3278498 C11.4020639,14.0290203 11.0791079,14.6299885 12.2623792,17.0549824 C12.8432087,18.2055897 12.8655577,19.4276648 12.3183746,20.3167146 C11.9192845,20.965328 11.0263052,21.738212 9.03969641,21.738212 C5.42185309,21.738212 1.02891552,17.3447832 1.00018104,11.8886698 C0.982743875,8.53533105 2.22544886,5.55210229 4.49964811,3.488377 Z M16.7879374,16.9800763 C16.2036696,16.9800763 15.7458827,17.2590709 15.4435566,17.6841939 C15.265501,17.9344541 15.0903926,18.3414031 15.2669746,18.8586238 C15.5923865,19.8157031 15.4840796,20.7654146 15.2876045,21.487215 C15.7721612,21.3270878 16.3163972,21.1222625 16.7294861,20.8980353 C17.7904516,20.1956369 18.3955949,19.4563993 18.4800792,18.7596495 C18.5508103,18.1785744 18.3138122,17.8327782 18.0453781,17.5356096 C17.776944,17.2381955 17.3719597,16.9800763 16.7879374,16.9800763 Z M11.4123788,2.26458274 C9.27767687,2.0457586 7.0604554,2.82330879 5.32508911,4.39805669 C3.31244734,6.22453831 2.21243239,8.88235519 2.22839599,11.8822843 C2.25270978,16.529166 5.99433241,20.5104882 9.039942,20.5104882 C9.82363204,20.5104882 10.8470217,20.3653422 11.2726359,19.6735043 C11.6518328,19.0575549 11.4646903,18.1992043 11.1628554,17.6011832 C9.929483,15.0742679 9.93685082,13.7831809 11.1888884,12.4783406 C11.4619888,12.1934518 11.8880941,11.9608744 12.4274183,11.6661617 C13.3275198,11.1744828 14.4481646,10.5622173 15.1532646,9.53759963 C16.0310171,8.26837051 16.1567612,6.49272682 15.474747,5.01253256 C14.7581041,3.45767776 13.2776642,2.45590036 11.4123788,2.26458274 Z M7.56220368,14.9414016 C8.51658146,14.9414016 9.29290369,15.7179694 9.29290369,16.6721016 C9.29290369,17.6262338 8.51658146,18.4028016 7.56220368,18.4028016 C6.6078259,18.4028016 5.83125808,17.6264794 5.83125808,16.6721016 C5.83125808,15.7179694 6.6078259,14.9414016 7.56220368,14.9414016 Z M7.56220368,15.8898851 C7.13094084,15.8898851 6.77974161,16.2408387 6.77974161,16.6723472 C6.77974161,17.1038556 7.13069525,17.4548093 7.56220368,17.4548093 C7.99371211,17.4548093 8.34466575,17.10361 8.34466575,16.6723472 C8.34466575,16.2408387 7.99371211,15.8898851 7.56220368,15.8898851 Z M21.7703003,7.64898277 C21.663467,7.82605595 18.5149535,13.1159023 17.0944386,15.7695441 C17.2882122,15.791402 17.4792842,15.8338897 17.6615148,15.8992177 C18.0159068,15.9778077 18.4005068,16.1939303 18.7369704,16.4967476 C19.4693804,14.5548205 20.6020265,11.1823468 21.2566893,9.20796668 L21.3771938,8.84404618 C21.6053224,8.15415953 21.753338,7.70111416 21.7703003,7.64898277 Z M6.4395941,9.27088469 C7.83162016,9.27088469 8.9638079,10.403318 8.9638079,11.7950985 C8.9638079,13.186879 7.83162016,14.3193123 6.4395941,14.3193123 C5.04781363,14.3193123 3.91562588,13.186879 3.91562588,11.7950985 C3.91562588,10.403318 5.04781363,9.27088469 6.4395941,9.27088469 Z M6.4395941,10.498854 C5.72491593,10.498854 5.14359524,11.0801747 5.14359524,11.7950985 C5.14359524,12.5097767 5.72491593,13.0913429 6.4395941,13.0913429 C7.15427226,13.0913429 7.73583855,12.5097767 7.73583855,11.7950985 C7.73583855,11.0804203 7.15427226,10.498854 6.4395941,10.498854 Z M10.9442769,3.93437547 C12.6563118,3.93437547 14.0490746,5.32713831 14.0490746,7.03917318 C14.0490746,8.75120806 12.6563118,10.1439709 10.9442769,10.1439709 C9.232242,10.1439709 7.83947916,8.75120806 7.83947916,7.03917318 C7.83947916,5.32713831 9.232242,3.93437547 10.9442769,3.93437547 Z M10.9445225,5.16234482 C9.9095899,5.16234482 9.06769411,6.0044862 9.06769411,7.03917318 C9.06769411,8.07410576 9.9095899,8.91600155 10.9445225,8.91600155 C11.979455,8.91600155 12.8211052,8.07410576 12.8213508,7.03917318 C12.8213508,6.00424061 11.979455,5.16234482 10.9445225,5.16234482 Z" id="Shape" fill="#95A1AC"></path>
    </g>
</svg>