<?xml version="1.0" encoding="UTF-8"?>
<svg width="24px" height="24px" viewBox="0 0 24 24" version="1.1" xmlns="http://www.w3.org/2000/svg" xmlns:xlink="http://www.w3.org/1999/xlink">
    <title>UI Icons/NavIcons/themesFlutterFlow</title>
    <g id="UI-Icons/NavIcons/themesFlutterFlow" stroke="none" stroke-width="1" fill="none" fill-rule="evenodd">
        <path d="M7.8,21.75 C5.54900457,21.75 5.01388313,21.7062762 4.29755782,21.3412654 C3.59192118,20.9817531 3.01824321,20.4081043 2.65871103,19.7024652 C2.29371942,18.9860556 2.25,18.4509614 2.25,16.2 L2.25,7.8 C2.25,5.54901128 2.29372079,5.01389353 2.65872414,4.29753902 C3.01824943,3.59192595 3.59192595,3.01824943 4.29753528,2.65872605 C5.01389353,2.29372079 5.54901128,2.25 7.8,2.25 L16.2,2.25 C18.4509614,2.25 18.9860556,2.29371942 19.7024862,2.6587217 C20.4081043,3.01824321 20.9817531,3.59192118 21.3412455,4.29751875 C21.7062762,5.01388313 21.75,5.54900457 21.75,7.8 L21.75,16.2 C21.75,18.4509681 21.7062776,18.986066 21.3412679,19.7024674 C20.9817594,20.4081091 20.4081091,20.9817594 19.7024818,21.3412606 C18.986066,21.7062776 18.4509681,21.75 16.2,21.75 L9,21.75 L7.8,21.75 Z M8.25,9.75 L3.75,9.75 L3.75094872,16.6758209 C3.75756105,18.1559202 3.80154755,18.6075598 3.96915867,18.9680126 L3.9952383,19.0215138 C4.21093948,19.4448617 4.55512485,19.7890296 4.97854125,20.0047545 C5.38520437,20.2119738 5.85059543,20.25 7.8,20.25 L8.25,20.25 L8.25,9.75 Z M20.25,9.75 L9.75,9.75 L9.75,20.25 L16.2,20.25 C18.064674,20.25 18.5715044,20.2152117 18.9680278,20.0308152 L19.0215326,20.0047321 C19.4448909,19.7890406 19.7890406,19.4448909 20.0047394,19.0215182 C20.2119773,18.6147744 20.25,18.1494319 20.25,16.2 L20.25,9.75 Z M16.6758209,3.75094873 L7.32418466,3.75094873 C5.77009452,3.75789221 5.3498311,3.80604261 4.97852098,3.99523586 C4.55515405,4.21095057 4.21095057,4.55515405 3.99523395,4.97852472 C3.80604244,5.34983143 3.75789219,5.77009455 3.75094879,7.32418466 L3.75,8.25 L9,8.25 L20.25,8.25 L20.25,7.8 C20.25,5.93535215 20.2152085,5.42847848 20.0308169,5.03200027 L20.0047346,4.97850218 C19.7890296,4.55512485 19.4448617,4.21093948 19.0215348,3.99524897 C18.6501544,3.80604057 18.2299253,3.75789175 16.6758209,3.75094873 Z" id="Shape" fill="#95A1AC"></path>
    </g>
</svg>