<?xml version="1.0" encoding="UTF-8"?>
<svg width="24px" height="24px" viewBox="0 0 24 24" version="1.1" xmlns="http://www.w3.org/2000/svg" xmlns:xlink="http://www.w3.org/1999/xlink">
    <title>UI Icons/theme/themeWidgets</title>
    <g id="UI-Icons/theme/themeWidgets" stroke="none" stroke-width="1" fill="none" fill-rule="evenodd">
        <g id="transform" transform="translate(2.250000, 2.250000)" fill="#95A1AC">
            <path d="M3.15,0 C4.00085067,0 4.20246393,0.0164718885 4.54450456,0.190746157 C4.87376898,0.358528216 5.14147178,0.626231023 5.30926816,0.955523546 C5.44331428,1.2186101 5.48399468,1.39862017 5.49563169,1.85496963 L5.498,2 L14.0016845,2.00051949 C14.0081574,1.48530008 14.0372469,1.28235817 14.1532968,1.03224695 L14.1907849,0.955439055 C14.3586069,0.626164912 14.6262473,0.358479184 14.9555009,0.190738274 C15.297513,0.0164704167 15.4991052,0 16.35,0 L17.15,0 C18.0008948,0 18.202487,0.0164704167 18.5444571,0.190716881 C18.8737527,0.358479184 19.1413931,0.626164912 19.3092455,0.955498745 C19.4835261,1.29752047 19.5,1.49913925 19.5,2.35 L19.5,3.15 C19.5,4.00086075 19.4835261,4.20247953 19.3092151,4.54456094 C19.1413931,4.87383509 18.8737527,5.14152082 18.5444991,5.30926173 C18.2814129,5.44331392 18.1014154,5.48399486 17.6450516,5.4956318 L17.5,5.498 L17.5,14.001 L17.6450578,14.0043687 C18.0557906,14.014843 18.2426644,14.0488451 18.467721,14.1532734 L18.5445135,14.1907556 C18.8738188,14.3585578 19.1414422,14.6261812 19.3092391,14.9554761 C19.4835276,15.2974974 19.5,15.4990951 19.5,16.35 L19.5,17.15 C19.5,18.0009049 19.4835276,18.2025026 19.3092444,18.5445135 C19.1414422,18.8738188 18.8738188,19.1414422 18.5445239,19.3092391 C18.2025026,19.4835276 18.0009049,19.5 17.15,19.5 L16.35,19.5 C15.4990951,19.5 15.2974974,19.4835276 14.9554865,19.3092444 C14.6261812,19.1414422 14.3585578,18.8738188 14.1907609,18.5445239 C14.0566928,18.2814306 14.016007,18.1014282 14.0043687,17.6450579 L14.001,17.5 L5.498,17.5 L5.49563206,17.6450511 C5.4851596,18.0557769 5.45116388,18.2426415 5.3467574,18.4676734 L5.30928312,18.5444571 C5.14152082,18.8737527 4.87383509,19.1413931 4.54450125,19.3092455 C4.20247953,19.4835261 4.00086075,19.5 3.15,19.5 L2.35,19.5 C1.49913925,19.5 1.29752047,19.4835261 0.955439055,19.3092151 C0.626164912,19.1413931 0.358479184,18.8737527 0.190738274,18.5444991 C0.0164704167,18.202487 0,18.0008948 0,17.15 L0,16.35 C0,15.4991052 0.0164704167,15.297513 0.190716881,14.9555429 C0.358479184,14.6262473 0.626164912,14.3586069 0.955498745,14.1907545 C1.24490174,14.0432863 1.43377956,14.0088039 2.0005197,14.0016844 L2,5.498 L1.85496928,5.49563152 C1.44425374,5.48515767 1.25736999,5.45115711 1.03229453,5.34673409 L0.95549544,5.30925384 C0.626231023,5.14147178 0.358528216,4.87376898 0.190731835,4.54447645 C0.0164718885,4.20246393 0,4.00085067 0,3.15 L0,2.35 C0,1.49914933 0.0164718885,1.29753607 0.190746157,0.95549544 C0.358528216,0.626231023 0.626231023,0.358528216 0.955523546,0.190731835 C1.29753607,0.0164718885 1.49914933,0 2.35,0 L3.15,0 Z M3.28969122,15.5002634 L2.21030883,15.5002633 C1.77757427,15.5020061 1.66590877,15.5122708 1.63658094,15.5272151 C1.58942477,15.5512493 1.55120467,15.5894629 1.52724173,15.6364991 C1.51077465,15.6688168 1.5,15.8006948 1.5,16.35 L1.50026334,17.2896999 C1.50200625,17.7224605 1.5122736,17.834125 1.52726312,17.8635429 C1.55120467,17.9105371 1.58942477,17.9487507 1.63652125,17.9727545 C1.66884156,17.9892236 1.80073075,18 2.35,18 L3.15,18 C3.69926925,18 3.83115844,17.9892236 3.86341906,17.9727849 C3.91057523,17.9487507 3.94879533,17.9105371 3.97275827,17.8635009 C3.98922535,17.8311832 4,17.6993052 4,17.15 L4,16.35 C4,15.8006948 3.98922535,15.6688168 3.97273688,15.6364571 C3.94879533,15.5894629 3.91057523,15.5512493 3.86347875,15.5272455 C3.83115844,15.5107764 3.69926925,15.5 3.15,15.5 L3.28969122,15.5002634 Z M17.2896972,15.5002633 L16.2103027,15.5002633 C15.7775508,15.5020062 15.6658943,15.5122724 15.6365135,15.5272444 C15.5894188,15.5512422 15.5512422,15.5894188 15.5272391,15.6365239 C15.5107752,15.6688324 15.5,15.8007049 15.5,16.35 L15.5002633,17.2896973 C15.5020062,17.7224492 15.5122724,17.8341057 15.5272444,17.8634865 C15.5512422,17.9105812 15.5894188,17.9487578 15.6365239,17.9727609 C15.6688324,17.9892248 15.8007049,18 16.35,18 L17.15,18 C17.6992951,18 17.8311676,17.9892248 17.8634865,17.9727556 C17.9105812,17.9487578 17.9487578,17.9105812 17.9727609,17.8634761 C17.9892248,17.8311676 18,17.6992951 18,17.15 L18,16.35 C18,15.8007049 17.9892248,15.6688324 17.9727556,15.6365135 C17.9487578,15.5894188 17.9105812,15.5512422 17.8634761,15.5272391 C17.8311676,15.5107752 17.6992951,15.5 17.15,15.5 L17.2896972,15.5002633 Z M14.001,3.5 L5.498,3.5 L5.49563152,3.64503072 C5.48515767,4.05574626 5.45115711,4.24263001 5.34673409,4.46770547 L5.30925384,4.54450456 C5.14147178,4.87376898 4.87376898,5.14147178 4.54447645,5.30926816 C4.2813899,5.44331428 4.10137983,5.48399468 3.64503037,5.49563169 L3.5,5.498 L3.5,14.001 L3.64503746,14.0043692 C4.05575999,14.0148449 4.24265296,14.0488519 4.46775305,14.1532968 L4.54456094,14.1907849 C4.87383509,14.3586069 5.14152082,14.6262473 5.30926173,14.9555009 C5.44331392,15.2185871 5.48399486,15.3985846 5.4956318,15.8549484 L5.498,16 L14.0016843,16.0005037 C14.0081564,15.4852655 14.0372419,15.2823419 14.1532734,15.032279 L14.1907556,14.9554865 C14.3585578,14.6261812 14.6261812,14.3585578 14.9554761,14.1907609 C15.2448787,14.043286 15.4337414,14.0088037 16.0005036,14.0016843 L16,5.498 L15.8549489,5.49563206 C15.4442231,5.4851596 15.2573585,5.45116388 15.0323266,5.3467574 L14.9555429,5.30928312 C14.6262473,5.14152082 14.3586069,4.87383509 14.1907545,4.54450125 C14.0566925,4.28140762 14.0160072,4.10139265 14.0043688,3.64503672 L14.001,3.5 Z M3.28969386,1.50026335 L2.21030616,1.50026334 C1.7775629,1.50200621 1.66588946,1.51227204 1.63652456,1.52723384 C1.58946898,1.55121178 1.55121178,1.58946898 1.52724816,1.63649645 C1.51077585,1.66882595 1.5,1.80072067 1.5,2.35 L1.50026334,3.28969384 C1.50200621,3.7224371 1.51227204,3.83411054 1.52723384,3.86347544 C1.55121178,3.91053102 1.58946898,3.94878822 1.63649645,3.97275184 C1.66882595,3.98922415 1.80072067,4 2.35,4 L3.15,4 C3.69927933,4 3.83117405,3.98922415 3.86347544,3.97276616 C3.91053102,3.94878822 3.94878822,3.91053102 3.97275184,3.86350355 C3.98922415,3.83117405 4,3.69927933 4,3.15 L4,2.35 C4,1.80072067 3.98922415,1.66882595 3.97276616,1.63652456 C3.94878822,1.58946898 3.91053102,1.55121178 3.86350355,1.52724816 C3.83117405,1.51077585 3.69927933,1.5 3.15,1.5 L3.28969386,1.50026335 Z M17.2896999,1.50026332 L16.2103001,1.50026334 C15.7775395,1.50200625 15.665875,1.5122736 15.6364571,1.52726312 C15.5894629,1.55120467 15.5512493,1.58942477 15.5272455,1.63652125 C15.5107764,1.66884156 15.5,1.80073075 15.5,2.35 L15.5002633,3.28969117 C15.5020061,3.72242573 15.5122708,3.83409123 15.5272151,3.86341906 C15.5512493,3.91057523 15.5894629,3.94879533 15.6364991,3.97275827 C15.6688168,3.98922535 15.8006948,4 16.35,4 L17.15,4 C17.6993052,4 17.8311832,3.98922535 17.8635429,3.97273688 C17.9105371,3.94879533 17.9487507,3.91057523 17.9727545,3.86347875 C17.9892236,3.83115844 18,3.69926925 18,3.15 L18,2.35 C18,1.80073075 17.9892236,1.66884156 17.9727849,1.63658094 C17.9487507,1.58942477 17.9105371,1.55120467 17.8635009,1.52724173 C17.8311832,1.51077465 17.6993052,1.5 17.15,1.5 L17.2896999,1.50026332 Z" id="Shape"></path>
        </g>
    </g>
</svg>