<?xml version="1.0" encoding="UTF-8"?>
<svg width="24px" height="24px" viewBox="0 0 24 24" version="1.1" xmlns="http://www.w3.org/2000/svg" xmlns:xlink="http://www.w3.org/1999/xlink">
    <title>UI Icons/theme/typography</title>
    <g id="UI-Icons/theme/typography" stroke="none" stroke-width="1" fill="none" fill-rule="evenodd">
        <path d="M10.25,20.75 L8,20.75 C7.58578644,20.75 7.25,20.4142136 7.25,20 C7.25,19.5857864 7.58578644,19.25 8,19.25 L9.5,19.25 L9.5,4.75 L6.80246474,4.75024113 C5.99016441,4.7523872 5.73366207,4.76957969 5.56037533,4.83033947 L5.52164818,4.84514733 C5.21536474,4.97201698 4.97201698,5.21536474 4.84515245,5.52163582 C4.76711132,5.71004897 4.75,5.96084148 4.75,7 C4.75,7.41421356 4.41421356,7.75 4,7.75 C3.58578644,7.75 3.25,7.41421356 3.25,7 C3.25,5.70945852 3.27094868,5.40242353 3.45933267,4.94761182 C3.73844302,4.27379526 4.27379526,3.73844302 4.94762418,3.45932755 C5.40242353,3.27094868 5.70945852,3.25 7,3.25 L10.25,3.25 L13.75,3.25 L17,3.25 C18.2098558,3.25 18.5553236,3.2684118 18.9686062,3.42594555 L19.0524432,3.45934303 C19.7262159,3.73846368 20.2615931,4.27381908 20.5407391,4.94768855 C20.7290576,5.40246162 20.75,5.70948522 20.75,7 C20.75,7.41421356 20.4142136,7.75 20,7.75 C19.5857864,7.75 19.25,7.41421356 19.25,7 C19.25,5.96081478 19.2328924,5.71001088 19.1548977,5.52166025 C19.028031,5.21539918 18.7846424,4.97202046 18.4784275,4.84516625 C18.2899508,4.76710943 18.0391872,4.75 17,4.75 L14.5,4.75 L14.5,19.25 L16,19.25 C16.3796958,19.25 16.693491,19.5321539 16.7431534,19.8982294 L16.75,20 C16.75,20.4142136 16.4142136,20.75 16,20.75 L13.75,20.75 L10.25,20.75 Z M13,4.75 L11,4.75 L11,19.25 L13,19.25 L13,4.75 Z" id="Shape" fill="#95A1AC"></path>
    </g>
</svg>