<?xml version="1.0" encoding="UTF-8"?>
<svg width="24px" height="24px" viewBox="0 0 24 24" version="1.1" xmlns="http://www.w3.org/2000/svg" xmlns:xlink="http://www.w3.org/1999/xlink">
    <title>UI Icons/unitTesting_v2</title>
    <g id="UI-Icons/unitTesting" stroke="none" stroke-width="1" fill="none" fill-rule="evenodd">
        <rect id="Rectangle" x="0" y="0" width="24" height="24"></rect>
        <path d="M21.2978033,5.88281209 L11.296797,15.8925836 C10.9067536,16.2835884 10.2735887,16.2838657 9.88289335,15.8935125 C9.88279007,15.8934093 9.8826868,15.8933061 9.88289322,15.8928932 L7.055,13.065 C6.66563925,12.6756393 6.66563925,12.0443607 7.055,11.655 C7.44436075,11.2656393 8.07563925,11.2656393 8.465,11.655 L10.59,13.78 L10.59,13.78 L19.8874956,4.48250445 C20.2758818,4.09411821 20.9052341,4.09299837 21.295,4.48 C21.6831476,4.86539475 21.6853792,5.4924747 21.2999844,5.88062227 C21.2992585,5.88135334 21.2985315,5.88208329 21.2978033,5.88281209 Z M12,20 C7.59,20 4,16.41 4,12 C4,7.59 7.59,4 12,4 C13.57,4 15.04,4.46 16.28,5.25 L17.73,3.8 C16.1,2.67 14.13,2 12,2 C6.48,2 2,6.48 2,12 C2,17.52 6.48,22 12,22 C13.73,22 15.36,21.56 16.78,20.78 L15.28,19.28 C14.28,19.74 13.17,20 12,20 Z M19,15 L17,15 C16.4477153,15 16,15.4477153 16,16 C16,16.5522847 16.4477153,17 17,17 L19,17 L19,17 L19,19 C19,19.5522847 19.4477153,20 20,20 C20.5522847,20 21,19.5522847 21,19 L21,17 L21,17 L23,17 C23.5522847,17 24,16.5522847 24,16 C24,15.4477153 23.5522847,15 23,15 L21,15 L21,15 L21,13 C21,12.4477153 20.5522847,12 20,12 C19.4477153,12 19,12.4477153 19,13 L19,15 L19,15 Z" id="Shape" fill="#95A1AC"></path>
    </g>
</svg>