<?xml version="1.0" encoding="UTF-8"?>
<svg width="24px" height="24px" viewBox="0 0 24 24" version="1.1" xmlns="http://www.w3.org/2000/svg" xmlns:xlink="http://www.w3.org/1999/xlink">
    <title>UI Icons/SVG /updatePageDeploy</title>
    <g id="UI-Icons/updatePageDeploy" stroke="none" stroke-width="1" fill="none" fill-rule="evenodd">
        <path d="M18,16.5857864 L18,18.5857864 L18,18.5857864 L6,18.5857864 L6,16.5857864 C6,16.0335017 5.55228475,15.5857864 5,15.5857864 C4.44771525,15.5857864 4,16.0335017 4,16.5857864 L4,18.5857864 L4,18.5857864 C4,19.6857864 4.9,20.5857864 6,20.5857864 L18,20.5857864 C19.1,20.5857864 20,19.6857864 20,18.5857864 L20,16.5857864 C20,16.0335017 19.5522847,15.5857864 19,15.5857864 C18.4477153,15.5857864 18,16.0335017 18,16.5857864 Z M7.705,9.29078644 C8.09458114,9.68036757 8.72602837,9.68097826 9.11636232,9.29215139 L11,7.41578644 L11,7.41578644 L11,14.5857864 C11,15.1380712 11.4477153,15.5857864 12,15.5857864 C12.5522847,15.5857864 13,15.1380712 13,14.5857864 L13,7.41578644 L13,7.41578644 L14.8836377,9.29215139 C15.2739716,9.68097826 15.9054189,9.68036757 16.295,9.29078644 C16.6843607,8.90142569 16.6843607,8.27014719 16.295,7.88078644 L12.7071068,4.29289322 C12.3165825,3.90236893 11.6834175,3.90236893 11.2928932,4.29289322 L7.705,7.88078644 C7.31563925,8.27014719 7.31563925,8.90142569 7.705,9.29078644 Z" id="Shape" fill="#FFFFFF"></path>
    </g>
</svg>