<?xml version="1.0" encoding="UTF-8"?>
<svg width="24px" height="24px" viewBox="0 0 24 24" version="1.1" xmlns="http://www.w3.org/2000/svg" xmlns:xlink="http://www.w3.org/1999/xlink">
    <title>UI Icons /SVG /upgradeToAnnual</title>
    <g id="UI-Icons-/upgradeToAnnual" stroke="none" stroke-width="1" fill="none" fill-rule="evenodd">
        <path d="M6.88194444,2.83333333 C7.34601705,2.83333333 7.72222222,3.20953851 7.72222222,3.67361111 L7.72222222,4.51388889 L10.166,4.513 L10.166,6.194 L5.20138889,6.19444444 C3.80917108,6.19444444 2.68055556,7.32305997 2.68055556,8.71527778 L2.68055556,9.55555556 L10.166,9.555 L10.1666667,11.0833335 C10.1666667,11.1345817 10.1672675,11.1856895 10.1684624,11.2366503 L2.68055556,11.2361111 L2.68055556,18.7986111 C2.68055556,20.1908289 3.80917108,21.3194444 5.20138889,21.3194444 L16.9652778,21.3194444 C18.3574956,21.3194444 19.4861111,20.1908289 19.4861111,18.7986111 L19.486,17.5 L21.166,17.5 L21.1666667,18.7986111 C21.1638886,21.1178224 19.2844891,22.9972219 16.9652778,23 L5.20138889,23 C2.88217756,22.9972219 1.00277806,21.1178224 1,18.7986111 L1,8.71527778 C1.00277806,6.39606645 2.88217756,4.51666694 5.20138889,4.51388889 L6.04166667,4.51388889 L6.04166667,3.67361111 C6.04166667,3.20953851 6.41787184,2.83333333 6.88194444,2.83333333 Z M6.88194444,16.1770833 C7.57805335,16.1770833 8.14236111,16.7413911 8.14236111,17.4375 C8.14236111,18.1336089 7.57805335,18.6979167 6.88194444,18.6979167 C6.18583554,18.6979167 5.62152778,18.1336089 5.62152778,17.4375 C5.62152778,16.7413911 6.18583554,16.1770833 6.88194444,16.1770833 Z M10.8819444,16.1770833 C11.5780533,16.1770833 12.1423611,16.7413911 12.1423611,17.4375 C12.1423611,18.1336089 11.5780533,18.6979167 10.8819444,18.6979167 C10.1858355,18.6979167 9.62152778,18.1336089 9.62152778,17.4375 C9.62152778,16.7413911 10.1858355,16.1770833 10.8819444,16.1770833 Z M6.88194444,12.1770833 C7.57805335,12.1770833 8.14236111,12.7413911 8.14236111,13.4375 C8.14236111,14.1336089 7.57805335,14.6979167 6.88194444,14.6979167 C6.18583554,14.6979167 5.62152778,14.1336089 5.62152778,13.4375 C5.62152778,12.7413911 6.18583554,12.1770833 6.88194444,12.1770833 Z M17.0426587,1 C17.0819532,1 17.1212583,1.00286204 17.1601795,1.00843156 C17.1852302,1.01239686 17.1852302,1.01239686 17.2112461,1.01786826 C17.245413,1.02567054 17.245413,1.02567054 17.2798518,1.03554242 C17.3109185,1.04556817 17.3109185,1.04556817 17.3419386,1.05776309 L17.3914579,1.07915405 L17.4318378,1.09998296 L17.4547383,1.11326932 L17.4852575,1.13197952 C17.4897659,1.13487481 17.4951845,1.13841028 17.5033124,1.14371348 L17.5576749,1.1846687 L17.5713312,1.19663382 L17.5802154,1.20311434 L17.611059,1.23299269 L17.6483758,1.26875368 L22.7511168,6.74171927 L22.8235502,6.83073803 C23.0858265,7.20884684 23.0515443,7.71974052 22.7485051,8.0419789 L22.6677981,8.11777963 C22.3318807,8.39562361 21.8478999,8.36918108 21.5402312,8.03918975 L17.8970995,4.13309036 L17.8986058,12.915642 L17.8922937,13.0240206 C17.8332186,13.4931975 17.4713961,13.8333333 17.0425942,13.8333333 L16.9428985,13.8271708 C16.5176596,13.7742556 16.1865826,13.3870156 16.1865826,12.9156635 L16.1861538,4.13404718 L12.5447406,8.03924035 L12.461728,8.11693595 C12.1113616,8.39657054 11.6378694,8.36248005 11.3364635,8.04192527 C10.9999427,7.68402475 10.9988125,7.10106141 11.3339524,6.74166541 L16.4375404,1.26869982 L16.4489851,1.25653291 C16.4821179,1.22357796 16.4821179,1.22357796 16.5138131,1.19597932 L16.5313514,1.18162907 C16.5397502,1.17495886 16.5397502,1.17495886 16.5455069,1.17051125 C16.5795559,1.14533179 16.5795559,1.14533179 16.6145701,1.12278336 C16.6399618,1.10745144 16.6399618,1.10745144 16.6657836,1.09351961 C16.7018458,1.07527332 16.7018458,1.07527332 16.7395774,1.05919126 L16.7848589,1.042391 C16.8060337,1.03555034 16.813092,1.03327012 16.8250422,1.0299767 L16.8728039,1.01808343 C16.8847435,1.01543305 16.8920483,1.01415603 16.9139628,1.01032498 L16.9612932,1.00398274 L16.9721981,1.00316241 L16.9900444,1.00162545 L17.0142586,1.00144414 L17.0327687,1.00023713 Z" id="Combined-Shape" fill="#95A1AC"></path>
    </g>
</svg>