<?xml version="1.0" encoding="UTF-8"?>
<svg width="24px" height="24px" viewBox="0 0 24 24" version="1.1" xmlns="http://www.w3.org/2000/svg" xmlns:xlink="http://www.w3.org/1999/xlink">
    <title>UI Icons/SVG /userDelete</title>
    <g id="UI-Icons/userDelete" stroke="none" stroke-width="1" fill="none" fill-rule="evenodd">
        <path d="M10.5,13.6666667 C10.9573431,13.667174 11.4051068,13.7085655 11.8398331,13.7873831 C11.6136606,14.291443 11.4578423,14.8325181 11.3833673,15.3992117 C11.0961639,15.3560918 10.8007397,15.3333334 10.5,15.3333334 C7.27833899,15.3333334 4.66666671,17.9450057 4.66666667,21.1666667 C4.66666667,21.626904 4.29357062,22 3.83333333,22 C3.37309604,22 3,21.626904 3,21.1666667 C3.00459261,17.0264349 6.35976819,13.6712593 10.5,13.6666667 Z M15.3300384,15.0063464 L15.4235543,15.0870942 L17.499,17.1638 L19.5748395,15.0893676 C19.9004832,14.7637239 20.4284559,14.7637239 20.7540995,15.0893676 C21.0501392,15.3854073 21.0770519,15.848661 20.8348376,16.1751033 L20.7540995,16.2686276 L18.679,18.3428 L20.7558287,20.4204805 C21.0814384,20.7461581 21.0813834,21.2741308 20.7557058,21.5997405 C20.4596352,21.8957494 19.9963786,21.9226138 19.6699616,21.6803654 L19.5764457,21.5996176 L17.5,19.5218 L15.4262723,21.5964548 C15.1006287,21.9220985 14.572656,21.9220985 14.2470123,21.5964548 C13.9509726,21.3004151 13.9240599,20.8371613 14.1662742,20.5107191 L14.2470123,20.4171948 L16.321,18.3428 L14.2441713,16.2662313 C13.9185616,15.9405537 13.9186166,15.412581 14.2442942,15.0869713 C14.5403648,14.7909625 15.0036214,14.764098 15.3300384,15.0063464 Z M10.5,2 C13.2614237,2 15.5,4.23857625 15.5,7 C15.5,9.76142375 13.2614237,12 10.5,12 C7.73971869,11.9972439 5.50275615,9.76028131 5.5,7 C5.5,4.23857625 7.73857625,2 10.5,2 Z M10.5,3.66666667 C8.65905083,3.66666667 7.16666667,5.15905083 7.16666667,7 C7.16666667,8.84094917 8.65905083,10.3333333 10.5,10.3333333 C12.3409492,10.3333333 13.8333333,8.84094917 13.8333333,7 C13.8333333,5.15905083 12.3409492,3.66666667 10.5,3.66666667 Z" id="Combined-Shape" fill="#95A1AC"></path>
    </g>
</svg>