<?xml version="1.0" encoding="UTF-8"?>
<svg width="60px" height="60px" viewBox="0 0 60 60" version="1.1" xmlns="http://www.w3.org/2000/svg" xmlns:xlink="http://www.w3.org/1999/xlink">
    <title>UI Icons/Sidebar Icons/SVG /_icon_Setting</title>
    <g id="UI-Icons/Sidebar-Icons/_icon_Setting" stroke="none" stroke-width="1" fill="none" fill-rule="evenodd">
        <path d="M31.4267533,7.0000005 C33.0686916,6.99933848 34.6409889,7.6498436 35.7854704,8.80332935 C36.9299521,9.95681527 37.5491524,11.5150495 37.4993207,12.9693136 L37.5189829,13.311338 C37.5589444,13.6481538 37.6708806,13.9732142 37.8523606,14.2728402 C38.2059788,14.8636562 38.7849397,15.2924015 39.4615701,15.4645288 C40.1382005,15.636656 40.856925,15.5380274 41.5375943,15.147842 L41.9169711,14.9558889 C44.7653286,13.6439392 48.181513,14.6865239 49.7614251,17.3730646 L51.1813791,19.7871832 C51.2188105,19.8508219 51.2518098,19.9165907 51.2802535,19.9840377 L51.4120034,20.2426543 C52.6820363,22.8983337 51.7784163,26.0572463 49.3655975,27.6621201 L48.769781,28.0289462 C48.4582915,28.2417203 48.1985833,28.5196496 48.0032984,28.8536024 C47.6505921,29.4467355 47.5537857,30.1531573 47.7343167,30.8164331 C47.9148476,31.4797089 48.3578187,32.0451061 49.0297528,32.4257249 L49.4163715,32.6684302 C50.5842885,33.4688151 51.4279389,34.6484981 51.7959578,36.0006101 C52.21117,37.5261116 51.9885201,39.1508467 51.1660878,40.5336237 L49.6385555,43.0267698 L49.4082645,43.3784381 C47.6134811,45.9070498 44.1287712,46.6796351 41.4694434,45.1756943 L41.1542654,45.0165885 C40.8254886,44.8725385 40.4707003,44.7933913 40.1477526,44.7845195 C39.4452087,44.7812023 38.7704603,45.0531656 38.273681,45.5398807 C37.7769017,46.0265957 37.4993148,46.6876743 37.5011283,47.4563651 L37.4823425,47.8538326 C37.2251823,50.9312744 34.5956539,53.315789 31.427458,53.315789 L28.5666684,53.315789 C25.2113936,53.315789 22.491406,50.6509056 22.4948057,47.4692284 L22.4751435,47.127204 C22.435182,46.7903882 22.3232458,46.4653278 22.1325708,46.1501484 C21.7867168,45.5578405 21.2136966,45.1254282 20.5408782,44.9490258 C19.8680599,44.7726235 19.1511945,44.8668482 18.457298,45.2598782 L18.0450151,45.4616025 C16.7411799,46.0361075 15.270491,46.1422366 13.8924131,45.758507 C12.3376194,45.3255705 11.0230158,44.3034473 10.2558683,42.9465991 L8.77993573,40.4497063 L8.58350026,40.0797524 C7.23943179,37.3001295 8.29297942,33.9586375 10.9668713,32.4446311 L11.2107326,32.295008 C11.9250596,31.8106179 12.3533775,31.0119953 12.3533775,30.1578951 C12.3533775,29.2291681 11.8476589,28.3709899 10.9630133,27.8687586 L10.6040732,27.643133 C8.02317496,25.8847102 7.23461424,22.4705972 8.83344005,19.7529485 L10.3370449,17.3322574 C12.0092892,14.4887117 15.7151762,13.5077563 18.5654424,15.1092293 L18.8739906,15.2703755 C19.1885367,15.4118206 19.5302045,15.4868979 19.859186,15.4903339 C21.3098056,15.4904804 22.4916416,14.3492077 22.51361,12.886291 L22.5333179,12.4370216 C22.6520982,11.046062 23.2681587,9.73888614 24.2752705,8.74743368 C25.4115182,7.62885321 26.9558912,7.0000005 28.5666684,7.0000005 Z M31.427458,10.3526591 L28.5666684,10.3526591 C27.8662917,10.3526591 27.1948031,10.6260823 26.7007746,11.1124293 C26.2629009,11.5434946 25.9950228,12.1118866 25.9480231,12.6426763 L25.9169123,13.3487398 C25.6773228,16.4272819 23.0519186,18.8433113 19.8412413,18.842902 C19.0136119,18.8344808 18.1977049,18.6551953 17.3656682,18.2784869 L16.9201907,18.0482952 C15.6509009,17.3357226 14.0324115,17.7641399 13.281327,19.0403598 L11.7777081,21.4610747 C11.0887277,22.632598 11.4333071,24.1244718 12.5001276,24.8529936 L13.1038858,25.2275871 C14.7666557,26.3290996 15.775362,28.173139 15.775362,30.1578951 C15.775362,32.1136999 14.7948172,33.9419805 13.0998148,35.0896647 L12.7390025,35.3119172 C11.5513501,35.9850758 11.0930234,37.4387311 11.6450176,38.5835138 L11.775372,38.8302971 L13.2325743,41.2931577 C13.5747621,41.8980927 14.1488951,42.3444894 14.8279274,42.5335678 C15.4297676,42.7011518 16.072116,42.6547981 16.5732414,42.43578 L16.8250077,42.3150159 C18.2148447,41.5204698 19.871051,41.3027782 21.4254933,41.7103284 C22.9799357,42.1178787 24.3038099,43.1169003 25.0890724,44.462169 C25.5115047,45.1595045 25.7788098,45.9357528 25.8822846,46.8280257 L25.9289596,47.6468523 C26.0730121,48.9492904 27.1989945,49.9631305 28.5666684,49.9631305 L31.427458,49.9631305 C32.810708,49.9631305 33.9597178,48.9211829 34.0676556,47.644748 L34.0807558,47.3921428 C34.0729686,45.8090616 34.7114047,44.2886136 35.8539725,43.1691931 C36.9965403,42.0497726 38.548428,41.4242706 40.2017746,41.4324806 C41.0129788,41.4537517 41.8113739,41.63186 42.6274788,41.9916653 L43.3592072,42.3578394 C44.5076785,42.8517636 45.8699579,42.491346 46.5604307,41.5207959 L46.7282797,41.2637311 L48.220535,38.8272956 C48.5732413,38.2341626 48.6700477,37.5277408 48.4895168,36.864465 C48.3295089,36.2765915 47.9626691,35.7636365 47.5178347,35.4567919 L46.887294,35.0662548 C45.6816493,34.2678808 44.8053413,33.0671075 44.4278756,31.680288 C44.0126634,30.1547865 44.2353134,28.5300514 45.0402066,27.1765829 C45.4808203,26.4228911 46.0863579,25.7748691 46.8758527,25.237586 L47.2480721,25.007892 C48.4338734,24.3283687 48.8918117,22.8748274 48.3438079,21.7257238 L48.1800843,21.4164655 L48.1507356,21.3515429 L46.7964504,19.0469322 C46.1559156,17.9577434 44.8230197,17.4871211 43.6920231,17.8589646 L43.4350149,17.9598315 L43.1961356,18.0790847 C41.8108188,18.8786274 40.1577879,19.1054684 38.6015715,18.7095842 C37.0453552,18.3137001 35.7137738,17.327607 34.905054,15.976373 C34.4826217,15.2790375 34.2153166,14.5027892 34.1118418,13.6105163 L34.0814411,13.0268121 C34.1020275,12.3245377 33.8316013,11.6440028 33.3317664,11.1402354 C32.8319315,10.6364681 32.1452545,10.3526591 31.427458,10.3526591 Z M30.0075041,22.5894796 C34.2738567,22.5894796 37.7324189,25.9779746 37.7324189,30.1578951 C37.7324189,34.3378156 34.2738567,37.7263106 30.0075041,37.7263106 C25.7411514,37.7263106 22.2825892,34.3378156 22.2825892,30.1578951 C22.2825892,25.9779746 25.7411514,22.5894796 30.0075041,22.5894796 Z M30.0075041,25.942138 C27.6310613,25.942138 25.7045738,27.8295968 25.7045738,30.1578951 C25.7045738,32.4861934 27.6310613,34.3736522 30.0075041,34.3736522 C32.3839468,34.3736522 34.3104343,32.4861934 34.3104343,30.1578951 C34.3104343,27.8295968 32.3839468,25.942138 30.0075041,25.942138 Z" id="Setting" fill="#95A1AC"></path>
    </g>
</svg>