<?xml version="1.0" encoding="UTF-8"?>
<svg width="60px" height="60px" viewBox="0 0 60 60" version="1.1" xmlns="http://www.w3.org/2000/svg" xmlns:xlink="http://www.w3.org/1999/xlink">
    <title>UI Icons/Sidebar Icons/SVG /_icon_button</title>
    <g id="UI-Icons/Sidebar-Icons/_icon_button" stroke="none" stroke-width="1" fill="none" fill-rule="evenodd">
        <g id="Plus" transform="translate(7.5, 7.5)" fill="#95A1AC" fill-rule="nonzero">
            <path d="M32.307309,0 C39.9376853,0 45,5.43746555 45,13.2596309 L45,31.7403691 C45,39.5625344 39.9376853,45 32.307309,45 L12.692691,45 C5.06231474,45 0,39.5625344 0,31.7403691 L0,13.2596309 C0,5.44477656 5.07568756,0 12.692691,0 Z M32.307309,3.13953488 L12.692691,3.13953488 C6.86076523,3.13953488 3.13953488,7.1313621 3.13953488,13.2596309 L3.13953488,31.7403691 C3.13953488,37.8767825 6.84836852,41.8604651 12.692691,41.8604651 L32.307309,41.8604651 C38.1516315,41.8604651 41.8604651,37.8767825 41.8604651,31.7403691 L41.8604651,13.2596309 C41.8604651,7.12321748 38.1516315,3.13953488 32.307309,3.13953488 Z M22.5,13.2432014 C23.2947121,13.2432014 23.9514927,13.833756 24.0554373,14.5999607 L24.0697674,14.8129688 L24.069,20.91 L30.1744186,20.910318 C31.0413772,20.910318 31.744186,21.6131268 31.744186,22.4800854 C31.744186,23.2747975 31.1536314,23.9315781 30.3874267,24.0355227 L30.1744186,24.0498529 L24.069,24.049 L24.0697674,30.147202 C24.0697674,31.0141606 23.3669586,31.7169694 22.5,31.7169694 C21.7052879,31.7169694 21.0485073,31.1264148 20.9445627,30.3602101 L20.9302326,30.147202 L20.93,24.049 L14.8255814,24.0498529 C13.9586228,24.0498529 13.255814,23.347044 13.255814,22.4800854 C13.255814,21.6853733 13.8463686,21.0285927 14.6125733,20.9246481 L14.8255814,20.910318 L20.93,20.91 L20.9302326,14.8129688 C20.9302326,13.9460102 21.6330414,13.2432014 22.5,13.2432014 Z"></path>
        </g>
    </g>
</svg>