<?xml version="1.0" encoding="UTF-8"?>
<svg width="60px" height="60px" viewBox="0 0 60 60" version="1.1" xmlns="http://www.w3.org/2000/svg" xmlns:xlink="http://www.w3.org/1999/xlink">
    <title>UI Icons/Sidebar Icons/SVG /animation</title>
    <g id="UI-Icons/Sidebar-Icons/animation" stroke="none" stroke-width="1" fill="none" fill-rule="evenodd">
        <path d="M45.8261365,32.3491107 C40.2169465,32.3491107 35.652273,27.7844373 35.652273,22.1752472 C35.652273,16.5660572 40.2169465,12.0013838 45.8261365,12.0013838 C51.4353266,12.0013838 56,16.5660572 56,22.1752472 C56,27.7844373 51.4353266,32.3491107 45.8261365,32.3491107 Z M32.2315941,26.3261835 C32.0269864,25.7372299 31.3849025,25.4229706 30.793688,25.6275783 C26.2527536,27.1988749 21.6858193,31.2593769 19.2870484,37.4405642 C17.8061861,25.0521897 13.2573387,16.5626659 5.70041897,12.1539917 C5.16007377,11.8397324 4.46825106,12.0217315 4.15399172,12.5609463 C3.83973238,13.100161 4.02173149,13.7919837 4.56094626,14.1073735 C13.1895129,19.1423055 17.5654046,30.2239037 17.5654046,47.0446913 C17.5654046,47.6686883 18.071837,48.1751206 18.6958339,48.1751206 C19.3198309,48.1751206 19.8262632,47.6686883 19.8262632,47.0446913 C19.8262632,36.5260469 25.7056259,29.7819058 31.5329888,27.7640896 C32.1230728,27.5606123 32.4350713,26.9162676 32.2315941,26.3261835 Z" id="Combined-Shape" fill="#95A1AC"></path>
    </g>
</svg>