<?xml version="1.0" encoding="UTF-8"?>
<svg width="60px" height="60px" viewBox="0 0 60 60" version="1.1" xmlns="http://www.w3.org/2000/svg" xmlns:xlink="http://www.w3.org/1999/xlink">
    <title>UI Icons/Sidebar Icons/SVG /appBar</title>
    <g id="UI-Icons/Sidebar-Icons/appBar" stroke="none" stroke-width="1" fill="none" fill-rule="evenodd">
        <path d="M48.9090909,21 C51.1684376,21 53,22.8315624 53,25.0909091 L53,38.3863636 L8,38.3863636 L8,25.0909091 C8,22.8315624 9.83156239,21 12.0909091,21 L48.9090909,21 Z M48.9090909,24.0681818 L12.0909091,24.0681818 C11.5664179,24.0681818 11.1341404,24.4629956 11.0750625,24.9716375 L11.0681818,25.0909091 L11.0681818,35.3181818 L49.9318182,35.3181818 L49.9318182,25.0909091 C49.9318182,24.5664179 49.5370044,24.1341404 49.0283625,24.0750625 L48.9090909,24.0681818 Z M36.6590909,27.1363636 C37.2113757,27.1363636 37.6590909,27.5840789 37.6590909,28.1363636 L37.6590909,31.25 C37.6590909,31.8022847 37.2113757,32.25 36.6590909,32.25 L24.3409091,32.25 C23.7886243,32.25 23.3409091,31.8022847 23.3409091,31.25 L23.3409091,28.1363636 C23.3409091,27.5840789 23.7886243,27.1363636 24.3409091,27.1363636 L36.6590909,27.1363636 Z M15.0731175,26.9640412 C15.171937,27.0647429 15.1806184,27.2220178 15.0993722,27.3326616 L15.0723008,27.3643526 L13.5279008,28.925719 L16.7629504,28.9261736 C16.865648,28.9261736 16.9489008,29.1551189 16.9489008,29.4375372 C16.9489008,29.6964207 16.8789453,29.9103719 16.7881828,29.9442327 L16.7629504,29.9489008 L13.5269008,29.948719 L15.0722844,31.5107052 C15.1814459,31.6210101 15.1818262,31.8002356 15.0731338,31.9110165 C14.9743225,32.0117265 14.8193847,32.0212009 14.7100161,31.9392175 L14.6786743,31.9118785 L12.4286743,29.6383126 C12.32914,29.5377358 12.3200854,29.3799324 12.4015146,29.2689439 L12.4286579,29.2371558 L14.6786579,26.9632124 C14.7878104,26.8528984 14.964416,26.8532694 15.0731175,26.9640412 Z" id="Combined-Shape" fill="#95A1AC"></path>
    </g>
</svg>