<?xml version="1.0" encoding="UTF-8"?>
<svg width="60px" height="60px" viewBox="0 0 60 60" version="1.1" xmlns="http://www.w3.org/2000/svg" xmlns:xlink="http://www.w3.org/1999/xlink">
    <title>UI Icons/Sidebar Icons/SVG /Avatar</title>
    <g id="UI-Icons/Sidebar-Icons/Avatar" stroke="none" stroke-width="1" fill="none" fill-rule="evenodd">
        <g id="Profile" transform="translate(12.5, 7.5)" fill="#95A1AC" fill-rule="nonzero">
            <path d="M17.5093937,0 C11.0912143,0 5.88825189,5.22514671 5.88825189,11.6706918 C5.88825189,18.1162369 11.0912143,23.3413836 17.5093937,23.3413836 C23.9275731,23.3413836 29.1305355,18.1162369 29.1305355,11.6706918 C29.1305355,5.22514671 23.9275731,0 17.5093937,0 Z M17.5093937,3.16677572 C22.1860367,3.16677572 25.9772049,6.97410864 25.9772049,11.6706918 C25.9772049,16.367275 22.1860367,20.1746079 17.5093937,20.1746079 C12.8327507,20.1746079 9.0415825,16.367275 9.0415825,11.6706918 C9.0415825,6.97410864 12.8327507,3.16677572 17.5093937,3.16677572 Z M12.7532782,28.0456868 C11.0520154,28.1637852 9.33237547,28.4066407 7.63616463,28.7701563 C4.36230302,29.4445303 1.74315824,30.7919063 0.628378487,33.0309722 C0.207915746,33.906638 -0.0034792905,34.8442289 4.33059213e-05,35.7934399 C-0.00117369298,36.7358202 0.208509867,37.6745938 0.613894723,38.5334107 C1.68429381,40.746724 3.99836369,41.9992726 7.12307333,42.6935805 L7.68281949,42.8103925 C9.33297897,43.1827069 11.053137,43.4333626 12.7848087,43.5510283 C12.9322962,43.594243 13.2838042,43.634459 13.6674596,43.65405 L13.9830223,43.6658794 C14.1452793,43.6696404 14.3294329,43.6705862 14.6038076,43.6705862 C17.0928304,43.8075022 19.6731519,43.7676357 22.2414831,43.5489812 C23.6101628,43.4553441 24.9880664,43.2763496 26.3544532,43.0141045 L27.3767598,42.8018442 C30.750963,42.1362084 33.2775468,40.8703556 34.3844631,38.5359202 C35.2051167,36.8027379 35.2051167,34.7915154 34.3848368,33.0591218 C33.2807067,30.7305616 30.7862523,29.4752269 27.35115,28.7675861 C26.0034429,28.4798572 24.6339265,28.2669679 23.2546403,28.1310042 L22.2462669,28.0456868 C19.088018,27.7670785 15.9115271,27.7670785 12.7532782,28.0456868 Z M21.9703361,31.2003151 L21.9980711,31.2025143 C23.5810388,31.3139299 25.1543379,31.5361184 26.7065096,31.8674617 C29.2580549,32.3931282 30.9896455,33.2645516 31.5374454,34.4198364 C31.9499309,35.2909874 31.9499309,36.3032659 31.5370717,37.1752056 C31.0252133,38.2546909 29.4700516,39.0887171 27.2223327,39.5983794 L26.7302061,39.7025993 C25.1475179,40.0557462 23.5794194,40.2833518 22.0009465,40.3915392 C19.5517747,40.5998347 17.1171161,40.6374507 14.6885982,40.5061018 L13.8275916,40.4913602 C13.5885722,40.4791548 13.3871358,40.4561085 13.2004531,40.4186128 C11.7222514,40.3070386 10.3921194,40.1305202 9.10063062,39.8745078 L8.3294991,39.7112447 C5.77002929,39.2095999 4.02318345,38.3344064 3.45681411,37.1633801 C3.25863409,36.7433649 3.15277383,36.2694182 3.15336188,35.7895584 C3.15163313,35.3124113 3.25609546,34.8490943 3.45888109,34.4265831 C4.00957189,33.3208778 5.86078012,32.3685542 8.28203845,31.8697681 C9.84539857,31.5347746 11.4179533,31.3126912 13.000216,31.2026024 C16.0038575,30.9379034 18.9956876,30.9379034 21.9703361,31.2003151 Z"></path>
        </g>
    </g>
</svg>