<?xml version="1.0" encoding="UTF-8"?>
<svg width="60px" height="60px" viewBox="0 0 60 60" version="1.1" xmlns="http://www.w3.org/2000/svg" xmlns:xlink="http://www.w3.org/1999/xlink">
    <title>UI Icons/Sidebar Icons/SVG /BarCode</title>
    <g id="UI-Icons/Sidebar-Icons/BarCode" stroke="none" stroke-width="1" fill="none" fill-rule="evenodd">
        <g id="barcode" transform="translate(6, 12)" fill="#95A1AC">
            <path d="M8.90625,0 L3.28125,0 C1.47196875,0 0,1.47196875 0,3.28125 L0,8.90625 C0,9.682875 0.629625,10.3125 1.40625,10.3125 C2.182875,10.3125 2.8125,9.682875 2.8125,8.90625 L2.8125,3.28125 C2.8125,3.02278125 3.02278125,2.8125 3.28125,2.8125 L8.90625,2.8125 C9.682875,2.8125 10.3125,2.182875 10.3125,1.40625 C10.3125,0.629625 9.682875,0 8.90625,0 Z" id="Path"></path>
            <path d="M8.90625,33.75 L3.28125,33.75 C3.02278125,33.75 2.8125,33.5397187 2.8125,33.28125 L2.8125,27.65625 C2.8125,26.879625 2.182875,26.25 1.40625,26.25 C0.629625,26.25 0,26.879625 0,27.65625 L0,33.28125 C0,35.0905312 1.47196875,36.5625 3.28125,36.5625 L8.90625,36.5625 C9.682875,36.5625 10.3125,35.932875 10.3125,35.15625 C10.3125,34.379625 9.682875,33.75 8.90625,33.75 Z" id="Path"></path>
            <path d="M46.59375,26.25 C45.817125,26.25 45.1875,26.879625 45.1875,27.65625 L45.1875,33.28125 C45.1875,33.5397187 44.9772187,33.75 44.71875,33.75 L39.09375,33.75 C38.317125,33.75 37.6875,34.379625 37.6875,35.15625 C37.6875,35.932875 38.317125,36.5625 39.09375,36.5625 L44.71875,36.5625 C46.5280312,36.5625 48,35.0905312 48,33.28125 L48,27.65625 C48,26.879625 47.370375,26.25 46.59375,26.25 Z" id="Path"></path>
            <path d="M44.71875,0 L39.09375,0 C38.317125,0 37.6875,0.629625 37.6875,1.40625 C37.6875,2.182875 38.317125,2.8125 39.09375,2.8125 L44.71875,2.8125 C44.9772187,2.8125 45.1875,3.02278125 45.1875,3.28125 L45.1875,8.90625 C45.1875,9.682875 45.817125,10.3125 46.59375,10.3125 C47.370375,10.3125 48,9.682875 48,8.90625 L48,3.28125 C48,1.47196875 46.5280312,0 44.71875,0 Z" id="Path"></path>
            <path d="M7.625,29.4375 L7.625,7.125 C7.625,6.348375 7.17726667,5.71875 6.625,5.71875 C6.07273333,5.71875 5.625,6.348375 5.625,7.125 L5.625,29.4375 C5.625,30.214125 6.07273333,30.84375 6.625,30.84375 C7.17726667,30.84375 7.625,30.214125 7.625,29.4375 Z" id="Path"></path>
            <path d="M12.25,5.71875 C11.6977333,5.71875 11.25,6.348375 11.25,7.125 L11.25,21.9375 C11.25,22.714125 11.6977333,23.34375 12.25,23.34375 C12.8022667,23.34375 13.25,22.714125 13.25,21.9375 L13.25,7.125 C13.25,6.348375 12.8022667,5.71875 12.25,5.71875 Z" id="Path"></path>
            <path d="M17.875,5.71875 C17.3227333,5.71875 16.875,6.348375 16.875,7.125 L16.875,29.4375 C16.875,30.214125 17.3227333,30.84375 17.875,30.84375 C18.4272667,30.84375 18.875,30.214125 18.875,29.4375 L18.875,7.125 C18.875,6.348375 18.4272667,5.71875 17.875,5.71875 Z" id="Path"></path>
            <path d="M23.5,5.71875 C22.9477333,5.71875 22.5,6.348375 22.5,7.125 L22.5,21.9375 C22.5,22.714125 22.9477333,23.34375 23.5,23.34375 C24.0522667,23.34375 24.5,22.714125 24.5,21.9375 L24.5,7.125 C24.5,6.348375 24.0522667,5.71875 23.5,5.71875 Z" id="Path"></path>
            <path d="M29.125,5.71875 C28.5727333,5.71875 28.125,6.348375 28.125,7.125 L28.125,21.9375 C28.125,22.714125 28.5727333,23.34375 29.125,23.34375 C29.6772667,23.34375 30.125,22.714125 30.125,21.9375 L30.125,7.125 C30.125,6.348375 29.6772667,5.71875 29.125,5.71875 Z" id="Path"></path>
            <path d="M34.75,5.71875 C34.1977333,5.71875 33.75,6.348375 33.75,7.125 L33.75,21.9375 C33.75,22.714125 34.1977333,23.34375 34.75,23.34375 C35.3022667,23.34375 35.75,22.714125 35.75,21.9375 L35.75,7.125 C35.75,6.348375 35.3022667,5.71875 34.75,5.71875 Z" id="Path"></path>
            <path d="M41.375,29.4375 L41.375,7.125 C41.375,6.348375 40.9272667,5.71875 40.375,5.71875 C39.8227333,5.71875 39.375,6.348375 39.375,7.125 L39.375,29.4375 C39.375,30.214125 39.8227333,30.84375 40.375,30.84375 C40.9272667,30.84375 41.375,30.214125 41.375,29.4375 Z" id="Path"></path>
            <path d="M12.25,26.4375 C11.6977333,26.4375 11.25,27.067125 11.25,27.84375 L11.25,29.4375 C11.25,30.214125 11.6977333,30.84375 12.25,30.84375 C12.8022667,30.84375 13.25,30.214125 13.25,29.4375 L13.25,27.84375 C13.25,27.067125 12.8022667,26.4375 12.25,26.4375 Z" id="Path"></path>
            <path d="M23.5,26.4375 C22.9477333,26.4375 22.5,27.067125 22.5,27.84375 L22.5,29.4375 C22.5,30.214125 22.9477333,30.84375 23.5,30.84375 C24.0522667,30.84375 24.5,30.214125 24.5,29.4375 L24.5,27.84375 C24.5,27.067125 24.0522667,26.4375 23.5,26.4375 Z" id="Path"></path>
            <path d="M29.125,26.4375 C28.5727333,26.4375 28.125,27.067125 28.125,27.84375 L28.125,29.4375 C28.125,30.214125 28.5727333,30.84375 29.125,30.84375 C29.6772667,30.84375 30.125,30.214125 30.125,29.4375 L30.125,27.84375 C30.125,27.067125 29.6772667,26.4375 29.125,26.4375 Z" id="Path"></path>
            <path d="M34.75,26.4375 C34.1977333,26.4375 33.75,27.067125 33.75,27.84375 L33.75,29.4375 C33.75,30.214125 34.1977333,30.84375 34.75,30.84375 C35.3022667,30.84375 35.75,30.214125 35.75,29.4375 L35.75,27.84375 C35.75,27.067125 35.3022667,26.4375 34.75,26.4375 Z" id="Path"></path>
        </g>
    </g>
</svg>