<?xml version="1.0" encoding="UTF-8"?>
<svg width="60px" height="60px" viewBox="0 0 60 60" version="1.1" xmlns="http://www.w3.org/2000/svg" xmlns:xlink="http://www.w3.org/1999/xlink">
    <title>UI Icons/Sidebar Icons/SVG /button</title>
    <g id="UI-Icons/Sidebar-Icons/button" stroke="none" stroke-width="1" fill="none" fill-rule="evenodd">
        <path d="M39.807309,7.5 C47.4376853,7.5 52.5,12.9374656 52.5,20.7596309 L52.5,39.2403691 C52.5,47.0625344 47.4376853,52.5 39.807309,52.5 L20.192691,52.5 C12.5623147,52.5 7.5,47.0625344 7.5,39.2403691 L7.5,20.7596309 C7.5,12.9447766 12.5756876,7.5 20.192691,7.5 Z M39.807309,10.6395349 L20.192691,10.6395349 C14.3607652,10.6395349 10.6395349,14.6313621 10.6395349,20.7596309 L10.6395349,39.2403691 C10.6395349,45.3767825 14.3483685,49.3604651 20.192691,49.3604651 L39.807309,49.3604651 C45.6516315,49.3604651 49.3604651,45.3767825 49.3604651,39.2403691 L49.3604651,20.7596309 C49.3604651,14.6232175 45.6516315,10.6395349 39.807309,10.6395349 Z M22.0047619,24.665 C23.7619048,24.665 24.8904762,25.775 24.8904762,27.335 C24.8904762,28.1 24.6047619,29.135 23.5333333,29.48 C24.7904762,29.705 25.4047619,30.875 25.4047619,32.045 C25.4047619,33.47 24.4761905,35 22.3047619,35 L18.1047619,35 L18.1047619,24.665 Z M33.7190476,24.665 L33.7190476,26.51 L31.0047619,26.51 L31.0047619,35 L29.0190476,35 L29.0190476,26.51 L26.3047619,26.51 L26.3047619,24.665 L33.7190476,24.665 Z M37.047619,24.665 L40.5619048,31.07 L40.5619048,24.665 L42.547619,24.665 L42.547619,35 L40.7619048,35 L37.1904762,28.52 L37.1904762,35 L35.2047619,35 L35.2047619,24.665 L37.047619,24.665 Z M22.047619,30.515 L20.0904762,30.515 L20.0904762,33.155 L22.0190476,33.155 C22.947619,33.155 23.4047619,32.525 23.4047619,31.835 C23.4047619,31.19 22.9904762,30.515 22.047619,30.515 Z M21.8904762,26.51 L20.0904762,26.51 L20.0904762,28.775 L21.8904762,28.775 C22.5190476,28.775 22.9047619,28.34 22.9047619,27.635 C22.9047619,27.005 22.5904762,26.51 21.8904762,26.51 Z" id="Combined-Shape" fill="#95A1AC"></path>
    </g>
</svg>