<?xml version="1.0" encoding="UTF-8"?>
<svg width="60px" height="60px" viewBox="0 0 60 60" version="1.1" xmlns="http://www.w3.org/2000/svg" xmlns:xlink="http://www.w3.org/1999/xlink">
    <title>UI Icons/Sidebar Icons/SVG /Card</title>
    <g id="UI-Icons/Sidebar-Icons/Card" stroke="none" stroke-width="1" fill="none" fill-rule="evenodd">
        <path d="M46.8510638,12 C49.6947428,12 52,14.3052572 52,17.1489362 L52,43.3617021 C52,46.2053811 49.6947428,48.5106383 46.8510638,48.5106383 L13.1489362,48.5106383 C10.3052572,48.5106383 8,46.2053811 8,43.3617021 L8,17.1489362 C8,14.3052572 10.3052572,12 13.1489362,12 Z M46.8510638,14.8085106 L13.1489362,14.8085106 C11.8563548,14.8085106 10.8085106,15.8563548 10.8085106,17.1489362 L10.8085106,43.3617021 C10.8085106,44.6542835 11.8563548,45.7021277 13.1489362,45.7021277 L46.8510638,45.7021277 C48.1436452,45.7021277 49.1914894,44.6542835 49.1914894,43.3617021 L49.1914894,17.1489362 C49.1914894,15.8563548 48.1436452,14.8085106 46.8510638,14.8085106 Z M36.5531915,24.6382979 C37.5872566,24.6382979 38.4255319,25.4765732 38.4255319,26.5106383 C38.4255319,27.5447034 37.5872566,28.3829787 36.5531915,28.3829787 L15.0212766,28.3829787 C13.9872115,28.3829787 13.1489362,27.5447034 13.1489362,26.5106383 C13.1489362,25.4765732 13.9872115,24.6382979 15.0212766,24.6382979 L36.5531915,24.6382979 Z M26.2553191,19.0212766 C27.2893842,19.0212766 28.1276596,19.859552 28.1276596,20.893617 C28.1276596,21.9276821 27.2893842,22.7659574 26.2553191,22.7659574 L15.0212766,22.7659574 C13.9872115,22.7659574 13.1489362,21.9276821 13.1489362,20.893617 C13.1489362,19.859552 13.9872115,19.0212766 15.0212766,19.0212766 L26.2553191,19.0212766 Z" id="Rectangle" fill="#95A1AC"></path>
    </g>
</svg>