<?xml version="1.0" encoding="UTF-8"?>
<svg width="60px" height="60px" viewBox="0 0 60 60" version="1.1" xmlns="http://www.w3.org/2000/svg" xmlns:xlink="http://www.w3.org/1999/xlink">
    <title>UI Icons/Sidebar Icons/SVG /Chart</title>
    <g id="UI-Icons/Sidebar-Icons/Chart" stroke="none" stroke-width="1" fill="none" fill-rule="evenodd">
        <path d="M5.5,9 C5.74545989,9 5.94960837,9.17687516 5.99194433,9.41012437 L6,9.5 L6,51 L55.5,51 C55.7454599,51 55.9496084,51.1768752 55.9919443,51.4101244 L56,51.5 C56,51.7454599 55.8231248,51.9496084 55.5898756,51.9919443 L55.5,52 L5.5,52 C5.25454011,52 5.05039163,51.8231248 5.00805567,51.5898756 L5,51.5 L5,9.5 C5,9.22385763 5.22385763,9 5.5,9 Z M39.5,10 C40.0128358,10 40.4355072,10.3860402 40.4932723,10.8833789 L40.5,11 L40.5,22 L40.493976,22.1101457 C41.983576,22.445991 43.1933387,23.5206003 43.718097,24.9288066 L43.901091,24.9076252 C43.9447378,24.9034405 43.9902953,24.8995651 44.0381463,24.8959377 L44.3558372,24.8766608 L44.7469498,24.8604005 C48.15118,24.7369961 50.1725643,24.0803781 52.9265144,21.2966994 C53.3149366,20.9040843 53.9480925,20.9006852 54.3407076,21.2891074 C54.7333228,21.6775296 54.7367218,22.3106854 54.3482997,22.7033006 C51.2721776,25.8126289 48.8366591,26.6677148 45.1670969,26.8444574 L44.3598038,26.8796428 L44.1398316,26.8952372 L43.9813563,26.9123939 C43.8034331,28.870735 42.3708293,30.4666989 40.493976,30.8898543 L40.5,31 L40.5,45 C40.5,45.5522847 40.0522847,46 39.5,46 C38.9871642,46 38.5644928,45.6139598 38.5067277,45.1166211 L38.5,45 L38.5,31 L38.506024,30.8898543 C37.9746386,30.7700481 37.4788643,30.5562295 37.0370942,30.2667913 C36.8021761,30.4658364 36.5585539,30.7035055 36.2606727,31.0175854 L35.3813148,31.9674976 C32.424295,35.1276525 29.3309172,36.1559109 23.0259654,34.82178 L22.6276964,34.7353187 C16.5258909,33.3779123 14.0135063,37.0506102 10.9477718,46.1605757 C10.771621,46.6840156 10.2044907,46.965549 9.68105075,46.7893982 C9.15761084,46.6132474 8.8760774,46.0461171 9.0522282,45.5226772 C12.3609204,35.6907521 15.6396331,31.2923434 22.7516274,32.7174126 L23.0619993,32.7830428 C28.8118973,34.062164 31.2739782,33.3473474 33.7554476,30.7752245 L34.6139934,29.8497561 L35.0180955,29.4244007 C35.2409497,29.1963467 35.4444252,29.0009207 35.6466211,28.8233326 C35.23584,28.145536 35,27.3503097 35,26.5 C35,24.3562673 36.49901,22.5626471 38.506024,22.1101457 L38.5,22 L38.5,11 C38.5,10.4477153 38.9477153,10 39.5,10 Z M39.5,24 C38.1192881,24 37,25.1192881 37,26.5 C37,27.8807119 38.1192881,29 39.5,29 C40.8807119,29 42,27.8807119 42,26.5 C42,25.1192881 40.8807119,24 39.5,24 Z" id="graph_1" fill="#95A1AC"></path>
    </g>
</svg>