<?xml version="1.0" encoding="UTF-8"?>
<svg width="60px" height="60px" viewBox="0 0 60 60" version="1.1" xmlns="http://www.w3.org/2000/svg" xmlns:xlink="http://www.w3.org/1999/xlink">
    <title>UI Icons/Sidebar Icons/SVG /Chart_alt</title>
    <g id="UI-Icons/Sidebar-Icons/Chart_alt" stroke="none" stroke-width="1" fill="none" fill-rule="evenodd">
        <g id="edit-curves" transform="translate(7.5, 11.5)" fill="#95A1AC" fill-rule="nonzero">
            <path d="M0.5,0 C0.745459889,0 0.94960837,0.176875161 0.991944331,0.410124368 L1,0.5 L1,36 L44.5,36 C44.7454599,36 44.9496084,36.1768752 44.9919443,36.4101244 L45,36.5 C45,36.7454599 44.8231248,36.9496084 44.5898756,36.9919443 L44.5,37 L0.5,37 C0.254540111,37 0.0503916296,36.8231248 0.00805566941,36.5898756 L0,36.5 L0,0.5 C0,0.223857625 0.223857625,0 0.5,0 Z M44.5,1.5 C45.0522847,1.5 45.5,1.94771525 45.5,2.5 C45.5,3.05228475 45.0522847,3.5 44.5,3.5 C38.9415939,3.5 35.082847,4.89799334 32.2176336,7.60223972 C30.6692233,9.0636606 29.5993831,10.546791 28.2655367,13.0987446 L27.9261452,13.7596061 C27.86852,13.8736629 27.8103291,13.9897267 27.7515186,14.1078734 L27.3907923,14.8423535 L27.0126197,15.6304574 L26.6144225,16.475821 L25.9910213,17.8110704 L25.5954281,18.6437346 L25.2176601,19.422628 L24.8551479,20.1512748 L24.5053223,20.8331991 C24.4479325,20.9431554 24.3909642,21.0513118 24.334364,21.1577417 L23.9987507,21.7761901 C23.832724,22.0756426 23.669046,22.3608781 23.5062715,22.6338789 L23.181499,23.164155 C23.0192868,23.4217239 22.8570146,23.6683797 22.6932373,23.9061046 L22.3632473,24.3702342 C21.8084917,25.1258952 21.2263058,25.7970091 20.5631626,26.4569957 L20.1551336,26.8522397 C16.901597,29.9229933 12.5487368,31.5 6.5,31.5 C5.94771525,31.5 5.5,31.0522847 5.5,30.5 C5.5,29.9477153 5.94771525,29.5 6.5,29.5 C12.0584061,29.5 15.917153,28.1020067 18.7823664,25.3977603 C20.3307767,23.9363394 21.4006169,22.453209 22.7344633,19.9012554 L23.0738548,19.2403939 C23.13148,19.1263371 23.1896709,19.0102733 23.2484814,18.8921266 L23.6092077,18.1576465 L23.9873803,17.3695426 L24.3855775,16.524179 L25.0089787,15.1889296 L25.4045719,14.3562654 L25.7823399,13.577372 L26.1448521,12.8487252 L26.4946777,12.1668009 C26.5520675,12.0568446 26.6090358,11.9486882 26.665636,11.8422583 L27.0012493,11.2238099 C27.167276,10.9243574 27.330954,10.6391219 27.4937285,10.3661211 L27.818501,9.83584503 C27.9807132,9.57827612 28.1429854,9.33162034 28.3067627,9.09389535 L28.6367527,8.62976576 C29.1915083,7.87410479 29.7736942,7.20299094 30.4368374,6.54300433 L30.8448664,6.14776028 C34.098403,3.07700666 38.4512632,1.5 44.5,1.5 Z" id="Combined-Shape"></path>
        </g>
    </g>
</svg>