<?xml version="1.0" encoding="UTF-8"?>
<svg width="60px" height="60px" viewBox="0 0 60 60" version="1.1" xmlns="http://www.w3.org/2000/svg" xmlns:xlink="http://www.w3.org/1999/xlink">
    <title>UI Icons/Sidebar Icons/SVG /checklistTile</title>
    <g id="UI-Icons/Sidebar-Icons/checklistTile" stroke="none" stroke-width="1" fill="none" fill-rule="evenodd">
        <path d="M53,17 C55.209139,17 57,18.790861 57,21 L57,39 C57,41.209139 55.209139,43 53,43 L7,43 C4.790861,43 3,41.209139 3,39 L3,21 C3,18.790861 4.790861,17 7,17 L53,17 Z M53,19 L7,19 C5.8954305,19 5,19.8954305 5,21 L5,39 C5,40.1045695 5.8954305,41 7,41 L53,41 C54.1045695,41 55,40.1045695 55,39 L55,21 C55,19.8954305 54.1045695,19 53,19 Z M49.4,22 C50.2836556,22 51,22.7163444 51,23.6 L51,36.4 C51,37.2836556 50.2836556,38 49.4,38 L36.6,38 C35.7163444,38 35,37.2836556 35,36.4 L35,23.6 C35,22.7163444 35.7163444,22 36.6,22 L49.4,22 Z M46.7927923,25.8165065 L41.6197714,30.9895274 L39.207322,28.577078 L37.591078,30.193322 L41.6197714,34.2220155 L48.4090363,27.4327506 L46.7927923,25.8165065 Z M23,26 C24.1045695,26 25,26.8954305 25,28 L25,32 C25,33.1045695 24.1045695,34 23,34 L10,34 C8.8954305,34 8,33.1045695 8,32 L8,28 C8,26.8954305 8.8954305,26 10,26 L23,26 Z" id="Combined-Shape" fill="#95A1AC"></path>
    </g>
</svg>