<?xml version="1.0" encoding="UTF-8"?>
<svg width="60px" height="60px" viewBox="0 0 60 60" version="1.1" xmlns="http://www.w3.org/2000/svg" xmlns:xlink="http://www.w3.org/1999/xlink">
    <title>UI Icons/Sidebar Icons/SVG /choiceChips</title>
    <g id="UI-Icons/Sidebar-Icons/choiceChips" stroke="none" stroke-width="1" fill="none" fill-rule="evenodd">
        <g id="Group" transform="translate(0, 8)">
            <path d="M48.1967213,20.3278689 C54.7154921,20.3278689 60,25.6123767 60,32.1311475 C60,38.6499184 54.7154921,43.9344262 48.1967213,43.9344262 L25.9016393,43.9344262 C19.3828685,43.9344262 14.0983607,38.6499184 14.0983607,32.1311475 C14.0983607,30.2466698 14.5399872,28.4653395 15.325391,26.8850057 L18.3666526,26.8854653 C17.3295334,28.3724185 16.7213115,30.1807541 16.7213115,32.1311475 C16.7213115,37.0956744 20.662011,41.1398016 25.5860331,41.3061521 L25.9016393,41.3114754 L48.1967213,41.3114754 C53.2668764,41.3114754 57.3770492,37.2013026 57.3770492,32.1311475 C57.3770492,27.1666207 53.4363497,23.1224935 48.5123275,22.956143 L48.1967213,22.9508197 L45.8917287,22.9502924 C46.5243676,22.1616018 47.045506,21.279631 47.4312344,20.3282895 L48.1967213,20.3278689 Z M32.3855738,29.2563934 C32.7143169,29.2563934 33.0273224,29.3245902 33.3245902,29.4609836 C33.6218579,29.597377 33.884153,29.7862295 34.1114754,30.027541 C34.3387978,30.2688525 34.5189071,30.557377 34.6518033,30.8931148 C34.7846995,31.2288525 34.8511475,31.5960656 34.8511475,31.9947541 C34.8511475,32.3934426 34.7846995,32.7606557 34.6518033,33.0963934 C34.5189071,33.4321311 34.3387978,33.7206557 34.1114754,33.9619672 C33.884153,34.2032787 33.6218579,34.3921311 33.3245902,34.5285246 C33.0273224,34.664918 32.7143169,34.7331148 32.3855738,34.7331148 C31.9938798,34.7331148 31.6651366,34.6561749 31.3993443,34.5022951 C31.1335519,34.3484153 30.9377049,34.1630601 30.8118033,33.9462295 L30.7278689,33.9462295 L30.8118033,34.6806557 L30.8118033,36.8314754 L29.437377,36.8314754 L29.437377,29.4242623 L30.7278689,29.4242623 L30.7278689,30.0432787 L30.8118033,30.0432787 L30.8957377,29.9169574 C31.0188415,29.753565 31.1867104,29.6103169 31.3993443,29.4872131 C31.6651366,29.3333333 31.9938798,29.2563934 32.3855738,29.2563934 Z M24.5796721,26.8852459 C25.139235,26.8852459 25.6585792,26.9866667 26.1377049,27.1895082 C26.6168306,27.3923497 27.0312568,27.6703825 27.3809836,28.0236066 C27.7307104,28.3768306 28.0052459,28.7930055 28.2045902,29.2721311 C28.4039344,29.7512568 28.5036066,30.2636066 28.5036066,30.8091803 C28.5036066,31.3547541 28.4039344,31.8671038 28.2045902,32.3462295 C28.0052459,32.8253552 27.7307104,33.2415301 27.3809836,33.5947541 C27.0312568,33.9479781 26.6168306,34.2260109 26.1377049,34.4288525 C25.6585792,34.631694 25.139235,34.7331148 24.5796721,34.7331148 C24.0201093,34.7331148 23.500765,34.631694 23.0216393,34.4288525 C22.5425137,34.2260109 22.1280874,33.9479781 21.7783607,33.5947541 C21.4286339,33.2415301 21.1540984,32.8253552 20.9547541,32.3462295 C20.7554098,31.8671038 20.6557377,31.3547541 20.6557377,30.8091803 C20.6557377,30.2636066 20.7554098,29.7512568 20.9547541,29.2721311 C21.1540984,28.7930055 21.4286339,28.3768306 21.7783607,28.0236066 C22.1280874,27.6703825 22.5425137,27.3923497 23.0216393,27.1895082 C23.500765,26.9866667 24.0201093,26.8852459 24.5796721,26.8852459 Z M45.0911475,29.2563934 C45.4898361,29.2563934 45.8553005,29.3245902 46.187541,29.4609836 C46.5197814,29.597377 46.8065574,29.7862295 47.0478689,30.027541 C47.2891803,30.2688525 47.4780328,30.557377 47.6144262,30.8931148 C47.7508197,31.2288525 47.8190164,31.5960656 47.8190164,31.9947541 C47.8190164,32.3934426 47.7508197,32.7606557 47.6144262,33.0963934 C47.4780328,33.4321311 47.2891803,33.7206557 47.0478689,33.9619672 C46.8065574,34.2032787 46.5197814,34.3921311 46.187541,34.5285246 C45.8553005,34.664918 45.4898361,34.7331148 45.0911475,34.7331148 C44.692459,34.7331148 44.3269945,34.664918 43.9947541,34.5285246 C43.6625137,34.3921311 43.3757377,34.2032787 43.1344262,33.9619672 C42.8931148,33.7206557 42.7042623,33.4321311 42.5678689,33.0963934 C42.4314754,32.7606557 42.3632787,32.3934426 42.3632787,31.9947541 C42.3632787,31.5960656 42.4314754,31.2288525 42.5678689,30.8931148 C42.7042623,30.557377 42.8931148,30.2688525 43.1344262,30.027541 C43.3757377,29.7862295 43.6625137,29.597377 43.9947541,29.4609836 C44.3269945,29.3245902 44.692459,29.2563934 45.0911475,29.2563934 Z M37.6734426,27.8504918 L37.6734426,29.4242623 L38.932459,29.4242623 L38.932459,30.5993443 L37.6734426,30.5993443 L37.6734426,32.5927869 L37.6775228,32.7087796 C37.682963,32.7841651 37.6938434,32.8556648 37.7101639,32.9232787 C37.7346448,33.0246995 37.7818579,33.1103825 37.8518033,33.1803279 C37.9497268,33.2922404 38.0896175,33.3481967 38.2714754,33.3481967 C38.3903825,33.3481967 38.4848087,33.3359563 38.5547541,33.3114754 C38.6246995,33.2869945 38.6911475,33.2537705 38.7540984,33.2118033 L39.1422951,34.4183607 L38.9773406,34.4888889 C38.8646509,34.5316333 38.7465209,34.5658288 38.6229508,34.5914754 C38.4375956,34.6299454 38.2330055,34.6491803 38.0091803,34.6491803 C37.7503825,34.6491803 37.5178142,34.6089617 37.3114754,34.5285246 C37.1051366,34.4480874 36.9320219,34.3379235 36.7921311,34.1980328 C36.463388,33.8832787 36.2990164,33.4356284 36.2990164,32.855082 L36.2990164,30.5993443 L35.3967213,30.5993443 L35.3967213,29.4242623 L36.2990164,29.4242623 L36.2990164,27.8504918 L37.6734426,27.8504918 Z M41.3980328,29.4242623 L41.3980328,34.5652459 L40.0236066,34.5652459 L40.0236066,29.4242623 L41.3980328,29.4242623 Z M51.6590164,29.2563934 C51.980765,29.2563934 52.2640437,29.3088525 52.5088525,29.4137705 C52.7536612,29.5186885 52.9547541,29.6673224 53.1121311,29.8596721 C53.2695082,30.0520219 53.3884153,30.2828415 53.4688525,30.5521311 C53.5492896,30.8214208 53.5895082,31.1204372 53.5895082,31.4491803 L53.5895082,34.5652459 L52.215082,34.5652459 L52.215082,31.6170492 L52.2100502,31.4640616 C52.1899231,31.1698628 52.1094145,30.9463232 51.9685246,30.7934426 C51.804153,30.615082 51.5645902,30.5259016 51.2498361,30.5259016 C51.0609836,30.5259016 50.8948634,30.5661202 50.7514754,30.6465574 C50.6080874,30.7269945 50.4856831,30.8354098 50.3842623,30.9718033 C50.2828415,31.1081967 50.2059016,31.269071 50.1534426,31.4544262 C50.1009836,31.6397814 50.0747541,31.837377 50.0747541,32.0472131 L50.0747541,34.5652459 L48.7003279,34.5652459 L48.7003279,29.4242623 L49.9908197,29.4242623 L49.9908197,30.0957377 L50.0747541,30.0957377 L50.1779934,29.9469639 C50.3245989,29.7572721 50.5070164,29.6022732 50.7252459,29.4819672 C50.9980328,29.3315847 51.3092896,29.2563934 51.6590164,29.2563934 Z M32.1022951,30.5259016 C31.9204372,30.5259016 31.7473224,30.5591257 31.5829508,30.6255738 C31.4185792,30.6920219 31.2734426,30.7881967 31.147541,30.9140984 C31.0216393,31.04 30.9202186,31.1938798 30.8432787,31.3757377 C30.7663388,31.5575956 30.7278689,31.7639344 30.7278689,31.9947541 C30.7278689,32.2255738 30.7663388,32.4319126 30.8432787,32.6137705 C30.9202186,32.7956284 31.0216393,32.9495082 31.147541,33.0754098 C31.2734426,33.2013115 31.4185792,33.2974863 31.5829508,33.3639344 C31.7473224,33.4303825 31.9204372,33.4636066 32.1022951,33.4636066 C32.284153,33.4636066 32.4572678,33.4286339 32.6216393,33.3586885 C32.7860109,33.2887432 32.9311475,33.1908197 33.0570492,33.064918 C33.1829508,32.9390164 33.2843716,32.7851366 33.3613115,32.6032787 C33.4382514,32.4214208 33.4767213,32.2185792 33.4767213,31.9947541 C33.4767213,31.770929 33.4382514,31.5680874 33.3613115,31.3862295 C33.2843716,31.2043716 33.1829508,31.0504918 33.0570492,30.9245902 C32.9311475,30.7986885 32.7860109,30.700765 32.6216393,30.6308197 C32.4572678,30.5608743 32.284153,30.5259016 32.1022951,30.5259016 Z M45.0911475,30.5259016 C44.9092896,30.5259016 44.7379235,30.5591257 44.5770492,30.6255738 C44.4161749,30.6920219 44.2727869,30.7881967 44.1468852,30.9140984 C44.0209836,31.04 43.9213115,31.1938798 43.8478689,31.3757377 C43.7744262,31.5575956 43.7377049,31.7639344 43.7377049,31.9947541 C43.7377049,32.2255738 43.7744262,32.4319126 43.8478689,32.6137705 C43.9213115,32.7956284 44.0209836,32.9495082 44.1468852,33.0754098 C44.2727869,33.2013115 44.4161749,33.2974863 44.5770492,33.3639344 C44.7379235,33.4303825 44.9092896,33.4636066 45.0911475,33.4636066 C45.2660109,33.4636066 45.4356284,33.4303825 45.6,33.3639344 C45.7643716,33.2974863 45.9095082,33.2013115 46.0354098,33.0754098 C46.1613115,32.9495082 46.2609836,32.7956284 46.3344262,32.6137705 C46.4078689,32.4319126 46.4445902,32.2255738 46.4445902,31.9947541 C46.4445902,31.7639344 46.4078689,31.5575956 46.3344262,31.3757377 C46.2609836,31.1938798 46.1613115,31.04 46.0354098,30.9140984 C45.9095082,30.7881967 45.7643716,30.6920219 45.6,30.6255738 C45.4356284,30.5591257 45.2660109,30.5259016 45.0911475,30.5259016 Z M24.5796721,28.2281967 C24.2299454,28.2281967 23.9029508,28.2911475 23.5986885,28.4170492 C23.2944262,28.5429508 23.0286339,28.7178142 22.8013115,28.9416393 C22.5739891,29.1654645 22.3956284,29.4365027 22.2662295,29.7547541 C22.1368306,30.0730055 22.0721311,30.4244809 22.0721311,30.8091803 C22.0721311,31.1938798 22.1368306,31.5453552 22.2662295,31.8636066 C22.3956284,32.1818579 22.5739891,32.4528962 22.8013115,32.6767213 C23.0286339,32.9005464 23.2944262,33.0754098 23.5986885,33.2013115 C23.9029508,33.3272131 24.2299454,33.3901639 24.5796721,33.3901639 C24.9293989,33.3901639 25.2563934,33.3272131 25.5606557,33.2013115 C25.864918,33.0754098 26.1307104,32.9005464 26.3580328,32.6767213 C26.5853552,32.4528962 26.7637158,32.1818579 26.8931148,31.8636066 C27.0225137,31.5453552 27.0872131,31.1938798 27.0872131,30.8091803 C27.0872131,30.4244809 27.0225137,30.0730055 26.8931148,29.7547541 C26.7637158,29.4365027 26.5853552,29.1654645 26.3580328,28.9416393 C26.1307104,28.7178142 25.864918,28.5429508 25.5606557,28.4170492 C25.2563934,28.2911475 24.9293989,28.2281967 24.5796721,28.2281967 Z M40.7055738,26.9167213 C40.9503825,26.9167213 41.1602186,27.0024044 41.335082,27.1737705 C41.5099454,27.3451366 41.597377,27.553224 41.597377,27.7980328 C41.597377,28.0428415 41.5099454,28.250929 41.335082,28.4222951 C41.1602186,28.5936612 40.9503825,28.6793443 40.7055738,28.6793443 C40.5866667,28.6793443 40.4730055,28.656612 40.3645902,28.6111475 C40.2561749,28.5656831 40.1617486,28.5027322 40.0813115,28.4222951 C40.0008743,28.3418579 39.9379235,28.2491803 39.892459,28.1442623 C39.8469945,28.0393443 39.8242623,27.9239344 39.8242623,27.7980328 C39.8242623,27.6721311 39.8469945,27.5567213 39.892459,27.4518033 C39.9379235,27.3468852 40.0008743,27.2542077 40.0813115,27.1737705 C40.1617486,27.0933333 40.2561749,27.0303825 40.3645902,26.984918 C40.4730055,26.9394536 40.5866667,26.9167213 40.7055738,26.9167213 Z" id="Combined-Shape" fill="#95A1AC"></path>
            <path d="M35.4098361,1.31147541 C41.9286069,1.31147541 47.2131148,6.59598328 47.2131148,13.1147541 C47.2131148,19.6335249 41.9286069,24.9180328 35.4098361,24.9180328 L13.1147541,24.9180328 C6.59598328,24.9180328 1.31147541,19.6335249 1.31147541,13.1147541 C1.31147541,6.59598328 6.59598328,1.31147541 13.1147541,1.31147541 L35.4098361,1.31147541 Z M39.9672131,3.93442623 L7.24590164,3.93442623 C6.14133214,3.93442623 5.24590164,4.82985673 5.24590164,5.93442623 L5.24590164,15.0491803 C5.24590164,16.1537498 6.14133214,17.0491803 7.24590164,17.0491803 L39.9672131,17.0491803 C41.0717826,17.0491803 41.9672131,16.1537498 41.9672131,15.0491803 L41.9672131,5.93442623 C41.9672131,4.82985673 41.0717826,3.93442623 39.9672131,3.93442623 Z" id="Combined-Shape" fill-opacity="0.7" fill="#262D34"></path>
            <path d="M34.0983607,0 C40.6171315,-1.65823982e-15 45.9016393,5.28450787 45.9016393,11.8032787 C45.9016393,18.3220495 40.6171315,23.6065574 34.0983607,23.6065574 L11.8032787,23.6065574 C5.28450787,23.6065574 7.98319182e-16,18.3220495 0,11.8032787 C-7.98319182e-16,5.28450787 5.28450787,2.97383561e-15 11.8032787,0 L34.0983607,0 Z M18.2872131,8.92852459 C17.8955191,8.92852459 17.566776,9.00546448 17.3009836,9.15934426 C17.0883497,9.28244809 16.9204809,9.42569617 16.797377,9.58908852 L16.7134426,9.71540984 L16.6295082,9.71540984 L16.6295082,9.09639344 L15.3390164,9.09639344 L15.3390164,16.5036066 L16.7134426,16.5036066 L16.7134426,14.3527869 L16.6295082,13.6183607 L16.7134426,13.6183607 C16.8393443,13.8351913 17.0351913,14.0205464 17.3009836,14.1744262 C17.566776,14.328306 17.8955191,14.4052459 18.2872131,14.4052459 C18.6159563,14.4052459 18.9289617,14.3370492 19.2262295,14.2006557 C19.5234973,14.0642623 19.7857923,13.8754098 20.0131148,13.6340984 C20.2404372,13.3927869 20.4205464,13.1042623 20.5534426,12.7685246 C20.6863388,12.4327869 20.7527869,12.0655738 20.7527869,11.6668852 C20.7527869,11.2681967 20.6863388,10.9009836 20.5534426,10.5652459 C20.4205464,10.2295082 20.2404372,9.94098361 20.0131148,9.69967213 C19.7857923,9.45836066 19.5234973,9.2695082 19.2262295,9.13311475 C18.9289617,8.99672131 18.6159563,8.92852459 18.2872131,8.92852459 Z M10.4813115,6.55737705 C9.92174863,6.55737705 9.40240437,6.65879781 8.92327869,6.86163934 C8.44415301,7.06448087 8.02972678,7.34251366 7.68,7.6957377 C7.33027322,8.04896175 7.0557377,8.46513661 6.85639344,8.9442623 C6.65704918,9.42338798 6.55737705,9.9357377 6.55737705,10.4813115 C6.55737705,11.0268852 6.65704918,11.539235 6.85639344,12.0183607 C7.0557377,12.4974863 7.33027322,12.9136612 7.68,13.2668852 C8.02972678,13.6201093 8.44415301,13.8981421 8.92327869,14.1009836 C9.40240437,14.3038251 9.92174863,14.4052459 10.4813115,14.4052459 C11.0408743,14.4052459 11.5602186,14.3038251 12.0393443,14.1009836 C12.5184699,13.8981421 12.9328962,13.6201093 13.282623,13.2668852 C13.6323497,12.9136612 13.9068852,12.4974863 14.1062295,12.0183607 C14.3055738,11.539235 14.4052459,11.0268852 14.4052459,10.4813115 C14.4052459,9.9357377 14.3055738,9.42338798 14.1062295,8.9442623 C13.9068852,8.46513661 13.6323497,8.04896175 13.282623,7.6957377 C12.9328962,7.34251366 12.5184699,7.06448087 12.0393443,6.86163934 C11.5602186,6.65879781 11.0408743,6.55737705 10.4813115,6.55737705 Z M30.9927869,8.92852459 C30.5940984,8.92852459 30.2286339,8.99672131 29.8963934,9.13311475 C29.564153,9.2695082 29.277377,9.45836066 29.0360656,9.69967213 C28.7947541,9.94098361 28.6059016,10.2295082 28.4695082,10.5652459 C28.3331148,10.9009836 28.264918,11.2681967 28.264918,11.6668852 C28.264918,12.0655738 28.3331148,12.4327869 28.4695082,12.7685246 C28.6059016,13.1042623 28.7947541,13.3927869 29.0360656,13.6340984 C29.277377,13.8754098 29.564153,14.0642623 29.8963934,14.2006557 C30.2286339,14.3370492 30.5940984,14.4052459 30.9927869,14.4052459 C31.3914754,14.4052459 31.7569399,14.3370492 32.0891803,14.2006557 C32.4214208,14.0642623 32.7081967,13.8754098 32.9495082,13.6340984 C33.1908197,13.3927869 33.3796721,13.1042623 33.5160656,12.7685246 C33.652459,12.4327869 33.7206557,12.0655738 33.7206557,11.6668852 C33.7206557,11.2681967 33.652459,10.9009836 33.5160656,10.5652459 C33.3796721,10.2295082 33.1908197,9.94098361 32.9495082,9.69967213 C32.7081967,9.45836066 32.4214208,9.2695082 32.0891803,9.13311475 C31.7569399,8.99672131 31.3914754,8.92852459 30.9927869,8.92852459 Z M23.575082,7.52262295 L22.2006557,7.52262295 L22.2006557,9.09639344 L21.2983607,9.09639344 L21.2983607,10.2714754 L22.2006557,10.2714754 L22.2006557,12.5272131 C22.2006557,13.1077596 22.3650273,13.5554098 22.6937705,13.8701639 C22.8336612,14.0100546 23.006776,14.1202186 23.2131148,14.2006557 C23.4194536,14.2810929 23.6520219,14.3213115 23.9108197,14.3213115 C24.1346448,14.3213115 24.339235,14.3020765 24.5245902,14.2636066 C24.6481603,14.2379599 24.7662902,14.2037644 24.87898,14.16102 L25.0439344,14.0904918 L24.6557377,12.8839344 C24.5927869,12.9259016 24.5263388,12.9591257 24.4563934,12.9836066 C24.3864481,13.0080874 24.2920219,13.0203279 24.1731148,13.0203279 C23.9912568,13.0203279 23.8513661,12.9643716 23.7534426,12.852459 C23.6834973,12.7825137 23.6362842,12.6968306 23.6118033,12.5954098 C23.5954827,12.527796 23.5846023,12.4562963 23.5791621,12.3809107 L23.575082,12.264918 L23.575082,10.2714754 L24.8340984,10.2714754 L24.8340984,9.09639344 L23.575082,9.09639344 L23.575082,7.52262295 Z M27.2996721,9.09639344 L25.9252459,9.09639344 L25.9252459,14.237377 L27.2996721,14.237377 L27.2996721,9.09639344 Z M37.5606557,8.92852459 C37.210929,8.92852459 36.8996721,9.00371585 36.6268852,9.15409836 C36.4086557,9.27440437 36.2262383,9.42940328 36.0796328,9.61909508 L35.9763934,9.76786885 L35.892459,9.76786885 L35.892459,9.09639344 L34.6019672,9.09639344 L34.6019672,14.237377 L35.9763934,14.237377 L35.9763934,11.7193443 C35.9763934,11.5095082 36.002623,11.3119126 36.055082,11.1265574 C36.107541,10.9412022 36.1844809,10.7803279 36.2859016,10.6439344 C36.3873224,10.507541 36.5097268,10.3991257 36.6531148,10.3186885 C36.7965027,10.2382514 36.962623,10.1980328 37.1514754,10.1980328 C37.4662295,10.1980328 37.7057923,10.2872131 37.8701639,10.4655738 C38.0110539,10.6184543 38.0915624,10.841994 38.1116895,11.1361927 L38.1167213,11.2891803 L38.1167213,14.237377 L39.4911475,14.237377 L39.4911475,11.1213115 C39.4911475,10.7925683 39.450929,10.4935519 39.3704918,10.2242623 C39.2900546,9.95497268 39.1711475,9.72415301 39.0137705,9.53180328 C38.8563934,9.33945355 38.6553005,9.19081967 38.4104918,9.08590164 C38.1656831,8.98098361 37.8824044,8.92852459 37.5606557,8.92852459 Z M18.0039344,10.1980328 C18.1857923,10.1980328 18.3589071,10.2330055 18.5232787,10.3029508 C18.6876503,10.3728962 18.8327869,10.4708197 18.9586885,10.5967213 C19.0845902,10.722623 19.1860109,10.8765027 19.2629508,11.0583607 C19.3398907,11.2402186 19.3783607,11.4430601 19.3783607,11.6668852 C19.3783607,11.8907104 19.3398907,12.0935519 19.2629508,12.2754098 C19.1860109,12.4572678 19.0845902,12.6111475 18.9586885,12.7370492 C18.8327869,12.8629508 18.6876503,12.9608743 18.5232787,13.0308197 C18.3589071,13.100765 18.1857923,13.1357377 18.0039344,13.1357377 C17.8220765,13.1357377 17.6489617,13.1025137 17.4845902,13.0360656 C17.3202186,12.9696175 17.175082,12.8734426 17.0491803,12.747541 C16.9232787,12.6216393 16.8218579,12.4677596 16.744918,12.2859016 C16.6679781,12.1040437 16.6295082,11.8977049 16.6295082,11.6668852 C16.6295082,11.4360656 16.6679781,11.2297268 16.744918,11.0478689 C16.8218579,10.8660109 16.9232787,10.7121311 17.0491803,10.5862295 C17.175082,10.4603279 17.3202186,10.364153 17.4845902,10.2977049 C17.6489617,10.2312568 17.8220765,10.1980328 18.0039344,10.1980328 Z M30.9927869,10.1980328 C31.1676503,10.1980328 31.3372678,10.2312568 31.5016393,10.2977049 C31.6660109,10.364153 31.8111475,10.4603279 31.9370492,10.5862295 C32.0629508,10.7121311 32.162623,10.8660109 32.2360656,11.0478689 C32.3095082,11.2297268 32.3462295,11.4360656 32.3462295,11.6668852 C32.3462295,11.8977049 32.3095082,12.1040437 32.2360656,12.2859016 C32.162623,12.4677596 32.0629508,12.6216393 31.9370492,12.747541 C31.8111475,12.8734426 31.6660109,12.9696175 31.5016393,13.0360656 C31.3372678,13.1025137 31.1676503,13.1357377 30.9927869,13.1357377 C30.810929,13.1357377 30.6395628,13.1025137 30.4786885,13.0360656 C30.3178142,12.9696175 30.1744262,12.8734426 30.0485246,12.747541 C29.922623,12.6216393 29.8229508,12.4677596 29.7495082,12.2859016 C29.6760656,12.1040437 29.6393443,11.8977049 29.6393443,11.6668852 C29.6393443,11.4360656 29.6760656,11.2297268 29.7495082,11.0478689 C29.8229508,10.8660109 29.922623,10.7121311 30.0485246,10.5862295 C30.1744262,10.4603279 30.3178142,10.364153 30.4786885,10.2977049 C30.6395628,10.2312568 30.810929,10.1980328 30.9927869,10.1980328 Z M10.4813115,7.90032787 C10.8310383,7.90032787 11.1580328,7.96327869 11.4622951,8.08918033 C11.7665574,8.21508197 12.0323497,8.38994536 12.2596721,8.61377049 C12.4869945,8.83759563 12.6653552,9.10863388 12.7947541,9.42688525 C12.924153,9.74513661 12.9888525,10.096612 12.9888525,10.4813115 C12.9888525,10.8660109 12.924153,11.2174863 12.7947541,11.5357377 C12.6653552,11.8539891 12.4869945,12.1250273 12.2596721,12.3488525 C12.0323497,12.5726776 11.7665574,12.747541 11.4622951,12.8734426 C11.1580328,12.9993443 10.8310383,13.0622951 10.4813115,13.0622951 C10.1315847,13.0622951 9.80459016,12.9993443 9.50032787,12.8734426 C9.19606557,12.747541 8.93027322,12.5726776 8.70295082,12.3488525 C8.47562842,12.1250273 8.29726776,11.8539891 8.16786885,11.5357377 C8.03846995,11.2174863 7.97377049,10.8660109 7.97377049,10.4813115 C7.97377049,10.096612 8.03846995,9.74513661 8.16786885,9.42688525 C8.29726776,9.10863388 8.47562842,8.83759563 8.70295082,8.61377049 C8.93027322,8.38994536 9.19606557,8.21508197 9.50032787,8.08918033 C9.80459016,7.96327869 10.1315847,7.90032787 10.4813115,7.90032787 Z M26.6072131,6.58885246 C26.488306,6.58885246 26.3746448,6.6115847 26.2662295,6.65704918 C26.1578142,6.70251366 26.063388,6.76546448 25.9829508,6.84590164 C25.9025137,6.9263388 25.8395628,7.01901639 25.7940984,7.12393443 C25.7486339,7.22885246 25.7259016,7.3442623 25.7259016,7.47016393 C25.7259016,7.59606557 25.7486339,7.71147541 25.7940984,7.81639344 C25.8395628,7.92131148 25.9025137,8.01398907 25.9829508,8.09442623 C26.063388,8.17486339 26.1578142,8.23781421 26.2662295,8.28327869 C26.3746448,8.32874317 26.488306,8.35147541 26.6072131,8.35147541 C26.8520219,8.35147541 27.0618579,8.26579235 27.2367213,8.09442623 C27.4115847,7.92306011 27.4990164,7.71497268 27.4990164,7.47016393 C27.4990164,7.22535519 27.4115847,7.01726776 27.2367213,6.84590164 C27.0618579,6.67453552 26.8520219,6.58885246 26.6072131,6.58885246 Z" id="Combined-Shape" fill="#95A1AC"></path>
        </g>
    </g>
</svg>