<?xml version="1.0" encoding="UTF-8"?>
<svg width="60px" height="60px" viewBox="0 0 60 60" version="1.1" xmlns="http://www.w3.org/2000/svg" xmlns:xlink="http://www.w3.org/1999/xlink">
    <title>UI Icons/Sidebar Icons/SVG /colorpicker</title>
    <g id="UI-Icons/Sidebar-Icons/colorpicker" stroke="none" stroke-width="1" fill="none" fill-rule="evenodd">
        <g id="bucket-2" transform="translate(6, 5)" fill="#95A1AC">
            <path d="M46.857102,47 L3.42697953,47 C2.79609986,47 2.28408157,46.552 2.28408157,46 C2.28408157,45.448 2.79609986,45 3.42697953,45 L46.857102,45 C47.4879817,45 48,45.448 48,46 C48,46.552 47.4879817,47 46.857102,47 Z M43.2249723,25.2929033 C44.0227151,26.4472303 48,32.3422979 48,35.085253 C48,38.2350798 45.4376228,40.7997428 42.2855102,40.7997428 C39.1333976,40.7997428 36.5710204,38.2350798 36.5710204,35.085253 C36.5710204,32.3422979 40.5483053,26.4472303 41.3460481,25.2929033 C41.7712061,24.6734526 42.8021001,24.6734526 43.2249723,25.2929033 Z M21.0664667,0.334297653 L40.4614451,19.729276 C40.6763099,19.9441409 40.7951713,20.2344369 40.7951713,20.5384478 C40.7951713,20.8424587 40.6740241,21.1327547 40.4614451,21.3476196 L39.7296001,22.0811422 C39.6760089,22.1486527 39.6149303,22.2099573 39.5475977,22.2638006 L22.6825244,39.1265402 C21.5716276,40.2397228 20.1064324,40.7974571 18.643523,40.7974571 C17.1783278,40.7974571 15.7154184,40.2397228 14.59995,39.1265402 L1.67148827,26.1957927 C-0.557162756,23.9671417 -0.557162756,20.3418694 1.67148827,18.1132183 L19.4504089,0.334297653 C19.8961391,-0.111432551 20.6207365,-0.111432551 21.0664667,0.334297653 Z M42.2855102,28.0084289 C40.6397371,30.5799493 38.8568163,33.8372085 38.8568163,35.085253 C38.8568163,36.9756063 40.395157,38.5139469 42.2855102,38.5139469 C44.1758634,38.5139469 45.7142041,36.9756063 45.7142041,35.085253 C45.7142041,33.8349227 43.9312833,30.5776635 42.2855102,28.0084289 Z M20.2595807,2.75952713 L3.28754598,19.729276 C3.13197013,19.8848519 2.99449479,20.0517831 2.87511997,20.2274274 L37.727,20.227 L20.2595807,2.75952713 Z" id="Combined-Shape"></path>
        </g>
    </g>
</svg>