<?xml version="1.0" encoding="UTF-8"?>
<svg width="60px" height="60px" viewBox="0 0 60 60" version="1.1" xmlns="http://www.w3.org/2000/svg" xmlns:xlink="http://www.w3.org/1999/xlink">
    <title>UI Icons/Sidebar Icons/SVG /Columns</title>
    <g id="UI-Icons/Sidebar-Icons/Columns" stroke="none" stroke-width="1" fill="none" fill-rule="evenodd">
        <path d="M33,38.75 C34.7949254,38.75 36.25,40.2050746 36.25,42 L36.25,42 L36.25,48 C36.25,49.7949254 34.7949254,51.25 33,51.25 L33,51.25 L27,51.25 C25.2050746,51.25 23.75,49.7949254 23.75,48 L23.75,48 L23.75,42 C23.75,40.2050746 25.2050746,38.75 27,38.75 L27,38.75 L33,38.75 Z M16,10.875 C16.9492394,10.875 17.7337274,11.5803847 17.8578835,12.4955736 L17.875,12.75 L17.875,47.75 C17.875,48.7855339 17.0355339,49.625 16,49.625 C15.0507606,49.625 14.2662726,48.9196153 14.1421165,48.0044264 L14.125,47.75 L14.125,12.75 C14.125,11.7144661 14.9644661,10.875 16,10.875 Z M43,10.875 C43.9492394,10.875 44.7337274,11.5803847 44.8578835,12.4955736 L44.875,12.75 L44.875,47.75 C44.875,48.7855339 44.0355339,49.625 43,49.625 C42.0507606,49.625 41.2662726,48.9196153 41.1421165,48.0044264 L41.125,47.75 L41.125,12.75 C41.125,11.7144661 41.9644661,10.875 43,10.875 Z M33,41.25 L27,41.25 C26.5857864,41.25 26.25,41.5857864 26.25,42 L26.25,42 L26.25,48 C26.25,48.4142136 26.5857864,48.75 27,48.75 L27,48.75 L33,48.75 C33.4142136,48.75 33.75,48.4142136 33.75,48 L33.75,48 L33.75,42 C33.75,41.5857864 33.4142136,41.25 33,41.25 L33,41.25 Z M33,23.75 C34.7949254,23.75 36.25,25.2050746 36.25,27 L36.25,27 L36.25,33 C36.25,34.7949254 34.7949254,36.25 33,36.25 L33,36.25 L27,36.25 C25.2050746,36.25 23.75,34.7949254 23.75,33 L23.75,33 L23.75,27 C23.75,25.2050746 25.2050746,23.75 27,23.75 L27,23.75 L33,23.75 Z M33,26.25 L27,26.25 C26.5857864,26.25 26.25,26.5857864 26.25,27 L26.25,27 L26.25,33 C26.25,33.4142136 26.5857864,33.75 27,33.75 L27,33.75 L33,33.75 C33.4142136,33.75 33.75,33.4142136 33.75,33 L33.75,33 L33.75,27 C33.75,26.5857864 33.4142136,26.25 33,26.25 L33,26.25 Z M33,8.75 C34.7949254,8.75 36.25,10.2050746 36.25,12 L36.25,12 L36.25,18 C36.25,19.7949254 34.7949254,21.25 33,21.25 L33,21.25 L27,21.25 C25.2050746,21.25 23.75,19.7949254 23.75,18 L23.75,18 L23.75,12 C23.75,10.2050746 25.2050746,8.75 27,8.75 L27,8.75 L33,8.75 Z M33,11.25 L27,11.25 C26.5857864,11.25 26.25,11.5857864 26.25,12 L26.25,12 L26.25,18 C26.25,18.4142136 26.5857864,18.75 27,18.75 L27,18.75 L33,18.75 C33.4142136,18.75 33.75,18.4142136 33.75,18 L33.75,18 L33.75,12 C33.75,11.5857864 33.4142136,11.25 33,11.25 L33,11.25 Z" id="Combined-Shape" fill="#95A1AC"></path>
    </g>
</svg>