<?xml version="1.0" encoding="UTF-8"?>
<svg width="60px" height="60px" viewBox="0 0 60 60" version="1.1" xmlns="http://www.w3.org/2000/svg" xmlns:xlink="http://www.w3.org/1999/xlink">
    <title>UI Icons/Sidebar Icons/SVG /Container</title>
    <g id="UI-Icons/Sidebar-Icons/Container" stroke="none" stroke-width="1" fill="none" fill-rule="evenodd">
        <path d="M46.8510638,8 L13.1489362,8 C10.3052572,8 8,10.3052572 8,13.1489362 L8,46.8510638 C8,49.6947428 10.3052572,52 13.1489362,52 L46.8510638,52 C49.6947428,52 52,49.6947428 52,46.8510638 L52,13.1489362 C52,10.3052572 49.6947428,8 46.8510638,8 Z M13.1489362,10.8085106 L46.8510638,10.8085106 C48.1436452,10.8085106 49.1914894,11.8563548 49.1914894,13.1489362 L49.1914894,46.8510638 C49.1914894,48.1436452 48.1436452,49.1914894 46.8510638,49.1914894 L13.1489362,49.1914894 C11.8563548,49.1914894 10.8085106,48.1436452 10.8085106,46.8510638 L10.8085106,13.1489362 C10.8085106,11.8563548 11.8563548,10.8085106 13.1489362,10.8085106 Z" id="Rectangle" fill="#95A1AC"></path>
    </g>
</svg>