<?xml version="1.0" encoding="UTF-8"?>
<svg width="60px" height="60px" viewBox="0 0 60 60" version="1.1" xmlns="http://www.w3.org/2000/svg" xmlns:xlink="http://www.w3.org/1999/xlink">
    <title>UI Icons/Sidebar Icons/SVG /dataTable</title>
    <g id="UI-Icons/Sidebar-Icons/dataTable" stroke="none" stroke-width="1" fill="none" fill-rule="evenodd">
        <path d="M11.1428571,9 C8.30371065,9.0028349 6.0028349,11.3037107 6,14.1428571 L6,45.8571429 C6.0028349,48.6962893 8.30371065,50.9971651 11.1428571,51 L48.8571429,51 C51.6962893,50.9971651 53.9971651,48.6962893 54,45.8571429 L54,14.1428571 C53.9971651,11.3037107 51.6962893,9.0028349 48.8571429,9 L11.1428571,9 Z M18,27 L18,37 L8,37 L8,27 L18,27 Z M8,25 L8,15 L18,15 L18,25 L8,25 Z M20,27 L52,27 L52,37 L20,37 L20,27 Z M20,25 L20,15 L52,15 L52,25 L20,25 Z M8,45.6666667 L8,39 L18,39 L18,49 L11.3333333,49 C9.49238417,49 8,47.5076158 8,45.6666667 Z M48.6315789,49 L20,49 L20,39 L52,39 L52,45.6666667 C52,47.5076158 50.4919065,49 48.6315789,49 Z" id="Shape" fill="#95A1AC" fill-rule="nonzero"></path>
        <path d="M14.5714286,21.2857143 L11.1428571,21.2857143 C10.6694702,21.2857143 10.2857143,20.837999 10.2857143,20.2857143 C10.2857143,19.7334295 10.6694702,19.2857143 11.1428571,19.2857143 L14.5714286,19.2857143 C15.0448155,19.2857143 15.4285714,19.7334295 15.4285714,20.2857143 C15.4285714,20.837999 15.0448155,21.2857143 14.5714286,21.2857143 Z" id="Path" fill="#95A1AC" fill-rule="nonzero"></path>
        <path d="M48.8571429,21.2857143 L23.1428571,21.2857143 C22.6694702,21.2857143 22.2857143,20.837999 22.2857143,20.2857143 C22.2857143,19.7334295 22.6694702,19.2857143 23.1428571,19.2857143 L48.8571429,19.2857143 C49.3305298,19.2857143 49.7142857,19.7334295 49.7142857,20.2857143 C49.7142857,20.837999 49.3305298,21.2857143 48.8571429,21.2857143 Z" id="Path" fill="#95A1AC" fill-rule="nonzero"></path>
        <path d="M36.8571429,33.2857143 L23.1428571,33.2857143 C22.6694702,33.2857143 22.2857143,32.837999 22.2857143,32.2857143 C22.2857143,31.7334295 22.6694702,31.2857143 23.1428571,31.2857143 L36.8571429,31.2857143 C37.3305298,31.2857143 37.7142857,31.7334295 37.7142857,32.2857143 C37.7142857,32.837999 37.3305298,33.2857143 36.8571429,33.2857143 Z" id="Path" fill="#95A1AC" fill-rule="nonzero"></path>
        <path d="M48.8571429,45.2857143 L23.1428571,45.2857143 C22.6694702,45.2857143 22.2857143,44.837999 22.2857143,44.2857143 C22.2857143,43.7334295 22.6694702,43.2857143 23.1428571,43.2857143 L48.8571429,43.2857143 C49.3305298,43.2857143 49.7142857,43.7334295 49.7142857,44.2857143 C49.7142857,44.837999 49.3305298,45.2857143 48.8571429,45.2857143 Z" id="Path" fill="#95A1AC" fill-rule="nonzero"></path>
        <path d="M14.5714286,33.2857143 L11.1428571,33.2857143 C10.6694702,33.2857143 10.2857143,32.837999 10.2857143,32.2857143 C10.2857143,31.7334295 10.6694702,31.2857143 11.1428571,31.2857143 L14.5714286,31.2857143 C15.0448155,31.2857143 15.4285714,31.7334295 15.4285714,32.2857143 C15.4285714,32.837999 15.0448155,33.2857143 14.5714286,33.2857143 Z" id="Path" fill="#95A1AC" fill-rule="nonzero"></path>
        <path d="M14.5714286,45.2857143 L11.1428571,45.2857143 C10.6694702,45.2857143 10.2857143,44.837999 10.2857143,44.2857143 C10.2857143,43.7334295 10.6694702,43.2857143 11.1428571,43.2857143 L14.5714286,43.2857143 C15.0448155,43.2857143 15.4285714,43.7334295 15.4285714,44.2857143 C15.4285714,44.837999 15.0448155,45.2857143 14.5714286,45.2857143 Z" id="Path" fill="#95A1AC" fill-rule="nonzero"></path>
    </g>
</svg>