<?xml version="1.0" encoding="UTF-8"?>
<svg width="60px" height="60px" viewBox="0 0 60 60" version="1.1" xmlns="http://www.w3.org/2000/svg" xmlns:xlink="http://www.w3.org/1999/xlink">
    <title>UI Icons/Sidebar Icons/SVG /dropdown</title>
    <g id="UI-Icons/Sidebar-Icons/dropdown" stroke="none" stroke-width="1" fill="none" fill-rule="evenodd">
        <path d="M48,18 C50.209139,18 52,19.790861 52,22 L52,38 C52,40.209139 50.209139,42 48,42 L12,42 C9.790861,42 8,40.209139 8,38 L8,22 C8,19.790861 9.790861,18 12,18 L48,18 Z M48,20 L12,20 C10.9456382,20 10.0818349,20.8158778 10.0054857,21.8507377 L10,22 L10,38 C10,39.0543618 10.8158778,39.9181651 11.8507377,39.9945143 L12,40 L48,40 C49.0543618,40 49.9181651,39.1841222 49.9945143,38.1492623 L50,38 L50,22 C50,20.9456382 49.1841222,20.0818349 48.1492623,20.0054857 L48,20 Z M29.9375,26.68 C30.4708333,26.68 30.9658333,26.7766667 31.4225,26.97 C31.8791667,27.1633333 32.2741667,27.4283333 32.6075,27.765 C32.9408333,28.1016667 33.2025,28.4983333 33.3925,28.955 C33.5825,29.4116667 33.6775,29.9 33.6775,30.42 C33.6775,30.94 33.5825,31.4283333 33.3925,31.885 C33.2025,32.3416667 32.9408333,32.7383333 32.6075,33.075 C32.2741667,33.4116667 31.8791667,33.6766667 31.4225,33.87 C30.9658333,34.0633333 30.4708333,34.16 29.9375,34.16 C29.4041667,34.16 28.9091667,34.0633333 28.4525,33.87 C27.9958333,33.6766667 27.6008333,33.4116667 27.2675,33.075 C26.9341667,32.7383333 26.6725,32.3416667 26.4825,31.885 C26.2925,31.4283333 26.1975,30.94 26.1975,30.42 C26.1975,29.9 26.2925,29.4116667 26.4825,28.955 C26.6725,28.4983333 26.9341667,28.1016667 27.2675,27.765 C27.6008333,27.4283333 27.9958333,27.1633333 28.4525,26.97 C28.9091667,26.7766667 29.4041667,26.68 29.9375,26.68 Z M15.14,26.84 L15.4186111,26.8472222 C15.8750926,26.8712963 16.2922222,26.9555556 16.67,27.1 C17.1233333,27.2733333 17.51,27.5183333 17.83,27.835 C18.15,28.1516667 18.395,28.53 18.565,28.97 C18.735,29.41 18.82,29.8933333 18.82,30.42 C18.82,30.9533333 18.735,31.44 18.565,31.88 C18.395,32.32 18.15,32.6966667 17.83,33.01 C17.51,33.3233333 17.1233333,33.5666667 16.67,33.74 C16.2166667,33.9133333 15.7066667,34 15.14,34 L12.72,34 L12.72,26.84 L15.14,26.84 Z M22.73875,26.84 L22.95075,26.8468 C23.2280833,26.8649333 23.4840833,26.9193333 23.71875,27.01 C24.0120833,27.1233333 24.26375,27.28 24.47375,27.48 C24.68375,27.68 24.8454167,27.9183333 24.95875,28.195 C25.0720833,28.4716667 25.12875,28.7733333 25.12875,29.1 C25.12875,29.34 25.08875,29.565 25.00875,29.775 C24.92875,29.985 24.81875,30.175 24.67875,30.345 C24.53875,30.515 24.3754167,30.665 24.18875,30.795 C24.0020833,30.925 23.8054167,31.0266667 23.59875,31.1 L23.58875,31.17 L25.50875,33.92 L25.50875,34 L23.95875,34 L22.10875,31.31 L21.47875,31.31 L21.47875,34 L20.12875,34 L20.12875,26.84 L22.73875,26.84 Z M37.50625,26.84 L37.70765,26.8466 C37.9727167,26.8642 38.2239167,26.917 38.46125,27.005 C38.7579167,27.115 39.01625,27.27 39.23625,27.47 C39.45625,27.67 39.6295833,27.9083333 39.75625,28.185 C39.8829167,28.4616667 39.94625,28.7666667 39.94625,29.1 C39.94625,29.44 39.8829167,29.7483333 39.75625,30.025 C39.6295833,30.3016667 39.45625,30.54 39.23625,30.74 C39.01625,30.94 38.7579167,31.095 38.46125,31.205 C38.1645833,31.315 37.84625,31.37 37.50625,31.37 L36.33625,31.37 L36.33625,34 L34.98625,34 L34.98625,26.84 L37.50625,26.84 Z M29.9375,27.96 C29.6041667,27.96 29.2925,28.02 29.0025,28.14 C28.7125,28.26 28.4591667,28.4266667 28.2425,28.64 C28.0258333,28.8533333 27.8558333,29.1116667 27.7325,29.415 C27.6091667,29.7183333 27.5475,30.0533333 27.5475,30.42 C27.5475,30.7866667 27.6091667,31.1216667 27.7325,31.425 C27.8558333,31.7283333 28.0258333,31.9866667 28.2425,32.2 C28.4591667,32.4133333 28.7125,32.58 29.0025,32.7 C29.2925,32.82 29.6041667,32.88 29.9375,32.88 C30.2708333,32.88 30.5825,32.82 30.8725,32.7 C31.1625,32.58 31.4158333,32.4133333 31.6325,32.2 C31.8491667,31.9866667 32.0191667,31.7283333 32.1425,31.425 C32.2658333,31.1216667 32.3275,30.7866667 32.3275,30.42 C32.3275,30.0533333 32.2658333,29.7183333 32.1425,29.415 C32.0191667,29.1116667 31.8491667,28.8533333 31.6325,28.64 C31.4158333,28.4266667 31.1625,28.26 30.8725,28.14 C30.5825,28.02 30.2708333,27.96 29.9375,27.96 Z M15.08,28.12 L14.07,28.12 L14.07,32.72 L15.08,32.72 C15.4733333,32.72 15.82,32.665 16.12,32.555 C16.42,32.445 16.67,32.29 16.87,32.09 C17.07,31.89 17.22,31.6483333 17.32,31.365 C17.42,31.0816667 17.47,30.7666667 17.47,30.42 C17.47,30.0733333 17.42,29.7583333 17.32,29.475 C17.22,29.1916667 17.07,28.95 16.87,28.75 C16.67,28.55 16.42,28.395 16.12,28.285 C15.82,28.175 15.4733333,28.12 15.08,28.12 Z M46.415737,29 C46.5538082,29 46.665737,29.1119288 46.665737,29.25 C46.665737,29.3142937 46.6409668,29.3761159 46.5965727,29.4226223 L44.6808357,31.4295097 C44.585499,31.5293824 44.4272505,31.5330597 44.3273777,31.437723 L44.3191643,31.4295097 L42.4034273,29.4226223 C42.3080907,29.3227495 42.3117679,29.164501 42.4116407,29.0691643 C42.4581471,29.0247702 42.5199692,29 42.584263,29 L46.415737,29 Z M37.52625,28.12 L36.33625,28.12 L36.33625,30.09 L37.52625,30.09 C37.8795833,30.09 38.14625,29.99 38.32625,29.79 C38.50625,29.59 38.59625,29.36 38.59625,29.1 C38.59625,28.9733333 38.5745833,28.85 38.53125,28.73 C38.4879167,28.61 38.42125,28.505 38.33125,28.415 C38.24125,28.325 38.1295833,28.2533333 37.99625,28.2 C37.8629167,28.1466667 37.70625,28.12 37.52625,28.12 Z M22.74875,28.08 L21.47875,28.08 L21.47875,30.07 L22.72875,30.07 C23.0354167,30.07 23.2870833,29.9766667 23.48375,29.79 C23.6804167,29.6033333 23.77875,29.3666667 23.77875,29.08 C23.77875,28.9533333 23.7570833,28.83 23.71375,28.71 C23.6704167,28.59 23.6054167,28.4833333 23.51875,28.39 C23.4320833,28.2966667 23.32375,28.2216667 23.19375,28.165 C23.06375,28.1083333 22.9154167,28.08 22.74875,28.08 Z" id="Combined-Shape" fill="#95A1AC"></path>
    </g>
</svg>