<?xml version="1.0" encoding="UTF-8"?>
<svg width="60px" height="60px" viewBox="0 0 60 60" version="1.1" xmlns="http://www.w3.org/2000/svg" xmlns:xlink="http://www.w3.org/1999/xlink">
    <title>UI Icons/Sidebar Icons/SVG /FAB</title>
    <g id="UI-Icons/Sidebar-Icons/FAB" stroke="none" stroke-width="1" fill="none" fill-rule="evenodd">
        <g id="Play" transform="translate(7.5, 7.5)" fill="#95A1AC" fill-rule="nonzero">
            <path d="M22.5,0 C34.9263879,0 45,10.0736121 45,22.5 C45,34.9263879 34.9263879,45 22.5,45 C10.0736121,45 0,34.9263879 0,22.5 C0,10.0736121 10.0736121,0 22.5,0 Z M22.5,3.13953488 C11.8075294,3.13953488 3.13953488,11.8075294 3.13953488,22.5 C3.13953488,33.1924706 11.8075294,41.8604651 22.5,41.8604651 C33.1924706,41.8604651 41.8604651,33.1924706 41.8604651,22.5 C41.8604651,11.8075294 33.1924706,3.13953488 22.5,3.13953488 Z M22.5,13.2432014 C23.2947121,13.2432014 23.9514927,13.833756 24.0554373,14.5999607 L24.0697674,14.8129688 L24.069,20.91 L30.1744186,20.910318 C31.0413772,20.910318 31.744186,21.6131268 31.744186,22.4800854 C31.744186,23.2747975 31.1536314,23.9315781 30.3874267,24.0355227 L30.1744186,24.0498529 L24.069,24.049 L24.0697674,30.147202 C24.0697674,31.0141606 23.3669586,31.7169694 22.5,31.7169694 C21.7052879,31.7169694 21.0485073,31.1264148 20.9445627,30.3602101 L20.9302326,30.147202 L20.93,24.049 L14.8255814,24.0498529 C13.9586228,24.0498529 13.255814,23.347044 13.255814,22.4800854 C13.255814,21.6853733 13.8463686,21.0285927 14.6125733,20.9246481 L14.8255814,20.910318 L20.93,20.91 L20.9302326,14.8129688 C20.9302326,13.9460102 21.6330414,13.2432014 22.5,13.2432014 Z"></path>
        </g>
    </g>
</svg>