<?xml version="1.0" encoding="UTF-8"?>
<svg width="60px" height="60px" viewBox="0 0 60 60" version="1.1" xmlns="http://www.w3.org/2000/svg" xmlns:xlink="http://www.w3.org/1999/xlink">
    <title>UI Icons/Sidebar Icons/SVG /flippableCard</title>
    <g id="UI-Icons/Sidebar-Icons/flippableCard" stroke="none" stroke-width="1" fill="none" fill-rule="evenodd">
        <path d="M10.5,32.4000016 L10.5,34.5000016 C10.5064225,34.9470203 10.5802535,35.3905117 10.719,35.8155016 C9.6,36.6420016 9,37.4865016 9,38.2500016 C9,41.0220016 16.737,44.8605016 29.367,44.9880016 L25.9395,41.5605016 C25.3710417,40.9719333 25.3791714,40.0363744 25.9577721,39.4577737 C26.5363728,38.879173 27.4719317,38.8710433 28.0605,39.4395016 L34.0605,45.4395016 C34.6460729,46.0252514 34.6460729,46.9747518 34.0605,47.5605016 L28.0605,53.5605016 C27.6838883,53.9504365 27.1261832,54.1068205 26.601739,53.9695473 C26.0772949,53.8322742 25.6677274,53.4227067 25.5304543,52.8982626 C25.3931811,52.3738184 25.5495651,51.8161133 25.9395,51.4395016 L29.3895,47.9895016 C17.937,47.8725016 6,44.4720016 6,38.2500016 C6,35.8845016 7.7295,33.9255016 10.5,32.4000016 Z M49.5,32.4000016 C52.2705,33.9240016 54,35.8830016 54,38.2500016 C54,42.1305016 49.0695,45.4065016 40.812,47.0115016 C40.7171295,47.0300063 40.6206568,47.0390506 40.524,47.0385252 C39.7533318,47.0354436 39.1103825,46.4488768 39.0368039,45.6817229 C38.9632252,44.9145691 39.4829625,44.2164877 40.239,44.0670016 C47.6325,42.6300016 51,40.0500016 51,38.2500016 C51,37.4865016 50.4,36.6420016 49.281,35.8155016 C49.4197465,35.3905117 49.4935775,34.9470203 49.5,34.5000016 Z M40.5,6 C43.8137085,6 46.5,8.6862915 46.5,12 L46.5,30.4615385 C46.5,33.775247 43.8137085,36.4615385 40.5,36.4615385 L19.5,36.4615385 C16.1862915,36.4615385 13.5,33.775247 13.5,30.4615385 L13.5,12 C13.5,8.6862915 16.1862915,6 19.5,6 L40.5,6 Z M40.5,8.25 L19.5,8.25 C17.4289322,8.25 15.75,9.92893219 15.75,12 L15.75,30.4615385 C15.75,32.5326063 17.4289322,34.2115385 19.5,34.2115385 L40.5,34.2115385 C42.5710678,34.2115385 44.25,32.5326063 44.25,30.4615385 L44.25,12 C44.25,9.92893219 42.5710678,8.25 40.5,8.25 Z M38.5,22.5 C39.6045695,22.5 40.5,23.3954305 40.5,24.5 L40.5,26.5 C40.5,27.6045695 39.6045695,28.5 38.5,28.5 L21.5,28.5 C20.3954305,28.5 19.5,27.6045695 19.5,26.5 L19.5,24.5 C19.5,23.3954305 20.3954305,22.5 21.5,22.5 L38.5,22.5 Z M28,12 C29.1045695,12 30,12.8954305 30,14 L30,17.5 C30,18.6045695 29.1045695,19.5 28,19.5 L21.5,19.5 C20.3954305,19.5 19.5,18.6045695 19.5,17.5 L19.5,14 C19.5,12.8954305 20.3954305,12 21.5,12 L28,12 Z" id="Combined-Shape" fill="#95A1AC" fill-rule="nonzero"></path>
    </g>
</svg>