<?xml version="1.0" encoding="UTF-8"?>
<svg width="60px" height="60px" viewBox="0 0 60 60" version="1.1" xmlns="http://www.w3.org/2000/svg" xmlns:xlink="http://www.w3.org/1999/xlink">
    <title>UI Icons/Sidebar Icons/SVG /formElement</title>
    <g id="UI-Icons/Sidebar-Icons/formElement" stroke="none" stroke-width="1" fill="none" fill-rule="evenodd">
        <path d="M48.4081633,8 C50.3918799,8 52,9.790861 52,12 C52,14.209139 50.3918799,16 48.4081633,16 L11.5918367,16 C9.60812008,16 8,14.209139 8,12 C8,9.790861 9.60812008,8 11.5918367,8 L48.4081633,8 Z M48.4081633,10 L11.5918367,10 C10.5999784,10 9.79591837,10.8954305 9.79591837,12 C9.79591837,13.0543618 10.5285433,13.9181651 11.4578052,13.9945143 L11.5918367,14 L48.4081633,14 C49.4000216,14 50.2040816,13.1045695 50.2040816,12 C50.2040816,10.9456382 49.4714567,10.0818349 48.5421948,10.0054857 L48.4081633,10 Z M48.4081633,20 C50.3918799,20 52,21.790861 52,24 C52,26.209139 50.3918799,28 48.4081633,28 L11.5918367,28 C9.60812008,28 8,26.209139 8,24 C8,21.790861 9.60812008,20 11.5918367,20 L48.4081633,20 Z M48.4081633,22 L11.5918367,22 C10.5999784,22 9.79591837,22.8954305 9.79591837,24 C9.79591837,25.0543618 10.5285433,25.9181651 11.4578052,25.9945143 L11.5918367,26 L48.4081633,26 C49.4000216,26 50.2040816,25.1045695 50.2040816,24 C50.2040816,22.9456382 49.4714567,22.0818349 48.5421948,22.0054857 L48.4081633,22 Z M48.4081633,32 C50.3918799,32 52,33.790861 52,36 C52,38.209139 50.3918799,40 48.4081633,40 L11.5918367,40 C9.60812008,40 8,38.209139 8,36 C8,33.790861 9.60812008,32 11.5918367,32 L48.4081633,32 Z M48.4081633,34 L11.5918367,34 C10.5999784,34 9.79591837,34.8954305 9.79591837,36 C9.79591837,37.0543618 10.5285433,37.9181651 11.4578052,37.9945143 L11.5918367,38 L48.4081633,38 C49.4000216,38 50.2040816,37.1045695 50.2040816,36 C50.2040816,34.9456382 49.4714567,34.0818349 48.5421948,34.0054857 L48.4081633,34 Z M38.0408163,44 L48,44 C50.209139,44 52,45.790861 52,48 C52,50.209139 50.209139,52 48,52 L38.0408163,52 C35.8316773,52 34.0408163,50.209139 34.0408163,48 C34.0408163,45.790861 35.8316773,44 38.0408163,44 Z" id="Combined-Shape" fill="#95A1AC"></path>
        <rect id="btn_text" fill="#FFFFFF" x="38" y="47" width="10" height="2" rx="1"></rect>
    </g>
</svg>