<?xml version="1.0" encoding="UTF-8"?>
<svg width="60px" height="60px" viewBox="0 0 60 60" version="1.1" xmlns="http://www.w3.org/2000/svg" xmlns:xlink="http://www.w3.org/1999/xlink">
    <title>UI Icons/Sidebar Icons/SVG /grid</title>
    <g id="UI-Icons/Sidebar-Icons/grid" stroke="none" stroke-width="1" fill="none" fill-rule="evenodd">
        <g id="Category" transform="translate(7.5, 7.5)" fill="#95A1AC" fill-rule="nonzero">
            <path d="M38.3067285,0 L31.4696707,0 C27.7687578,0 24.7742546,3.02050092 24.7742546,6.73991605 L24.7742546,13.6341686 C24.7742546,17.3520671 27.7693958,20.3740846 31.4696707,20.3740846 L38.3067285,20.3740846 C42.0052932,20.3740846 45,17.3516318 45,13.6341686 L45,6.73991605 C45,3.02093609 42.005931,0 38.3067285,0 Z M31.4696707,3.13953488 L38.3067285,3.13953488 C40.2657044,3.13953488 41.8604651,4.74860605 41.8604651,6.73991605 L41.8604651,13.6341686 C41.8604651,15.6241629 40.2648616,17.2345498 38.3067285,17.2345498 L31.4696707,17.2345498 C29.5096223,17.2345498 27.9137895,15.624397 27.9137895,13.6341686 L27.9137895,6.73991605 C27.9137895,4.74837204 29.5087793,3.13953488 31.4696707,3.13953488 Z M13.5303293,0 L6.69541613,0 C2.99450321,0 0,3.02050092 0,6.73991605 L0,13.6341686 C0,17.3520671 2.99514117,20.3740846 6.69541613,20.3740846 L13.5303293,20.3740846 C17.2306042,20.3740846 20.2257454,17.3520671 20.2257454,13.6341686 L20.2257454,6.73991605 C20.2257454,3.02050092 17.2312422,0 13.5303293,0 Z M6.69541613,3.13953488 L13.5303293,3.13953488 C15.4912207,3.13953488 17.0862105,4.74837204 17.0862105,6.73991605 L17.0862105,13.6341686 C17.0862105,15.624397 15.4903777,17.2345498 13.5303293,17.2345498 L6.69541613,17.2345498 C4.73536765,17.2345498 3.13953488,15.624397 3.13953488,13.6341686 L3.13953488,6.73991605 C3.13953488,4.74837204 4.73452464,3.13953488 6.69541613,3.13953488 Z M13.5303293,24.6259154 L6.69541613,24.6259154 C2.99406917,24.6259154 0,27.6468513 0,31.3679946 L0,38.260084 C0,41.9794991 2.99450321,45 6.69541613,45 L13.5303293,45 C17.2312422,45 20.2257454,41.9794991 20.2257454,38.260084 L20.2257454,31.3679946 C20.2257454,27.6468513 17.2316762,24.6259154 13.5303293,24.6259154 Z M6.69541613,27.7654502 L13.5303293,27.7654502 C15.4914497,27.7654502 17.0862105,29.3745213 17.0862105,31.3679946 L17.0862105,38.260084 C17.0862105,40.251628 15.4912207,41.8604651 13.5303293,41.8604651 L6.69541613,41.8604651 C4.73452464,41.8604651 3.13953488,40.251628 3.13953488,38.260084 L3.13953488,31.3679946 C3.13953488,29.3745213 4.73429565,27.7654502 6.69541613,27.7654502 Z M38.3067285,24.6259154 L31.4696707,24.6259154 C27.7683238,24.6259154 24.7742546,27.6468513 24.7742546,31.3679946 L24.7742546,38.260084 C24.7742546,41.9794991 27.7687578,45 31.4696707,45 L38.3067285,45 C42.005931,45 45,41.9790639 45,38.260084 L45,31.3679946 C45,27.6472865 42.0063649,24.6259154 38.3067285,24.6259154 Z M31.4696707,27.7654502 L38.3067285,27.7654502 C40.2659333,27.7654502 41.8604651,29.3747555 41.8604651,31.3679946 L41.8604651,38.260084 C41.8604651,40.251394 40.2657044,41.8604651 38.3067285,41.8604651 L31.4696707,41.8604651 C29.5087793,41.8604651 27.9137895,40.251628 27.9137895,38.260084 L27.9137895,31.3679946 C27.9137895,29.3745213 29.5085503,27.7654502 31.4696707,27.7654502 Z"></path>
        </g>
    </g>
</svg>