<?xml version="1.0" encoding="UTF-8"?>
<svg width="60px" height="60px" viewBox="0 0 60 60" version="1.1" xmlns="http://www.w3.org/2000/svg" xmlns:xlink="http://www.w3.org/1999/xlink">
    <title>UI Icons/Sidebar Icons/SVG /grid_filled</title>
    <g id="UI-Icons/Sidebar-Icons/grid_filled" stroke="none" stroke-width="1" fill="none" fill-rule="evenodd">
        <path d="M25,2 C26.6568542,2 28,3.34314575 28,5 L28,25 C28,26.6568542 26.6568542,28 25,28 L11,28 C9.34314575,28 8,26.6568542 8,25 L8,5 C8,3.34314575 9.34314575,2 11,2 L25,2 Z M25,32 C26.6568542,32 28,33.3431458 28,35 L28,55 C28,56.6568542 26.6568542,58 25,58 L11,58 C9.34314575,58 8,56.6568542 8,55 L8,35 C8,33.3431458 9.34314575,32 11,32 L25,32 Z M49,2 C50.6568542,2 52,3.34314575 52,5 L52,25 C52,26.6568542 50.6568542,28 49,28 L35,28 C33.3431458,28 32,26.6568542 32,25 L32,5 C32,3.34314575 33.3431458,2 35,2 L49,2 Z M49,32 C50.6568542,32 52,33.3431458 52,35 L52,55 C52,56.6568542 50.6568542,58 49,58 L35,58 C33.3431458,58 32,56.6568542 32,55 L32,35 C32,33.3431458 33.3431458,32 35,32 L49,32 Z" id="Combined-Shape" fill="#95A1AC"></path>
    </g>
</svg>