<?xml version="1.0" encoding="UTF-8"?>
<svg width="60px" height="60px" viewBox="0 0 60 60" version="1.1" xmlns="http://www.w3.org/2000/svg" xmlns:xlink="http://www.w3.org/1999/xlink">
    <title>UI Icons/Sidebar Icons/SVG /hoverRegionAlt</title>
    <g id="UI-Icons/Sidebar-Icons/hoverRegionAlt" stroke="none" stroke-width="1" fill="none" fill-rule="evenodd">
        <path d="M47.0863731,14 C49.6259976,14 51.68477,16.0587724 51.68477,18.5983968 L51.684,20.8977779 L49.385,20.8977779 L49.3855715,18.5983968 C49.3855715,17.3285846 48.3561853,16.2991984 47.0863731,16.2991984 L12.5983968,16.2991984 C11.3285846,16.2991984 10.2991984,17.3285846 10.2991984,18.5983968 L10.2991984,41.590381 C10.2991984,42.8601933 11.3285846,43.8895794 12.5983968,43.8895794 L29.842,43.8897779 L29.842,46.1887779 L12.5983968,46.1887779 C10.0587724,46.1887779 8,44.1300055 8,41.590381 L8,18.5983968 C8,16.0587724 10.0587724,14 12.5983968,14 L47.0863731,14 Z M42.1540036,26.6077726 L51.0631715,35.1322643 C51.2992718,35.3577844 51.3817747,35.700486 51.2741787,36.0087485 C51.1665827,36.3170111 50.8887463,36.5339398 50.563592,36.5635596 L46.8433899,36.902441 L49.3954086,42.372004 C49.7788147,43.1450135 49.7361148,44.0611629 49.2824703,44.7951591 C48.8288257,45.5291554 48.0284839,45.9770461 47.1656187,45.9798069 C46.2246714,45.9812809 45.3623422,45.4550704 44.9333309,44.6176139 L42.3296891,39.0356455 L39.3805047,41.6109779 C39.1345676,41.8258819 38.7856983,41.8771552 38.4883279,41.7421009 C38.1909574,41.6070467 38,41.3106075 38,40.9840056 L38,28.4778652 C38,27.4950168 38.5762712,26.6034912 39.4724879,26.200023 C40.3687047,25.7965548 41.4182242,25.9561441 42.1540036,26.6077726 Z M40.1556856,27.7185044 C39.855031,27.8507345 39.662122,28.1494324 39.6652272,28.4778652 L39.6652272,39.152214 L42.0674098,37.0539801 C42.2190132,36.9210924 42.4136817,36.8477219 42.615282,36.8474872 C42.673174,36.8475341 42.7309151,36.8533919 42.787637,36.8649725 C43.0439175,36.9190262 43.2598261,37.0905193 43.3704797,37.3279162 L46.4304042,43.8857299 C46.6465338,44.2920076 47.1510946,44.446153 47.5573723,44.2300234 C47.96365,44.0138938 48.1177955,43.509333 47.9016659,43.1030553 L44.8359129,36.5327522 C44.7211664,36.2870571 44.7332534,36.0008752 44.8683083,35.7657306 C45.0033632,35.5305859 45.2444656,35.3759387 45.5145084,35.3512466 L48.5952487,35.0706495 L41.0257866,27.8334077 C40.783503,27.6275173 40.4431101,27.5825659 40.1556856,27.7185044 Z M26.3935874,30.0943889 C27.0284935,30.0943889 27.5431866,30.609082 27.5431866,31.2439881 C27.5431866,31.8788943 27.0284935,32.3935874 26.3935874,32.3935874 L14.8975953,32.3935874 C14.2626891,32.3935874 13.747996,31.8788943 13.747996,31.2439881 C13.747996,30.609082 14.2626891,30.0943889 14.8975953,30.0943889 L26.3935874,30.0943889 Z M26.3935874,25.4959921 C27.0284935,25.4959921 27.5431866,26.0106852 27.5431866,26.6455913 C27.5431866,27.2804974 27.0284935,27.7951905 26.3935874,27.7951905 L14.8975953,27.7951905 C14.2626891,27.7951905 13.747996,27.2804974 13.747996,26.6455913 C13.747996,26.0106852 14.2626891,25.4959921 14.8975953,25.4959921 L26.3935874,25.4959921 Z M26.3935874,20.8975953 C27.0284935,20.8975953 27.5431866,21.4122884 27.5431866,22.0471945 C27.5431866,22.6821006 27.0284935,23.1967937 26.3935874,23.1967937 L14.8975953,23.1967937 C14.2626891,23.1967937 13.747996,22.6821006 13.747996,22.0471945 C13.747996,21.4122884 14.2626891,20.8975953 14.8975953,20.8975953 L26.3935874,20.8975953 Z" id="Combined-Shape" fill="#95A1AC" fill-rule="nonzero"></path>
    </g>
</svg>