<?xml version="1.0" encoding="UTF-8"?>
<svg width="60px" height="60px" viewBox="0 0 60 60" version="1.1" xmlns="http://www.w3.org/2000/svg" xmlns:xlink="http://www.w3.org/1999/xlink">
    <title>UI Icons/Sidebar Icons/SVG /hoverRegion</title>
    <g id="UI-Icons/Sidebar-Icons/hoverRegion" stroke="none" stroke-width="1" fill="none" fill-rule="evenodd">
        <path d="M45.0863731,14 C47.6259976,14 49.68477,16.0587724 49.68477,18.5983968 L49.684,20.8977779 L47.385,20.8977779 L47.3855715,18.5983968 C47.3855715,17.3285846 46.3561853,16.2991984 45.0863731,16.2991984 L10.5983968,16.2991984 C9.32858461,16.2991984 8.29919842,17.3285846 8.29919842,18.5983968 L8.29919842,41.590381 C8.29919842,42.8601933 9.32858461,43.8895794 10.5983968,43.8895794 L27.842,43.8897779 L27.842,46.1887779 L10.5983968,46.1887779 C8.05877239,46.1887779 6,44.1300055 6,41.590381 L6,18.5983968 C6,16.0587724 8.05877239,14 10.5983968,14 Z M32.0334473,27.0454064 C33.282621,26.349116 34.8512509,26.6485292 35.7561349,27.7559767 L38.8800381,31.4788996 L44.0050661,28.6741834 C46.0089003,27.5827853 48.5040287,28.0520558 49.9744427,29.7968721 L52.8815878,33.2614727 C54.578775,35.289029 54.3146725,38.3077339 52.291188,40.0097736 L46.7240496,44.6811574 C45.7428994,45.500138 44.4768769,45.8963479 43.2038902,45.7828138 L39.9493111,45.4810752 C37.4587658,45.2504548 35.5605622,43.1495939 35.5828994,40.6484936 L35.3888029,36.2605018 L31.287025,31.3721933 C30.7429328,30.7241908 30.5120364,29.8693544 30.6558799,29.0355364 C30.7997235,28.2017184 31.3036891,27.4736545 32.0334473,27.0454064 Z M34.2883948,28.987557 C33.9864926,28.5987307 33.4527571,28.4758753 33.0112431,28.6935819 C32.7652307,28.8348347 32.5944717,29.0778551 32.5449627,29.3571816 C32.4954536,29.6365081 32.5722865,29.9234127 32.7547651,30.1406131 L41.3758266,40.4147941 C41.7159181,40.8200993 41.6630519,41.4243628 41.2577466,41.7644543 C40.8524414,42.1045457 40.2481779,42.0516795 39.9080865,41.6463743 L37.4110576,38.6705312 L37.4972636,40.6153801 C37.4632612,42.135388 38.6078947,43.424095 40.1212951,43.5696948 L43.3777217,43.8736351 C44.1422912,43.9426472 44.9029678,43.7051662 45.4924694,43.2134172 L51.0596078,38.5420335 C52.2755235,37.521759 52.4341221,35.7089687 51.4138477,34.4930529 L48.5067026,31.0284523 C47.6229996,29.9815344 46.1246627,29.7009438 44.922018,30.3571555 L39.1078163,33.5388139 C38.7075446,33.7558095 38.2098404,33.6610984 37.9172459,33.3122533 Z M24.3935874,30.0943889 C25.0284935,30.0943889 25.5431866,30.609082 25.5431866,31.2439881 C25.5431866,31.8788943 25.0284935,32.3935874 24.3935874,32.3935874 L12.8975953,32.3935874 C12.2626891,32.3935874 11.747996,31.8788943 11.747996,31.2439881 C11.747996,30.609082 12.2626891,30.0943889 12.8975953,30.0943889 Z M24.3935874,25.4959921 C25.0284935,25.4959921 25.5431866,26.0106852 25.5431866,26.6455913 C25.5431866,27.2804974 25.0284935,27.7951905 24.3935874,27.7951905 L12.8975953,27.7951905 C12.2626891,27.7951905 11.747996,27.2804974 11.747996,26.6455913 C11.747996,26.0106852 12.2626891,25.4959921 12.8975953,25.4959921 Z M24.3935874,20.8975953 C25.0284935,20.8975953 25.5431866,21.4122884 25.5431866,22.0471945 C25.5431866,22.6821006 25.0284935,23.1967937 24.3935874,23.1967937 L12.8975953,23.1967937 C12.2626891,23.1967937 11.747996,22.6821006 11.747996,22.0471945 C11.747996,21.4122884 12.2626891,20.8975953 12.8975953,20.8975953 Z" id="Combined-Shape" fill="#95A1AC" fill-rule="nonzero"></path>
    </g>
</svg>