<?xml version="1.0" encoding="UTF-8"?>
<svg width="60px" height="60px" viewBox="0 0 60 60" version="1.1" xmlns="http://www.w3.org/2000/svg" xmlns:xlink="http://www.w3.org/1999/xlink">
    <title>UI Icons/Sidebar Icons/SVG /htmlWidget</title>
    <g id="UI-Icons/Sidebar-Icons/htmlWidget" stroke="none" stroke-width="1" fill="none" fill-rule="evenodd">
        <path d="M39,6 C39.2121762,6 39.4156649,6.08427267 39.5657,6.2343 L49.1657,15.8343 C49.3157273,15.9843351 49.4,16.1878238 49.4,16.4 L49.4,48.4 C49.3964731,51.4913325 46.8913325,53.9964731 43.8,54 L16.6,54 C13.5086675,53.9964731 11.0035269,51.4913325 11,48.4 L11,11.6 C11.0035269,8.50866747 13.5086675,6.00352691 16.6,6 Z M47.8,41.2 L12.6,41.2 L12.6,48.4 C12.6024799,50.608111 14.391889,52.3975201 16.6,52.4 L43.8,52.4 C46.008111,52.3975201 47.7975201,50.608111 47.8,48.4 L47.8,41.2 Z M35.0845,43.2422 C35.2504311,42.910378 35.6227244,42.7361747 35.9838,42.8214 C36.344898,42.9066425 36.6,43.228977 36.6,43.6 L36.6,50 C36.6,50.4418278 36.2418278,50.8 35.8,50.8 C35.3581722,50.8 35,50.4418278 35,50 L35,46.9889 L34.1155,48.7578 C33.9799698,49.0287813 33.702984,49.1999456 33.4,49.1999456 C33.097016,49.1999456 32.8200302,49.0287813 32.6845,48.7578 L31.8,46.9889 L31.8,50 C31.8,50.4418278 31.4418278,50.8 31,50.8 C30.5581722,50.8 30.2,50.4418278 30.2,50 L30.2,43.6 C30.2,43.2290056 30.4551108,42.9067055 30.8161787,42.8214597 C31.1772466,42.7362138 31.5495475,42.9103919 31.7155,43.2422 L33.4,46.6111 Z M21.4,42.8 C21.8418278,42.8 22.2,43.1581722 22.2,43.6 L22.2,50 C22.2,50.4418278 21.8418278,50.8 21.4,50.8 C20.9581722,50.8 20.6,50.4418278 20.6,50 L20.6,47.6 L19,47.6 L19,50 C19,50.4418278 18.6418278,50.8 18.2,50.8 C17.7581722,50.8 17.4,50.4418278 17.4,50 L17.4,43.6 C17.4,43.1581722 17.7581722,42.8 18.2,42.8 C18.6418278,42.8 19,43.1581722 19,43.6 L19,46 L20.6,46 L20.6,43.6 C20.6,43.1581722 20.9581722,42.8 21.4,42.8 Z M27.8,42.8 C28.2418278,42.8 28.6,43.1581722 28.6,43.6 C28.6,44.0418278 28.2418278,44.4 27.8,44.4 L27,44.4 L27,50 C27,50.4418278 26.6418278,50.8 26.2,50.8 C25.7581722,50.8 25.4,50.4418278 25.4,50 L25.4,44.4 L24.6,44.4 C24.1581722,44.4 23.8,44.0418278 23.8,43.6 C23.8,43.1581722 24.1581722,42.8 24.6,42.8 Z M39,42.8 C39.4418278,42.8 39.8,43.1581722 39.8,43.6 L39.8,49.2 L42.2,49.2 C42.6418278,49.2 43,49.5581722 43,50 C43,50.4418278 42.6418278,50.8 42.2,50.8 L39,50.8 C38.5581722,50.8 38.2,50.4418278 38.2,50 L38.2,43.6 C38.2,43.1581722 38.5581722,42.8 39,42.8 Z M38.2,7.6 L16.6,7.6 C14.391889,7.60247994 12.6024799,9.39188904 12.6,11.6 L12.6,39.6 L47.8,39.6 L47.8,17.2 L43.8,17.2 C40.7086675,17.1964731 38.2035269,14.6913325 38.2,11.6 L38.2,7.6 Z M32.4395665,17.2093077 C32.7212233,17.1507207 33.0126484,17.2478752 33.2028046,17.4637539 C33.3929607,17.6796326 33.4525622,17.9809883 33.3589,18.253 L28.5589,32.653 C28.4919952,32.8544117 28.347716,33.020935 28.1578852,33.1158411 C27.9680543,33.2107471 27.7482669,33.2262391 27.547,33.1589 C27.1278862,33.0191545 26.901395,32.5661273 27.0411,32.147 L31.8411,17.747 C31.9293989,17.4732003 32.1579097,17.2678947 32.4395665,17.2093077 Z M35.2343,19.8343 C35.5467275,19.5218725 36.0532725,19.5218725 36.3657,19.8343 L41.1657,24.6343 C41.315738,24.7843303 41.4000292,24.9878197 41.4000292,25.2 C41.4000292,25.4121803 41.315738,25.6156697 41.1657,25.7657 L36.3657,30.5657 C36.2156697,30.715738 36.0121803,30.8000292 35.8,30.8000292 C35.5878197,30.8000292 35.3843303,30.715738 35.2343,30.5657 C35.084262,30.4156697 34.9999708,30.2121803 34.9999708,30 C34.9999708,29.7878197 35.084262,29.5843303 35.2343,29.4343 L39.4687,25.2 L35.2343,20.9657 C34.9218725,20.6532725 34.9218725,20.1467275 35.2343,19.8343 Z M24.0343,19.8343 C24.3467275,19.5218725 24.8532725,19.5218725 25.1657,19.8343 C25.4781275,20.1467275 25.4781275,20.6532725 25.1657,20.9657 L20.9313,25.2 L25.1657,29.4343 C25.4781275,29.7467275 25.4781275,30.2532725 25.1657,30.5657 C24.8532725,30.8781275 24.3467275,30.8781275 24.0343,30.5657 L19.2343,25.7657 C19.084262,25.6156697 18.9999708,25.4121803 18.9999708,25.2 C18.9999708,24.9878197 19.084262,24.7843303 19.2343,24.6343 Z M39.8,8.7313 L39.8,11.6 C39.8024799,13.808111 41.591889,15.5975201 43.8,15.6 L46.6687,15.6 L39.8,8.7313 Z" id="Combined-Shape" fill="#95A1AC"></path>
    </g>
</svg>