<?xml version="1.0" encoding="UTF-8"?>
<svg width="60px" height="60px" viewBox="0 0 60 60" version="1.1" xmlns="http://www.w3.org/2000/svg" xmlns:xlink="http://www.w3.org/1999/xlink">
    <title>UI Icons/Sidebar Icons/SVG /list</title>
    <g id="UI-Icons/Sidebar-Icons/list" stroke="none" stroke-width="1" fill="none" fill-rule="evenodd">
        <g id="Document" transform="translate(10.625, 14.375)" fill="#95A1AC" fill-rule="nonzero">
            <path d="M36.875,30 C37.9105339,30 38.75,30.8394661 38.75,31.875 C38.75,32.8242394 38.0446153,33.6087274 37.1294264,33.7328835 L36.875,33.75 L1.875,33.75 C0.839466094,33.75 0,32.9105339 0,31.875 C0,30.9257606 0.705384704,30.1412726 1.62057361,30.0171165 L1.875,30 L36.875,30 Z" id="Stroke-1"></path>
            <path d="M36.875,15 C37.9105339,15 38.75,15.8394661 38.75,16.875 C38.75,17.8242394 38.0446153,18.6087274 37.1294264,18.7328835 L36.875,18.75 L1.875,18.75 C0.839466094,18.75 0,17.9105339 0,16.875 C0,15.9257606 0.705384704,15.1412726 1.62057361,15.0171165 L1.875,15 L36.875,15 Z" id="Stroke-2"></path>
            <path d="M36.875,0 C37.9105339,0 38.75,0.839466094 38.75,1.875 C38.75,2.82423941 38.0446153,3.6087274 37.1294264,3.73288346 L36.875,3.75 L1.875,3.75 C0.839466094,3.75 0,2.91053391 0,1.875 C0,0.925760586 0.705384704,0.141272598 1.62057361,0.01711654 L1.875,0 L36.875,0 Z" id="Stroke-3"></path>
        </g>
    </g>
</svg>