<?xml version="1.0" encoding="UTF-8"?>
<svg width="60px" height="60px" viewBox="0 0 60 60" version="1.1" xmlns="http://www.w3.org/2000/svg" xmlns:xlink="http://www.w3.org/1999/xlink">
    <title>UI Icons/Sidebar Icons/SVG /multiSelect</title>
    <g id="UI-Icons/Sidebar-Icons/multiSelect" stroke="none" stroke-width="1" fill="none" fill-rule="evenodd">
        <path d="M50,44.375 C51.0355339,44.375 51.875,45.2704305 51.875,46.375 C51.875,47.387522 51.1696153,48.2243092 50.2544264,48.3567424 L50,48.375 L23.7738388,48.375 C22.7383049,48.375 21.8988388,47.4795695 21.8988388,46.375 C21.8988388,45.362478 22.6042235,44.5256908 23.5194124,44.3932576 L23.7738388,44.375 L50,44.375 Z M50,28.375 C51.0355339,28.375 51.875,29.2704305 51.875,30.375 C51.875,31.387522 51.1696153,32.2243092 50.2544264,32.3567424 L50,32.375 L23.7738388,32.375 C22.7383049,32.375 21.8988388,31.4795695 21.8988388,30.375 C21.8988388,29.362478 22.6042235,28.5256908 23.5194124,28.3932576 L23.7738388,28.375 L50,28.375 Z M50,12.375 C51.0355339,12.375 51.875,13.2704305 51.875,14.375 C51.875,15.387522 51.1696153,16.2243092 50.2544264,16.3567424 L50,16.375 L23.7738388,16.375 C22.7383049,16.375 21.8988388,15.4795695 21.8988388,14.375 C21.8988388,13.362478 22.6042235,12.5256908 23.5194124,12.3932576 L23.7738388,12.375 L50,12.375 Z M16,10 C17.1045695,10 18,10.8954305 18,12 L18,18 C18,19.1045695 17.1045695,20 16,20 L10,20 C8.8954305,20 8,19.1045695 8,18 L8,12 C8,10.8954305 8.8954305,10 10,10 L16,10 Z M16,11.5 L10,11.5 C9.75454011,11.5 9.55039163,11.6768752 9.50805567,11.9101244 L9.5,12 L9.5,18 C9.5,18.2454599 9.67687516,18.4496084 9.91012437,18.4919443 L10,18.5 L16,18.5 C16.2454599,18.5 16.4496084,18.3231248 16.4919443,18.0898756 L16.5,18 L16.5,12 C16.5,11.7545401 16.3231248,11.5503916 16.0898756,11.5080557 L16,11.5 Z M16,25 C17.1045695,25 18,25.8954305 18,27 L18,33 C18,34.1045695 17.1045695,35 16,35 L10,35 C8.8954305,35 8,34.1045695 8,33 L8,27 C8,25.8954305 8.8954305,25 10,25 L16,25 Z M16,26.5 L10,26.5 C9.75454011,26.5 9.55039163,26.6768752 9.50805567,26.9101244 L9.5,27 L9.5,33 C9.5,33.2454599 9.67687516,33.4496084 9.91012437,33.4919443 L10,33.5 L16,33.5 C16.2454599,33.5 16.4496084,33.3231248 16.4919443,33.0898756 L16.5,33 L16.5,27 C16.5,26.7545401 16.3231248,26.5503916 16.0898756,26.5080557 L16,26.5 Z M17.7180884,40.1464466 L11.743,46.121 L9.58937429,43.9673421 C9.39411214,43.77208 9.07752965,43.77208 8.8822675,43.9673421 L8.04644661,44.803163 C7.85118446,44.9984252 7.85118446,45.3150077 8.04644661,45.5102698 L11.3897302,48.8535534 C11.5849923,49.0488155 11.9015748,49.0488155 12.096837,48.8535534 L19.2610161,41.6893743 C19.4562782,41.4941121 19.4562782,41.1775297 19.2610161,40.9822675 L18.4251952,40.1464466 C18.229933,39.9511845 17.9133505,39.9511845 17.7180884,40.1464466 Z" id="Combined-Shape" fill="#7C8791"></path>
    </g>
</svg>