<?xml version="1.0" encoding="UTF-8"?>
<svg width="60px" height="60px" viewBox="0 0 60 60" version="1.1" xmlns="http://www.w3.org/2000/svg" xmlns:xlink="http://www.w3.org/1999/xlink">
    <title>UI Icons/Sidebar Icons/SVG /muxIntegration</title>
    <g id="UI-Icons/Sidebar-Icons/muxIntegration" stroke="none" stroke-width="1" fill="none" fill-rule="evenodd">
        <path d="M43.3623351,4.0290018 C46.3627456,4.0290018 48.8992307,6.09664059 49.0241797,8.81837158 L49.0290018,9.0290018 L49.0290018,53.0290018 C49.0290018,55.7833466 46.5675271,57.919844 43.5921881,58.0249474 L43.3623351,58.0290018 L16.6956685,58.0290018 C13.695258,58.0290018 11.1587729,55.961363 11.0338239,53.239632 L11.0290018,53.0290018 L11.0290018,19.0290018 C11.0290018,18.2005747 11.7005747,17.5290018 12.5290018,17.5290018 C13.3086979,17.5290018 13.9494505,18.1238899 14.0221352,18.8845418 L14.0290018,19.0290018 L14.0290018,53.0290018 C14.0290018,54.02665 15.0774852,54.9489447 16.5070915,55.0240706 L16.6956685,55.0290018 L43.3623351,55.0290018 C44.8238211,55.0290018 45.9331997,54.1482758 46.0231106,53.1586391 L46.0290018,53.0290018 L46.0290018,9.0290018 C46.0290018,8.03135362 44.9805184,7.1090589 43.5509121,7.03393303 L43.3623351,7.0290018 L26.6956685,7.0290018 C25.8672413,7.0290018 25.1956685,6.35742893 25.1956685,5.5290018 C25.1956685,4.74930568 25.7905566,4.10855312 26.5512085,4.03586838 L26.6956685,4.0290018 L43.3623351,4.0290018 Z M23.8140159,27.032391 C24.3823123,26.0852305 25.6108328,25.7781004 26.5579933,26.3463967 L36.5040254,32.3140159 C36.7855246,32.4829155 37.0211202,32.7185111 37.1900197,33.0000103 C37.758316,33.9471708 37.4511859,35.1756913 36.5040254,35.7439877 L26.5579933,41.7116069 C26.2471625,41.8981054 25.8914897,41.996621 25.5290018,41.996621 C24.4244323,41.996621 23.5290018,41.1011905 23.5290018,39.996621 L23.5290018,28.0613826 C23.5290018,27.6988947 23.6275175,27.3432219 23.8140159,27.032391 Z M37.8623351,10.3623351 C39.7953318,10.3623351 41.3623351,11.9293385 41.3623351,13.8623351 C41.3623351,15.7953318 39.7953318,17.3623351 37.8623351,17.3623351 C35.9293385,17.3623351 34.3623351,15.7953318 34.3623351,13.8623351 C34.3623351,11.9293385 35.9293385,10.3623351 37.8623351,10.3623351 Z M37.8623351,12.3623351 C37.033908,12.3623351 36.3623351,13.033908 36.3623351,13.8623351 C36.3623351,14.6907623 37.033908,15.3623351 37.8623351,15.3623351 C38.6907623,15.3623351 39.3623351,14.6907623 39.3623351,13.8623351 C39.3623351,13.033908 38.6907623,12.3623351 37.8623351,12.3623351 Z M20.8775353,7.61517218 C21.4588876,7.61508439 21.930238,8.08629243 21.9303258,8.6676448 C21.9304136,9.24899716 21.4592055,9.72034753 20.8778532,9.72043531 C19.1341685,9.72069861 17.7206986,11.1341685 17.7204353,12.8778532 C17.7203475,13.4592055 17.2489972,13.9304136 16.6676448,13.9303258 C16.0862924,13.930238 15.6150844,13.4588876 15.6151722,12.8775353 C15.615611,9.97139417 17.9713942,7.615611 20.8775353,7.61517218 Z M20.8777479,2 C21.4591003,2.00002966 21.9303555,2.47133292 21.9303258,3.05268528 C21.9302961,3.63403765 21.4589929,4.10529282 20.8776405,4.10526316 C18.551025,4.10514445 16.3196675,5.02933629 14.6745019,6.67450191 C13.0293363,8.31966752 12.1051445,10.551025 12.1052632,12.8776405 C12.1052928,13.4589929 11.6340377,13.9302961 11.0526853,13.9303258 C10.4713329,13.9303555 10.0000297,13.4591003 10,12.8777479 C9.99985281,9.99274468 11.1458507,7.22586141 13.1858561,5.18585605 C15.2258614,3.14585069 17.9927447,1.99985281 20.8777479,2 Z" id="Combined-Shape" fill="#95A1AC"></path>
    </g>
</svg>