<?xml version="1.0" encoding="UTF-8"?>
<svg width="60px" height="60px" viewBox="0 0 60 60" version="1.1" xmlns="http://www.w3.org/2000/svg" xmlns:xlink="http://www.w3.org/1999/xlink">
    <title>UI Icons/Sidebar Icons/SVG /numberedlist</title>
    <g id="UI-Icons/Sidebar-Icons/numberedlist" stroke="none" stroke-width="1" fill="none" fill-rule="evenodd">
        <g id="Document" transform="translate(11.25, 13.75)" fill="#95A1AC">
            <path d="M38.75,30.625 C39.7855339,30.625 40.625,31.4644661 40.625,32.5 C40.625,33.4492394 39.9196153,34.2337274 39.0044264,34.3578835 L38.75,34.375 L12.5238388,34.375 C11.4883049,34.375 10.6488388,33.5355339 10.6488388,32.5 C10.6488388,31.5507606 11.3542235,30.7662726 12.2694124,30.6421165 L12.5238388,30.625 L38.75,30.625 Z M38.75,15.625 C39.7855339,15.625 40.625,16.4644661 40.625,17.5 C40.625,18.4492394 39.9196153,19.2337274 39.0044264,19.3578835 L38.75,19.375 L12.5238388,19.375 C11.4883049,19.375 10.6488388,18.5355339 10.6488388,17.5 C10.6488388,16.5507606 11.3542235,15.7662726 12.2694124,15.6421165 L12.5238388,15.625 L38.75,15.625 Z M38.75,0.625 C39.7855339,0.625 40.625,1.46446609 40.625,2.5 C40.625,3.44923941 39.9196153,4.2337274 39.0044264,4.35788346 L38.75,4.375 L12.5238388,4.375 C11.4883049,4.375 10.6488388,3.53553391 10.6488388,2.5 C10.6488388,1.55076059 11.3542235,0.766272598 12.2694124,0.64211654 L12.5238388,0.625 L38.75,0.625 Z" id="Combined-Shape" fill-rule="nonzero"></path>
            <circle id="Oval" cx="2.5" cy="2.5" r="2.5"></circle>
            <circle id="Oval-Copy" cx="2.5" cy="17.5" r="2.5"></circle>
            <circle id="Oval-Copy-2" cx="2.5" cy="32.5" r="2.5"></circle>
        </g>
    </g>
</svg>