<?xml version="1.0" encoding="UTF-8"?>
<svg width="60px" height="60px" viewBox="0 0 60 60" version="1.1" xmlns="http://www.w3.org/2000/svg" xmlns:xlink="http://www.w3.org/1999/xlink">
    <title>UI Icons/Sidebar Icons/SVG /pageContainer</title>
    <g id="UI-Icons/Sidebar-Icons/pageContainer" stroke="none" stroke-width="1" fill="none" fill-rule="evenodd">
        <path d="M46.8510638,8 C49.6947428,8 52,10.3052572 52,13.1489362 L52,46.8510638 C52,49.6947428 49.6947428,52 46.8510638,52 L13.1489362,52 C10.3052572,52 8,49.6947428 8,46.8510638 L8,13.1489362 C8,10.3052572 10.3052572,8 13.1489362,8 Z M46.8510638,10.8085106 L13.1489362,10.8085106 C11.8563548,10.8085106 10.8085106,11.8563548 10.8085106,13.1489362 L10.8085106,46.8510638 C10.8085106,48.1436452 11.8563548,49.1914894 13.1489362,49.1914894 L46.8510638,49.1914894 C48.1436452,49.1914894 49.1914894,48.1436452 49.1914894,46.8510638 L49.1914894,13.1489362 C49.1914894,11.8563548 48.1436452,10.8085106 46.8510638,10.8085106 Z M30.5,42 C31.3284271,42 32,42.6715729 32,43.5 C32,44.3284271 31.3284271,45 30.5,45 C29.6715729,45 29,44.3284271 29,43.5 C29,42.6715729 29.6715729,42 30.5,42 Z M30,15 C31.6568542,15 33,16.3431458 33,18 C33,19.6568542 31.6568542,21 30,21 L18,21 C16.3431458,21 15,19.6568542 15,18 C15,16.3431458 16.3431458,15 18,15 L30,15 Z" id="Combined-Shape" fill="#95A1AC"></path>
        <path d="M24.5,45 C25.3284271,45 26,44.3284271 26,43.5 C26,42.6715729 25.3284271,42 24.5,42 C23.6715729,42 23,42.6715729 23,43.5 C23,44.3284271 23.6715729,45 24.5,45 Z M36.5,45 C37.3284271,45 38,44.3284271 38,43.5 C38,42.6715729 37.3284271,42 36.5,42 C35.6715729,42 35,42.6715729 35,43.5 C35,44.3284271 35.6715729,45 36.5,45 Z M16.9285714,23 L43.0714286,23 C44.1365492,23 45,23.8634508 45,24.9285714 C45,25.993692 44.1365492,26.8571429 43.0714286,26.8571429 L16.9285714,26.8571429 C15.8634508,26.8571429 15,25.993692 15,24.9285714 C15,23.8634508 15.8634508,23 16.9285714,23 Z M16.9285714,28.1428571 L38.0714286,28.1428571 C39.1365492,28.1428571 40,29.006308 40,30.0714286 C40,31.1365492 39.1365492,32 38.0714286,32 L16.9285714,32 C15.8634508,32 15,31.1365492 15,30.0714286 C15,29.006308 15.8634508,28.1428571 16.9285714,28.1428571 Z" id="Combined-Shape" fill="#95A1AC" opacity="0.6"></path>
    </g>
</svg>