<?xml version="1.0" encoding="UTF-8"?>
<svg width="60px" height="60px" viewBox="0 0 60 60" version="1.1" xmlns="http://www.w3.org/2000/svg" xmlns:xlink="http://www.w3.org/1999/xlink">
    <title>UI Icons/Sidebar Icons/SVG /pageContainerAlt</title>
    <g id="UI-Icons/Sidebar-Icons/pageContainerAlt" stroke="none" stroke-width="1" fill="none" fill-rule="evenodd">
        <path d="M37.8008719,8 C43.9283124,8 48,12.3735385 48,18.6500977 L48,33.3499023 C48,39.6267709 43.9280004,44 37.799068,44 L22.1991281,44 C16.0716876,44 12,39.6264615 12,33.3499023 L12,18.6500977 C12,12.3788067 16.0813988,8 22.1991281,8 Z M36.6048783,28.8843937 L36.3794533,29.1880983 C36.3045686,29.2931303 36.2283872,29.4042074 36.146248,29.5280741 L35.4415192,30.6458716 C34.1126081,32.7992763 33.3061109,33.7803942 31.85274,34.5668501 C30.0628128,35.5366561 28.6042375,35.3351481 26.8305207,34.2885043 L26.0423589,33.7896694 L25.3794949,33.3618058 C25.0113704,33.1331538 24.748223,32.9924065 24.4693838,32.8754207 C23.2625826,32.3699304 22.190274,32.9287203 20.7094023,34.6841868 L17.4579438,38.6564389 C17.2826495,38.8685915 17.1015107,39.0875811 16.9136257,39.3145164 C18.2031695,40.5834474 20.0095016,41.2941825 22.1991281,41.2941825 L37.799068,41.2941825 C42.3887638,41.2941825 45.2941825,38.173833 45.2941825,33.3499023 L45.294,31.966 L45.2062562,31.8878282 C45.0185715,31.7151293 44.8179521,31.5258926 44.5772064,31.2952639 L43.3184145,30.083427 C42.1112789,28.9372659 41.4206812,28.3740088 40.5385885,27.8424315 C39.204839,27.0400796 37.7198112,27.4414567 36.6048783,28.8843937 Z M37.8008719,10.7058175 L22.1991281,10.7058175 C17.6199654,10.7058175 14.7058175,13.8323168 14.7058175,18.6500977 L14.7058175,33.3499023 C14.7058175,34.6911437 14.9304275,35.9007112 15.3533718,36.9481338 L17.423572,34.4347215 L18.3382378,33.3068973 C20.6405689,30.4542673 22.7511516,29.22211 25.5154807,30.3799991 C25.9352596,30.5561152 26.2942938,30.7462899 26.7537069,31.0298472 L27.9428477,31.7971396 C29.1303591,32.5499557 29.6958869,32.6580041 30.5643679,32.1874499 C31.336414,31.7696761 31.8779111,31.1854259 32.7013099,29.9179353 L33.2417531,29.05807 L33.6093695,28.4684277 C33.9398449,27.9463534 34.1753014,27.6036633 34.4633786,27.2304811 C36.3681295,24.7653678 39.3381975,23.9626102 41.9343041,25.5243665 C43.0583267,26.201738 43.8747872,26.8740738 45.2927224,28.2269515 L45.2941825,18.6500977 C45.2941825,13.8263946 42.38898,10.7058175 37.8008719,10.7058175 Z M24.3690134,15.5568071 C26.9543563,15.5568071 29.0518815,17.6543324 29.0518815,20.2396753 C29.0518815,22.8250182 26.9543563,24.9225435 24.3690134,24.9225435 C21.785082,24.9225435 19.6879491,22.8246257 19.6879491,20.2396753 C19.6879491,17.6547249 21.785082,15.5568071 24.3690134,15.5568071 Z M24.3690134,18.2626246 C23.2796904,18.2626246 22.3937666,19.14888 22.3937666,20.2396753 C22.3937666,21.3304706 23.2796904,22.216726 24.3690134,22.216726 C25.4599745,22.216726 26.346064,21.3306365 26.346064,20.2396753 C26.346064,19.1487141 25.4599745,18.2626246 24.3690134,18.2626246 Z" id="Image-2" fill="#95A1AC"></path>
        <circle id="Oval-Copy-3" fill="#95A1AC" cx="30.5" cy="51.5" r="1.5"></circle>
        <circle id="Oval-Copy-4" fill="#95A1AC" opacity="0.6" cx="24.5" cy="51.5" r="1.5"></circle>
        <circle id="Oval-Copy-5" fill="#95A1AC" opacity="0.6" cx="36.5" cy="51.5" r="1.5"></circle>
        <path d="M47.7499789,54.2246094 C47.8511837,54.2246094 47.9367258,54.1908744 48.0066054,54.1234046 L48.0066054,54.1234046 L50.6885331,51.4956937 C50.7319066,51.4571395 50.7626295,51.4155732 50.7807017,51.3709949 C50.798774,51.3264166 50.8078102,51.2776214 50.8078102,51.2246094 C50.8078102,51.1715973 50.798774,51.1228021 50.7807017,51.0782238 C50.7626295,51.0336455 50.7319066,50.9920793 50.6885331,50.953525 L50.6885331,50.953525 L48.0066054,48.3258142 C47.9367258,48.2583443 47.8511837,48.2246094 47.7499789,48.2246094 C47.682509,48.2246094 47.6210632,48.2396696 47.5656415,48.2697901 C47.5102198,48.2999106 47.4662439,48.3426817 47.4337138,48.3981034 C47.4011837,48.453525 47.3849186,48.5149708 47.3849186,48.5824407 C47.3849186,48.6812359 47.422268,48.7679829 47.4969668,48.8426817 L47.4969668,48.8426817 L49.9367258,51.2246094 L47.4969668,53.6065371 C47.422268,53.6812359 47.3849186,53.7679829 47.3849186,53.866778 C47.3849186,53.9318383 47.4011837,53.9926817 47.4337138,54.0493082 C47.4662439,54.1059347 47.5102198,54.1493082 47.5656415,54.1794287 C47.6210632,54.2095491 47.682509,54.2246094 47.7499789,54.2246094 Z" id="􀆊" fill="#95A1AC" fill-rule="nonzero"></path>
        <path d="M12.7379307,54.2246094 C12.8054005,54.2246094 12.8668463,54.2095491 12.922268,54.1794287 C12.9776897,54.1493082 13.0216656,54.1059347 13.0541957,54.0493082 C13.0867258,53.9926817 13.1029909,53.9318383 13.1029909,53.866778 C13.1029909,53.7679829 13.0656415,53.6812359 12.9909427,53.6065371 L10.5511837,51.2246094 L12.9909427,48.8426817 C13.0656415,48.7679829 13.1029909,48.6812359 13.1029909,48.5824407 C13.1029909,48.5149708 13.0867258,48.453525 13.0541957,48.3981034 C13.0216656,48.3426817 12.9776897,48.2999106 12.922268,48.2697901 C12.8668463,48.2396696 12.8054005,48.2246094 12.7379307,48.2246094 C12.6367258,48.2246094 12.5511837,48.2583443 12.4813042,48.3258142 L9.79937644,50.953525 C9.75600295,50.9920793 9.72528006,51.0336455 9.70720777,51.0782238 C9.68913548,51.1228021 9.68009933,51.1715973 9.68009933,51.2246094 C9.68009933,51.2776214 9.68913548,51.3264166 9.70720777,51.3709949 C9.72528006,51.4155732 9.75600295,51.4571395 9.79937644,51.4956937 L12.4813042,54.1234046 C12.5511837,54.1908744 12.6367258,54.2246094 12.7379307,54.2246094 Z" id="􀆉" fill="#95A1AC" fill-rule="nonzero"></path>
    </g>
</svg>