<?xml version="1.0" encoding="UTF-8"?>
<svg width="60px" height="60px" viewBox="0 0 60 60" version="1.1" xmlns="http://www.w3.org/2000/svg" xmlns:xlink="http://www.w3.org/1999/xlink">
    <title>UI Icons/Sidebar Icons/SVG /Photo</title>
    <g id="UI-Icons/Sidebar-Icons/Photo" stroke="none" stroke-width="1" fill="none" fill-rule="evenodd">
        <g id="Image-2" transform="translate(7.5, 7.5)" fill="#95A1AC" fill-rule="nonzero">
            <path d="M32.2510898,0 C39.9103906,0 45,5.46692315 45,13.3126221 L45,31.6873779 C45,39.5334636 39.9100005,45 32.248835,45 L12.7489102,45 C5.08960944,45 0,39.5330768 0,31.6873779 L0,13.3126221 C0,5.47350843 5.10174846,0 12.7489102,0 Z M30.7560978,26.1054922 L30.4743166,26.4851229 C30.3807108,26.6164128 30.285484,26.7552592 30.18281,26.9100926 L29.301899,28.3073395 C27.6407602,30.9990954 26.6326387,32.2254927 24.815925,33.2085626 C22.578516,34.4208201 20.7552969,34.1689351 18.5381508,32.8606304 L17.5529487,32.2370868 L16.7243686,31.7022572 C16.2642131,31.4164423 15.9352788,31.2405081 15.5867298,31.0942759 C14.0782283,30.462413 12.7378426,31.1609004 10.8867528,33.3552335 L6.82242977,38.3205487 C6.6034397,38.5855847 6.37715247,38.8591571 6.14244288,39.1426492 C7.75364774,40.7291857 10.0116866,41.6177281 12.7489102,41.6177281 L32.248835,41.6177281 C37.9859548,41.6177281 41.6177281,37.7172913 41.6177281,31.6873779 L41.617,29.957 L41.5078202,29.8597853 C41.2732144,29.6439116 41.0224401,29.4073657 40.721508,29.1190799 L39.1480182,27.6042838 C37.6390987,26.1715824 36.7758515,25.467511 35.6732356,24.8030394 C34.0060488,23.8000995 32.149764,24.3018209 30.7560978,26.1054922 Z M32.2510898,3.38227188 L12.7489102,3.38227188 C7.02495671,3.38227188 3.38227188,7.29039598 3.38227188,13.3126221 L3.38227188,31.6873779 C3.38227188,33.3636647 3.66294573,34.8754113 4.19146424,36.1845468 L6.77946506,33.0434019 L7.92279721,31.6336216 C10.8007112,28.0678341 13.4389396,26.5276376 16.8943509,27.9749988 C17.4190745,28.1951441 17.8678672,28.4328624 18.4421336,28.787309 L19.9285597,29.7464244 C21.4129488,30.6874447 22.1198586,30.8225051 23.2054599,30.2343124 C24.1705175,29.7120951 24.8473889,28.9817824 25.8766374,27.3974191 L26.5521913,26.3225875 L27.0117119,25.5855347 C27.4248061,24.9329417 27.7191267,24.5045791 28.0792232,24.0381013 C30.4601619,20.9567098 34.1727469,19.9532627 37.4178801,21.9054582 C38.8229769,22.7522138 39.8435835,23.5926742 41.6161621,25.2839366 L41.6177281,13.3126221 C41.6177281,7.28299329 37.986225,3.38227188 32.2510898,3.38227188 Z M15.4612667,9.44600892 C18.6929453,9.44600892 21.3148519,12.0679155 21.3148519,15.2995941 C21.3148519,18.5312728 18.6929453,21.1531793 15.4612667,21.1531793 C12.2313524,21.1531793 9.60993636,18.5307822 9.60993636,15.2995941 C9.60993636,12.0684061 12.2313524,9.44600892 15.4612667,9.44600892 Z M15.4612667,12.8282808 C14.099613,12.8282808 12.9922082,13.9361 12.9922082,15.2995941 C12.9922082,16.6630883 14.099613,17.7709075 15.4612667,17.7709075 C16.8249682,17.7709075 17.93258,16.6632956 17.93258,15.2995941 C17.93258,13.9358927 16.8249682,12.8282808 15.4612667,12.8282808 Z"></path>
        </g>
    </g>
</svg>