<?xml version="1.0" encoding="UTF-8"?>
<svg width="60px" height="60px" viewBox="0 0 60 60" version="1.1" xmlns="http://www.w3.org/2000/svg" xmlns:xlink="http://www.w3.org/1999/xlink">
    <title>UI Icons/Sidebar Icons/SVG /pin</title>
    <g id="UI-Icons/Sidebar-Icons/pin" stroke="none" stroke-width="1" fill="none" fill-rule="evenodd">
        <path d="M30.1477515,8.00039663 C34.4586366,8.04459178 37.9178441,11.5743954 37.875,15.8753441 L37.875,21.7493966 L42.375,21.7503441 C42.8878358,21.7503441 43.3105072,22.1363843 43.3682723,22.633723 L43.375,22.7503441 L43.375,39.2503441 C43.375,39.8026288 42.9272847,40.2503441 42.375,40.2503441 L17.625,40.2503441 C17.0727153,40.2503441 16.625,39.8026288 16.625,39.2503441 L16.625,22.7503441 C16.625,22.1980593 17.0727153,21.7503441 17.625,21.7503441 L22.125,21.7493966 L22.125,15.7275926 C22.1683978,11.4996092 25.5645787,8.09086143 29.7527432,8.00173888 L30.1477515,8.00039663 Z M41.375,23.75 L18.625,23.75 L18.625,38.25 L41.375,38.25 L41.375,23.75 Z M30,27.2503441 C32.0710678,27.2503441 33.75,28.9292763 33.75,31.0003441 C33.75,33.0714119 32.0710678,34.7503441 30,34.7503441 C27.9289322,34.7503441 26.25,33.0714119 26.25,31.0003441 C26.25,28.9292763 27.9289322,27.2503441 30,27.2503441 Z M30,29.2503441 C29.0335017,29.2503441 28.25,30.0338458 28.25,31.0003441 C28.25,31.9668424 29.0335017,32.7503441 30,32.7503441 C30.9664983,32.7503441 31.75,31.9668424 31.75,31.0003441 C31.75,30.0338458 30.9664983,29.2503441 30,29.2503441 Z M30.1375,10.0003441 L29.9900505,10.0002946 C26.7834312,9.96838863 24.1578216,12.5414861 24.125,15.7378441 L24.125,21.7493966 L35.875,21.7493966 L35.8750495,15.8653945 C35.9069555,12.6587753 33.333858,10.0331657 30.1375,10.0003441 Z M20.375,51.6253441 C21.8937831,51.6253441 23.125,50.3941271 23.125,48.8753441 C23.125,47.356561 21.8937831,46.1253441 20.375,46.1253441 C18.8562169,46.1253441 17.625,47.356561 17.625,48.8753441 C17.625,50.3941271 18.8562169,51.6253441 20.375,51.6253441 Z M30,51.6253441 C31.5187831,51.6253441 32.75,50.3941271 32.75,48.8753441 C32.75,47.356561 31.5187831,46.1253441 30,46.1253441 C28.4812169,46.1253441 27.25,47.356561 27.25,48.8753441 C27.25,50.3941271 28.4812169,51.6253441 30,51.6253441 Z M39.625,51.6253441 C41.1437831,51.6253441 42.375,50.3941271 42.375,48.8753441 C42.375,47.356561 41.1437831,46.1253441 39.625,46.1253441 C38.1062169,46.1253441 36.875,47.356561 36.875,48.8753441 C36.875,50.3941271 38.1062169,51.6253441 39.625,51.6253441 Z M49.25,51.6253441 C50.7687831,51.6253441 52,50.3941271 52,48.8753441 C52,47.356561 50.7687831,46.1253441 49.25,46.1253441 C47.7312169,46.1253441 46.5,47.356561 46.5,48.8753441 C46.5,50.3941271 47.7312169,51.6253441 49.25,51.6253441 Z M10.75,51.6253441 C12.2687831,51.6253441 13.5,50.3941271 13.5,48.8753441 C13.5,47.356561 12.2687831,46.1253441 10.75,46.1253441 C9.23121694,46.1253441 8,47.356561 8,48.8753441 C8,50.3941271 9.23121694,51.6253441 10.75,51.6253441 Z" id="pincode" fill="#95A1AC"></path>
    </g>
</svg>