<?xml version="1.0" encoding="UTF-8"?>
<svg width="60px" height="60px" viewBox="0 0 60 60" version="1.1" xmlns="http://www.w3.org/2000/svg" xmlns:xlink="http://www.w3.org/1999/xlink">
    <title>UI Icons/Sidebar Icons/SVG /pinCode</title>
    <g id="UI-Icons/Sidebar-Icons/pinCode" stroke="none" stroke-width="1" fill="none" fill-rule="evenodd">
        <path d="M15,26 L15,28 L6,28 C4.8954305,28 4,28.8954305 4,30 L4,46 C4,47.1045695 4.8954305,48 6,48 L54,48 C55.1045695,48 56,47.1045695 56,46 L56,30 C56,28.8954305 55.1045695,28 54,28 L45,28 L45,26 L54,26 C56.209139,26 58,27.790861 58,30 L58,46 C58,48.209139 56.209139,50 54,50 L6,50 C3.790861,50 2,48.209139 2,46 L2,30 C2,27.790861 3.790861,26 6,26 L15,26 Z M12,34 C14.209139,34 16,35.790861 16,38 C16,40.209139 14.209139,42 12,42 C9.790861,42 8,40.209139 8,38 C8,35.790861 9.790861,34 12,34 Z M24,34 C26.209139,34 28,35.790861 28,38 C28,40.209139 26.209139,42 24,42 C21.790861,42 20,40.209139 20,38 C20,35.790861 21.790861,34 24,34 Z M48,34 C50.209139,34 52,35.790861 52,38 C52,40.209139 50.209139,42 48,42 C45.790861,42 44,40.209139 44,38 C44,35.790861 45.790861,34 48,34 Z M36,34 C38.209139,34 40,35.790861 40,38 C40,40.209139 38.209139,42 36,42 C33.790861,42 32,40.209139 32,38 C32,35.790861 33.790861,34 36,34 Z M48,35.5 C46.6192881,35.5 45.5,36.6192881 45.5,38 C45.5,39.3807119 46.6192881,40.5 48,40.5 C49.3807119,40.5 50.5,39.3807119 50.5,38 C50.5,36.6192881 49.3807119,35.5 48,35.5 Z M36,35.5 C34.6192881,35.5 33.5,36.6192881 33.5,38 C33.5,39.3807119 34.6192881,40.5 36,40.5 C37.3807119,40.5 38.5,39.3807119 38.5,38 C38.5,36.6192881 37.3807119,35.5 36,35.5 Z M30.6190476,11 C33.247619,11 35.3809524,13.1333333 35.3809524,15.7619048 L35.3809524,17.6666667 L36.3333333,17.6666667 C37.3809524,17.6666667 38.2380952,18.5238095 38.2380952,19.5714286 L38.2380952,29.0952381 C38.2380952,30.1428571 37.3809524,31 36.3333333,31 L24.9047619,31 C23.8571429,31 23,30.1428571 23,29.0952381 L23,19.5714286 C23,18.5238095 23.8571429,17.6666667 24.9047619,17.6666667 L25.8571429,17.6666667 L25.8571429,15.7619048 C25.8571429,13.1333333 27.9904762,11 30.6190476,11 Z M30.6190476,22.4285714 C29.5714286,22.4285714 28.7142857,23.2857143 28.7142857,24.3333333 C28.7142857,25.3809524 29.5714286,26.2380952 30.6190476,26.2380952 C31.6666667,26.2380952 32.5238095,25.3809524 32.5238095,24.3333333 C32.5238095,23.2857143 31.6666667,22.4285714 30.6190476,22.4285714 Z M30.6190476,12.8095238 C28.9904762,12.8095238 27.6666667,14.1333333 27.6666667,15.7619048 L27.6666667,17.6666667 L33.5714286,17.6666667 L33.5714286,15.7619048 C33.5714286,14.1333333 32.247619,12.8095238 30.6190476,12.8095238 Z" id="lockPinCode" fill="#95A1AC"></path>
    </g>
</svg>