<?xml version="1.0" encoding="UTF-8"?>
<svg width="60px" height="60px" viewBox="0 0 60 60" version="1.1" xmlns="http://www.w3.org/2000/svg" xmlns:xlink="http://www.w3.org/1999/xlink">
    <title>UI Icons/Sidebar Icons/SVG /progressBarWidget</title>
    <g id="UI-Icons/Sidebar-Icons/progressBarWidget" stroke="none" stroke-width="1" fill="none" fill-rule="evenodd">
        <path d="M56,37 C58.209139,37 60,38.790861 60,41 L60,49 C60,51.209139 58.209139,53 56,53 L4,53 C1.790861,53 0,51.209139 0,49 L0,41 C0,38.790861 1.790861,37 4,37 L56,37 Z M56,38.5 L4,38.5 C2.6745166,38.5 1.58996133,39.5315359 1.50531768,40.8356243 L1.5,41 L1.5,49 C1.5,50.3254834 2.53153594,51.4100387 3.83562431,51.4946823 L4,51.5 L56,51.5 C57.3254834,51.5 58.4100387,50.4684641 58.4946823,49.1643757 L58.5,49 L58.5,41 C58.5,39.6745166 57.4684641,38.5899613 56.1643757,38.5053177 L56,38.5 Z M41,40 C42.1045695,40 43,40.8954305 43,42 L43,48 C43,49.1045695 42.1045695,50 41,50 L5,50 C3.8954305,50 3,49.1045695 3,48 L3,42 C3,40.8954305 3.8954305,40 5,40 L41,40 Z M21.203,15.79 L14.895,27.304 L13.337,26.506 L19.36,15.676 L12.786,15.676 L12.824,14.004 L21.203,14.004 L21.203,15.79 Z M31.596,22.934 C31.596,24.1753333 31.1653333,25.214 30.304,26.05 C29.4426667,26.886 28.3786667,27.304 27.112,27.304 C26.0986667,27.304 25.1803333,26.9873333 24.357,26.354 C23.5336667,25.7206667 22.989,24.8656667 22.723,23.789 L24.281,23.162 C24.471,23.922 24.8161667,24.5236667 25.3165,24.967 C25.8168333,25.4103333 26.4026667,25.632 27.074,25.632 C27.8846667,25.632 28.5465,25.3818333 29.0595,24.8815 C29.5725,24.3811667 29.829,23.7383333 29.829,22.953 C29.829,22.155 29.5725,21.5026667 29.0595,20.996 C28.5465,20.4893333 27.891,20.236 27.093,20.236 C26.1683333,20.236 25.44,20.6096667 24.908,21.357 L23.141,20.597 L23.977,14.004 L30.798,14.004 L30.798,15.676 L25.44,15.676 L24.965,19.4 L25.041,19.419 C25.687,18.8996667 26.4723333,18.64 27.397,18.64 C28.5623333,18.64 29.5535,19.0516667 30.3705,19.875 C31.1875,20.6983333 31.596,21.718 31.596,22.934 Z M39.614,16.949 C39.614,17.8356667 39.291,18.602 38.645,19.248 C38.0116667,19.8813333 37.2516667,20.198 36.365,20.198 C35.491,20.198 34.7246667,19.8813333 34.066,19.248 C33.4326667,18.5893333 33.116,17.823 33.116,16.949 C33.116,16.0623333 33.4326667,15.3023333 34.066,14.669 C34.712,14.023 35.4783333,13.7 36.365,13.7 C37.2516667,13.7 38.0116667,14.023 38.645,14.669 C39.291,15.3023333 39.614,16.0623333 39.614,16.949 Z M44.991,14.574 L36.555,27.152 L35.472,26.449 L43.927,13.852 L44.991,14.574 Z M38.208,16.949 C38.208,16.379 38.0338333,15.9071667 37.6855,15.5335 C37.3371667,15.1598333 36.897,14.973 36.365,14.973 C35.8456667,14.973 35.4086667,15.163 35.054,15.543 C34.6993333,15.9103333 34.522,16.379 34.522,16.949 C34.522,17.519 34.6993333,17.9876667 35.054,18.355 C35.4086667,18.735 35.8456667,18.925 36.365,18.925 C36.897,18.925 37.3371667,18.7381667 37.6855,18.3645 C38.0338333,17.9908333 38.208,17.519 38.208,16.949 Z M47.366,24.055 C47.366,24.9416667 47.043,25.708 46.397,26.354 C45.7636667,26.9873333 45.0036667,27.304 44.117,27.304 C43.243,27.304 42.4766667,26.9873333 41.818,26.354 C41.1846667,25.6953333 40.868,24.929 40.868,24.055 C40.868,23.1683333 41.1846667,22.4083333 41.818,21.775 C42.464,21.129 43.2303333,20.806 44.117,20.806 C45.0036667,20.806 45.7636667,21.129 46.397,21.775 C47.043,22.4083333 47.366,23.1683333 47.366,24.055 Z M45.96,24.055 C45.96,23.485 45.7858333,23.0131667 45.4375,22.6395 C45.0891667,22.2658333 44.649,22.079 44.117,22.079 C43.5976667,22.079 43.1606667,22.269 42.806,22.649 C42.4513333,23.0163333 42.274,23.485 42.274,24.055 C42.274,24.625 42.4513333,25.0936667 42.806,25.461 C43.1606667,25.841 43.5976667,26.031 44.117,26.031 C44.649,26.031 45.0891667,25.8441667 45.4375,25.4705 C45.7858333,25.0968333 45.96,24.625 45.96,24.055 Z" id="Combined-Shape" fill="#95A1AC" fill-rule="nonzero"></path>
    </g>
</svg>