<?xml version="1.0" encoding="UTF-8"?>
<svg width="60px" height="60px" viewBox="0 0 60 60" version="1.1" xmlns="http://www.w3.org/2000/svg" xmlns:xlink="http://www.w3.org/1999/xlink">
    <title>UI Icons/Sidebar Icons/SVG /QR_Code</title>
    <g id="UI-Icons/Sidebar-Icons/QR_Code" stroke="none" stroke-width="1" fill="none" fill-rule="evenodd">
        <g id="qr-code" transform="translate(6, 6)" fill="#95A1AC">
            <path d="M1.49560547,37.3963623 C2.32104488,37.3963623 2.99121094,38.0665283 2.99121094,38.8919677 L2.99121094,45.0087891 L9.10803225,45.0087891 C9.93347166,45.0087891 10.6036377,45.6789551 10.6036377,46.5043945 C10.6036377,47.3298339 9.93347166,48 9.10803225,48 L1.49560547,48 C0.670166062,48 0,47.3298339 0,46.5043945 L0,38.8919677 C0,38.0665283 0.670166062,37.3963623 1.49560547,37.3963623 Z M46.5043945,37.3963623 C47.3298339,37.3963623 48,38.0665283 48,38.8919677 L48,46.5043945 C48,47.3298339 47.3298339,48 46.5043945,48 L38.8919677,48 C38.0665283,48 37.3963623,47.3298339 37.3963623,46.5043945 C37.3963623,45.6789551 38.0665283,45.0087891 38.8919677,45.0087891 L45.0087891,45.0087891 L45.0087891,38.8919677 C45.0087891,38.0665283 45.6789551,37.3963623 46.5043945,37.3963623 Z M21.1167485,25.8922654 C21.6395609,25.8922654 22.063384,26.3160885 22.063384,26.8389009 L22.063384,40.0917974 C22.063384,40.6146098 21.6395609,41.0384329 21.1167485,41.0384329 L21.0063508,41.0320642 C20.5355524,40.9773817 20.1701131,40.577266 20.1701131,40.0917974 L20.1701131,27.7855363 L18.2768421,27.7855363 C17.7540298,27.7855363 17.3302067,27.3617132 17.3302067,26.8389009 C17.3302067,26.3160885 17.7540298,25.8922654 18.2768421,25.8922654 L21.1167485,25.8922654 Z M40.9960934,34.2711435 C41.5189057,34.2711435 41.9427289,34.6949667 41.9427289,35.217779 L41.9427289,40.0917974 C41.9427289,40.6146098 41.5189057,41.0384329 40.9960934,41.0384329 L29.8280099,41.0384329 C29.3051975,41.0384329 28.8813744,40.6146098 28.8813744,40.0917974 C28.8813744,39.5689851 29.3051975,39.145162 29.8280099,39.145162 L40.048833,39.1444229 L40.0494579,35.217779 C40.0494579,34.7323104 40.4148973,34.3321947 40.8856957,34.2775122 L40.9960934,34.2711435 Z M14.5181493,30.6125222 C15.563774,30.6125222 16.4114202,31.4601685 16.4114202,32.5057931 L16.4114202,39.1322414 C16.4114202,40.1778661 15.563774,41.0255124 14.5181493,41.0255124 L7.89170101,41.0255124 C6.84607634,41.0255124 5.99843007,40.1778661 5.99843007,39.1322414 L5.99843007,32.5057931 C5.99843007,31.4601685 6.84607634,30.6125222 7.89170101,30.6125222 L14.5181493,30.6125222 Z M14.5181493,32.5057931 L7.89170101,32.5057931 L7.89170101,39.1322414 L14.5181493,39.1322414 L14.5181493,32.5057931 Z M35.3441296,34.3990641 C35.866942,34.3990641 36.2907651,34.8228872 36.2907651,35.3456996 C36.2907651,35.8685119 35.866942,36.292335 35.3441296,36.292335 L28.7176813,36.292335 C28.194869,36.292335 27.7710459,35.8685119 27.7710459,35.3456996 C27.7710459,34.8228872 28.194869,34.3990641 28.7176813,34.3990641 L35.3441296,34.3990641 Z M24.9311395,34.3990641 C25.4539518,34.3990641 25.8777749,34.8228872 25.8777749,35.3456996 C25.8777749,35.8685119 25.4539518,36.292335 24.9311395,36.292335 C24.4083271,36.292335 23.984504,35.8685119 23.984504,35.3456996 C23.984504,34.8228872 24.4083271,34.3990641 24.9311395,34.3990641 Z M41.0239424,28.7192513 C41.5467548,28.7192513 41.9705779,29.1430744 41.9705779,29.6658867 C41.9705779,30.1886991 41.5467548,30.6125222 41.0239424,30.6125222 L26.8244104,30.6125222 C26.3015981,30.6125222 25.8777749,30.1886991 25.8777749,29.6658867 C25.8777749,29.1430744 26.3015981,28.7192513 26.8244104,28.7192513 L41.0239424,28.7192513 Z M10.4024464,25.9032649 C10.9252587,25.9032649 11.3490819,26.3270881 11.3490819,26.8499004 C11.3490819,27.3727127 10.9252587,27.7965359 10.4024464,27.7965359 L6.9172165,27.7965359 C6.39440417,27.7965359 5.97058103,27.3727127 5.97058103,26.8499004 C5.97058103,26.3270881 6.39440417,25.9032649 6.9172165,25.9032649 L10.4024464,25.9032649 Z M14.5181493,25.8793449 C15.0409616,25.8793449 15.4647848,26.303168 15.4647848,26.8259803 C15.4647848,27.3487927 15.0409616,27.7726158 14.5181493,27.7726158 C13.995337,27.7726158 13.5715138,27.3487927 13.5715138,26.8259803 C13.5715138,26.303168 13.995337,25.8793449 14.5181493,25.8793449 Z M26.7965614,19.2658171 L26.9069591,19.2721858 C27.3777575,19.3268683 27.7431968,19.726984 27.7431968,20.2124526 L27.7431968,23.9989944 L36.2629161,23.9989944 C36.7857284,23.9989944 37.2095515,24.4228176 37.2095515,24.9456299 C37.2095515,25.4684422 36.7857284,25.8922654 36.2629161,25.8922654 L26.7965614,25.8922654 C26.273749,25.8922654 25.8499259,25.4684422 25.8499259,24.9456299 L25.8499259,20.2124526 C25.8499259,19.6896402 26.273749,19.2658171 26.7965614,19.2658171 Z M41.0239424,23.0394385 C41.5467548,23.0394385 41.9705779,23.4632616 41.9705779,23.9860739 C41.9705779,24.5088863 41.5467548,24.9327094 41.0239424,24.9327094 C40.5011301,24.9327094 40.077307,24.5088863 40.077307,23.9860739 C40.077307,23.4632616 40.5011301,23.0394385 41.0239424,23.0394385 Z M21.1167485,11.6927333 C21.6395609,11.6927333 22.063384,12.1165565 22.063384,12.6393688 L22.063384,20.2124526 C22.063384,20.7352649 21.6395609,21.159088 21.1167485,21.159088 L6.9172165,21.159088 C6.39440417,21.159088 5.97058103,20.7352649 5.97058103,20.2124526 C5.97058103,19.6896402 6.39440417,19.2658171 6.9172165,19.2658171 L20.1701131,19.2658171 L20.1701131,12.6393688 C20.1701131,12.1539002 20.5355524,11.7537846 21.0063508,11.6991021 L21.1167485,11.6927333 Z M41.0215575,18.306261 C41.5443681,18.3049469 41.9692577,18.7277009 41.970578,19.2505116 C41.9718921,19.7733223 41.5491381,20.1982118 41.0263274,20.199529 L31.5321237,20.2234522 C31.009313,20.2247663 30.5844234,19.8020123 30.5831032,19.2792016 C30.5817891,18.756391 31.004543,18.3315014 31.5273537,18.3301842 L41.0215575,18.306261 Z M14.5181493,6 C15.563774,6 16.4114202,6.84764627 16.4114202,7.89327094 L16.4114202,14.5197192 C16.4114202,15.5653439 15.563774,16.4129902 14.5181493,16.4129902 L7.89170101,16.4129902 C6.84607634,16.4129902 5.99843007,15.5653439 5.99843007,14.5197192 L5.99843007,7.89327094 C5.99843007,6.84764627 6.84607634,6 7.89170101,6 L14.5181493,6 Z M26.8244104,14.5197192 C27.3472227,14.5197192 27.7710459,14.9435424 27.7710459,15.4663547 C27.7710459,15.989167 27.3472227,16.4129902 26.8244104,16.4129902 C26.3015981,16.4129902 25.8777749,15.989167 25.8777749,15.4663547 C25.8777749,14.9435424 26.3015981,14.5197192 26.8244104,14.5197192 Z M40.077307,6 C41.1229316,6 41.9705779,6.84764627 41.9705779,7.89327094 L41.9705779,14.5197192 C41.9705779,15.5653439 41.1229316,16.4129902 40.077307,16.4129902 L33.4508587,16.4129902 C32.405234,16.4129902 31.5575877,15.5653439 31.5575877,14.5197192 L31.5575877,7.89327094 C31.5575877,6.84764627 32.405234,6 33.4508587,6 L40.077307,6 Z M14.5181493,7.89327094 L7.89170101,7.89327094 L7.89170101,14.5197192 L14.5181493,14.5197192 L14.5181493,7.89327094 Z M40.077307,7.89327094 L33.4508587,7.89327094 L33.4508587,14.5197192 L40.077307,14.5197192 L40.077307,7.89327094 Z M26.7965614,6.01292052 C27.3193737,6.01292052 27.7431968,6.43674366 27.7431968,6.95955599 L27.7431968,12.6393688 C27.7431968,13.1621811 27.3193737,13.5860043 26.7965614,13.5860043 L26.6861637,13.5796356 C26.2153652,13.5249531 25.8499259,13.1248374 25.8499259,12.6393688 L25.8499259,7.90619146 L21.1167485,7.90619146 C20.5939362,7.90619146 20.1701131,7.48236833 20.1701131,6.95955599 C20.1701131,6.43674366 20.5939362,6.01292052 21.1167485,6.01292052 L26.7965614,6.01292052 Z M11.2049252,9.78654188 C11.9891437,9.78654188 12.6248784,10.4222766 12.6248784,11.2064951 C12.6248784,11.9907136 11.9891437,12.6264483 11.2049252,12.6264483 C10.4207067,12.6264483 9.78497195,11.9907136 9.78497195,11.2064951 C9.78497195,10.4222766 10.4207067,9.78654188 11.2049252,9.78654188 Z M36.7640828,9.78654188 C37.5483013,9.78654188 38.184036,10.4222766 38.184036,11.2064951 C38.184036,11.9907136 37.5483013,12.6264483 36.7640828,12.6264483 C35.9798643,12.6264483 35.3441296,11.9907136 35.3441296,11.2064951 C35.3441296,10.4222766 35.9798643,9.78654188 36.7640828,9.78654188 Z M46.5043945,0 C47.3298339,0 48,0.670166063 48,1.49560547 L48,9.10803225 C48,9.93347166 47.3298339,10.6036377 46.5043945,10.6036377 C45.6789551,10.6036377 45.0087891,9.93347166 45.0087891,9.10803225 L45.0087891,2.99121094 L38.8919677,2.99121094 C38.0665283,2.99121094 37.3963623,2.32104488 37.3963623,1.49560547 C37.3963623,0.670166062 38.0665283,0 38.8919677,0 Z M9.10803225,0 C9.93347166,0 10.6036377,0.670166062 10.6036377,1.49560547 C10.6036377,2.32104488 9.93347166,2.99121094 9.10803225,2.99121094 L2.99121094,2.99121094 L2.99121094,9.10803225 C2.99121094,9.93347166 2.32104488,10.6036377 1.49560547,10.6036377 C0.670166062,10.6036377 0,9.93347166 0,9.10803225 L0,1.49560547 C0,0.670166062 0.670166063,0 1.49560547,0 Z" id="Combined-Shape"></path>
        </g>
    </g>
</svg>