<?xml version="1.0" encoding="UTF-8"?>
<svg width="60px" height="60px" viewBox="0 0 60 60" version="1.1" xmlns="http://www.w3.org/2000/svg" xmlns:xlink="http://www.w3.org/1999/xlink">
    <title>UI Icons/Sidebar Icons/SVG /quanityCounter</title>
    <g id="UI-Icons/Sidebar-Icons/quanityCounter" stroke="none" stroke-width="1" fill="none" fill-rule="evenodd">
        <path d="M55,11 C57.7614237,11 60,13.2385763 60,16 L60,44 C60,46.7614237 57.7614237,49 55,49 L5,49 C2.23857625,49 0,46.7614237 0,44 L0,16 C0,13.2385763 2.23857625,11 5,11 L55,11 Z M55,13 L5,13 C3.40231912,13 2.09633912,14.24892 2.00509269,15.8237272 L2,16 L2,44 C2,45.5976809 3.24891996,46.9036609 4.82372721,46.9949073 L5,47 L55,47 C56.5976809,47 57.9036609,45.75108 57.9949073,44.1762728 L58,44 L58,16 C58,14.4023191 56.75108,13.0963391 55.1762728,13.0050927 L55,13 Z M29.8394495,22 C31.2614679,22 32.4464832,22.4357798 33.3944954,23.3073394 C34.3425076,24.1788991 34.8165138,25.2492355 34.8165138,26.5183486 C34.8165138,28.0321101 33.9831804,29.6681957 32.3165138,31.4266055 L27.7293578,36.0366972 L35,36.0366972 L35,38.0550459 L25,38.0550459 L25,35.9449541 L29.059633,31.8394495 L29.3261978,31.5658002 C30.5440027,30.3104145 31.3955148,29.358053 31.8807339,28.7087156 C32.4006116,28.0129969 32.6605505,27.2828746 32.6605505,26.5183486 C32.6605505,25.8302752 32.3929664,25.2415902 31.8577982,24.7522936 C31.32263,24.2629969 30.6345566,24.0183486 29.793578,24.0183486 C29.0749235,24.0183486 28.4556575,24.2324159 27.9357798,24.6605505 C27.4159021,25.088685 27.0795107,25.6085627 26.9266055,26.2201835 L25,25.440367 L25.0904163,25.1813443 C25.4151818,24.3302563 25.9737281,23.602377 26.766055,22.9977064 C27.6376147,22.3325688 28.6620795,22 29.8394495,22 Z M47.1615569,24.3324447 C47.7210563,24.3324447 48.1746201,24.7860085 48.1746201,25.3455079 L48.1746201,29.1578246 L51.9869368,29.1578246 C52.5464362,29.1578246 53,29.6113884 53,30.1708878 C53,30.7303871 52.5464362,31.1839509 51.9869368,31.1839509 L48.1746201,31.1839509 L48.1746201,34.9962677 C48.1746201,35.555767 47.7210563,36.0093308 47.1615569,36.0093308 C46.6020576,36.0093308 46.1484937,35.555767 46.1484937,34.9962677 L46.1484937,31.1839509 L42.336177,31.1839509 C41.7766777,31.1839509 41.3231138,30.7303871 41.3231138,30.1708878 C41.3231138,29.6113884 41.7766777,29.1578246 42.336177,29.1578246 L46.1484937,29.1578246 L46.1484937,25.3455079 C46.1484937,24.7860085 46.6020576,24.3324447 47.1615569,24.3324447 Z M15.5179952,29.3311117 C16.0774945,29.3311117 16.5310584,29.7846755 16.5310584,30.3441749 C16.5310584,30.9036742 16.0774945,31.3572381 15.5179952,31.3572381 L9.01306318,31.3572381 C8.45356384,31.3572381 8,30.9036742 8,30.3441749 C8,29.7846755 8.45356384,29.3311117 9.01306318,29.3311117 Z" id="Combined-Shape" fill="#95A1AC"></path>
    </g>
</svg>