<?xml version="1.0" encoding="UTF-8"?>
<svg width="60px" height="60px" viewBox="0 0 60 60" version="1.1" xmlns="http://www.w3.org/2000/svg" xmlns:xlink="http://www.w3.org/1999/xlink">
    <title>UI Icons/Sidebar Icons/SVG /radio-alt</title>
    <g id="UI-Icons/Sidebar-Icons/radio-alt" stroke="none" stroke-width="1" fill="none" fill-rule="evenodd">
        <path d="M15.375,27.75 C10.2055664,27.75 6,23.5444336 6,18.375 C6,13.2055664 10.2055664,9 15.375,9 C20.5444336,9 24.75,13.2055664 24.75,18.375 C24.75,23.5444336 20.5444336,27.75 15.375,27.75 Z M15.375,12.75 C12.2731933,12.75 9.75,15.2731933 9.75,18.375 C9.75,21.4768067 12.2731933,24 15.375,24 C18.4768067,24 21,21.4768067 21,18.375 C21,15.2731933 18.4768067,12.75 15.375,12.75 Z M54,16.5 L28.5,16.5 L28.5,20.25 L54,20.25 L54,16.5 Z M15.375,15 C13.5141357,15 12,16.5141357 12,18.375 C12,20.2358643 13.5141357,21.75 15.375,21.75 C17.2358643,21.75 18.75,20.2358643 18.75,18.375 C18.75,16.5141357 17.2358643,15 15.375,15 Z M15.375,50.25 C10.2055664,50.25 6,46.0444336 6,40.875 C6,35.7055664 10.2055664,31.5 15.375,31.5 C20.5444336,31.5 24.75,35.7055664 24.75,40.875 C24.75,46.0444336 20.5444336,50.25 15.375,50.25 Z M15.375,35.25 C12.2731933,35.25 9.75,37.7731933 9.75,40.875 C9.75,43.9768067 12.2731933,46.5 15.375,46.5 C18.4768067,46.5 21,43.9768067 21,40.875 C21,37.7731933 18.4768067,35.25 15.375,35.25 Z M54,39 L28.5,39 L28.5,42.75 L54,42.75 L54,39 Z" id="Shape" fill="#95A1AC"></path>
    </g>
</svg>