<?xml version="1.0" encoding="UTF-8"?>
<svg width="60px" height="60px" viewBox="0 0 60 60" version="1.1" xmlns="http://www.w3.org/2000/svg" xmlns:xlink="http://www.w3.org/1999/xlink">
    <title>UI Icons/Sidebar Icons/SVG /radio</title>
    <g id="UI-Icons/Sidebar-Icons/radio" stroke="none" stroke-width="1" fill="none" fill-rule="evenodd">
        <path d="M30,6 C43.2548137,6 54,16.7451863 54,30 C54,43.2548137 43.2548137,54 30,54 C16.7451863,54 6,43.2548137 6,30 C6,16.7451863 16.7451863,6 30,6 Z M30,9.34883721 C18.594698,9.34883721 9.34883721,18.594698 9.34883721,30 C9.34883721,41.405302 18.594698,50.6511628 30,50.6511628 C41.405302,50.6511628 50.6511628,41.405302 50.6511628,30 C50.6511628,18.594698 41.405302,9.34883721 30,9.34883721 Z M30,14 C38.836556,14 46,21.163444 46,30 C46,38.836556 38.836556,46 30,46 C21.163444,46 14,38.836556 14,30 C14,21.163444 21.163444,14 30,14 Z" id="Combined-Shape" fill="#95A1AC"></path>
    </g>
</svg>