<?xml version="1.0" encoding="UTF-8"?>
<svg width="60px" height="60px" viewBox="0 0 60 60" version="1.1" xmlns="http://www.w3.org/2000/svg" xmlns:xlink="http://www.w3.org/1999/xlink">
    <title>UI Icons/Sidebar Icons/SVG /rating</title>
    <g id="UI-Icons/Sidebar-Icons/rating" stroke="none" stroke-width="1" fill="none" fill-rule="evenodd">
        <path d="M9.91968808,22 L9.81864753,22.0056344 C9.74998782,22.0129542 9.68325825,22.0275567 9.61965664,22.0492937 C9.42348995,22.1160628 9.2568712,22.244021 9.14314967,22.4131517 L9.08145121,22.5194107 L6.9830649,26.7250708 L6.97133114,26.7678793 C6.91427084,26.9175152 6.79795172,27.0122798 6.68270651,27.0527863 L6.61417091,27.0705841 L6.54878902,27.0753895 L1.80634819,27.7607975 C1.60628114,27.7944658 1.42110911,27.8835736 1.28677768,28.0040739 C1.10359,28.1835357 1,28.4308593 1,28.6880718 C1.00050672,28.8872127 1.06721331,29.0784912 1.18625051,29.2311318 L1.26384155,29.3178334 L4.75346913,32.6755475 C4.84342118,32.7654995 4.89036055,32.8740516 4.89909095,33.0341306 L4.89978254,33.1366246 L4.06234744,37.8263008 C4.02993876,38.0256447 4.06469484,38.2303549 4.16218723,38.410447 C4.32529619,38.7150407 4.64366072,38.9053061 4.99247414,38.904716 C5.10115787,38.9051546 5.20923942,38.8862344 5.30801581,38.8507601 L5.40336815,38.8098722 L9.6683795,36.5805167 C9.73863927,36.5395318 9.81819111,36.5132149 9.90239864,36.5061054 L9.98798635,36.5055664 L10.1799241,36.5599708 L14.4413063,38.7844956 C14.5750465,38.8565566 14.7249947,38.8940044 14.8789783,38.8933875 C14.9247423,38.8933875 14.9764303,38.8893112 15.0230162,38.8828597 C15.4887289,38.8067665 15.8178861,38.396323 15.804997,37.9462816 L15.7958572,37.8418571 L14.9659645,33.1164707 C14.9553518,33.0846177 14.9509772,33.067804 14.9500272,33.0562762 L14.9535153,33.0316228 L15.0074473,32.8073512 C15.0104394,32.7982128 15.0133053,32.7907005 15.0162321,32.7842432 L15.0360181,32.7535909 L15.1095054,32.6698344 L18.5645753,29.3277374 C18.8973309,29.0066466 18.9393977,28.4899049 18.6681647,28.1265225 C18.5412322,27.9628055 18.3648817,27.8455313 18.1660764,27.7906868 L18.0443144,27.7653996 L13.3493353,27.0832567 C13.1755729,27.0832567 13.0396421,26.9977894 12.9917513,26.9443468 L12.8831929,26.7927282 L10.7547063,22.5188097 C10.6148647,22.2374814 10.344766,22.0479381 10.0372566,22.0079858 L9.91968808,22 Z M29.9966112,22 L29.8955706,22.0056344 C29.8269109,22.0129542 29.7601813,22.0275567 29.6965797,22.0492937 C29.500413,22.1160628 29.3337943,22.244021 29.2200727,22.4131517 L29.1583743,22.5194107 L27.059988,26.7250708 L27.0482542,26.7678793 C26.9911939,26.9175152 26.8748748,27.0122798 26.7596296,27.0527863 L26.691094,27.0705841 L26.6257121,27.0753895 L21.8832713,27.7607975 C21.6832042,27.7944658 21.4980322,27.8835736 21.3637008,28.0040739 C21.1805131,28.1835357 21.0769231,28.4308593 21.0769231,28.6880718 C21.0774298,28.8872127 21.1441364,29.0784912 21.2631736,29.2311318 L21.3407646,29.3178334 L24.8303922,32.6755475 C24.9203443,32.7654995 24.9672836,32.8740516 24.976014,33.0341306 L24.9767056,33.1366246 L24.1392705,37.8263008 C24.1068618,38.0256447 24.1416179,38.2303549 24.2391103,38.410447 C24.4022193,38.7150407 24.7205838,38.9053061 25.0693972,38.904716 C25.1780809,38.9051546 25.2861625,38.8862344 25.3849389,38.8507601 L25.4802912,38.8098722 L29.7453026,36.5805167 C29.8155623,36.5395318 29.8951142,36.5132149 29.9793217,36.5061054 L30.0649094,36.5055664 L30.2568472,36.5599708 L34.5182294,38.7844956 C34.6519696,38.8565566 34.8019178,38.8940044 34.9559014,38.8933875 C35.0016653,38.8933875 35.0533534,38.8893112 35.0999392,38.8828597 C35.565652,38.8067665 35.8948092,38.396323 35.88192,37.9462816 L35.8727802,37.8418571 L35.0428875,33.1164707 C35.0322749,33.0846177 35.0279002,33.067804 35.0269503,33.0562762 L35.0304383,33.0316228 L35.0843704,32.8073512 C35.0873625,32.7982128 35.0902284,32.7907005 35.0931551,32.7842432 L35.1129412,32.7535909 L35.1864285,32.6698344 L38.6414984,29.3277374 C38.974254,29.0066466 39.0163208,28.4899049 38.7450877,28.1265225 C38.6181553,27.9628055 38.4418048,27.8455313 38.2429995,27.7906868 L38.1212374,27.7653996 L33.4262584,27.0832567 C33.2524959,27.0832567 33.1165652,26.9977894 33.0686743,26.9443468 L32.9601159,26.7927282 L30.8316294,22.5188097 C30.6917878,22.2374814 30.4216891,22.0479381 30.1141796,22.0079858 L29.9966112,22 Z M50.0735342,22 L49.9724937,22.0056344 C49.903834,22.0129542 49.8371044,22.0275567 49.7735028,22.0492937 C49.5773361,22.1160628 49.4107174,22.244021 49.2969958,22.4131517 L49.2352974,22.5194107 L47.1369111,26.7250708 L47.1251773,26.7678793 C47.068117,26.9175152 46.9517979,27.0122798 46.8365527,27.0527863 L46.7680171,27.0705841 L46.7026352,27.0753895 L41.9601943,27.7607975 C41.7601273,27.7944658 41.5749553,27.8835736 41.4406238,28.0040739 C41.2574362,28.1835357 41.1538462,28.4308593 41.1538462,28.6880718 C41.1543529,28.8872127 41.2210595,29.0784912 41.3400967,29.2311318 L41.4176877,29.3178334 L44.9073153,32.6755475 C44.9972673,32.7654995 45.0442067,32.8740516 45.0529371,33.0341306 L45.0536287,33.1366246 L44.2161936,37.8263008 C44.1837849,38.0256447 44.218541,38.2303549 44.3160334,38.410447 C44.4791423,38.7150407 44.7975069,38.9053061 45.1463203,38.904716 C45.255004,38.9051546 45.3630856,38.8862344 45.461862,38.8507601 L45.5572143,38.8098722 L49.8222257,36.5805167 C49.8924854,36.5395318 49.9720373,36.5132149 50.0562448,36.5061054 L50.1418325,36.5055664 L50.3337703,36.5599708 L54.5951525,38.7844956 C54.7288927,38.8565566 54.8788408,38.8940044 55.0328244,38.8933875 C55.0785884,38.8933875 55.1302764,38.8893112 55.1768623,38.8828597 C55.6425751,38.8067665 55.9717323,38.396323 55.9588431,37.9462816 L55.9497033,37.8418571 L55.1198106,33.1164707 C55.109198,33.0846177 55.1048233,33.067804 55.1038734,33.0562762 L55.1073614,33.0316228 L55.1612934,32.8073512 C55.1642856,32.7982128 55.1671515,32.7907005 55.1700782,32.7842432 L55.1898643,32.7535909 L55.2633516,32.6698344 L58.7184214,29.3277374 C59.0511771,29.0066466 59.0932438,28.4899049 58.8220108,28.1265225 C58.6950784,27.9628055 58.5187279,27.8455313 58.3199226,27.7906868 L58.1981605,27.7653996 L53.5031814,27.0832567 C53.329419,27.0832567 53.1934883,26.9977894 53.1455974,26.9443468 L53.037039,26.7927282 L50.9085524,22.5188097 C50.7687109,22.2374814 50.4986122,22.0479381 50.1911027,22.0079858 L50.0735342,22 Z" id="Combined-Shape" fill="#95A1AC"></path>
    </g>
</svg>