<?xml version="1.0" encoding="UTF-8"?>
<svg width="60px" height="60px" viewBox="0 0 60 60" version="1.1" xmlns="http://www.w3.org/2000/svg" xmlns:xlink="http://www.w3.org/1999/xlink">
    <title>UI Icons/Sidebar Icons/SVG /richTextWidget</title>
    <g id="UI-Icons/Sidebar-Icons/richTextWidget" stroke="none" stroke-width="1" fill="none" fill-rule="evenodd">
        <g id="text-box" transform="translate(12, 6)" fill="#95A1AC" fill-rule="nonzero">
            <path d="M0,46.59375 C0,47.370375 0.629625,48 1.40625,48 L35.15625,48 C35.932875,48 36.5625,47.370375 36.5625,46.59375 L36.5625,9.84375 C36.5625,9.4635 36.404625,9.1033125 36.1506563,8.8494375 C36.1506563,8.8494375 36.1506563,8.8494375 36.1506563,8.84934375 L27.7131563,0.41184375 C27.4536563,0.15234375 27.0894375,0 26.71875,0 L1.40625,0 C0.629625,0 0,0.629625 0,1.40625 L0,46.59375 Z M28.125,4.80121875 L31.7612812,8.4375 L28.125,8.4375 L28.125,4.80121875 Z M2.8125,2.8125 L25.3125,2.8125 L25.3125,9.84375 C25.3125,10.620375 25.942125,11.25 26.71875,11.25 L33.75,11.25 L33.75,45.1875 L2.8125,45.1875 L2.8125,2.8125 Z" id="Shape"></path>
            <path d="M29.53125,14.25 L23.90625,14.25 C23.129625,14.25 22.5,14.879625 22.5,15.65625 C22.5,16.432875 23.129625,17.0625 23.90625,17.0625 L29.53125,17.0625 C30.307875,17.0625 30.9375,16.432875 30.9375,15.65625 C30.9375,14.879625 30.307875,14.25 29.53125,14.25 Z" id="Path"></path>
            <path d="M29.53125,19.875 L23.90625,19.875 C23.129625,19.875 22.5,20.504625 22.5,21.28125 C22.5,22.057875 23.129625,22.6875 23.90625,22.6875 L29.53125,22.6875 C30.307875,22.6875 30.9375,22.057875 30.9375,21.28125 C30.9375,20.504625 30.307875,19.875 29.53125,19.875 Z" id="Path"></path>
            <path d="M29.53125,25.5 L23.90625,25.5 C23.129625,25.5 22.5,26.129625 22.5,26.90625 C22.5,27.682875 23.129625,28.3125 23.90625,28.3125 L29.53125,28.3125 C30.307875,28.3125 30.9375,27.682875 30.9375,26.90625 C30.9375,26.129625 30.307875,25.5 29.53125,25.5 Z" id="Path"></path>
            <path d="M29.53125,31.125 L7.03125,31.125 C6.254625,31.125 5.625,31.754625 5.625,32.53125 C5.625,33.307875 6.254625,33.9375 7.03125,33.9375 L29.53125,33.9375 C30.307875,33.9375 30.9375,33.307875 30.9375,32.53125 C30.9375,31.754625 30.307875,31.125 29.53125,31.125 Z" id="Path"></path>
            <path d="M29.53125,36.75 L7.03125,36.75 C6.254625,36.75 5.625,37.379625 5.625,38.15625 C5.625,38.932875 6.254625,39.5625 7.03125,39.5625 L29.53125,39.5625 C30.307875,39.5625 30.9375,38.932875 30.9375,38.15625 C30.9375,37.379625 30.307875,36.75 29.53125,36.75 Z" id="Path"></path>
            <path d="M7.03125,19.875 C7.807875,19.875 8.4375,19.245375 8.4375,18.46875 L8.4375,17.0625 L11.25,17.0625 L11.25,25.5 L9.84375,25.5 C9.067125,25.5 8.4375,26.129625 8.4375,26.90625 C8.4375,27.682875 9.067125,28.3125 9.84375,28.3125 L15.46875,28.3125 C16.245375,28.3125 16.875,27.682875 16.875,26.90625 C16.875,26.129625 16.245375,25.5 15.46875,25.5 L14.0625,25.5 L14.0625,17.0625 L16.875,17.0625 L16.875,18.46875 C16.875,19.245375 17.504625,19.875 18.28125,19.875 C19.057875,19.875 19.6875,19.245375 19.6875,18.46875 L19.6875,15.65625 C19.6875,14.879625 19.057875,14.25 18.28125,14.25 L7.03125,14.25 C6.254625,14.25 5.625,14.879625 5.625,15.65625 L5.625,18.46875 C5.625,19.245375 6.254625,19.875 7.03125,19.875 Z" id="Path"></path>
        </g>
    </g>
</svg>