<?xml version="1.0" encoding="UTF-8"?>
<svg width="60px" height="60px" viewBox="0 0 60 60" version="1.1" xmlns="http://www.w3.org/2000/svg" xmlns:xlink="http://www.w3.org/1999/xlink">
    <title>UI Icons/Sidebar Icons/SVG /Row</title>
    <g id="UI-Icons/Sidebar-Icons/Row" stroke="none" stroke-width="1" fill="none" fill-rule="evenodd">
        <path d="M34,8.75 L28,8.75 C26.2050746,8.75 24.75,10.2050746 24.75,12 L24.75,18 C24.75,19.7949254 26.2050746,21.25 28,21.25 L34,21.25 C35.7949254,21.25 37.25,19.7949254 37.25,18 L37.25,12 C37.25,10.2050746 35.7949254,8.75 34,8.75 Z M28,11.25 L34,11.25 C34.4142136,11.25 34.75,11.5857864 34.75,12 L34.75,18 C34.75,18.4142136 34.4142136,18.75 34,18.75 L28,18.75 C27.5857864,18.75 27.25,18.4142136 27.25,18 L27.25,12 C27.25,11.5857864 27.5857864,11.25 28,11.25 Z M34,23.75 L28,23.75 C26.2050746,23.75 24.75,25.2050746 24.75,27 L24.75,33 C24.75,34.7949254 26.2050746,36.25 28,36.25 L34,36.25 C35.7949254,36.25 37.25,34.7949254 37.25,33 L37.25,27 C37.25,25.2050746 35.7949254,23.75 34,23.75 Z M28,26.25 L34,26.25 C34.4142136,26.25 34.75,26.5857864 34.75,27 L34.75,33 C34.75,33.4142136 34.4142136,33.75 34,33.75 L28,33.75 C27.5857864,33.75 27.25,33.4142136 27.25,33 L27.25,27 C27.25,26.5857864 27.5857864,26.25 28,26.25 Z M34,38.75 L28,38.75 C26.2050746,38.75 24.75,40.2050746 24.75,42 L24.75,48 C24.75,49.7949254 26.2050746,51.25 28,51.25 L34,51.25 C35.7949254,51.25 37.25,49.7949254 37.25,48 L37.25,42 C37.25,40.2050746 35.7949254,38.75 34,38.75 Z M28,41.25 L34,41.25 C34.4142136,41.25 34.75,41.5857864 34.75,42 L34.75,48 C34.75,48.4142136 34.4142136,48.75 34,48.75 L28,48.75 C27.5857864,48.75 27.25,48.4142136 27.25,48 L27.25,42 C27.25,41.5857864 27.5857864,41.25 28,41.25 Z M15.125,12.75 C15.125,11.7144661 15.9644661,10.875 17,10.875 C17.9492394,10.875 18.7337274,11.5803847 18.8578835,12.4955736 L18.875,12.75 L18.875,47.75 C18.875,48.7855339 18.0355339,49.625 17,49.625 C16.0507606,49.625 15.2662726,48.9196153 15.1421165,48.0044264 L15.125,47.75 L15.125,12.75 Z M42.125,12.75 C42.125,11.7144661 42.9644661,10.875 44,10.875 C44.9492394,10.875 45.7337274,11.5803847 45.8578835,12.4955736 L45.875,12.75 L45.875,47.75 C45.875,48.7855339 45.0355339,49.625 44,49.625 C43.0507606,49.625 42.2662726,48.9196153 42.1421165,48.0044264 L42.125,47.75 L42.125,12.75 Z" id="Combined-Shape" fill="#95A1AC" transform="translate(30.5, 30) rotate(-270) translate(-30.5, -30)"></path>
    </g>
</svg>