<?xml version="1.0" encoding="UTF-8"?>
<svg width="60px" height="60px" viewBox="0 0 60 60" version="1.1" xmlns="http://www.w3.org/2000/svg" xmlns:xlink="http://www.w3.org/1999/xlink">
    <title>UI Icons/Sidebar Icons/SVG /signatureWidget</title>
    <g id="UI-Icons/Sidebar-Icons/signatureWidget" stroke="none" stroke-width="1" fill="none" fill-rule="evenodd">
        <path d="M52,50.74975 C52.6903559,50.74975 53.25,51.3093941 53.25,51.99975 C53.25,52.6469587 52.7581253,53.1792839 52.1278052,53.2432964 L52,53.24975 L8,53.24975 C7.30964406,53.24975 6.75,52.6901059 6.75,51.99975 C6.75,51.3525413 7.24187466,50.8202161 7.87219476,50.7562036 L8,50.74975 L52,50.74975 Z M37.4591165,8.77286652 C40.0753583,6.15662471 44.2858979,6.06979199 47.0052604,8.56073513 L47.2268835,8.77286652 C49.9240388,11.4700219 49.9240388,15.8434781 47.2268835,18.5406335 L23.5406833,42.2268337 C22.6912514,43.0758808 21.1678736,43.8040813 19.1592055,44.4432764 L18.4719346,44.6530887 C18.119571,44.7563902 17.7543094,44.8573177 17.3770233,44.9560184 L16.6066769,45.1504947 L15.8058176,45.3392952 C15.6698846,45.3703035 15.5327449,45.4010863 15.3944308,45.431649 L14.5507135,45.6124272 L13.6803652,45.7881849 L12.7849384,45.959184 L11.9500908,46.1091887 L11.1895998,46.2352871 C10.3553018,46.3633146 9.6365585,45.6447086 9.76442673,44.8103861 L9.9692967,43.6029214 L10.1046627,42.8727181 C10.3804302,41.4260565 10.6996292,39.978534 11.0596756,38.6216612 L11.2676105,37.8636854 C12.0011685,35.2804285 12.7990295,33.4329535 13.7731165,32.4588665 Z M15.5157046,34.2550667 L15.450518,34.32412 C15.0561318,34.7800797 14.6263106,35.6689236 14.1999399,36.8795216 L14.0166011,37.4205827 C13.9861186,37.5139668 13.9556826,37.6089272 13.9253076,37.7054227 L13.7439042,38.3024879 C13.6536834,38.6099022 13.5642702,38.9303921 13.4760531,39.2628473 C13.1328807,40.5561289 12.8259409,41.9480575 12.5604427,43.3408471 L12.537,43.461 L13.5062595,43.2725758 C13.6346873,43.2465454 13.762413,43.2202848 13.8893811,43.1938031 L14.6416558,43.0323316 C14.7653719,43.0050016 14.8882195,42.9774686 15.0101431,42.9497418 L15.7301531,42.7811273 C15.8481588,42.7526614 15.9651296,42.7240198 16.0810099,42.6952116 L16.7627629,42.5204362 L17.4156823,42.3420992 L18.0371047,42.160637 L18.6243671,41.9764861 C18.9090144,41.8838113 19.1798529,41.7902919 19.4353846,41.6961735 L19.9255952,41.5072106 C20.7071181,41.1911838 21.3074687,40.8703198 21.6711633,40.5537121 L21.7446833,40.4840454 C21.6940846,38.1490821 21.2736928,37.0412097 20.1161165,35.8836335 C18.9585403,34.7260572 17.8506679,34.3056654 15.5157046,34.2550667 Z M45.3166142,10.4042302 C43.5829421,8.81618198 40.8959213,8.87159562 39.2268835,10.5406335 L17.8056861,31.9614109 C19.4837531,32.2667097 20.6967798,32.9287628 21.8838835,34.1158665 C23.0707771,35.3027601 23.732806,36.5155676 24.038177,38.1931731 L45.4591165,16.7728665 C47.1799612,15.0520219 47.1799612,12.2614781 45.4786598,10.5597538 Z M48.7823881,22.0247442 L48.8838835,22.1158665 L50.8838835,24.1158665 C51.3394952,24.5714782 51.3698693,25.2912986 50.9750058,25.7821381 L50.8838835,25.8836335 L42.8838835,33.8836335 C42.3957281,34.3717888 41.6042719,34.3717888 41.1161165,33.8836335 C40.6605048,33.4280218 40.6301307,32.7082014 41.0249942,32.2173619 L41.1161165,32.1158665 L48.232,24.999 L47.1161165,23.8836335 C46.6605048,23.4280218 46.6301307,22.7082014 47.0249942,22.2173619 L47.1161165,22.1158665 C47.5717282,21.6602548 48.2915486,21.6298807 48.7823881,22.0247442 Z" id="Combined-Shape" fill="#95A1AC"></path>
    </g>
</svg>