<?xml version="1.0" encoding="UTF-8"?>
<svg width="60px" height="60px" viewBox="0 0 60 60" version="1.1" xmlns="http://www.w3.org/2000/svg" xmlns:xlink="http://www.w3.org/1999/xlink">
    <title>UI Icons/Sidebar Icons/SVG /signatureWidget_alt</title>
    <g id="UI-Icons/Sidebar-Icons/signatureWidget_alt" stroke="none" stroke-width="1" fill="none" fill-rule="evenodd">
        <path d="M15.0144531,5.09636405 C19.0544922,4.43679374 25.931543,7.0009539 23.4207031,17.8407976 C21.6608398,25.4383562 18.1006836,32.4036883 15.0611328,39.3580828 L17.9913086,39.3580828 C18.055475,39.2470445 18.1195346,39.1360195 18.1834751,39.0250347 L18.5655875,38.3598253 C22.3704062,31.7168874 25.6560407,25.413533 25.7202148,25.2901141 C25.9458008,24.856325 26.4573242,24.6564226 26.9171875,24.821657 C27.3771484,24.9871844 27.644043,25.4672625 27.5416016,25.9452898 C26.7835937,29.4824969 26.9464844,31.0808367 27.1350586,31.5868914 C27.6702148,31.2536883 29.0453125,29.7412859 30.8208984,25.4290789 C32.2126953,22.0487078 34.1946289,16.0812273 35.7329102,6.84792655 C35.8158203,6.34948905 36.2641602,5.99636405 36.7695312,6.0346453 C37.2734375,6.07253593 37.6652344,6.48864921 37.6726562,6.9940203 C37.6743239,7.10762457 37.6829708,7.73680357 37.6853858,8.72499716 L37.6852341,9.82706377 C37.6798881,11.8439656 37.6449986,14.7131671 37.5194025,17.7098529 L37.4874866,18.4311341 C37.3863262,20.6000942 37.235607,22.8050825 37.0125,24.7755633 C37.1772461,24.7262469 37.3511719,24.6934344 37.534375,24.681032 C39.2953125,24.5620867 40.8964844,25.4971453 42.2914062,27.4593523 C43.0982422,28.5943133 44.3236328,29.3433367 45.6692383,29.5524187 C45.6462891,23.975075 52.1041992,17.6954851 53.2575195,23.7869891 C53.8301758,26.8132586 51.6631836,30.5970476 47.9297852,31.4069109 C48.078418,31.8301531 48.2795898,32.2240008 48.530957,32.5744891 C49.3056641,33.6546648 52.1360352,34.5283953 53.6635742,34.1581805 C54.1880859,34.031618 54.7155273,34.353493 54.8423828,34.8776141 C54.9692383,35.4018328 54.6470703,35.9296648 54.1228516,36.0565203 C52.0140625,36.5663836 48.2870117,35.5857195 46.9438477,33.7127703 C46.4850586,33.0732195 46.1457031,32.3366961 45.9329102,31.5465594 C43.8519531,31.3946062 41.9250977,30.3152117 40.6994141,28.5908953 C39.4191406,26.7899187 37.4478516,25.5914812 36.5288086,27.918532 C36.3439453,28.3867937 35.8334961,28.6382586 35.3494141,28.4980242 C34.8657227,28.3581805 34.5674805,27.8735125 34.6609375,27.3786883 C35.175,24.6554461 35.4454102,20.7367937 35.5856445,17.0638445 C34.5729492,20.9758562 33.5542969,23.8826922 32.7376953,25.9009539 C31.7173828,28.4220476 29.6999023,32.7609148 27.6501953,33.4932391 C27.0204102,33.7184344 26.3885742,33.6109148 25.9171875,33.1980242 C25.3875977,32.734157 25.0983398,31.9268328 25.0371094,30.7364031 C23.749707,33.1212664 22.0611328,36.1954851 20.2458984,39.3577898 L52.062207,39.3577898 C53.6820313,39.3577898 55,40.6755633 55,42.2953875 C55,43.9152117 53.6821289,45.2330828 52.0623047,45.2330828 L16.7669922,45.2330828 C14.0793945,49.6071062 11.4835938,53.3862078 9.79814453,54.7756609 C9.09785156,55.352907 8.05458984,54.7413836 8.21591797,53.8486101 C8.75,50.8908953 9.58691406,48.0271258 10.5884766,45.2330828 L7.93759766,45.2330828 C6.31777344,45.2330828 5,43.9152117 5,42.2953875 C5,40.6755633 6.31777344,39.3577898 7.93759766,39.3577898 L12.930957,39.3577898 C16.0213867,32.1911883 19.7445313,25.0552508 21.5177734,17.3996844 C23.7255859,7.86960624 17.9754883,6.59275077 15.3287109,7.02390312 C9.82441406,7.92175468 6.41503906,16.2193133 14.5769531,22.2474383 C15.0109375,22.5678484 15.102832,23.1792742 14.7824219,23.6130633 C14.4621094,24.0470476 13.8505859,24.1390398 13.4167969,23.818532 C3.79570312,16.7131609 7.86708984,6.26198905 15.0144531,5.09636405 Z M14.4803711,45.2329851 L12.6689453,45.2329851 C12.0311523,46.9611101 11.4541992,48.7110125 10.9759766,50.4874773 C12.0374023,49.0489031 13.2363281,47.2309344 14.4803711,45.2329851 Z M12.1064453,41.3109148 L7.93759766,41.3109148 C7.39482422,41.3109148 6.953125,41.7525164 6.953125,42.2953875 C6.953125,42.8382586 7.39472656,43.2799578 7.93759766,43.2799578 L11.3175781,43.2799578 C11.5735352,42.6199969 11.837207,41.9638445 12.1064453,41.3109148 Z M16.8515625,41.3109148 L14.2232422,41.3109148 C13.9487305,41.9642351 13.6797852,42.6205828 13.4178711,43.2799578 L15.6773438,43.2799578 C16.0681641,42.6327898 16.4604492,41.9744891 16.8515625,41.3109148 Z M52.062207,41.3109148 L19.1144531,41.3109148 C18.7285156,41.9706805 18.3396484,42.6286883 17.9501953,43.2799578 L52.062207,43.2799578 C52.6051758,43.2799578 53.0467773,42.8382586 53.0467773,42.2953875 C53.0467773,41.7526141 52.6050781,41.3109148 52.062207,41.3109148 Z M7.34521484,32.9575945 C7.7265625,32.5763445 8.34492188,32.5763445 8.72626953,32.9576922 L9.42236328,33.6538836 L10.118457,32.9576922 C10.4998047,32.5763445 11.1181641,32.5763445 11.4995117,32.9576922 C11.8808594,33.3390398 11.8808594,33.9573992 11.4995117,34.3387469 L10.8033203,35.0349383 L11.4995117,35.7312273 C11.880957,36.112575 11.8808594,36.7309344 11.4995117,37.112282 C11.1180664,37.4937273 10.499707,37.4934344 10.118457,37.1121844 L9.42226563,36.415993 L8.72617188,37.1121844 C8.34482422,37.4936297 7.72646484,37.4936297 7.34511719,37.112282 C6.96376953,36.7309344 6.96376953,36.112575 7.34521484,35.731032 L8.04140625,35.0348406 L7.34521484,34.3386492 C6.96376953,33.9573016 6.96386719,33.3389422 7.34521484,32.9575945 Z M51.0081055,23.2573016 C50.3207031,23.4498797 47.6494141,26.3492937 47.6203125,29.4726336 C50.7782227,28.7073016 52.1641602,24.9471453 51.0081055,23.2573016 Z" id="Combined-Shape" fill="#95A1AC"></path>
    </g>
</svg>