<?xml version="1.0" encoding="UTF-8"?>
<svg width="60px" height="60px" viewBox="0 0 60 60" version="1.1" xmlns="http://www.w3.org/2000/svg" xmlns:xlink="http://www.w3.org/1999/xlink">
    <title>UI Icons/Sidebar Icons/SVG /slider</title>
    <g id="UI-Icons/Sidebar-Icons/slider" stroke="none" stroke-width="1" fill="none" fill-rule="evenodd">
        <path d="M57.1875,29.0416667 L39.6666667,29.0416667 L39.6666667,29.0416667 L39.6666667,32.6666667 L57.1875,32.6666667 C58.1885161,32.6666667 59,31.8551828 59,30.8541667 C59,29.8531506 58.1885161,29.0416667 57.1875,29.0416667 Z M2.8125,29.0416667 L20.3333333,29.0416667 L20.3333333,29.0416667 L20.3333333,32.6666667 L2.8125,32.6666667 C1.81148389,32.6666667 1,31.8551828 1,30.8541667 C1,29.8531506 1.81148389,29.0416667 2.8125,29.0416667 Z M30,23 C26.0025878,23 22.75,26.2525878 22.75,30.25 C22.75,34.2474122 26.0025878,37.5 30,37.5 C33.9974122,37.5 37.25,34.2474122 37.25,30.25 C37.25,26.2525878 33.9974122,23 30,23 Z" id="Shape" fill="#95A1AC"></path>
    </g>
</svg>