<?xml version="1.0" encoding="UTF-8"?>
<svg width="60px" height="60px" viewBox="0 0 60 60" version="1.1" xmlns="http://www.w3.org/2000/svg" xmlns:xlink="http://www.w3.org/1999/xlink">
    <title>UI Icons/Sidebar Icons/SVG /square</title>
    <g id="UI-Icons/Sidebar-Icons/square" stroke="none" stroke-width="1" fill="none" fill-rule="evenodd">
        <path d="M30.000683,11 C31.1467221,11.006 32.1907578,11.6539991 32.7007752,12.6799977 L37.2229296,21.759985 C37.2429303,21.779985 37.262931,21.799985 37.2809316,21.799985 L47.4052773,23.2599829 C48.1973044,23.3719828 48.9153289,23.7879822 49.4053456,24.4199813 C50.3073764,25.6279796 50.1693717,27.3139773 49.0853347,28.3599758 L41.745084,35.459966 C41.745084,35.459966 41.7310836,35.4739659 41.7310836,35.4799659 C41.7310836,35.4859659 41.7310836,35.4799659 41.745084,35.4999659 L43.5051441,45.519952 C43.7451523,47.1499497 42.6331144,48.6739476 41.0050588,48.9399472 C40.8490534,48.9619472 40.689048,48.9759472 40.5310426,48.9759472 C40.0350257,48.9779472 39.5450089,48.8559473 39.106994,48.6199477 L30.0646852,43.8999542 C30.0366842,43.8979542 30.0086833,43.9059542 29.9846824,43.9199542 L20.8803715,48.6799476 C20.4603572,48.8919473 19.9923412,49.0019471 19.5203251,48.9999739 C18.4002869,49.0019471 17.3702517,48.385948 16.8422337,47.3999493 C16.5282229,46.8199502 16.414219,46.1519511 16.5202227,45.499952 L18.3022835,35.5199659 C18.3022835,35.4979659 18.2962833,35.4759659 18.2802828,35.459966 L10.8800301,28.3399759 C10.3180109,27.7919766 10.0020001,27.0399777 10,26.2539788 C10,25.4259799 10.3320113,24.631981 10.9220315,24.0539818 C11.3880474,23.6339824 11.9640671,23.3579828 12.5820882,23.2539829 L22.6824331,21.793985 C22.7224345,21.793985 22.7644359,21.775985 22.7644359,21.7339851 L27.2805901,12.6799977 C27.6366023,11.9619987 28.2626236,11.4179994 29.0206495,11.1599998 C29.3366603,11.0519999 29.6686717,11 30.000683,11 Z M30.000683,13.9199959 L29.9626817,13.9199959 L29.942681,13.9339959 C29.9246804,13.9439959 29.91268,13.9599959 29.9026796,13.9779959 L25.3805252,23.0379832 C24.9445103,23.927982 24.1024816,24.5459812 23.1224481,24.6979809 L13.0621046,26.1399789 L12.9401004,26.1799789 C12.9240999,26.2059788 12.9200997,26.2319788 12.9220998,26.2619788 L20.3223525,33.3619689 C21.0263765,34.0539679 21.3463875,35.0479665 21.1823819,36.0219652 L19.4223218,45.9819513 L19.4223218,46.0219513 C19.4323221,46.0619512 19.4683233,46.0899512 19.5103248,46.0899512 C19.5203251,46.0919512 19.5323255,46.0919512 19.5423259,46.0899512 L28.6006352,41.3399578 C29.0446503,41.1039581 29.5406673,40.9779583 30.0426844,40.9779583 C30.5307011,40.9759583 31.0107175,41.0959581 31.4427322,41.3199578 L40.4430396,46.0199513 L40.4610402,46.0199513 C40.4790408,46.0299513 40.4990415,46.0379512 40.5190422,46.0399512 C40.5270425,46.0439512 40.5350427,46.0439512 40.543043,46.0399512 L40.5850444,46.0399512 L40.6250458,46.0019513 L38.8629856,36.0399652 C38.668979,35.0579665 38.9949901,34.0459679 39.7250151,33.3619689 L47.0652657,26.2439788 L47.0852664,26.1999788 L47.0652657,26.1819789 C47.0552654,26.1839789 47.0472651,26.1839789 47.0372648,26.1819789 C47.0212642,26.1739789 47.0032636,26.1699789 46.985263,26.1699789 L36.8609173,24.6979809 C35.8808838,24.5479811 35.036855,23.927982 34.6028401,23.0379832 L30.0826858,13.9999958 C30.0846859,13.9819959 30.0786857,13.9659959 30.0666852,13.9539959 C30.0526848,13.9419959 30.0366842,13.9379959 30.0186836,13.9379959 L30.000683,13.9199959 Z M32.776,26.056 L32.776,33.032 L34.152,33.032 L34.152,34.984 L32.776,34.984 L32.776,37 L30.696,37 L30.696,34.984 L25.64,34.984 L25.64,33.288 L30.504,26.056 L32.776,26.056 Z M30.696,29.176 L30.568,29.176 L27.96,33.032 L30.696,33.032 L30.696,29.176 Z" id="rating" fill="#95A1AC"></path>
    </g>
</svg>