<?xml version="1.0" encoding="UTF-8"?>
<svg width="60px" height="60px" viewBox="0 0 60 60" version="1.1" xmlns="http://www.w3.org/2000/svg" xmlns:xlink="http://www.w3.org/1999/xlink">
    <title>UI Icons/Sidebar Icons/SVG /staggeredView</title>
    <g id="UI-Icons/Sidebar-Icons/staggeredView" stroke="none" stroke-width="1" fill="none" fill-rule="evenodd">
        <path d="M48,26 C50.209139,26 52,27.790861 52,30 L52,54 C52,56.209139 50.209139,58 48,58 L36,58 C33.790861,58 32,56.209139 32,54 L32,30 C32,27.790861 33.790861,26 36,26 L48,26 Z M24,38 C26.209139,38 28,39.790861 28,42 L28,54 C28,56.209139 26.209139,58 24,58 L12,58 C9.790861,58 8,56.209139 8,54 L8,42 C8,39.790861 9.790861,38 12,38 L24,38 Z M48,29 L36,29 C35.4871642,29 35.0644928,29.3860402 35.0067277,29.8833789 L35,30 L35,54 C35,54.5128358 35.3860402,54.9355072 35.8833789,54.9932723 L36,55 L48,55 C48.5128358,55 48.9355072,54.6139598 48.9932723,54.1166211 L49,54 L49,30 C49,29.4477153 48.5522847,29 48,29 Z M24,41 L12,41 C11.4871642,41 11.0644928,41.3860402 11.0067277,41.8833789 L11,42 L11,54 C11,54.5128358 11.3860402,54.9355072 11.8833789,54.9932723 L12,55 L24,55 C24.5128358,55 24.9355072,54.6139598 24.9932723,54.1166211 L25,54 L25,42 C25,41.4477153 24.5522847,41 24,41 Z M24,2 C26.209139,2 28,3.790861 28,6 L28,30 C28,32.209139 26.209139,34 24,34 L12,34 C9.790861,34 8,32.209139 8,30 L8,6 C8,3.790861 9.790861,2 12,2 L24,2 Z M24,5 L12,5 C11.4871642,5 11.0644928,5.38604019 11.0067277,5.88337887 L11,6 L11,30 C11,30.5128358 11.3860402,30.9355072 11.8833789,30.9932723 L12,31 L24,31 C24.5128358,31 24.9355072,30.6139598 24.9932723,30.1166211 L25,30 L25,6 C25,5.44771525 24.5522847,5 24,5 Z M48,2 C50.209139,2 52,3.790861 52,6 L52,18 C52,20.209139 50.209139,22 48,22 L36,22 C33.790861,22 32,20.209139 32,18 L32,6 C32,3.790861 33.790861,2 36,2 L48,2 Z M48,5 L36,5 C35.4871642,5 35.0644928,5.38604019 35.0067277,5.88337887 L35,6 L35,18 C35,18.5128358 35.3860402,18.9355072 35.8833789,18.9932723 L36,19 L48,19 C48.5128358,19 48.9355072,18.6139598 48.9932723,18.1166211 L49,18 L49,6 C49,5.44771525 48.5522847,5 48,5 Z" id="Combined-Shape" fill="#95A1AC"></path>
    </g>
</svg>