<?xml version="1.0" encoding="UTF-8"?>
<svg width="60px" height="60px" viewBox="0 0 60 60" version="1.1" xmlns="http://www.w3.org/2000/svg" xmlns:xlink="http://www.w3.org/1999/xlink">
    <title>UI Icons/Sidebar Icons/SVG /star</title>
    <g id="UI-Icons/Sidebar-Icons/star" stroke="none" stroke-width="1" fill="none" fill-rule="evenodd">
        <g id="Star" transform="translate(10.7865, 12.035)" fill="#95A1AC" fill-rule="nonzero">
            <path d="M19.1705346,0 L19.1480346,0.01575 C19.1277846,0.027 19.1142846,0.045 19.1030346,0.06525 L14.0157846,10.25775 C13.5252846,11.259 12.5780346,11.95425 11.4755346,12.12525 L0.15803461,13.7475 L0.0207846097,13.7925 C0.00278460969,13.82175 -0.00171539031,13.851 0.000534609691,13.88475 L8.32553461,21.87225 C9.11753461,22.65075 9.47753461,23.769 9.29303461,24.86475 L7.31303461,36.06975 L7.31303461,36.11475 C7.32428461,36.15975 7.36478461,36.19125 7.41203461,36.19125 C7.42328461,36.1935 7.43678461,36.1935 7.44803461,36.19125 L17.6382846,30.8475 C18.1377846,30.582 18.6957846,30.44025 19.2605346,30.44025 C19.8095346,30.438 20.3495346,30.573 20.8355346,30.825 L30.9605346,36.1125 L30.9807846,36.1125 C31.0010346,36.12375 31.0235346,36.13275 31.0460346,36.135 C31.0550346,36.1395 31.0640346,36.1395 31.0730346,36.135 L31.1202846,36.135 L31.1652846,36.09225 L29.1830346,24.885 C28.9647846,23.78025 29.3315346,22.64175 30.1527846,21.87225 L38.4102846,13.8645 L38.4327846,13.815 L38.4102846,13.79475 C38.3990346,13.797 38.3900346,13.797 38.3787846,13.79475 C38.3607846,13.78575 38.3405346,13.78125 38.3202846,13.78125 L26.9307846,12.12525 C25.8282846,11.9565 24.8787846,11.259 24.3905346,10.25775 L19.3055346,0.09 C19.3077846,0.06975 19.3010346,0.05175 19.2875346,0.03825 C19.2717846,0.02475 19.2537846,0.02025 19.2335346,0.02025 L19.2132846,0 L19.1705346,0 Z"></path>
        </g>
    </g>
</svg>