<?xml version="1.0" encoding="UTF-8"?>
<svg width="60px" height="60px" viewBox="0 0 60 60" version="1.1" xmlns="http://www.w3.org/2000/svg" xmlns:xlink="http://www.w3.org/1999/xlink">
    <title>UI Icons/Sidebar Icons/SVG /StickyHeader</title>
    <g id="UI-Icons/Sidebar-Icons/StickyHeader" stroke="none" stroke-width="1" fill="none" fill-rule="evenodd">
        <path d="M40,7 C41.1045695,7 42,7.8954305 42,9 L42,13 C42,14.1045695 41.1045695,15 40,15 L8,15 C6.8954305,15 6,14.1045695 6,13 L6,9 C6,7.8954305 6.8954305,7 8,7 L40,7 Z M30,9 L10,9 C8.8954305,9 8,9.8954305 8,11 C8,12.1045695 8.8954305,13 10,13 L30,13 C31.1045695,13 32,12.1045695 32,11 C32,9.8954305 31.1045695,9 30,9 Z M46.4155844,27.2857143 L24.4155844,27.2857143 C23.3110149,27.2857143 22.4155844,26.3902838 22.4155844,25.2857143 C22.4155844,24.1811448 23.3110149,23.2857143 24.4155844,23.2857143 L46.4155844,23.2857143 C47.5201539,23.2857143 48.4155844,24.1811448 48.4155844,25.2857143 C48.4155844,26.3902838 47.5201539,27.2857143 46.4155844,27.2857143 Z M44.0989177,39.2857143 L24.4155844,39.2857143 C23.3110149,39.2857143 22.4155844,38.3902838 22.4155844,37.2857143 C22.4155844,36.1811448 23.3110149,35.2857143 24.4155844,35.2857143 L44.0989177,35.2857143 C45.2034872,35.2857143 46.0989177,36.1811448 46.0989177,37.2857143 C46.0989177,38.3902838 45.2034872,39.2857143 44.0989177,39.2857143 Z M49.4155844,51.2857143 L24.4155844,51.2857143 C23.3110149,51.2857143 22.4155844,50.3902838 22.4155844,49.2857143 C22.4155844,48.1811448 23.3110149,47.2857143 24.4155844,47.2857143 L49.4155844,47.2857143 C50.5201539,47.2857143 51.4155844,48.1811448 51.4155844,49.2857143 C51.4155844,50.3902838 50.5201539,51.2857143 49.4155844,51.2857143 Z M16.5974026,27.2857143 L9.14285714,27.2857143 C8.03828764,27.2857143 7.14285714,26.3902838 7.14285714,25.2857143 C7.14285714,24.1811448 8.03828764,23.2857143 9.14285714,23.2857143 L16.5974026,23.2857143 C17.7019721,23.2857143 18.5974026,24.1811448 18.5974026,25.2857143 C18.5974026,26.3902838 17.7019721,27.2857143 16.5974026,27.2857143 Z M16.5974026,39.2857143 L9.14285714,39.2857143 C8.03828764,39.2857143 7.14285714,38.3902838 7.14285714,37.2857143 C7.14285714,36.1811448 8.03828764,35.2857143 9.14285714,35.2857143 L16.5974026,35.2857143 C17.7019721,35.2857143 18.5974026,36.1811448 18.5974026,37.2857143 C18.5974026,38.3902838 17.7019721,39.2857143 16.5974026,39.2857143 Z M16.5974026,51.2857143 L9.14285714,51.2857143 C8.03828764,51.2857143 7.14285714,50.3902838 7.14285714,49.2857143 C7.14285714,48.1811448 8.03828764,47.2857143 9.14285714,47.2857143 L16.5974026,47.2857143 C17.7019721,47.2857143 18.5974026,48.1811448 18.5974026,49.2857143 C18.5974026,50.3902838 17.7019721,51.2857143 16.5974026,51.2857143 Z M49.4895494,7.15566739 C49.6989329,7.01833043 49.95407,6.96919396 50.1995148,7.01894808 C50.38481,7.05650598 50.526347,7.15633256 50.6318702,7.24427648 C50.7326898,7.32832446 50.8455773,7.44122147 50.9670644,7.56273233 L53.4372863,10.0329542 C53.5587734,10.1544413 53.6716609,10.2673193 53.7557089,10.3681484 C53.8436528,10.4736479 53.9434746,10.6152134 53.9810563,10.8004943 C54.0308009,11.0459153 53.9816739,11.3010287 53.844318,11.5104597 C53.7406477,11.6685308 53.5954048,11.7628888 53.4745353,11.8281697 C53.3590822,11.8905999 53.212319,11.9534577 53.054343,12.0211617 L51.8519675,12.5364722 C51.8249809,12.5480176 51.8118202,12.5536714 51.8023179,12.5580425 C51.8020803,12.5581375 51.8018903,12.5582326 51.8016527,12.5583276 C51.8015102,12.5584701 51.8013201,12.5586126 51.8011301,12.5588027 C51.7935758,12.5660245 51.7834558,12.5761444 51.7626932,12.596907 L51.021085,13.3385152 C50.9886346,13.3709656 50.9726707,13.386977 50.961458,13.3989974 C50.9611729,13.3992825 50.9609354,13.3995676 50.9606503,13.3998526 C50.9606028,13.4002327 50.9605078,13.4006128 50.9604127,13.4009929 C50.9566118,13.4170043 50.9520982,13.4391922 50.9431185,13.4841857 L50.5908677,15.2453923 C50.549105,15.4542532 50.5115709,15.642114 50.4677652,15.7895899 C50.423912,15.9371609 50.351837,16.1277773 50.1893474,16.2719274 C49.9815317,16.4563199 49.703399,16.5405579 49.4281644,16.5024061 C49.213032,16.4725688 49.0473116,16.3539324 48.9289603,16.2554884 C48.8107039,16.157092 48.6752959,16.0216365 48.5246367,15.8709772 L47.1627839,14.5091054 L44.8110749,16.8608334 C44.6255279,17.0463661 44.3247036,17.0463661 44.1391567,16.8608334 C43.9536144,16.6752532 43.9536144,16.3744574 44.1391567,16.1889247 L46.4908657,13.8371967 L45.1290319,12.4753724 C44.9783821,12.3247132 44.8429171,12.1893052 44.7445207,12.0710488 C44.6460529,11.9526975 44.5274308,11.7869771 44.497603,11.5718447 C44.4594512,11.2966101 44.5436607,11.0184869 44.7280674,10.810657 C44.8722318,10.6481816 45.0628625,10.5760876 45.2104287,10.5322486 C45.3578904,10.488443 45.5457416,10.4508851 45.7546453,10.4091176 L47.5158377,10.0568811 C47.5608311,10.0478824 47.582981,10.0433878 47.5989972,10.0396011 C47.5993915,10.0395061 47.5997716,10.0394158 47.6001375,10.0393303 C47.600413,10.0390737 47.6006981,10.0388077 47.6009927,10.0385321 C47.6130274,10.0273099 47.6290578,10.0113697 47.6615034,9.97892407 L48.4031021,9.23732062 C48.4238647,9.21655331 48.4339847,9.20640483 48.4412064,9.19885524 C48.4413489,9.19867945 48.441539,9.19850841 48.4416815,9.19834212 C48.4417765,9.19813307 48.4418716,9.19791927 48.4419666,9.19769596 C48.4462901,9.18819365 48.4519915,9.17503769 48.4635369,9.14804161 L48.9788474,7.94563763 C49.0465514,7.78769014 49.1094092,7.64094114 49.1718394,7.52545 C49.2371203,7.40461855 49.3314783,7.25935191 49.4895494,7.15566739 Z" id="Combined-Shape" fill="#95A1AC"></path>
    </g>
</svg>