<?xml version="1.0" encoding="UTF-8"?>
<svg width="60px" height="60px" viewBox="0 0 60 60" version="1.1" xmlns="http://www.w3.org/2000/svg" xmlns:xlink="http://www.w3.org/1999/xlink">
    <title>UI Icons/Sidebar Icons/SVG /swipableCards</title>
    <g id="UI-Icons/Sidebar-Icons/swipableCards" stroke="none" stroke-width="1" fill="none" fill-rule="evenodd">
        <path d="M40.8831084,32.4294963 C42.2432234,33.2003277 42.7577089,34.8879395 42.0902888,36.2763671 L41.9965036,36.4556697 L39.3545947,41.1160161 L44.3417101,45.278239 C45.8881617,46.5688265 46.1725933,48.8205018 45.0304447,50.4497598 L44.8976602,50.6281467 L41.0021491,55.5628518 C40.6089236,56.0609769 39.8863411,56.1460148 39.388216,55.7527893 C38.9284082,55.3898119 38.82058,54.746199 39.1159943,54.2575406 L39.1982785,54.1388562 L43.0937904,49.2041501 C43.5818336,48.5859146 43.5276186,47.7098989 42.9914286,47.1562114 L42.8691756,47.042709 L37.1461643,42.2665819 C36.7553231,41.9404062 36.6295754,41.4007957 36.8222406,40.9409795 L36.8827202,40.8177738 L39.9970821,35.322521 C40.1756031,35.0075247 40.0649636,34.6074431 39.7499573,34.4289164 C39.469957,34.2702291 39.1227358,34.3400142 38.9236478,34.5787216 L38.8563541,34.6760388 L34.4072829,42.5263882 L33.0725621,44.8814982 C32.7596535,45.4336242 32.0584044,45.6275483 31.5062784,45.3146397 C30.9935899,45.0240817 30.7897593,44.3986791 31.0137885,43.8687553 L31.0731369,43.748356 L31.841,42.393 L31.2709154,42.0697164 C30.9909152,41.9110291 30.6436939,41.9808142 30.4446064,42.2195207 L30.377313,42.3168375 L29.0891635,44.5897687 C28.6593968,45.3480932 28.4734235,46.2177336 28.5524147,47.0811721 L28.5885876,47.368594 L29.2032466,51.1981528 C29.3038199,51.8247627 28.877383,52.4142611 28.2507731,52.5148344 C27.6689211,52.6082239 27.1190682,52.2472016 26.9629618,51.6934515 L26.9340915,51.5623609 L26.319433,47.7328053 C26.1001181,46.3664141 26.3186951,44.9684804 26.9393809,43.7376166 L27.0897378,43.4566273 L28.3778882,41.1836946 C29.1487173,39.8235695 30.8363305,39.3090874 32.2247626,39.9765103 L32.4040658,40.0702958 L32.9736489,40.3920838 L36.85693,33.5428947 C37.6612734,32.1236337 39.4638543,31.6251484 40.8831084,32.4294963 Z M21.4209921,6.68883292 C21.3267961,6.90366782 21.2505212,7.12943148 21.1943406,7.36460224 L21.1449386,7.60285234 L15.2468136,41.0527811 C14.8763592,43.1537328 16.2200944,45.1604527 18.273311,45.6380688 L18.4882023,45.6819639 L19.7482643,45.9034432 C19.9432523,46.8446995 20.2059658,47.7611672 20.531082,48.6476855 L13.5963953,48.6476855 C11.0578763,48.6476855 9,46.5898092 9,44.0512902 L9,11.2861453 C9,8.74762624 11.0578763,6.68974996 13.5963953,6.68974996 L21.4209921,6.68883292 Z M18.5673969,8.98606371 L13.5963953,8.98794762 C12.3848294,8.98794762 11.392234,9.92547184 11.3045013,11.1146281 L11.2981977,11.2861453 L11.2981977,44.0512902 C11.2981977,45.2628561 12.2357219,46.2554515 13.4248314,46.3431842 L13.5963416,46.3494879 L14.8868333,46.3490122 C13.4399384,44.9932538 12.6645175,42.9908174 12.94318,40.9136913 L12.9835308,40.6537033 L18.5673969,8.98606371 Z M27.3440627,4.00012389 C27.4717306,3.99900004 27.600621,4.00550925 27.7301678,4.02018375 L27.9249094,4.04836626 L46.6589444,7.35246932 L46.8461348,7.39341625 C48.3748813,7.78080171 49.3745901,9.24084628 49.198496,10.7954074 L49.1703135,10.990149 L46.8614836,24.0868755 C44.5862817,23.0665954 42.0803417,22.4689298 39.4435604,22.3937756 L38.8765696,22.3857052 C28.0878637,22.3857052 19.3418895,31.1316794 19.3418895,41.9203853 L19.3483283,42.4268952 L19.3675412,42.9302296 C18.6371637,42.2680747 18.2359359,41.2777786 18.3528302,40.2458335 L18.3810127,40.0510919 L24.2872297,6.55973537 L24.3281767,6.37254498 C24.6671389,5.03489184 25.8273559,4.10228314 27.1535483,4.00800103 L27.3440627,4.00012389 Z M51.492,32.082 L51.488,32.069 L51.5002054,32.1234006 C51.5040939,32.1464968 51.5074473,32.1702871 51.5100559,32.1941818 C51.5127646,32.2177501 51.5145648,32.2407895 51.5156653,32.2637719 L51.5165608,32.2922408 L51.5168533,32.3209144 C51.5169338,32.3373525 51.5165305,32.3540662 51.5157635,32.3707266 C51.5145773,32.3953286 51.5126712,32.4199387 51.5099592,32.4445263 C51.5076159,32.4655612 51.5047246,32.4862833 51.5012763,32.5068739 C51.4989557,32.5212212 51.496169,32.5361645 51.4930766,32.5510787 C51.4886396,32.5718747 51.4838767,32.5919676 51.4785841,32.6118945 C51.4539367,32.7055046 51.4165503,32.7979947 51.366086,32.8866073 C51.3420631,32.92879 51.3157725,32.9688722 51.2874548,33.0067879 C51.1723466,33.1608218 51.0174681,33.2874478 50.8320842,33.3690932 L50.783223,33.3892746 C50.7610366,33.3978676 50.7385978,33.4057699 50.7159421,33.4129716 L50.7058506,33.4161252 L46.4502318,34.7270692 C45.8437271,34.9139031 45.200599,34.5736926 45.0137651,33.9671878 C44.8402765,33.4040048 45.1212292,32.8092436 45.6478521,32.5775614 L45.7736465,32.5307211 L47.2104742,32.0862708 C44.9410142,31.2046607 42.4893633,30.7339931 40.0184072,30.7339931 C36.3559323,30.7339931 32.8440393,31.7387698 29.7903604,33.6100261 C29.2492464,33.9416141 28.5417816,33.7717596 28.2101937,33.2306456 C27.8786058,32.6895316 28.0484603,31.9820669 28.5895743,31.6504789 C32.0021038,29.5593234 35.9290561,28.4357954 40.0184072,28.4357954 C42.9332635,28.4357954 45.8207982,29.0215045 48.4727199,30.1163132 L47.9576438,28.4751744 C47.781241,27.9128974 48.0591099,27.3166892 48.584526,27.082283 L48.7100761,27.0347919 C49.2723531,26.8583891 49.8685613,27.136258 50.1029675,27.6616741 L50.1504586,27.7872242 L51.4639653,31.973976 L51.464,31.977 L51.4811046,32.0343236 L51.483,32.045 L51.466,31.985 L51.486,32.059 L51.485,32.052 L51.492,32.082 Z" id="Combined-Shape" fill="#95A1AC"></path>
    </g>
</svg>