<?xml version="1.0" encoding="UTF-8"?>
<svg width="60px" height="60px" viewBox="0 0 60 60" version="1.1" xmlns="http://www.w3.org/2000/svg" xmlns:xlink="http://www.w3.org/1999/xlink">
    <title>UI Icons/Sidebar Icons/SVG /swipable</title>
    <g id="UI-Icons/Sidebar-Icons/swipable" stroke="none" stroke-width="1" fill="none" fill-rule="evenodd">
        <path d="M52.8662289,29.6328409 C52.7163417,29.6412091 52.5918189,29.7620909 52.5794205,29.9197915 L52.4452696,31.5640804 L52.333896,32.8455364 C52.316425,33.038449 52.2999108,33.2160454 52.2844561,33.3769048 L52.2316668,33.8988984 C52.187021,34.3124758 51.9698779,34.5193314 51.5708742,34.5267925 C50.4756159,34.5470259 49.4232712,34.5468192 48.4017147,34.5247267 C48.0255733,34.5168308 47.8118266,34.3079208 47.7681089,33.9019961 C47.7334739,33.581329 47.6901909,33.1248402 47.6402868,32.5607833 L47.5290243,31.2577982 L47.4271284,30.0007212 L47.4146609,29.8778219 C47.3826268,29.7274336 47.246346,29.6207211 47.0925611,29.6333994 C46.9247959,29.6472302 46.7997288,29.7979085 46.8132159,29.9699488 L46.9217329,31.3108609 L47.0166416,32.427927 L47.1092907,33.4458992 L47.1623112,33.9707062 C47.239027,34.6830241 47.7016566,35.1351851 48.3890524,35.1496147 C49.4186533,35.1718812 50.4789046,35.1720895 51.5819192,35.1517128 C52.2897865,35.1384761 52.7593578,34.6911515 52.837447,33.9677708 C52.8599209,33.7602057 52.8859499,33.4965229 52.9150368,33.1838981 L53.0524969,31.6179087 L53.183532,30.0132247 L53.1874912,29.9275221 C53.179331,29.7738154 53.061453,29.6461195 52.907671,29.6334051 L52.8662289,29.6328409 Z M50.8599523,26.8333333 L49.1399664,26.8333333 L49.0745818,26.8359715 C48.7288336,26.8639555 48.433797,27.1120691 48.342935,27.4605525 L48.2397638,27.9867212 L48.2276731,28.033038 C48.1782692,28.1830324 48.04015,28.2871367 47.8823816,28.2871367 L46.5547459,28.2871367 L46.5133937,28.2917011 C46.364647,28.3248094 46.25,28.5340062 46.25,28.7871367 C46.25,29.063279 46.3864394,29.2871367 46.5547459,29.2871367 L53.4452541,29.2871367 L53.4866063,29.2825723 C53.635353,29.249464 53.75,29.0402672 53.75,28.7871367 C53.75,28.5109943 53.6135606,28.2871367 53.4452541,28.2871367 L52.1175371,28.2871367 L52.0708651,28.2840717 C51.9177171,28.263832 51.7911229,28.1453001 51.7601306,27.9865961 L51.6614173,27.4800359 L51.6412882,27.4126607 C51.5218075,27.0609479 51.2114401,26.8333333 50.8599523,26.8333333 Z M50.8599523,27.4583563 L50.8959229,27.4614252 C50.9780621,27.4755762 51.0461347,27.5374639 51.0681761,27.6219995 L51.1624802,28.1092013 L51.1784353,28.178201 C51.1884594,28.2156189 51.2005051,28.2520772 51.2144345,28.2874602 L48.7853973,28.2877221 C48.8077926,28.2308729 48.825322,28.1712471 48.8374141,28.1093264 L48.9361762,27.602516 L48.9468842,27.5741773 C48.9784548,27.509677 49.0544604,27.4583563 49.1399664,27.4583563 L50.8599523,27.4583563 Z M58,19 C59.1045695,19 60,19.8954305 60,21 L60,41 C60,42.1045695 59.1045695,43 58,43 L40,43 L40,19 L58,19 Z" id="Combined-Shape" fill-opacity="0.403408024" fill="#95A1AC"></path>
        <path d="M37.652439,18 L37.652439,42 L2,42 C0.8954305,42 -1.64108609e-15,41.1045695 0,40 L0,20 C-1.3527075e-16,18.8954305 0.8954305,18 2,18 L37.652439,18 Z M32.7906504,31 L7.75813008,31 C7.20584533,31 6.75813008,31.4477153 6.75813008,32 L6.75813008,34 C6.75813008,34.5522847 7.20584533,35 7.75813008,35 L32.7906504,35 C33.3429352,35 33.7906504,34.5522847 33.7906504,34 L33.7906504,32 C33.7906504,31.4477153 33.3429352,31 32.7906504,31 Z M21.2052846,25 L7.75813008,25 C7.20584533,25 6.75813008,25.4477153 6.75813008,26 L6.75813008,28 C6.75813008,28.5522847 7.20584533,29 7.75813008,29 L21.2052846,29 C21.7575693,29 22.2052846,28.5522847 22.2052846,28 L22.2052846,26 C22.2052846,25.4477153 21.7575693,25 21.2052846,25 Z" id="Combined-Shape" fill="#95A1AC"></path>
    </g>
</svg>