<?xml version="1.0" encoding="UTF-8"?>
<svg width="60px" height="60px" viewBox="0 0 60 60" version="1.1" xmlns="http://www.w3.org/2000/svg" xmlns:xlink="http://www.w3.org/1999/xlink">
    <title>UI Icons/Sidebar Icons/SVG /textfield</title>
    <g id="UI-Icons/Sidebar-Icons/textfield" stroke="none" stroke-width="1" fill="none" fill-rule="evenodd">
        <path d="M29.8364681,10.0805327 C30.7020954,10.0805327 31.403825,10.7810974 31.403825,11.6452878 C31.403825,12.4374623 30.8141772,13.0921458 30.0491492,13.1957585 L29.8364681,13.2100429 L22.0226718,13.2100429 C16.7531073,13.2100429 13.3398718,16.699888 13.1436517,22.1193955 L13.1347137,22.6173505 L13.1347137,39.9631822 C13.1347137,45.5056771 16.3819701,49.1512857 21.5478024,49.3609387 L22.0226718,49.3704898 L40.4631475,49.3704898 C45.7458213,49.3704898 49.1486873,45.8881447 49.3442861,40.461799 L49.3531955,39.9631822 L49.3531955,31.5594042 C49.3531955,30.6952139 50.054925,29.9946492 50.9205523,29.9946492 C51.714044,29.9946492 52.369816,30.5833181 52.473601,31.3470762 L52.4879091,31.5594042 L52.4879091,39.9631822 C52.4879091,47.1862892 47.9048533,52.2649433 40.9520443,52.4920603 L40.4631475,52.5 L22.0226718,52.5 C14.9625289,52.5 10.2193594,47.5851665 10.0074076,40.4635833 L10,39.9631822 L10,22.6173505 C10,15.4012996 14.5947899,10.3159101 21.5347144,10.0884834 L22.0226718,10.0805327 L29.8364681,10.0805327 Z M38.7776223,11.912934 C41.335189,9.36235533 45.4801881,9.36235533 48.0377547,11.912934 L50.5816481,14.4526043 C53.1394506,17.0061609 53.1394506,21.1477412 50.5816481,23.6985547 L34.8892715,39.3648827 C33.7444913,40.5077625 32.1921334,41.1501011 30.5731258,41.1501011 L22.7447009,41.1501011 C21.863816,41.1501011 21.1559296,40.4255971 21.1778285,39.5464462 L21.3742827,31.6595926 C21.413677,30.097677 22.0526938,28.6100995 23.1598831,27.5047481 Z M37.491,17.622 L25.3764604,29.717646 C24.8379541,30.2552583 24.5271619,30.9787565 24.5080154,31.7378803 L24.3500923,38.0187132 L30.5731258,38.0205909 C31.2620854,38.0205909 31.9263318,37.7813723 32.4548299,37.3489857 L32.6726942,37.1519848 L44.863,24.981 L37.491,17.622 Z M45.8223688,14.1270206 C44.4887109,12.7970067 42.3266661,12.7970067 40.9936039,14.1264263 L39.708,15.409 L47.08,22.768 L48.3656665,21.4850625 C49.650892,20.2033486 49.6967929,18.1498784 48.5028351,16.8112244 L48.3650708,16.6655022 Z" id="Edit-Square" fill="#95A1AC"></path>
    </g>
</svg>