<?xml version="1.0" encoding="UTF-8"?>
<svg width="60px" height="60px" viewBox="0 0 60 60" version="1.1" xmlns="http://www.w3.org/2000/svg" xmlns:xlink="http://www.w3.org/1999/xlink">
    <title>UI Icons/Sidebar Icons/SVG /timerWidget</title>
    <g id="UI-Icons/Sidebar-Icons/timerWidget" stroke="none" stroke-width="1" fill="none" fill-rule="evenodd">
        <path d="M46,18.7131148 C50.418278,18.7131148 54,22.2948368 54,26.7131148 L54,42.7131148 C54,47.1313928 50.418278,50.7131148 46,50.7131148 L14,50.7131148 C9.581722,50.7131148 6,47.1313928 6,42.7131148 L6,26.7131148 C6,22.2948368 9.581722,18.7131148 14,18.7131148 L46,18.7131148 Z M46,21.7131148 L14,21.7131148 C11.3112453,21.7131148 9.11818189,23.8354215 9.00461951,26.4962251 L9,26.7131148 L9,42.7131148 C9,45.4018695 11.1223067,47.5949329 13.7831104,47.7084952 L14,47.7131148 L46,47.7131148 C48.6887547,47.7131148 50.8818181,45.590808 50.9953805,42.9300044 L51,42.7131148 L51,26.7131148 C51,24.0243601 48.8776933,21.8312966 46.2168896,21.7177343 L46,21.7131148 Z M17.0647059,27.7131148 C17.8411765,27.7131148 18.5411765,27.8748795 19.1647059,28.1984089 C19.7882353,28.5219383 20.3205882,28.9660559 20.7617647,29.5307618 C21.2029412,30.0954677 21.5411765,30.7631148 21.7764706,31.533703 C22.0117647,32.3042912 22.1294118,33.1366442 22.1294118,34.0307618 C22.1294118,34.9248795 22.0117647,35.7572324 21.7764706,36.5278206 C21.5411765,37.2984089 21.2029412,37.9660559 20.7617647,38.5307618 C20.3205882,39.0954677 19.7882353,39.5395853 19.1647059,39.8631148 C18.5411765,40.1866442 17.8411765,40.3484089 17.0647059,40.3484089 C16.2882353,40.3484089 15.5882353,40.1866442 14.9647059,39.8631148 C14.3411765,39.5395853 13.8088235,39.0954677 13.3676471,38.5307618 C12.9264706,37.9660559 12.5882353,37.2984089 12.3529412,36.5278206 C12.1176471,35.7572324 12,34.9248795 12,34.0307618 C12,33.1366442 12.1176471,32.3042912 12.3529412,31.533703 C12.5882353,30.7631148 12.9264706,30.0954677 13.3676471,29.5307618 C13.8088235,28.9660559 14.3411765,28.5219383 14.9647059,28.1984089 C15.5882353,27.8748795 16.2882353,27.7131148 17.0647059,27.7131148 Z M33.4941176,27.7131148 C34.2705882,27.7131148 34.9705882,27.8748795 35.5941176,28.1984089 C36.2176471,28.5219383 36.75,28.9660559 37.1911765,29.5307618 C37.6323529,30.0954677 37.9705882,30.7631148 38.2058824,31.533703 C38.4411765,32.3042912 38.5588235,33.1366442 38.5588235,34.0307618 C38.5588235,34.9248795 38.4411765,35.7572324 38.2058824,36.5278206 C37.9705882,37.2984089 37.6323529,37.9660559 37.1911765,38.5307618 C36.75,39.0954677 36.2176471,39.5395853 35.5941176,39.8631148 C34.9705882,40.1866442 34.2705882,40.3484089 33.4941176,40.3484089 C32.7176471,40.3484089 32.0176471,40.1866442 31.3941176,39.8631148 C30.7705882,39.5395853 30.2382353,39.0954677 29.7970588,38.5307618 C29.3558824,37.9660559 29.0176471,37.2984089 28.7823529,36.5278206 C28.5470588,35.7572324 28.4294118,34.9248795 28.4294118,34.0307618 C28.4294118,33.1366442 28.5470588,32.3042912 28.7823529,31.533703 C29.0176471,30.7631148 29.3558824,30.0954677 29.7970588,29.5307618 C30.2382353,28.9660559 30.7705882,28.5219383 31.3941176,28.1984089 C32.0176471,27.8748795 32.7176471,27.7131148 33.4941176,27.7131148 Z M43.8352941,27.7131148 C44.4470588,27.7131148 45,27.8042912 45.4941176,27.9866442 C45.9882353,28.1689971 46.4058824,28.4189971 46.7470588,28.7366442 C47.0882353,29.0542912 47.3529412,29.4278206 47.5411765,29.8572324 C47.7294118,30.2866442 47.8235294,30.7484089 47.8235294,31.2425265 C47.8235294,31.9954677 47.6382353,32.6866442 47.2676471,33.3160559 C46.8970588,33.9454677 46.4470588,34.5307618 45.9176471,35.0719383 L44.4,36.5895853 C44,36.9895853 43.5470588,37.4366442 43.0411765,37.9307618 L43.1117647,38.0366442 L48,38.0366442 L48,40.0660559 L39.9705882,40.0660559 L39.9705882,37.9660559 C40.6647059,37.283703 41.3058824,36.6484089 41.8941176,36.0601736 C42.1411765,35.8131148 42.3941176,35.5601736 42.6529412,35.30135 C42.9117647,35.0425265 43.1529412,34.80135 43.3764706,34.5778206 C43.6,34.3542912 43.8,34.15135 43.9764706,33.9689971 C44.1529412,33.7866442 44.2882353,33.6425265 44.3823529,33.5366442 C44.5705882,33.3131148 44.7382353,33.1131148 44.8852941,32.9366442 C45.0323529,32.7601736 45.15,32.5866442 45.2382353,32.4160559 C45.3264706,32.2454677 45.3941176,32.0748795 45.4411765,31.9042912 C45.4882353,31.733703 45.5117647,31.5484089 45.5117647,31.3484089 C45.5117647,30.9601736 45.3588235,30.6219383 45.0529412,30.333703 C44.7470588,30.0454677 44.3294118,29.90135 43.8,29.90135 C43.2705882,29.90135 42.8588235,30.05135 42.5647059,30.35135 C42.2705882,30.65135 42.0705882,30.9895853 41.9647059,31.3660559 L39.8647059,30.50135 C39.9588235,30.183703 40.1117647,29.8572324 40.3235294,29.5219383 C40.5352941,29.1866442 40.8058824,28.8866442 41.1352941,28.6219383 C41.4647059,28.3572324 41.8558824,28.1395853 42.3088235,27.9689971 C42.7617647,27.7984089 43.2705882,27.7131148 43.8352941,27.7131148 Z M25.2882353,35.8584929 C25.7117647,35.8584929 26.0705882,36.0055517 26.3647059,36.2996694 C26.6588235,36.593787 26.8058824,36.9526106 26.8058824,37.37614 C26.8058824,37.7996694 26.6588235,38.1614341 26.3647059,38.4614341 C26.0705882,38.7614341 25.7117647,38.9114341 25.2882353,38.9114341 C24.8647059,38.9114341 24.5029412,38.7614341 24.2029412,38.4614341 C23.9029412,38.1614341 23.7529412,37.7996694 23.7529412,37.37614 C23.7529412,36.9526106 23.9029412,36.593787 24.2029412,36.2996694 C24.5029412,36.0055517 24.8647059,35.8584929 25.2882353,35.8584929 Z M17.0647059,29.90135 C16.6294118,29.90135 16.2411765,30.0042912 15.9,30.2101736 C15.5588235,30.4160559 15.2705882,30.7042912 15.0352941,31.0748795 C14.8,31.4454677 14.6205882,31.8807618 14.4970588,32.3807618 C14.3735294,32.8807618 14.3117647,33.4307618 14.3117647,34.0307618 C14.3117647,34.6189971 14.3735294,35.1660559 14.4970588,35.6719383 C14.6205882,36.1778206 14.8,36.6160559 15.0352941,36.9866442 C15.2705882,37.3572324 15.5588235,37.6454677 15.9,37.85135 C16.2411765,38.0572324 16.6294118,38.1601736 17.0647059,38.1601736 C17.4882353,38.1601736 17.8705882,38.0572324 18.2117647,37.85135 C18.5529412,37.6454677 18.8441176,37.3572324 19.0852941,36.9866442 C19.3264706,36.6160559 19.5088235,36.1778206 19.6323529,35.6719383 C19.7558824,35.1660559 19.8176471,34.6189971 19.8176471,34.0307618 C19.8176471,33.4307618 19.7558824,32.8807618 19.6323529,32.3807618 C19.5088235,31.8807618 19.3264706,31.4454677 19.0852941,31.0748795 C18.8441176,30.7042912 18.5529412,30.4160559 18.2117647,30.2101736 C17.8705882,30.0042912 17.4882353,29.90135 17.0647059,29.90135 Z M33.4941176,29.90135 C33.0588235,29.90135 32.6705882,30.0042912 32.3294118,30.2101736 C31.9882353,30.4160559 31.7,30.7042912 31.4647059,31.0748795 C31.2294118,31.4454677 31.05,31.8807618 30.9264706,32.3807618 C30.8029412,32.8807618 30.7411765,33.4307618 30.7411765,34.0307618 C30.7411765,34.6189971 30.8029412,35.1660559 30.9264706,35.6719383 C31.05,36.1778206 31.2294118,36.6160559 31.4647059,36.9866442 C31.7,37.3572324 31.9882353,37.6454677 32.3294118,37.85135 C32.6705882,38.0572324 33.0588235,38.1601736 33.4941176,38.1601736 C33.9176471,38.1601736 34.3,38.0572324 34.6411765,37.85135 C34.9823529,37.6454677 35.2735294,37.3572324 35.5147059,36.9866442 C35.7558824,36.6160559 35.9382353,36.1778206 36.0617647,35.6719383 C36.1852941,35.1660559 36.2470588,34.6189971 36.2470588,34.0307618 C36.2470588,33.4307618 36.1852941,32.8807618 36.0617647,32.3807618 C35.9382353,31.8807618 35.7558824,31.4454677 35.5147059,31.0748795 C35.2735294,30.7042912 34.9823529,30.4160559 34.6411765,30.2101736 C34.3,30.0042912 33.9176471,29.90135 33.4941176,29.90135 Z M25.2882353,29.9290811 C25.7117647,29.9290811 26.0705882,30.0790811 26.3647059,30.3790811 C26.6588235,30.6790811 26.8058824,31.0408458 26.8058824,31.4643753 C26.8058824,31.8879047 26.6588235,32.2496694 26.3647059,32.5496694 C26.0705882,32.8496694 25.7117647,32.9996694 25.2882353,32.9996694 C24.8647059,32.9996694 24.5029412,32.8496694 24.2029412,32.5496694 C23.9029412,32.2496694 23.7529412,31.8879047 23.7529412,31.4643753 C23.7529412,31.0408458 23.9029412,30.6790811 24.2029412,30.3790811 C24.5029412,30.0790811 24.8647059,29.9290811 25.2882353,29.9290811 Z M36.5901639,9 C37.4185911,9 38.0901639,9.67157288 38.0901639,10.5 C38.0901639,11.2796961 37.4952759,11.9204487 36.7346239,11.9931334 L36.5901639,12 L31.795,12 L31.795082,15.2213115 C31.795082,16.0497386 31.1235091,16.7213115 30.295082,16.7213115 C29.5153858,16.7213115 28.8746333,16.1264234 28.8019485,15.3657715 L28.795082,15.2213115 L28.795,12 L24,12 C23.1715729,12 22.5,11.3284271 22.5,10.5 C22.5,9.72030388 23.0948881,9.07955132 23.85554,9.00686658 L24,9 L36.5901639,9 Z" id="Combined-Shape" fill="#95A1AC" fill-rule="nonzero"></path>
    </g>
</svg>