<?xml version="1.0" encoding="UTF-8"?>
<svg width="60px" height="60px" viewBox="0 0 60 60" version="1.1" xmlns="http://www.w3.org/2000/svg" xmlns:xlink="http://www.w3.org/1999/xlink">
    <title>UI Icons/Sidebar Icons/SVG /toggleSwitchList</title>
    <g id="UI-Icons/Sidebar-Icons/toggleSwitchList" stroke="none" stroke-width="1" fill="none" fill-rule="evenodd">
        <path d="M53,17 C55.209139,17 57,18.790861 57,21 L57,39 C57,41.209139 55.209139,43 53,43 L7,43 C4.790861,43 3,41.209139 3,39 L3,21 C3,18.790861 4.790861,17 7,17 L53,17 Z M53,19 L7,19 C5.8954305,19 5,19.8954305 5,21 L5,39 C5,40.1045695 5.8954305,41 7,41 L53,41 C54.1045695,41 55,40.1045695 55,39 L55,21 C55,19.8954305 54.1045695,19 53,19 Z M45.4285714,24 C48.7422799,24 51.4285714,26.6862915 51.4285714,30 C51.4285714,33.3137085 48.7422799,36 45.4285714,36 L36,36 C32.6862915,36 30,33.3137085 30,30 C30,26.6862915 32.6862915,24 36,24 L45.4285714,24 Z M45.4285714,25.2857143 L36,25.2857143 C33.3963719,25.2857143 31.2857143,27.3963719 31.2857143,30 C31.2857143,32.6036281 33.3963719,34.7142857 36,34.7142857 L45.4285714,34.7142857 C48.0321995,34.7142857 50.1428571,32.6036281 50.1428571,30 C50.1428571,27.3963719 48.0321995,25.2857143 45.4285714,25.2857143 Z M23,26 C24.1045695,26 25,26.8954305 25,28 L25,32 C25,33.1045695 24.1045695,34 23,34 L10,34 C8.8954305,34 8,33.1045695 8,32 L8,28 C8,26.8954305 8.8954305,26 10,26 L23,26 Z M45.5714286,26.4285714 C47.5438742,26.4285714 49.1428573,28.0275545 49.1428573,30.0000001 C49.1428573,31.9724456 47.5438742,33.5714287 45.5714286,33.5714287 C43.5989831,33.5714287 42,31.9724456 42,30.0000001 C42,28.0275545 43.5989831,26.4285714 45.5714286,26.4285714 Z" id="Combined-Shape" fill="#95A1AC"></path>
    </g>
</svg>