<?xml version="1.0" encoding="UTF-8"?>
<svg width="60px" height="60px" viewBox="0 0 60 60" version="1.1" xmlns="http://www.w3.org/2000/svg" xmlns:xlink="http://www.w3.org/1999/xlink">
    <title>UI Icons/Sidebar Icons/SVG /toggleSwitch</title>
    <g id="UI-Icons/Sidebar-Icons/toggleSwitch" stroke="none" stroke-width="1" fill="none" fill-rule="evenodd">
        <path d="M41,17 C48.7319865,17 55,23.2680135 55,31 C55,38.7319865 48.7319865,45 41,45 L19,45 C11.2680135,45 5,38.7319865 5,31 C5,23.2680135 11.2680135,17 19,17 L41,17 Z M41,20 L19,20 C12.9248678,20 8,24.9248678 8,31 C8,37.0751322 12.9248678,42 19,42 L41,42 C47.0751322,42 52,37.0751322 52,31 C52,24.9248678 47.0751322,20 41,20 Z M41.3333335,22.6666667 C45.9357065,22.6666667 49.666667,26.3976272 49.666667,31.0000002 C49.666667,35.6023732 45.9357065,39.3333337 41.3333335,39.3333337 C36.7309605,39.3333337 33,35.6023732 33,31.0000002 C33,26.3976272 36.7309605,22.6666667 41.3333335,22.6666667 Z" id="Combined-Shape" fill="#95A1AC"></path>
    </g>
</svg>