<?xml version="1.0" encoding="UTF-8"?>
<svg width="60px" height="60px" viewBox="0 0 60 60" version="1.1" xmlns="http://www.w3.org/2000/svg" xmlns:xlink="http://www.w3.org/1999/xlink">
    <title>UI Icons/Sidebar Icons/SVG /wrapWidget</title>
    <g id="UI-Icons/Sidebar-Icons/wrapWidget" stroke="none" stroke-width="1" fill="none" fill-rule="evenodd">
        <path d="M49.0764617,14 L39.1604953,14 C38.0466437,14 37.1436886,14.9029551 37.1436886,16.0168067 C37.1436886,17.1306583 38.0466437,18.0336134 39.1604953,18.0336134 L49.5806634,18.0336134 L49.5806634,18.0336134 C51.7991508,18.0336134 53.6142768,19.8487395 53.6142768,22.0672269 C53.6142768,24.2857143 51.7991508,26.1008403 49.5806634,26.1008403 L45.0428483,26.1008403 L45.0428483,24.4814405 C45.0428483,23.9291557 44.595133,23.4814405 44.0428483,23.4814405 C43.7776318,23.4814405 43.5232779,23.5867973 43.3357415,23.7743337 L38.9924281,28.1176471 L38.9924281,28.1176471 L43.3357415,32.4609604 C43.7262658,32.8514847 44.3594308,32.8514847 44.7499551,32.4609604 C44.9374914,32.2734241 45.0428483,32.0190702 45.0428483,31.7538537 L45.0428483,30.1344538 L45.0428483,30.1344538 L49.0764617,30.1344538 C53.5336046,30.1344538 57.1436886,26.5243697 57.1436886,22.0672269 C57.1436886,17.610084 53.5336046,14 49.0764617,14 Z M20.9530738,38.1436886 C22.0576433,38.1436886 22.9530738,39.0391191 22.9530738,40.1436886 L22.9530738,46.6202255 C22.9530738,47.724795 22.0576433,48.6202255 20.9530738,48.6202255 L4,48.6202255 C2.8954305,48.6202255 2,47.724795 2,46.6202255 L2,40.1436886 C2,39.0391191 2.8954305,38.1436886 4,38.1436886 L20.9530738,38.1436886 Z M19.953,41.1428483 L4.999,41.1428483 L4.999,45.6198483 L19.953,45.6198483 L19.953,41.1428483 Z M32,13 C33.1045695,13 34,13.8954305 34,15 L34,31.9530738 C34,33.0576433 33.1045695,33.9530738 32,33.9530738 L4,33.9530738 C2.8954305,33.9530738 2,33.0576433 2,31.9530738 L2,15 C2,13.8954305 2.8954305,13 4,13 L32,13 Z M31,15.9998483 L5,15.9998483 L5,30.9528483 L31,30.9528483 L31,15.9998483 Z M52.1436886,38.1436886 C53.2482581,38.1436886 54.1436886,39.0391191 54.1436886,40.1436886 L54.1436886,46.6202255 C54.1436886,47.724795 53.2482581,48.6202255 52.1436886,48.6202255 L29.1436886,48.6202255 C28.0391191,48.6202255 27.1436886,47.724795 27.1436886,46.6202255 L27.1436886,40.1436886 C27.1436886,39.0391191 28.0391191,38.1436886 29.1436886,38.1436886 L52.1436886,38.1436886 Z M51.143,41.1428483 L30.143,41.1428483 L30.143,45.6198483 L51.143,45.6198483 L51.143,41.1428483 Z" id="Combined-Shape" fill="#95A1AC"></path>
    </g>
</svg>